<?xml version="1.0" encoding="UTF-8"?>
<svg width="50px" height="50px" viewBox="0 0 50 50" version="1.1" xmlns="http://www.w3.org/2000/svg" xmlns:xlink="http://www.w3.org/1999/xlink">
    <!-- Generator: Sketch 48.2 (47327) - http://www.bohemiancoding.com/sketch -->
    <title>picture (1)</title>
    <desc>Created with Sketch.</desc>
    <defs></defs>
    <g id="report-content-modify" stroke="none" stroke-width="1" fill="none" fill-rule="evenodd" transform="translate(-769.000000, -841.000000)">
        <g id="picture-(1)" transform="translate(769.000000, 841.000000)" fill="#000000" fill-rule="nonzero">
            <path d="M24.9991667,0.000166666667 C11.1926667,0.000166666667 0,11.1933333 0,24.9998333 C0,38.8063333 11.1926667,49.9993333 24.9991667,49.9993333 C38.8056667,49.9993333 49.9996667,38.8058333 49.9996667,24.9998333 C49.9995,11.1928333 38.8056667,0.000166666667 24.9991667,0.000166666667 Z M11.7916667,37.8073333 C11.1281667,37.8073333 10.5908333,37.2705 10.5908333,36.607 L10.5908333,13.3921667 C10.5908333,12.729 11.1281667,12.1918333 11.7916667,12.1918333 L38.2078333,12.1918333 C38.8713333,12.1918333 39.4086667,12.7291667 39.4086667,13.3921667 L39.4086667,26.239 L37.6095,26.239 L36.585,26.239 L36.585,14.9723333 L13.3871667,14.9723333 L13.3871667,30.4768333 L14.712,30.4768333 L20.0651667,22.129 L23.6426667,27.707 L25.4193333,30.477 L26.9595,30.477 L24.4126667,26.5058333 L26.0725,23.9175 L30.2793333,30.4766667 L31.9755,30.4766667 L31.9755,31.8725 L31.9755,34.6078333 L31.9755,36.3368333 L33.7045,36.3368333 L35.88,36.3368333 L35.88,37.8075 L11.7916667,37.8075 L11.7916667,37.8073333 Z M34.544,20.1736667 C34.544,21.5456667 33.4313333,22.6583333 32.0593333,22.6583333 C30.6873333,22.6583333 29.5746667,21.5456667 29.5746667,20.1736667 C29.5746667,18.8016667 30.6873333,17.689 32.0593333,17.689 C33.4313333,17.689 34.544,18.8021667 34.544,20.1736667 Z M40.3445,34.6076667 L40.3445,38.5115 L37.61,38.5115 L37.61,37.8073333 L37.61,34.6076667 L33.7053333,34.6076667 L33.7053333,31.8723333 L37.61,31.8723333 L37.61,27.9685 L39.4091667,27.9685 L40.3446667,27.9685 L40.3446667,31.8723333 L44.2488333,31.8723333 L44.2488333,34.6076667 L40.3445,34.6076667 Z" id="Shape"></path>
        </g>
    </g>
</svg>