<?xml version="1.0" encoding="UTF-8"?>
<svg width="299px" height="299px" viewBox="0 0 299 299" version="1.1" xmlns="http://www.w3.org/2000/svg" xmlns:xlink="http://www.w3.org/1999/xlink">
    <!-- Generator: Sketch 48.2 (47327) - http://www.bohemiancoding.com/sketch -->
    <title>Group 5</title>
    <desc>Created with Sketch.</desc>
    <defs></defs>
    <g id="report-content-piping" stroke="none" stroke-width="1" fill="none" fill-rule="evenodd" transform="translate(-1075.000000, -563.000000)">
        <g id="Group-5" transform="translate(1075.000000, 563.000000)">
            <g id="Group-4">
                <circle id="Oval" fill="#F6F6F6" cx="149.5" cy="149.5" r="126.5"></circle>
                <circle id="Oval" fill="#F6F6F6" opacity="0.366338315" cx="149.5" cy="149.5" r="149.5"></circle>
                <circle id="Oval" fill="#EEEEEE" cx="150" cy="150" r="107"></circle>
                <polygon id="Fill-138" fill="#231F20" points="176 127 179 127 179 125 176 125"></polygon>
                <g id="Group-3" opacity="0.702785326" transform="translate(34.000000, 41.000000)">
                    <polyline id="Fill-54" fill="#1B97E0" points="148.005596 50.2346259 148.005596 156.873135 49.0450176 156.873135 49.0450176 26.3472677 124.118756 26.3472677 148.005596 50.2346259"></polyline>
                    <polygon id="Fill-55" fill="#FCBF47" points="74 38 87 38 87 36 74 36"></polygon>
                    <polygon id="Fill-56" fill="#FCBF47" points="74 42 100 42 100 40 74 40"></polygon>
                    <polyline id="Fill-57" fill="#FFB348" points="123.437303 50.8941278 147.807742 50.8941278 123.437303 26.3472677 123.437303 50.8941278"></polyline>
                    <path d="M123.848486,26.8519168 L123.848486,25.5723481 L48.774747,25.5723481 C48.4379911,25.5723481 48.1079807,25.7088146 47.8698128,25.9469825 C47.6316449,26.1856693 47.4951783,26.5151609 47.4951783,26.8519168 L47.4951783,157.377784 C47.4951783,157.71454 47.6316449,158.044551 47.8698128,158.282719 C48.1079807,158.520886 48.4379911,158.657353 48.774747,158.657353 L147.735325,158.657353 C148.072081,158.657353 148.402092,158.520886 148.640259,158.282719 C148.878427,158.044551 149.014894,157.71454 149.014894,157.377784 L149.014894,50.739275 C149.014894,50.4020002 148.878427,50.0725086 148.640259,49.8343407 L124.752901,25.9469825 C124.514733,25.7088146 124.185242,25.5723481 123.848486,25.5723481 L123.848486,26.8519168 L122.943552,27.756851 L146.455756,51.2690558 L146.455756,156.098216 L50.0543157,156.098216 L50.0543157,28.1314855 L123.848486,28.1314855 L123.848486,26.8519168 L122.943552,27.756851 L123.848486,26.8519168" id="Fill-58" fill="#231F20"></path>
                    <path d="M78,105 L78,103 L94,103 L94,105 L78,105 Z M0,109 L0,107 L4,107 L4,109 L0,109 Z" id="Fill-59" fill="#231F20"></path>
                    <polygon id="Fill-60" fill="#231F20" points="75 114 94 114 94 112 75 112"></polygon>
                    <polygon id="Fill-61" fill="#231F20" points="58 122 94 122 94 120 58 120"></polygon>
                    <polygon id="Fill-62" fill="#231F20" points="58 131 94 131 94 129 58 129"></polygon>
                    <polygon id="Fill-63" fill="#231F20" points="103 105 139 105 139 103 103 103"></polygon>
                    <polygon id="Fill-64" fill="#231F20" points="103 114 139 114 139 112 103 112"></polygon>
                    <polygon id="Fill-65" fill="#231F20" points="103 122 139 122 139 120 103 120"></polygon>
                    <polygon id="Fill-66" fill="#231F20" points="103 131 139 131 139 129 103 129"></polygon>
                    <polygon id="Fill-67" fill="#231F20" points="58 139 66 139 66 137 58 137"></polygon>
                    <polygon id="Fill-68" fill="#231F20" points="70 139 78 139 78 137 70 137"></polygon>
                    <polyline id="Fill-69" fill="#F1F2F2" points="110.263669 92.0802864 110.263669 198.718796 209.224766 198.718796 209.224766 68.1929282 134.151027 68.1929282 110.263669 92.0802864"></polyline>
                    <polyline id="Fill-70" fill="#FFFFFF" points="134.32641 92.4481753 110.263669 92.4481753 134.32641 68.1929282 134.32641 92.4481753"></polyline>
                    <path d="M134.655676,67.9226576 L134.655676,69.2027452 L208.449846,69.2027452 L208.449846,197.168956 L112.048406,197.168956 L112.048406,92.3397967 L135.560611,68.8275919 L134.655676,67.9226576 L134.655676,69.2027452 L134.655676,67.9226576 L133.750742,67.0177234 L109.863903,90.9050816 C109.625735,91.1432495 109.488749,91.472741 109.488749,91.8100158 L109.488749,198.448525 C109.488749,198.785281 109.625735,199.114773 109.863903,199.353459 C110.102071,199.591627 110.431562,199.728094 110.768318,199.728094 L209.729415,199.728094 C210.066171,199.728094 210.395663,199.591627 210.634349,199.353459 C210.872517,199.114773 211.008984,198.785281 211.008984,198.448525 L211.008984,67.9226576 C211.008984,67.5859017 210.872517,67.2564102 210.634349,67.0177234 C210.396181,66.7795555 210.066171,66.6430889 209.729415,66.6430889 L134.655676,66.6430889 C134.31892,66.6430889 133.98891,66.7795555 133.750742,67.0177234 L134.655676,67.9226576" id="Fill-71" fill="#231F20"></path>
                    <polygon id="Fill-72" fill="#DDDEDF" points="186 184 198 184 198 182 186 182"></polygon>
                    <polygon id="Fill-73" fill="#DDDEDF" points="173 189 199 189 199 187 173 187"></polygon>
                    <polyline id="Fill-74" fill="#F1F2F2" points="40.0891954 152.235875 40.0891954 144.135053 22.6977499 156.171612 40.0891954 168.210247 40.0891954 162.094677 122.591801 162.094677 122.591801 152.235875 40.0891954 152.235875"></polyline>
                    <polyline id="Fill-75" fill="#45A83A" points="218.191606 72.8169581 218.191606 80.6443279 235.583051 68.6077685 218.191606 56.5691336 218.191606 62.9581562 110.263669 62.9581562 110.263669 72.8169581 218.191606 72.8169581"></polyline>
                    <path d="M116.886242,161.960852 C116.886242,158.428287 114.028746,155.562489 110.48788,155.562489 C106.956353,155.562489 104.089517,158.428287 104.089517,161.960852 C104.089517,165.491341 106.956353,168.359214 110.48788,168.359214 C114.028746,168.359214 116.886242,165.491341 116.886242,161.960852 Z M135.799575,156.781867 L135.799575,168.725546 L130.322752,168.725546 C130.271382,168.725546 129.059787,170.926654 128.97469,171.079725 L133.701207,175.038812 L125.37519,183.296856 L120.47796,178.536611 C120.315549,178.621189 118.737622,179.789198 117.03153,179.849388 L117.03153,187.494111 L105.087851,187.494111 L105.087851,179.849388 C105.087851,179.789198 102.494467,178.722891 102.332056,178.637793 L97.9812113,183.501815 L89.7231675,175.438872 L94.4839311,171.079725 C94.3977963,170.926654 93.2292688,168.725546 93.1784181,168.725546 L85.4662406,168.725546 L85.4662406,156.781867 L93.1784181,156.781867 C93.2292688,155.075776 94.3474645,153.104534 94.4320426,152.943161 L89.6209473,147.507848 L97.776252,139.250323 L102.332056,144.010568 C102.494467,143.925471 105.087851,142.755906 105.087851,142.697272 L105.087851,137.160776 L117.03153,137.160776 L117.03153,142.697272 C118.737622,142.755906 120.315549,144.010568 120.47796,144.095665 L125.519958,139.411696 L133.777483,147.840972 L129.008937,152.943161 C129.094034,153.104534 130.271382,155.075776 130.322752,156.781867 L135.799575,156.781867 Z" id="Fill-76" fill="#D1D3D4"></path>
                    <path d="M109.687755,154.983928 C113.228621,154.983928 116.086117,157.849726 116.086117,161.38229 C116.086117,164.912779 113.228621,167.780653 109.687755,167.780653 C106.156228,167.780653 103.289392,164.912779 103.289392,161.38229 C103.289392,157.849726 106.156228,154.983928 109.687755,154.983928" id="Fill-77" fill="#F1F2F2"></path>
                    <path d="M54.8926712,96.0926824 C54.8926712,92.560118 52.0351753,89.69432 48.4943088,89.69432 C44.9627822,89.69432 42.0959464,92.560118 42.0959464,96.0926824 C42.0959464,99.6231713 44.9627822,102.491045 48.4943088,102.491045 C52.0351753,102.491045 54.8926712,99.6231713 54.8926712,96.0926824 Z M73.8060044,90.914217 L73.8060044,102.857377 L68.3291805,102.857377 C68.2772921,102.857377 67.0662161,105.058484 66.9811191,105.212074 L71.7076362,109.170643 L63.3810997,117.428686 L58.4843884,112.668442 C58.3219777,112.75302 56.7440505,113.921547 55.03744,113.981219 L55.03744,121.625942 L43.0942798,121.625942 L43.0942798,113.981219 C43.0942798,113.921547 40.5003771,112.854721 40.3379663,112.770143 L35.9876402,117.633646 L27.7295964,109.570702 L32.49036,105.212074 C32.4042252,105.058484 31.2356977,102.857377 31.184847,102.857377 L23.4726695,102.857377 L23.4726695,90.914217 L31.184847,90.914217 C31.2356977,89.2076065 32.3533745,87.236365 32.4384715,87.074992 L27.6273762,81.6396788 L35.7826809,73.3821539 L40.3379663,78.1423986 C40.5003771,78.0573015 43.0942798,76.8877363 43.0942798,76.8291024 L43.0942798,71.2926068 L55.03744,71.2926068 L55.03744,76.8291024 C56.7440505,76.8877363 58.3219777,78.1423986 58.4843884,78.2274956 L63.5263873,73.5435269 L71.7839122,81.9728025 L67.0153654,87.074992 C67.1004624,87.236365 68.2772921,89.2076065 68.3291805,90.914217 L73.8060044,90.914217 Z" id="Fill-79" fill="#D1D3D4"></path>
                    <path d="M48.4691033,89.8906781 C52.0099698,89.8906781 54.8674657,92.7564761 54.8674657,96.2890405 C54.8674657,99.8195294 52.0099698,102.687403 48.4691033,102.687403 C44.9375767,102.687403 42.0707408,99.8195294 42.0707408,96.2890405 C42.0707408,92.7564761 44.9375767,89.8906781 48.4691033,89.8906781" id="Fill-80" fill="#F1F2F2"></path>
                    <path d="M187.798181,35.2569829 L190.673838,37.7439954 L187.755633,40.50446 L189.514651,42.3636225 L193.460247,38.6312876 C193.722284,38.3832609 193.86809,38.0340518 193.859788,37.6729083 C193.852005,37.3122837 193.690632,36.9698201 193.417699,36.7337277 L189.472102,33.3215445 L187.798181,35.2569829" id="Fill-82" fill="#231F20"></path>
                    <polygon id="Fill-83" fill="#231F20" points="173 38 192 38 192 36 173 36"></polygon>
                    <path d="M179.869501,52.8268982 L176.993844,50.3398857 L179.91205,47.5794212 L178.153032,45.7202587 L174.207436,49.4525935 C173.945399,49.7006202 173.799593,50.0498294 173.807376,50.4109729 C173.815678,50.7715975 173.976532,51.1140611 174.249984,51.3501535 L178.19558,54.7628556 L179.869501,52.8268982" id="Fill-84" fill="#231F20"></path>
                    <polygon id="Fill-85" fill="#231F20" points="175 51 194 51 194 49 175 49"></polygon>
                    <path d="M70.785316,173.193198 L73.6609728,175.68021 L70.7427675,178.440675 L72.5017853,180.299837 L76.4473816,176.567502 C76.7094182,176.319475 76.8552247,175.970266 76.8474414,175.609123 C76.8391393,175.248498 76.6782851,174.906035 76.4048331,174.669942 L72.4592368,171.25724 L70.785316,173.193198" id="Fill-86" fill="#231F20"></path>
                    <polygon id="Fill-87" fill="#231F20" points="57 176 76 176 76 174 57 174"></polygon>
                    <path d="M62.0812371,191.537514 L59.2055802,189.050501 L62.1237856,186.290036 L60.3647678,184.430874 L56.4191714,188.163209 C56.1571349,188.411236 56.0113284,188.760445 56.0196305,189.121588 C56.0274138,189.482213 56.1887868,189.824676 56.46172,190.060769 L60.4073163,193.472952 L62.0812371,191.537514" id="Fill-88" fill="#231F20"></path>
                    <polygon id="Fill-89" fill="#231F20" points="58 190 77 190 77 188 58 188"></polygon>
                    <polygon id="Fill-90" fill="#231F20" points="151 42 155 42 155 40 151 40"></polygon>
                    <polygon id="Fill-91" fill="#231F20" points="158 42 161 42 161 40 158 40"></polygon>
                    <polygon id="Fill-92" fill="#231F20" points="165 42 168 42 168 40 165 40"></polygon>
                    <polygon id="Fill-93" fill="#231F20" points="198 47 201 47 201 45 198 45"></polygon>
                    <polygon id="Fill-94" fill="#231F20" points="205 47 209 47 209 45 205 45"></polygon>
                    <polygon id="Fill-95" fill="#231F20" points="212 47 216 47 216 45 212 45"></polygon>
                    <polygon id="Fill-96" fill="#231F20" points="78 197 82 197 82 195 78 195"></polygon>
                    <polygon id="Fill-97" fill="#231F20" points="85 197 89 197 89 195 85 195"></polygon>
                    <polygon id="Fill-98" fill="#231F20" points="91 197 95 197 95 195 91 195"></polygon>
                    <polygon id="Fill-99" fill="#231F20" points="34 183 38 183 38 181 34 181"></polygon>
                    <polygon id="Fill-100" fill="#231F20" points="41 183 45 183 45 181 41 181"></polygon>
                    <polygon id="Fill-101" fill="#231F20" points="47 183 51 183 51 181 47 181"></polygon>
                    <polygon id="Fill-102" fill="#231F20" points="119 104 155 104 155 102 119 102"></polygon>
                    <polygon id="Fill-103" fill="#231F20" points="119 113 155 113 155 111 119 111"></polygon>
                    <polygon id="Fill-104" fill="#231F20" points="119 121 155 121 155 119 119 119"></polygon>
                    <polygon id="Fill-105" fill="#231F20" points="119 129 155 129 155 127 119 127"></polygon>
                    <polygon id="Fill-106" fill="#231F20" points="164 104 200 104 200 102 164 102"></polygon>
                    <polygon id="Fill-107" fill="#231F20" points="164 113 200 113 200 111 164 111"></polygon>
                    <polygon id="Fill-108" fill="#231F20" points="164 121 200 121 200 119 164 119"></polygon>
                    <polygon id="Fill-109" fill="#231F20" points="164 129 200 129 200 127 164 127"></polygon>
                    <path d="M209.310852,147.234731 C217.79046,147.234731 224.666715,154.110986 224.666715,162.590594 C224.666715,171.069682 217.79046,177.946456 209.310852,177.946456 C200.831245,177.946456 193.95499,171.069682 193.95499,162.590594 C193.95499,154.110986 200.831245,147.234731 209.310852,147.234731" id="Fill-110" fill="#31C0D8"></path>
                    <path d="M209.161728,172.99869 C203.332063,172.99869 198.604508,168.271654 198.604508,162.441469 C198.604508,156.611285 203.332063,151.884249 209.161728,151.884249 C214.991393,151.884249 219.718948,156.611285 219.718948,162.441469 C219.718948,168.271654 214.991393,172.99869 209.161728,172.99869" id="Fill-111" fill="#ADE6EF"></path>
                    <path d="M224.396963,162.320842 L223.117394,162.320842 C223.116875,166.210918 221.543618,169.722208 218.993821,172.273562 C216.442466,174.823359 212.931695,176.396617 209.041101,176.397136 C205.150506,176.396617 201.639216,174.823359 199.087862,172.273562 C196.538583,169.722208 194.965326,166.210918 194.964807,162.320842 C194.965326,158.430247 196.538583,154.919476 199.087862,152.367603 C201.639216,149.818324 205.150506,148.245067 209.041101,148.244548 C212.931695,148.245067 216.442466,149.818324 218.993821,152.367603 C221.543618,154.919476 223.116875,158.430247 223.117394,162.320842 L225.676532,162.320842 C225.675494,153.133995 218.228466,145.68593 209.041101,145.684892 C199.853735,145.68593 192.406189,153.133995 192.405151,162.320842 C192.406189,171.507689 199.853735,178.955235 209.041101,178.956273 C218.228466,178.955235 225.675494,171.507689 225.676532,162.320842 L224.396963,162.320842" id="Fill-112" fill="#231F20"></path>
                    <path d="M201.704186,164.684989 L205.22326,168.204062 C205.461428,168.44223 205.790919,168.578697 206.128194,168.578697 C206.46495,168.578697 206.794442,168.44223 207.033128,168.204062 L218.443394,156.793796 L216.633526,154.983928 L206.128194,165.48926 L203.514055,162.87512 L201.704186,164.684989" id="Fill-113" fill="#231F20"></path>
                    <path d="M55.1018443,17.0482321 C63.5814517,17.0482321 70.4577066,23.9244869 70.4577066,32.4040944 C70.4577066,40.8837018 63.5814517,47.7599567 55.1018443,47.7599567 C46.6217179,47.7599567 39.7459819,40.8837018 39.7459819,32.4040944 C39.7459819,23.9244869 46.6217179,17.0482321 55.1018443,17.0482321" id="Fill-114" fill="#F4661E"></path>
                    <path d="M54.95272,43.5871099 C49.1230547,43.5871099 44.3954998,38.8600739 44.3954998,33.0298897 C44.3954998,27.1997056 49.1230547,22.4726695 54.95272,22.4726695 C60.7823852,22.4726695 65.5099402,27.1997056 65.5099402,33.0298897 C65.5099402,38.8600739 60.7823852,43.5871099 54.95272,43.5871099" id="Fill-115" fill="#FBC2A5"></path>
                    <path d="M70.1879549,32.9087434 L68.9083862,32.9087434 C68.9073484,36.799338 67.3346101,40.3101093 64.7848126,42.8619823 C62.2334584,45.4112609 58.7221683,46.9845182 54.8320926,46.985037 C50.941498,46.9845182 47.4302079,45.4112609 44.8788537,42.8619823 C42.3295751,40.3101093 40.7563178,36.799338 40.755799,32.9087434 C40.7563178,29.0186678 42.3295751,25.5073776 44.8788537,22.9560235 C47.4302079,20.406226 50.941498,18.8329687 54.8320926,18.8324498 C58.7221683,18.8329687 62.2334584,20.406226 64.7848126,22.9560235 C67.3346101,25.5073776 68.9073484,29.0186678 68.9083862,32.9087434 L71.4675236,32.9087434 C71.4664858,23.7218967 64.0189393,16.2743502 54.8320926,16.2733124 C45.6447269,16.2743502 38.1971804,23.7218967 38.1961427,32.9087434 C38.1971804,42.0955902 45.6447269,49.5436556 54.8320926,49.5446934 C64.0189393,49.5436556 71.4664858,42.0955902 71.4675236,32.9087434 L70.1879549,32.9087434" id="Fill-116" fill="#231F20"></path>
                    <path d="M46.7202587,35.2734092 L50.2393321,38.7924826 C50.4775,39.0306505 50.8069915,39.1676359 51.1442663,39.1676359 C51.4810222,39.1676359 51.8105138,39.0306505 52.0492006,38.7924826 L63.4594666,27.3822166 L61.6495981,25.5723481 L51.1442663,36.0781987 L48.5301272,33.4640596 L46.7202587,35.2734092" id="Fill-117" fill="#231F20"></path>
                    <polygon id="Fill-118" fill="#231F20" points="193 139 200 139 200 137 193 137"></polygon>
                    <polygon id="Fill-119" fill="#231F20" points="182 139 189 139 189 137 182 137"></polygon>
                    <polygon id="Fill-120" fill="#231F20" points="147 139 154 139 154 137 147 137"></polygon>
                    <polygon id="Fill-121" fill="#231F20" points="137 139 144 139 144 137 137 137"></polygon>
                    <path d="M227.07733,98.7034301 C227.07733,100.574527 225.56115,102.090707 223.690053,102.090707 C221.818957,102.090707 220.302258,100.574527 220.302258,98.7034301 C220.302258,96.8318144 221.818957,95.3151156 223.690053,95.3151156 C225.56115,95.3151156 227.07733,96.8318144 227.07733,98.7034301" id="Fill-122" fill="#31C0D8"></path>
                    <path d="M25.5977053,133.574814 C25.5977053,135.445911 24.0815253,136.962091 22.2104285,136.962091 C20.3393316,136.962091 18.8231517,135.445911 18.8231517,133.574814 C18.8231517,131.703198 20.3393316,130.186499 22.2104285,130.186499 C24.0815253,130.186499 25.5977053,131.703198 25.5977053,133.574814" id="Fill-123" fill="#FFD248"></path>
                    <path d="M172.832437,21.2114662 C172.832437,23.0825631 171.316257,24.598743 169.44516,24.598743 C167.574063,24.598743 166.057883,23.0825631 166.057883,21.2114662 C166.057883,19.3403694 167.574063,17.8231517 169.44516,17.8231517 C171.316257,17.8231517 172.832437,19.3403694 172.832437,21.2114662" id="Fill-124" fill="#F4661E"></path>
                    <path d="M106.964786,15.0121091 C106.964786,16.883206 105.448606,18.3993859 103.577509,18.3993859 C101.705894,18.3993859 100.189714,16.883206 100.189714,15.0121091 C100.189714,13.1410123 101.705894,11.6237946 103.577509,11.6237946 C105.448606,11.6237946 106.964786,13.1410123 106.964786,15.0121091" id="Fill-125" fill="#31C0D8"></path>
                    <path d="M17.8490278,74.6809213 C17.8490278,76.5520181 16.3328478,78.068717 14.461751,78.068717 C12.5906541,78.068717 11.0739553,76.5520181 11.0739553,74.6809213 C11.0739553,72.8098245 12.5906541,71.2926068 14.461751,71.2926068 C16.3328478,71.2926068 17.8490278,72.8098245 17.8490278,74.6809213" id="Fill-126" fill="#F4661E"></path>
                    <polygon id="Fill-127" fill="#231F20" points="138 17 140 17 140 14 138 14"></polygon>
                    <polygon id="Fill-128" fill="#231F20" points="138 25 140 25 140 21 138 21"></polygon>
                    <polygon id="Fill-129" fill="#231F20" points="134 21 138 21 138 19 134 19"></polygon>
                    <polygon id="Fill-130" fill="#231F20" points="141 21 145 21 145 19 141 19"></polygon>
                    <polygon id="Fill-131" fill="#231F20" points="195 15 197 15 197 12 195 12"></polygon>
                    <polygon id="Fill-132" fill="#231F20" points="195 23 197 23 197 19 195 19"></polygon>
                    <polygon id="Fill-133" fill="#231F20" points="190 17 194 17 194 15 190 15"></polygon>
                    <polygon id="Fill-134" fill="#231F20" points="198 17 201 17 201 15 198 15"></polygon>
                    <polygon id="Fill-135" fill="#231F20" points="233 118 235 118 235 115 233 115"></polygon>
                    <polygon id="Fill-136" fill="#231F20" points="233 126 235 126 235 122 233 122"></polygon>
                    <polygon id="Fill-137" fill="#231F20" points="229 121 233 121 233 119 229 119"></polygon>
                    <polygon id="Fill-139" fill="#231F20" points="5 106 7 106 7 103 5 103"></polygon>
                    <polygon id="Fill-140" fill="#231F20" points="5 114 7 114 7 110 5 110"></polygon>
                    <polygon id="Fill-142" fill="#231F20" points="9 109 12 109 12 107 9 107"></polygon>
                    <polygon id="Fill-143" fill="#231F20" points="27 45 29 45 29 41 27 41"></polygon>
                    <polygon id="Fill-144" fill="#231F20" points="27 52 29 52 29 49 27 49"></polygon>
                    <polygon id="Fill-145" fill="#231F20" points="22 48 26 48 26 46 22 46"></polygon>
                    <polygon id="Fill-146" fill="#231F20" points="30 48 33 48 33 46 30 46"></polygon>
                    <polygon id="Fill-147" fill="#231F20" points="78 3 80 3 80 0 78 0"></polygon>
                    <polygon id="Fill-148" fill="#231F20" points="78 10 80 10 80 6 78 6"></polygon>
                    <polygon id="Fill-149" fill="#231F20" points="74 6 77 6 77 4 74 4"></polygon>
                    <polygon id="Fill-150" fill="#231F20" points="82 6 85 6 85 4 82 4"></polygon>
                    <path d="M97.1325837,56.1798132 L100.008241,58.6668257 L97.0900352,61.4272902 L98.849053,63.2864527 L102.794649,59.5541179 C103.056686,59.3060912 103.202492,58.956882 103.19419,58.5957385 C103.186407,58.2351139 103.025034,57.8926503 102.752101,57.6565579 L98.8065045,54.2443747 L97.1325837,56.1798132" id="Fill-151" fill="#231F20"></path>
                    <path d="M100,58 L81.2820513,58 C80.9446154,58 80.614359,58.1432308 80.3753846,58.3941538 C80.1369231,58.6445385 80,58.9913077 80,59.3461538 L80,65 L82.5641026,65 L82.5641026,60.6923077 L100,60.6923077 L100,58" id="Fill-152" fill="#231F20"></path>
                    <path d="M88.4289839,75.2995677 L85.553327,72.8125552 L88.4715324,70.0520907 L86.7125146,68.1929282 L82.7669183,71.9252631 C82.5048817,72.1732898 82.3590752,72.5224989 82.3668585,72.8836424 C82.3751606,73.244267 82.5360148,73.5867306 82.8094668,73.822823 L86.7550631,77.2355251 L88.4289839,75.2995677" id="Fill-153" fill="#231F20"></path>
                    <path d="M83,74 L101.717949,74 C102.055385,74 102.385641,73.8562308 102.624615,73.6053077 C102.863077,73.3549231 103,73.0081538 103,72.6538462 L103,67 L100.435897,67 L100.435897,71.3076923 L83,71.3076923 L83,74" id="Fill-154" fill="#231F20"></path>
                    <path d="M167.650271,154.594607 L170.525928,157.08162 L167.607722,159.842084 L169.36674,161.701247 L173.312336,157.968912 C173.574373,157.720885 173.720179,157.371676 173.712396,157.011052 C173.704094,156.649908 173.542721,156.307444 173.269788,156.071352 L169.324192,152.659169 L167.650271,154.594607" id="Fill-155" fill="#231F20"></path>
                    <path d="M172,156 L152.3125,156 C151.96705,156 151.62895,156.143231 151.3843,156.394154 C151.140175,156.644538 151,156.991308 151,157.346154 L151,163 L153.625,163 L153.625,158.692308 L172,158.692308 L172,156" id="Fill-156" fill="#231F20"></path>
                    <path d="M158.946671,172.939442 L156.071014,170.45243 L158.98922,167.692484 L157.230202,165.832803 L153.284605,169.565138 C153.022569,169.813683 152.876762,170.162373 152.884546,170.523517 C152.892848,170.88466 153.053702,171.226605 153.327154,171.462697 L157.27275,174.8754 L158.946671,172.939442" id="Fill-157" fill="#231F20"></path>
                    <path d="M154,172 L173.6875,172 C174.03295,172 174.37105,171.856231 174.6157,171.605308 C174.859825,171.354923 175,171.008154 175,170.653846 L175,165 L172.375,165 L172.375,169.307692 L154,169.307692 L154,172" id="Fill-158" fill="#231F20"></path>
                </g>
            </g>
        </g>
    </g>
</svg>