<?xml version="1.0" encoding="UTF-8"?>
<svg width="299px" height="299px" viewBox="0 0 299 299" version="1.1" xmlns="http://www.w3.org/2000/svg" xmlns:xlink="http://www.w3.org/1999/xlink">
    <!-- Generator: Sketch 48.2 (47327) - http://www.bohemiancoding.com/sketch -->
    <title>Group 4</title>
    <desc>Created with Sketch.</desc>
    <defs></defs>
    <g id="report-content-modify" stroke="none" stroke-width="1" fill="none" fill-rule="evenodd" transform="translate(-1075.000000, -563.000000)">
        <g id="Group-4" transform="translate(1075.000000, 563.000000)">
            <circle id="Oval" fill="#F6F6F6" cx="149.5" cy="149.5" r="126.5"></circle>
            <circle id="Oval" fill="#F6F6F6" opacity="0.366338315" cx="149.5" cy="149.5" r="149.5"></circle>
            <circle id="Oval" fill="#EEEEEE" cx="150" cy="150" r="107"></circle>
            <g id="Group-11" transform="translate(51.000000, 77.000000)">
                <polyline id="Fill-246" fill="#FBFBFB" points="180 24 180 114.303891 179.631943 114.670952 153.86568 114.670952 153.86568 140 7 140 7 24 180 24"></polyline>
                <polyline id="Fill-247" fill="#E6E7E8" points="180 114 167 127 179.63384 114 180 114"></polyline>
                <polyline id="Fill-248" fill="#F4661E" points="180 114 167.185472 126.5 154 139 154 114 180 114"></polyline>
                <path d="M179.529521,114.391067 L180.309036,115.175097 L180.676656,114.80556 C180.88238,114.599213 181,114.313743 181,114.02153 L181,23.1086119 C181,22.8168483 180.88238,22.5313784 180.676656,22.3245814 C180.471379,22.118234 180.18739,22 179.897141,22 L7.10285944,22 C6.8121625,22 6.52817396,22.118234 6.32289721,22.3245814 C6.11762045,22.5313784 6,22.8168483 6,23.1086119 L6,139.890939 C6,140.183152 6.11762045,140.468622 6.32289721,140.674969 C6.52817396,140.881766 6.8121625,141 7.10285944,141 L154.161518,141 C154.452215,141 154.736203,140.881316 154.94148,140.674969 L180.309036,115.175097 L179.529521,114.391067 L178.749559,113.607037 L153.381555,139.107358 L154.161518,139.890939 L154.161518,138.782327 L8.20571887,138.782327 L8.20571887,24.2172238 L178.793834,24.2172238 L178.793834,113.56253 L178.749559,113.607037 L179.529521,114.391067" id="Fill-249" fill="#231F20"></path>
                <polygon id="Fill-250" fill="#31C0D8" points="17 157 26 157 26 143 17 143"></polygon>
                <polyline id="Fill-251" fill="#F1F2F2" points="21.7996338 139 26 139 26 143 17 143 17 139 21.7996338 139"></polyline>
                <polyline id="Fill-252" fill="#E6E7E8" points="21.4997711 29 26 43 17 43 21.4997711 29"></polyline>
                <polygon id="Fill-253" fill="#45A83A" points="22 139 26 139 26 43 22 43"></polygon>
                <polygon id="Fill-254" fill="#45A83A" points="17 139 22 139 22 43 17 43"></polygon>
                <polygon id="Fill-255" fill="#231F20" points="17 139 19 139 19 43 17 43"></polygon>
                <polygon id="Fill-256" fill="#45A83A" points="25 139 27 139 27 43 25 43"></polygon>
                <polygon id="Fill-257" fill="#231F20" points="21 139 23 139 23 43 21 43"></polygon>
                <polygon id="Fill-257" fill="#231F20" points="25 139 27 139 27 43 25 43"></polygon>
                <path d="M28,143 L28,139.036047 C28,138.763381 27.8823553,138.496597 27.676589,138.303336 C27.47127,138.110495 27.187223,138 26.8969135,138 L18.1030865,138 C17.8123297,138 17.5282827,138.110495 17.3229637,138.303336 C17.1176447,138.496597 17,138.763381 17,139.036047 L17,143 L19.206173,143 L19.206173,140.072095 L25.7933797,140.072095 L25.7933797,143 L28,143" id="Fill-258" fill="#231F20"></path>
                <path d="M18.1030865,143.133992 L17,143.133992 L17,156.869225 C17,157.168007 17.1176447,157.457596 17.3229637,157.669042 C17.5282827,157.880487 17.8123297,158 18.1030865,158 L26.8969135,158 C27.187223,158 27.47127,157.880487 27.676589,157.669042 C27.8823553,157.457596 28,157.168007 28,156.869225 L28,143.133992 C28,142.83521 27.8823553,142.543323 27.676589,142.332337 C27.47127,142.120892 27.187223,142 26.8969135,142 L18.1030865,142 C17.8123297,142 17.5282827,142.120892 17.3229637,142.332337 C17.1176447,142.543323 17,142.83521 17,143.133992 L18.1030865,143.133992 L18.1030865,144.267525 L25.7933797,144.267525 L25.7933797,155.733854 L19.206173,155.733854 L19.206173,143.133992 L18.1030865,143.133992 L18.1030865,144.267525 L18.1030865,143.133992" id="Fill-259" fill="#231F20"></path>
                <path d="M18.1032717,42.8665977 L19.1513235,43.2209583 L22.4999006,32.7606572 L25.3725378,41.7331954 L18.1032717,41.7331954 L18.1032717,42.8665977 L19.1513235,43.2209583 L18.1032717,42.8665977 L18.1032717,44 L26.8969768,44 C27.2508006,44 27.582706,43.8258072 27.7902588,43.5311961 C27.9978115,43.2365851 28.0555147,42.8578651 27.9445814,42.5126968 L23.5479524,28.7795013 C23.3989976,28.3143744 22.9762878,28 22.4999006,28 C22.0235134,28 21.6008036,28.3143744 21.4522961,28.7795013 L17.0552198,42.5126968 C16.9447338,42.8578651 17.0019897,43.2365851 17.2095424,43.5311961 C17.4170952,43.8258072 17.7490006,44 18.1032717,44 L18.1032717,42.8665977" id="Fill-260" fill="#231F20"></path>
                <polygon id="Fill-261" fill="#1572BA" points="86 52 200 52 200 34 86 34"></polygon>
                <path d="M200.896307,51.888989 L200.896307,50.7775275 L87.2073867,50.7775275 L87.2073867,35.2224725 L199.792613,35.2224725 L199.792613,51.888989 L200.896307,51.888989 L200.896307,50.7775275 L200.896307,51.888989 L202,51.888989 L202,34.1114615 C202,33.818616 201.882291,33.5325284 201.676859,33.3257344 C201.471427,33.1189403 201.186776,33 200.896307,33 L86.1036934,33 C85.8127766,33 85.5285733,33.1184898 85.3231414,33.3257344 C85.1177094,33.5325284 85,33.818616 85,34.1114615 L85,51.888989 C85,52.181384 85.1177094,52.4674716 85.3231414,52.6742656 C85.5285733,52.8815102 85.8127766,53 86.1036934,53 L200.896307,53 C201.186776,53 201.471427,52.8815102 201.676859,52.6742656 C201.882291,52.4674716 202,52.181384 202,51.888989 L200.896307,51.888989" id="Fill-262" fill="#231F20"></path>
                <polygon id="Fill-263" fill="#231F20" points="142 39 144 39 144 34 142 34"></polygon>
                <polygon id="Fill-264" fill="#231F20" points="135 42 137 42 137 34 135 34"></polygon>
                <polygon id="Fill-265" fill="#231F20" points="127 39 129 39 129 34 127 34"></polygon>
                <polygon id="Fill-266" fill="#231F20" points="119 42 121 42 121 34 119 34"></polygon>
                <polygon id="Fill-267" fill="#231F20" points="112 39 114 39 114 34 112 34"></polygon>
                <polygon id="Fill-268" fill="#231F20" points="105 42 107 42 107 34 105 34"></polygon>
                <polygon id="Fill-269" fill="#231F20" points="98 39 100 39 100 34 98 34"></polygon>
                <polygon id="Fill-270" fill="#231F20" points="91 42 93 42 93 34 91 34"></polygon>
                <polygon id="Fill-271" fill="#231F20" points="149 42 151 42 151 34 149 34"></polygon>
                <polygon id="Fill-272" fill="#231F20" points="157 39 159 39 159 34 157 34"></polygon>
                <polygon id="Fill-273" fill="#231F20" points="164 42 166 42 166 34 164 34"></polygon>
                <polygon id="Fill-274" fill="#231F20" points="171 39 173 39 173 34 171 34"></polygon>
                <polygon id="Fill-275" fill="#231F20" points="178 42 180 42 180 34 178 34"></polygon>
                <polygon id="Fill-276" fill="#231F20" points="186 39 188 39 188 34 186 34"></polygon>
                <polygon id="Fill-277" fill="#231F20" points="193 42 195 42 195 34 193 34"></polygon>
                <polygon id="Fill-278" fill="#FFD248" points="40 16 72 16 72 0 40 0"></polygon>
                <polygon id="Fill-279" fill="#F4661E" points="40 50 72 50 72 34 40 34"></polygon>
                <polygon id="Fill-280" fill="#231F20" points="54 34 56 34 56 16 54 16"></polygon>
                <polygon id="Fill-281" fill="#E6E7E8" points="40 85 72 85 72 69 40 69"></polygon>
                <polygon id="Fill-282" fill="#231F20" points="54 69 56 69 56 50 54 50"></polygon>
                <polygon id="Fill-283" fill="#FFDB6D" points="51 13 69 13 69 11 51 11"></polygon>
                <polygon id="Fill-284" fill="#FFDB6D" points="63 9 69 9 69 7 63 7"></polygon>
                <polygon id="Fill-285" fill="#231F20" points="43 8 45 8 45 6 43 6"></polygon>
                <polygon id="Fill-286" fill="#231F20" points="47 8 51 8 51 6 47 6"></polygon>
                <polygon id="Fill-287" fill="#231F20" points="43 4 48 4 48 2 43 2"></polygon>
                <polygon id="Fill-288" fill="#F6854B" points="51 47 69 47 69 45 51 45"></polygon>
                <polygon id="Fill-289" fill="#F6854B" points="63 44 69 44 69 42 63 42"></polygon>
                <polygon id="Fill-290" fill="#231F20" points="43 42 45 42 45 40 43 40"></polygon>
                <polygon id="Fill-291" fill="#231F20" points="47 42 51 42 51 40 47 40"></polygon>
                <polygon id="Fill-292" fill="#231F20" points="43 39 48 39 48 37 43 37"></polygon>
                <polygon id="Fill-293" fill="#BCBEC0" points="51 82 68 82 68 80 51 80"></polygon>
                <polygon id="Fill-294" fill="#BCBEC0" points="62 78 68 78 68 76 62 76"></polygon>
                <polygon id="Fill-295" fill="#231F20" points="42 77 44 77 44 75 42 75"></polygon>
                <polygon id="Fill-296" fill="#231F20" points="45 77 49 77 49 75 45 75"></polygon>
                <polygon id="Fill-297" fill="#231F20" points="42 73 47 73 47 71 42 71"></polygon>
                <path d="M126.89881,78.8953488 L126.89881,77.7906977 L93.202381,77.7906977 L93.202381,63.2093023 L125.797619,63.2093023 L125.797619,78.8953488 L126.89881,78.8953488 L126.89881,77.7906977 L126.89881,78.8953488 L128,78.8953488 L128,62.1046512 C128,61.8134651 127.882393,61.528907 127.677571,61.3234419 C127.47231,61.1175349 127.188643,61 126.89881,61 L92.1011905,61 C91.8113571,61 91.5276905,61.1175349 91.3224286,61.3234419 C91.1176071,61.528907 91,61.8134651 91,62.1046512 L91,78.8953488 C91,79.186093 91.1176071,79.4706512 91.3224286,79.6761163 C91.5276905,79.8820233 91.8113571,80 92.1011905,80 L126.89881,80 C127.188643,80 127.47231,79.8820233 127.677571,79.6761163 C127.882393,79.4706512 128,79.186093 128,78.8953488 L126.89881,78.8953488" id="Fill-298" fill="#231F20"></path>
                <polygon id="Fill-299" fill="#231F20" points="109 91 111 91 111 78 109 78"></polygon>
                <path d="M93.202381,103 L93.202381,93.1428571 L125.797619,93.1428571 L125.797619,103 L128,103 L128,92.0714286 C128,91.789 127.882393,91.513 127.677571,91.3137143 C127.47231,91.114 127.188643,91 126.89881,91 L92.1011905,91 C91.8113571,91 91.5276905,91.114 91.3224286,91.3137143 C91.1176071,91.513 91,91.789 91,92.0714286 L91,103 L93.202381,103" id="Fill-300" fill="#231F20"></path>
                <path d="M101,109.500933 C101,114.194545 97.1940786,118 92.5,118 C87.8059214,118 84,114.194545 84,109.500933 C84,104.806388 87.8059214,101 92.5,101 C97.1940786,101 101,104.806388 101,109.500933" id="Fill-301" fill="#31C0D8"></path>
                <path d="M136,109.500933 C136,114.194545 132.194079,118 127.5,118 C122.805921,118 119,114.194545 119,109.500933 C119,104.806388 122.805921,101 127.5,101 C132.194079,101 136,104.806388 136,109.500933" id="Fill-302" fill="#E6E7E8"></path>
                <polygon id="Fill-303" fill="#E6E7E8" points="106 75 124 75 124 73 106 73"></polygon>
                <polygon id="Fill-304" fill="#E6E7E8" points="117 72 123 72 123 70 117 70"></polygon>
                <polygon id="Fill-305" fill="#231F20" points="97 70 99 70 99 68 97 68"></polygon>
                <polygon id="Fill-306" fill="#231F20" points="101 70 105 70 105 68 101 68"></polygon>
                <polygon id="Fill-307" fill="#231F20" points="97 67 102 67 102 65 97 65"></polygon>
                <polygon id="Fill-308" fill="#231F20" points="53 100 55 100 55 85 53 85"></polygon>
                <path d="M69.8666667,115.902439 L69.8666667,114.804878 L39.2666667,114.804878 L39.2666667,101.195122 L68.7333333,101.195122 L68.7333333,115.902439 L69.8666667,115.902439 L69.8666667,114.804878 L69.8666667,115.902439 L71,115.902439 L71,100.097561 C71,99.8082439 70.87896,99.5255122 70.66816,99.3213659 C70.4569067,99.1167805 70.16496,99 69.8666667,99 L38.1333333,99 C37.83504,99 37.5430933,99.1167805 37.33184,99.3213659 C37.12104,99.5255122 37,99.8082439 37,100.097561 L37,115.902439 C37,116.191317 37.12104,116.474049 37.33184,116.678195 C37.5430933,116.88278 37.83504,117 38.1333333,117 L69.8666667,117 C70.16496,117 70.4569067,116.88278 70.66816,116.678195 C70.87896,116.474049 71,116.191317 71,115.902439 L69.8666667,115.902439" id="Fill-309" fill="#231F20"></path>
                <polygon id="Fill-310" fill="#231F20" points="139 64 153 64 153 62 139 62"></polygon>
                <polygon id="Fill-311" fill="#231F20" points="139 72 170 72 170 70 139 70"></polygon>
                <polygon id="Fill-312" fill="#231F20" points="139 80 170 80 170 78 139 78"></polygon>
                <polygon id="Fill-313" fill="#231F20" points="139 87 170 87 170 85 139 85"></polygon>
                <polygon id="Fill-314" fill="#231F20" points="139 95 145 95 145 93 139 93"></polygon>
                <polygon id="Fill-315" fill="#231F20" points="148 95 154 95 154 93 148 93"></polygon>
                <polygon id="Fill-316" fill="#DDDEDF" points="35 128 47 128 47 126 35 126"></polygon>
                <polygon id="Fill-317" fill="#DDDEDF" points="35 131 57 131 57 129 35 129"></polygon>
                <polygon id="Fill-318" fill="#DDDEDF" points="65 128 77 128 77 126 65 126"></polygon>
                <polygon id="Fill-319" fill="#DDDEDF" points="65 131 87 131 87 129 65 129"></polygon>
                <polygon id="Fill-320" fill="#DDDEDF" points="95 128 107 128 107 126 95 126"></polygon>
                <polygon id="Fill-321" fill="#DDDEDF" points="95 131 117 131 117 129 95 129"></polygon>
                <polygon id="Fill-322" fill="#DDDEDF" points="125 128 137 128 137 126 125 126"></polygon>
                <polygon id="Fill-323" fill="#DDDEDF" points="125 131 147 131 147 129 125 129"></polygon>
                <polygon id="Fill-324" fill="#E6E7E8" points="80 17 112 17 112 1 80 1"></polygon>
                <polygon id="Fill-325" fill="#231F20" points="71 10 79 10 79 8 71 8"></polygon>
                <polygon id="Fill-326" fill="#BCBEC0" points="91 13 109 13 109 11 91 11"></polygon>
                <polygon id="Fill-327" fill="#BCBEC0" points="102 10 108 10 108 8 102 8"></polygon>
                <polygon id="Fill-328" fill="#231F20" points="83 8 84 8 84 6 83 6"></polygon>
                <polygon id="Fill-329" fill="#231F20" points="86 8 90 8 90 6 86 6"></polygon>
                <polygon id="Fill-330" fill="#231F20" points="83 5 88 5 88 3 83 3"></polygon>
                <polygon id="Fill-331" fill="#E6E7E8" points="0 16 32 16 32 0 0 0"></polygon>
                <polygon id="Fill-332" fill="#231F20" points="32 9 40 9 40 7 32 7"></polygon>
                <polygon id="Fill-333" fill="#BCBEC0" points="12 13 29 13 29 11 12 11"></polygon>
                <polygon id="Fill-334" fill="#BCBEC0" points="23 9 29 9 29 7 23 7"></polygon>
                <polygon id="Fill-335" fill="#231F20" points="3 8 5 8 5 6 3 6"></polygon>
                <polygon id="Fill-336" fill="#231F20" points="6 8 10 8 10 6 6 6"></polygon>
                <polygon id="Fill-337" fill="#231F20" points="3 4 8 4 8 2 3 2"></polygon>
                <polygon id="Fill-338" fill="#231F20" points="123 11 126 11 126 9 123 9"></polygon>
                <polygon id="Fill-339" fill="#231F20" points="129 11 132 11 132 9 129 9"></polygon>
                <polygon id="Fill-340" fill="#231F20" points="135 11 138 11 138 9 135 9"></polygon>
                <polygon id="Fill-341" fill="#231F20" points="41 151 44 151 44 149 41 149"></polygon>
                <polygon id="Fill-342" fill="#231F20" points="47 151 50 151 50 149 47 149"></polygon>
                <polygon id="Fill-343" fill="#231F20" points="53 151 56 151 56 149 53 149"></polygon>
                <polygon id="Fill-344" fill="#231F20" points="191 75 194 75 194 73 191 73"></polygon>
                <polygon id="Fill-345" fill="#231F20" points="196 75 199 75 199 73 196 73"></polygon>
                <polygon id="Fill-347" fill="#231F20" points="148 8 152 8 152 6 148 6"></polygon>
                <polygon id="Fill-348" fill="#231F20" points="154 8 162 8 162 6 154 6"></polygon>
                <polygon id="Fill-349" fill="#231F20" points="148 13 152 13 152 11 148 11"></polygon>
                <polygon id="Fill-350" fill="#231F20" points="154 13 159 13 159 11 154 11"></polygon>
                <polygon id="Fill-351" fill="#231F20" points="191 92 195 92 195 90 191 90"></polygon>
                <polygon id="Fill-352" fill="#231F20" points="197 92 205 92 205 90 197 90"></polygon>
                <polygon id="Fill-353" fill="#231F20" points="191 98 195 98 195 96 191 96"></polygon>
                <polygon id="Fill-354" fill="#231F20" points="197 98 202 98 202 96 197 96"></polygon>
                <polygon id="Fill-355" fill="#231F20" points="67 149 71 149 71 147 67 147"></polygon>
                <polygon id="Fill-356" fill="#231F20" points="73 149 81 149 81 147 73 147"></polygon>
                <polygon id="Fill-357" fill="#231F20" points="67 154 71 154 71 152 67 152"></polygon>
                <polygon id="Fill-358" fill="#231F20" points="73 154 78 154 78 152 73 152"></polygon>
                <polygon id="Fill-359" fill="#231F20" points="91 149 95 149 95 147 91 147"></polygon>
                <polygon id="Fill-360" fill="#231F20" points="97 149 105 149 105 147 97 147"></polygon>
                <polygon id="Fill-361" fill="#231F20" points="91 154 95 154 95 152 91 152"></polygon>
                <polygon id="Fill-362" fill="#231F20" points="97 154 102 154 102 152 97 152"></polygon>
            </g>
            <polygon id="Fill-138" fill="#231F20" points="176 127 179 127 179 125 176 125"></polygon>
        </g>
    </g>
</svg>