<?xml version="1.0" encoding="UTF-8"?>
<svg width="26px" height="28px" viewBox="0 0 26 28" version="1.1" xmlns="http://www.w3.org/2000/svg" xmlns:xlink="http://www.w3.org/1999/xlink">
    <!-- Generator: Sketch 48.2 (47327) - http://www.bohemiancoding.com/sketch -->
    <title>pencil-and-paper</title>
    <desc>Created with Sketch.</desc>
    <defs></defs>
    <g id="report-content-modify" stroke="none" stroke-width="1" fill="none" fill-rule="evenodd" transform="translate(-835.000000, -664.000000)">
        <g id="pencil-and-paper" transform="translate(835.000000, 664.000000)" fill="#1572BA" fill-rule="nonzero">
            <path d="M25.6441172,16.5293183 L23.5365859,14.4238189 C23.2493355,14.1367975 22.9346153,14 22.5650398,14 C22.2503195,14 21.9650977,14.1251022 21.7166432,14.3692688 L20.0336272,16.0235897 L13.3142839,22.7362939 C13.1910921,22.8867711 13.1280382,23.0110288 13.1090628,23.0781187 L11.9868127,27.056435 C11.9634844,27.139569 11.9459459,27.2203809 11.9459459,27.3026283 C11.9459459,27.6444532 12.2743589,28 12.6985783,28 C12.7943425,28 12.8632285,27.9883469 12.9175344,27.9725983 L16.8724782,26.8240481 C17.006489,26.7852466 17.1185661,26.7418007 17.2008912,26.6601022 L23.9611012,19.9199964 L25.6166896,18.2656332 C25.8356456,18.0468839 25.9588797,17.7733311 26,17.4454816 C26,17.0762127 25.8768082,16.7617896 25.6441172,16.5293183 Z M16.2839044,25.4569175 L13.7933586,26.1542892 L14.5185211,23.6660947 L20.5672613,17.623065 L22.3597764,19.3867394 L16.2839044,25.4569175 Z M23.427129,18.3201411 L21.6346139,16.5564667 L22.5924674,15.5995175 L24.3578085,17.3631919 L23.427129,18.3201411 Z" id="Shape"></path>
            <path d="M15.4051011,13.3 L3.56782933,13.3 C3.14113766,13.3 2.81081081,13.6026932 2.81081081,13.9936898 C2.81081081,14.3846864 3.14113766,14.7 3.56782933,14.7 L15.4051436,14.7 C15.8317928,14.7 16.1621622,14.3846475 16.1621622,13.9936898 C16.1621622,13.6027322 15.8317503,13.3 15.4051011,13.3 Z" id="Shape"></path>
            <path d="M16.1621622,17.4936705 C16.1621622,17.1027238 15.8318343,16.8 15.4051412,16.8 L3.56783174,16.8 C3.14113871,16.8 2.81081081,17.1026848 2.81081081,17.4936705 C2.81081081,17.8846563 3.14113871,18.2 3.56783174,18.2 L15.4051837,18.2 C15.8317918,18.2 16.1621622,17.8846173 16.1621622,17.4936705 Z" id="Shape"></path>
            <path d="M9.06625289,19.6 L3.5686091,19.6 C3.14147792,19.6 2.81081081,19.9054467 2.81081081,20.3 C2.81081081,20.6945533 3.14147792,21 3.5686091,21 L9.06625289,21 C9.49334152,21 9.83783784,20.6945533 9.83783784,20.3 C9.83783784,19.9054467 9.49334152,19.6 9.06625289,19.6 Z" id="Shape"></path>
            <path d="M9.06625289,23.1 L3.5686091,23.1 C3.14147792,23.1 2.81081081,23.4054467 2.81081081,23.8 C2.81081081,24.1945533 3.14147792,24.5 3.5686091,24.5 L9.06625289,24.5 C9.49334152,24.5 9.83783784,24.1945533 9.83783784,23.8 C9.83783784,23.4054467 9.49334152,23.1 9.06625289,23.1 Z" id="Shape"></path>
            <path d="M1.5530593,26.3553513 L1.5530593,1.64464875 C1.5530593,1.54873877 1.59514599,1.50751356 1.69306019,1.50751356 L7.42985607,1.50751356 L7.42985607,9.64868783 C7.42985607,10.5807838 8.15729899,11.3346041 9.1086137,11.3346041 L17.4199137,11.3346041 L17.4199137,15.9396375 L18.972973,15.9396375 L18.972973,11.3346041 L18.972973,9.8133347 L18.9449296,9.8133347 L8.96887207,0.027469363 L8.94082868,0 L7.42985607,0 L1.69306019,0 C1.2172732,0 0.811616292,0.16430827 0.489830288,0.479803851 C0.167741812,0.795003152 0,1.19235659 0,1.64464875 L0,26.3553513 C0,27.2874473 0.741486215,28 1.69306019,28 L10.8297173,28 L10.8297173,26.4924864 L1.69306019,26.4924864 C1.59514599,26.4924864 1.5530593,26.4515152 1.5530593,26.3553513 Z M8.96887207,2.17913737 L16.7622984,9.81303842 L9.10857049,9.81303842 C9.01065629,9.81303842 8.96887207,9.75805737 8.96887207,9.64873015 L8.96887207,2.17913737 Z" id="Shape"></path>
        </g>
    </g>
</svg>