<?xml version="1.0" encoding="UTF-8"?>
<svg width="14px" height="14px" viewBox="0 0 14 14" version="1.1" xmlns="http://www.w3.org/2000/svg" xmlns:xlink="http://www.w3.org/1999/xlink">
    <!-- Generator: Sketch 48.2 (47327) - http://www.bohemiancoding.com/sketch -->
    <title>sum-sign</title>
    <desc>Created with Sketch.</desc>
    <defs></defs>
    <g id="report-content-piping" stroke="none" stroke-width="1" fill="none" fill-rule="evenodd" transform="translate(-590.000000, -594.000000)">
        <g id="sum-sign" transform="translate(590.000000, 594.000000)" fill="#FFFFFF" fill-rule="nonzero">
            <path d="M12.1420526,2.80581153 L12.1420526,1.60039652 L3.06583254,1.60039652 L8.40659809,6.55919126 C8.74095694,6.8699779 8.73643541,7.35308647 8.39591388,7.65863985 L3.11540191,12.3996902 L12.1418517,12.3996902 L12.1418517,11.671659 C12.1418517,11.2305611 12.5575981,10.871692 13.0687321,10.871692 C13.5796986,10.871692 13.9958469,11.2305611 13.9958469,11.671659 L13.9958469,13.1996572 C13.9958469,13.6409285 13.5798995,14 13.0687321,14 L0.938267943,14 C0.566296651,14 0.231334928,13.809087 0.0854066986,13.5132773 C-0.0605885167,13.2176122 0.0120909091,12.8768427 0.26991866,12.6451333 L6.45215789,7.0948638 L0.259334928,1.34506516 C0.00840669856,1.11179447 -0.0587129187,0.772644101 0.0884880383,0.480593131 C0.235856459,0.188657814 0.569545455,0 0.938267943,0 L13.0689665,0 C13.5798995,0 13.9960478,0.358897999 13.9960478,0.800313913 L13.9960478,2.80581153 C13.9960478,3.24699614 13.5801005,3.6060387 13.0689665,3.6060387 C12.557799,3.6060387 12.1420526,3.24716962 12.1420526,2.80581153 Z" id="Shape"></path>
        </g>
    </g>
</svg>