<?xml version="1.0" encoding="UTF-8"?>
<svg width="19px" height="14px" viewBox="0 0 19 14" version="1.1" xmlns="http://www.w3.org/2000/svg" xmlns:xlink="http://www.w3.org/1999/xlink">
    <!-- Generator: Sketch 48.2 (47327) - http://www.bohemiancoding.com/sketch -->
    <title>list</title>
    <desc>Created with Sketch.</desc>
    <defs></defs>
    <g id="report-content-piping" stroke="none" stroke-width="1" fill="none" fill-rule="evenodd" transform="translate(-589.000000, -771.000000)">
        <g id="list" transform="translate(589.000000, 771.000000)" fill="#FFFFFF" fill-rule="nonzero">
            <path d="M17.4805683,13.7377486 L5.17770492,13.7377486 C4.67064481,13.7377486 4.25967213,13.326776 4.25967213,12.8197158 C4.25967213,12.3126557 4.67064481,11.9016831 5.17770492,11.9016831 L17.4802623,11.9016831 C17.9873224,11.9016831 18.3982951,12.3126557 18.3982951,12.8197158 C18.3982951,13.326776 17.9876284,13.7377486 17.4805683,13.7377486 Z" id="Shape"></path>
            <path d="M17.4805683,7.97525683 L5.17770492,7.97525683 C4.67064481,7.97525683 4.25967213,7.56428415 4.25967213,7.05722404 C4.25967213,6.55016393 4.67064481,6.13919126 5.17770492,6.13919126 L17.4802623,6.13919126 C17.9873224,6.13919126 18.3982951,6.55016393 18.3982951,7.05722404 C18.3986011,7.56428415 17.9876284,7.97525683 17.4805683,7.97525683 Z" id="Shape"></path>
            <path d="M17.4805683,2.21276503 L5.17770492,2.21276503 C4.67064481,2.21276503 4.25967213,1.80179235 4.25967213,1.29473224 C4.25967213,0.787672131 4.67064481,0.376699454 5.17770492,0.376699454 L17.4802623,0.376699454 C17.9873224,0.376699454 18.3982951,0.787672131 18.3982951,1.29473224 C18.3982951,1.80179235 17.9876284,2.21276503 17.4805683,2.21276503 Z" id="Shape"></path>
            <circle id="Oval" cx="1.23291803" cy="1.36572678" r="1.23291803"></circle>
            <circle id="Oval" cx="1.23291803" cy="7.05722404" r="1.23291803"></circle>
            <circle id="Oval" cx="1.23291803" cy="12.7487213" r="1.23291803"></circle>
        </g>
    </g>
</svg>