<?xml version="1.0" encoding="UTF-8"?>
<svg width="19px" height="18px" viewBox="0 0 19 18" version="1.1" xmlns="http://www.w3.org/2000/svg" xmlns:xlink="http://www.w3.org/1999/xlink">
    <!-- Generator: Sketch 48.2 (47327) - http://www.bohemiancoding.com/sketch -->
    <title>get-money</title>
    <desc>Created with Sketch.</desc>
    <defs></defs>
    <g id="report-content-piping" stroke="none" stroke-width="1" fill="none" fill-rule="evenodd" transform="translate(-587.000000, -834.000000)">
        <g id="get-money" transform="translate(587.000000, 834.000000)" fill="#FFFFFF" fill-rule="nonzero">
            <circle id="Oval" cx="10.7536154" cy="2.95440486" r="2.92674899"></circle>
            <path d="M18.3423644,7.61206883 C17.9445425,7.21424696 17.3066356,7.19234818 16.8824332,7.56189474 L15.2105101,9.01865587 C15.1602632,9.54258704 14.9241498,10.0264737 14.5351093,10.3940526 C14.1194696,10.7867004 13.575498,11.0029555 13.0033239,11.0029555 L9.29025911,11.0029555 L9.29025911,9.90542915 L13.0033603,9.90542915 C13.6013684,9.90542915 14.1068988,9.43655466 14.1232955,8.83872874 C14.1403117,8.21853036 13.6425789,7.71034008 13.0262065,7.71034008 L7.53314575,7.71034008 C6.95098785,7.71034008 6.39265992,7.94157085 5.9809919,8.35323887 L0,14.3343401 L3.63800405,17.9723441 L8.4854332,13.124915 L13.4340121,13.124915 C14.01617,13.124915 14.574498,12.8936842 14.986166,12.4819798 L18.3424008,9.12578138 C18.7603725,8.70773684 18.7603725,8.03007692 18.3423644,7.61206883 Z" id="Shape"></path>
        </g>
    </g>
</svg>