<?xml version="1.0" encoding="UTF-8"?>
<svg width="20px" height="20px" viewBox="0 0 20 20" version="1.1" xmlns="http://www.w3.org/2000/svg" xmlns:xlink="http://www.w3.org/1999/xlink">
    <!-- Generator: Sketch 48.2 (47327) - http://www.bohemiancoding.com/sketch -->
    <title>Group 6</title>
    <desc>Created with Sketch.</desc>
    <defs></defs>
    <g id="Graphical-Rating-Likert-Scale-Copy" stroke="none" stroke-width="1" fill="none" fill-rule="evenodd" transform="translate(-833.000000, -562.000000)">
        <g id="Group-6" transform="translate(833.000000, 562.000000)" fill-rule="nonzero">
            <g id="minus" fill="#6AAD5D">
                <path d="M10,0 C15.5140625,0 20,4.4859375 20,10 C20,15.5140625 15.5140625,20 10,20 C4.4859375,20 0,15.5140625 0,10 C0,4.4859375 4.4859375,0 10,0 Z" id="Shape"></path>
            </g>
            <g id="plus" transform="translate(5.000000, 5.000000)" fill="#FFFFFF">
                <path d="M8.86363636,5.64392933 L5.64392933,5.64392933 L5.64392933,8.86363636 C5.64392933,9.21909091 5.35545455,9.5075657 5,9.5075657 C4.64454545,9.5075657 4.35607067,9.21909091 4.35607067,8.86363636 L4.35607067,5.64392933 L1.13766158,5.64392933 C0.782207031,5.64392933 0.493732244,5.35545455 0.493732244,5 C0.493732244,4.64454545 0.782207031,4.35607067 1.13766158,4.35607067 L4.35607067,4.35607067 L4.35607067,1.13636364 C4.35607067,0.780909091 4.64454545,0.492434304 5,0.492434304 C5.35545455,0.492434304 5.64392933,0.780909091 5.64392933,1.13636364 L5.64392933,4.35607067 L8.86363636,4.35607067 C9.21909091,4.35607067 9.5075657,4.64454545 9.5075657,5 C9.5075657,5.35545455 9.21909091,5.64392933 8.86363636,5.64392933 Z" id="Shape"></path>
            </g>
        </g>
    </g>
</svg>