<?xml version="1.0" encoding="UTF-8"?>
<svg width="25px" height="25px" viewBox="0 0 25 25" version="1.1" xmlns="http://www.w3.org/2000/svg" xmlns:xlink="http://www.w3.org/1999/xlink">
    <!-- Generator: Sketch 48.2 (47327) - http://www.bohemiancoding.com/sketch -->
    <title>Shape Copy</title>
    <desc>Created with Sketch.</desc>
    <defs></defs>
    <g id="Single-choice-with-new-additional-text-Copy" stroke="none" stroke-width="1" fill="none" fill-rule="evenodd" transform="translate(-312.000000, -296.000000)">
        <path d="M324.5,296 C317.607163,296 312,301.607676 312,308.5 C312,315.392324 317.607163,321 324.5,321 C331.392837,321 337,315.392324 337,308.5 C337,301.607676 331.392922,296 324.5,296 Z M328.670486,309.010216 L325.010302,309.010216 L325.010302,312.669887 C325.010302,312.952058 324.782256,313.180104 324.500086,313.180104 C324.217915,313.180104 323.989869,312.952058 323.989869,312.669887 L323.989869,309.010216 L320.3296,309.010216 C320.047942,309.010216 319.819383,308.781658 319.819383,308.5 C319.819383,308.218342 320.047942,307.989784 320.3296,307.989784 L323.989784,307.989784 L323.989784,304.3296 C323.989784,304.047942 324.217829,303.819383 324.5,303.819383 C324.782171,303.819383 325.010216,304.047942 325.010216,304.3296 L325.010216,307.989784 L328.6704,307.989784 C328.952571,307.989784 329.180617,308.218342 329.180617,308.5 C329.180617,308.781658 328.952571,309.010216 328.670486,309.010216 Z" id="Shape-Copy" fill="#6AAD5D" fill-rule="nonzero"></path>
    </g>
</svg>