<?xml version="1.0" encoding="UTF-8"?>
<svg width="22px" height="22px" viewBox="0 0 22 22" version="1.1" xmlns="http://www.w3.org/2000/svg" xmlns:xlink="http://www.w3.org/1999/xlink">
    <!-- Generator: Sketch 46.2 (44496) - http://www.bohemiancoding.com/sketch -->
    <title>Page 1</title>
    <desc>Created with Sketch.</desc>
    <defs>
        <polygon id="path-1" points="9.93590968 0.679870968 0.481587097 0.679870968 0.481587097 10.1198581 9.93590968 10.1198581 9.93590968 0.679870968"></polygon>
    </defs>
    <g id="Page-1" stroke="none" stroke-width="1" fill="none" fill-rule="evenodd">
        <g id="Desktop-Copy-10" transform="translate(-33.000000, -373.000000)">
            <g id="Page-1" transform="translate(33.000000, 373.000000)">
                <g id="Group-3" transform="translate(11.354839, 0.029806)">
                    <mask id="mask-2" fill="white">
                        <use xlink:href="#path-1"></use>
                    </mask>
                    <g id="Clip-2"></g>
                    <path d="M2.64468387,10.1198581 C3.0868129,9.82463226 3.60842581,9.69901935 4.11868387,9.75650323 L9.93590968,3.93785806 L6.6792,0.679729032 L0.860554839,6.49837419 C0.919458065,7.01572903 0.789587097,7.54372903 0.481587097,7.99153548 L2.64468387,10.1198581 Z" id="Fill-1" fill="#ADB6BC" mask="url(#mask-2)"></path>
                </g>
                <g id="Group-6" transform="translate(0.000000, 13.513677)" fill="#ADB6BC">
                    <polygon id="Fill-4" points="3.85156129 3.72232903 3.6407871 3.51155484 2.53794839 4.40361935 0.680012903 7.33103871 1.15549677 7.80652258 4.08575484 5.9485871 4.9764 4.8485871 4.76491613 4.63497419 8.46446452 0.934006452 7.54543226 0.0277483871"></polygon>
                </g>
                <path d="M18.2466007,20.302218 C17.7959359,20.302218 17.4318556,19.9352988 17.4318556,19.4839243 C17.4318556,19.0304207 17.7959359,18.6649209 18.2466007,18.6649209 C18.7001043,18.6649209 19.0663138,19.0304207 19.0663138,19.4839243 C19.0670235,19.9352988 18.700814,20.302218 18.2466007,20.302218 L18.2466007,20.302218 Z M8.91180726,6.97673469 C9.33905167,5.4494424 8.95155093,3.74259391 7.75285359,2.54176745 C6.5584145,1.3515866 4.87143784,0.961247033 3.35337176,1.37358756 L5.92464497,3.94415107 L5.25042208,6.46219617 L2.72882844,7.13641906 L0.158264931,4.56727497 C-0.251946474,6.08463134 0.13768339,7.771608 1.32999336,8.96462768 C2.57907999,10.2151337 4.37960998,10.5820529 5.95516243,10.0696435 L5.9693566,10.0845474 L16.5468493,20.6613304 C16.9648675,21.0793486 17.5141817,21.2908417 18.0620765,21.2908417 C18.6113908,21.2908417 19.1578662,21.0793486 19.5780135,20.6613304 C20.4140499,19.8274231 20.4140499,18.4711705 19.5780135,17.6301662 L8.91180726,6.97673469 Z" id="Fill-7" fill="#ADB6BC"></path>
            </g>
        </g>
    </g>
</svg>