<?xml version="1.0" encoding="UTF-8"?>
<svg width="24px" height="21px" viewBox="0 0 24 21" version="1.1" xmlns="http://www.w3.org/2000/svg" xmlns:xlink="http://www.w3.org/1999/xlink">
    <!-- Generator: Sketch 46.2 (44496) - http://www.bohemiancoding.com/sketch -->
    <title>Group</title>
    <desc>Created with Sketch.</desc>
    <defs></defs>
    <g id="Page-1" stroke="none" stroke-width="1" fill="none" fill-rule="evenodd">
        <g id="Desktop-Copy-30" transform="translate(-965.000000, -23.000000)" fill-rule="nonzero" fill="#858687">
            <g id="Group" transform="translate(965.000000, 23.000000)">
                <g id="line-chart-(1)">
                    <path d="M1.62628337,15.9926055 L1.62628337,19.8588086 C1.62628337,20.0940148 1.81848049,20.2900201 2.05995893,20.2900201 L5.0661191,20.2900201 C5.3026694,20.2900201 5.49979466,20.098915 5.49979466,19.8588086 L5.49979466,13.0574272 L3.31663244,15.2281851 C2.85338809,15.6838972 2.26201232,15.9485043 1.62628337,15.9926055 Z" id="Shape"></path>
                    <path d="M6.99794661,13.0084259 L6.99794661,19.8588086 C6.99794661,20.0940148 7.19014374,20.2900201 7.43162218,20.2900201 L10.4377823,20.2900201 C10.6743326,20.2900201 10.8714579,20.098915 10.8714579,19.8588086 L10.8714579,15.826001 C10.1864476,15.8113006 9.54579055,15.5417934 9.06283368,15.0615806 L6.99794661,13.0084259 Z" id="Shape"></path>
                    <path d="M12.3696099,15.3996897 L12.3696099,19.8588086 C12.3696099,20.0940148 12.561807,20.2900201 12.8032854,20.2900201 L15.8094456,20.2900201 C16.0459959,20.2900201 16.2431211,20.098915 16.2431211,19.8588086 L16.2431211,11.6314892 L12.7983573,15.0566805 C12.6652977,15.188984 12.5223819,15.301687 12.3696099,15.3996897 Z" id="Shape"></path>
                    <path d="M21.3240246,6.57455432 L17.7412731,10.1369493 L17.7412731,19.8588086 C17.7412731,20.0940148 17.9334702,20.2900201 18.1749487,20.2900201 L21.1811088,20.2900201 C21.4176591,20.2900201 21.6147844,20.098915 21.6147844,19.8588086 L21.6147844,6.84406151 C21.5162218,6.76075929 21.4422998,6.68725733 21.3880903,6.63825602 L21.3240246,6.57455432 Z" id="Shape"></path>
                    <path d="M23.7831622,0.263186018 C23.6402464,0.111281968 23.4234086,0.0328798768 23.1474333,0.0328798768 C23.1227926,0.0328798768 23.0932238,0.0328798768 23.0685832,0.0328798768 C21.6689938,0.0965815755 20.2743326,0.165183405 18.8747433,0.228885104 C18.6874743,0.238685365 18.4312115,0.248485626 18.2291581,0.449390984 C18.1650924,0.513092682 18.1158111,0.586594643 18.076386,0.674796995 C17.8694045,1.12070889 18.1601643,1.4098166 18.298152,1.54702025 L18.6480493,1.89982966 C18.8895277,2.1448362 19.1359343,2.38984273 19.3823409,2.62994913 L10.9256674,11.0434735 L7.12607803,7.26547275 C6.89938398,7.04006674 6.59383984,6.91266334 6.26858316,6.91266334 C5.94332649,6.91266334 5.64271047,7.04006674 5.41601643,7.26547275 L0.354825462,12.2930068 C-0.118275154,12.7634194 -0.118275154,13.5229396 0.354825462,13.9933522 L0.581519507,14.2187582 C0.808213552,14.4441642 1.1137577,14.5715676 1.43901437,14.5715676 C1.76427105,14.5715676 2.06488706,14.4441642 2.29158111,14.2187582 L6.26858316,10.2643527 L10.0681725,14.0423535 C10.2948665,14.2677595 10.6004107,14.3951629 10.9256674,14.3951629 C11.250924,14.3951629 11.55154,14.2677595 11.7831622,14.0423535 L21.3240246,4.55570049 L22.4032854,5.62392897 C22.5314168,5.75133237 22.7088296,5.92773707 22.9798768,5.92773707 C23.0932238,5.92773707 23.2065708,5.89833629 23.324846,5.83463459 C23.4036961,5.79053341 23.4726899,5.74153211 23.5318275,5.68273054 C23.7437372,5.47202492 23.7831622,5.20251773 23.7930185,4.99181211 C23.8324435,4.09018807 23.8767967,3.18856403 23.9211499,2.28203985 L23.9852156,0.924703659 C24,0.64049608 23.9359343,0.4199902 23.7831622,0.263186018 Z" id="Shape"></path>
                </g>
            </g>
        </g>
    </g>
</svg>