<?xml version="1.0" encoding="UTF-8"?>
<svg width="51px" height="51px" viewBox="0 0 51 51" version="1.1" xmlns="http://www.w3.org/2000/svg" xmlns:xlink="http://www.w3.org/1999/xlink">
    <!-- Generator: Sketch 48.2 (47327) - http://www.bohemiancoding.com/sketch -->
    <title>1</title>
    <desc>Created with Sketch.</desc>
    <defs></defs>
    <g id="Tablet-9″" stroke="none" stroke-width="1" fill="none" fill-rule="evenodd" transform="translate(-43.000000, -660.000000)">
        <g id="1" transform="translate(44.000000, 661.000000)">
            <g id="Icons">
                <g id="XMLID_713_">
                    <circle id="XMLID_1381_" fill="#FFE500" fill-rule="nonzero" cx="24.3902439" cy="24.7560976" r="24.3902439"></circle>
                    <path d="M24.3902439,0.365853659 C10.9756098,0.365853659 0,11.3414634 0,24.7560976 C0,38.1707317 10.9756098,49.1463415 24.3902439,49.1463415 C37.804878,49.1463415 48.7804878,38.1707317 48.7804878,24.7560976 C48.7804878,11.3414634 37.804878,0.365853659 24.3902439,0.365853659 Z M24.3902439,45.4878049 C12.0731707,45.4878049 2.19512195,35.4878049 2.19512195,23.1707317 C2.19512195,10.8536585 12.0731707,0.975609756 24.3902439,0.975609756 C36.7073171,0.975609756 46.7073171,10.8536585 46.7073171,23.1707317 C46.7073171,35.4878049 36.7073171,45.4878049 24.3902439,45.4878049 Z" id="XMLID_1378_" fill="#EBCB00" fill-rule="nonzero"></path>
                    <ellipse id="XMLID_1377_" fill="#FFF48C" fill-rule="nonzero" cx="24.3902439" cy="5.24390244" rx="7.31707317" ry="1.82926829"></ellipse>
                    <circle id="XMLID_1376_" stroke="#45413C" stroke-linecap="round" stroke-linejoin="round" cx="24.3902439" cy="24.7560976" r="24.3902439"></circle>
                    <path d="M10.9756098,18.1707317 C12.3170732,17.9268293 13.6585366,17.5609756 15.1219512,16.8292683 C16.4634146,16.097561 17.6829268,15.2439024 18.6585366,14.2682927" id="XMLID_1374_" stroke="#45413C" stroke-linecap="round" stroke-linejoin="round"></path>
                    <path d="M37.5609756,18.1707317 C36.2195122,17.9268293 34.8780488,17.5609756 33.4146341,16.8292683 C32.0731707,16.097561 30.8536585,15.2439024 29.8780488,14.2682927" id="XMLID_1373_" stroke="#45413C" stroke-linecap="round" stroke-linejoin="round"></path>
                    <ellipse id="XMLID_1372_" fill="#FFAA54" fill-rule="nonzero" cx="39.0243902" cy="30.8536585" rx="3.04878049" ry="1.82926829"></ellipse>
                    <ellipse id="XMLID_1371_" fill="#FFAA54" fill-rule="nonzero" cx="9.75609756" cy="30.8536585" rx="3.04878049" ry="1.82926829"></ellipse>
                    <path d="M39.3902439,20.4878049 L35.4878049,22.4390244 C34.6341463,22.9268293 34.6341463,24.1463415 35.4878049,24.6341463 L39.3902439,26.5853659" id="XMLID_1370_" stroke="#45413C" stroke-linecap="round" stroke-linejoin="round"></path>
                    <path d="M9.3902439,20.4878049 L13.2926829,22.4390244 C14.1463415,22.9268293 14.1463415,24.1463415 13.2926829,24.6341463 L9.3902439,26.5853659" id="XMLID_1369_" stroke="#45413C" stroke-linecap="round" stroke-linejoin="round"></path>
                    <g id="XMLID_1364_" transform="translate(12.195122, 30.487805)" fill-rule="nonzero" stroke="#45413C" stroke-linecap="round" stroke-linejoin="round">
                        <g id="XMLID_1366_" fill="#FFB0CA">
                            <g id="XMLID_1367_">
                                <path d="M21.7073171,11.9512195 C22.195122,11.9512195 22.5609756,11.7073171 22.804878,11.4634146 C23.0487805,11.097561 23.1707317,10.7317073 23.1707317,10.2439024 C22.3170732,4.87804878 17.804878,0.975609756 12.195122,0.975609756 C6.70731707,0.975609756 2.07317073,4.87804878 1.2195122,10.2439024 C1.09756098,10.6097561 1.2195122,11.097561 1.58536585,11.4634146 C1.82926829,11.8292683 2.31707317,11.9512195 2.68292683,11.9512195 C9.02439024,10.2439024 15.3658537,10.2439024 21.7073171,11.9512195 Z" id="XMLID_1368_"></path>
                            </g>
                        </g>
                        <path d="M12.195122,0.975609756 C9.14634146,0.975609756 6.46341463,2.07317073 4.51219512,4.02439024 L19.8780488,4.02439024 C17.9268293,2.07317073 15.2439024,0.975609756 12.195122,0.975609756 Z" id="XMLID_1365_" fill="#FFFFFF"></path>
                    </g>
                </g>
            </g>
        </g>
    </g>
</svg>