<?xml version="1.0" encoding="UTF-8"?>
<svg width="51px" height="51px" viewBox="0 0 51 51" version="1.1" xmlns="http://www.w3.org/2000/svg" xmlns:xlink="http://www.w3.org/1999/xlink">
    <!-- Generator: Sketch 48.2 (47327) - http://www.bohemiancoding.com/sketch -->
    <title>3</title>
    <desc>Created with Sketch.</desc>
    <defs></defs>
    <g id="Tablet-9″" stroke="none" stroke-width="1" fill="none" fill-rule="evenodd" transform="translate(-164.000000, -660.000000)">
        <g id="3" transform="translate(165.000000, 661.000000)">
            <g id="Icons">
                <g id="XMLID_539_">
                    <circle id="XMLID_7807_" fill="#FFE500" fill-rule="nonzero" cx="24.3902439" cy="24.7560976" r="24.3902439"></circle>
                    <path d="M24.3902439,0.365853659 C10.9756098,0.365853659 0,11.3414634 0,24.7560976 C0,38.1707317 10.9756098,49.1463415 24.3902439,49.1463415 C37.804878,49.1463415 48.7804878,38.1707317 48.7804878,24.7560976 C48.7804878,11.3414634 37.804878,0.365853659 24.3902439,0.365853659 Z M24.3902439,45.4878049 C12.0731707,45.4878049 2.19512195,35.4878049 2.19512195,23.2926829 C2.19512195,10.9756098 12.0731707,0.975609756 24.3902439,0.975609756 C36.7073171,0.975609756 46.7073171,10.9756098 46.7073171,23.2926829 C46.7073171,35.6097561 36.7073171,45.4878049 24.3902439,45.4878049 Z" id="XMLID_7804_" fill="#EBCB00" fill-rule="nonzero"></path>
                    <ellipse id="XMLID_7803_" fill="#FFF48C" fill-rule="nonzero" cx="24.3902439" cy="5.24390244" rx="7.31707317" ry="1.82926829"></ellipse>
                    <circle id="XMLID_7801_" stroke="#45413C" stroke-linecap="round" stroke-linejoin="round" cx="24.3902439" cy="24.7560976" r="24.3902439"></circle>
                    <circle id="XMLID_7800_" stroke="#45413C" fill="#FFFFFF" fill-rule="nonzero" stroke-linecap="round" stroke-linejoin="round" cx="13.4146341" cy="22.9268293" r="4.26829268"></circle>
                    <circle id="XMLID_7799_" stroke="#45413C" fill="#FFFFFF" fill-rule="nonzero" stroke-linecap="round" stroke-linejoin="round" cx="35.3658537" cy="22.9268293" r="4.26829268"></circle>
                    <ellipse id="XMLID_7798_" fill="#FFAA54" fill-rule="nonzero" cx="39.6341463" cy="30.8536585" rx="3.04878049" ry="1.82926829"></ellipse>
                    <ellipse id="XMLID_7797_" fill="#FFAA54" fill-rule="nonzero" cx="10.3658537" cy="30.8536585" rx="3.04878049" ry="1.82926829"></ellipse>
                    <circle id="XMLID_7796_" stroke="#45413C" fill="#45413C" fill-rule="nonzero" stroke-linecap="round" stroke-linejoin="round" cx="13.4146341" cy="23.097561" r="1.2195122"></circle>
                    <circle id="XMLID_7795_" stroke="#45413C" fill="#45413C" fill-rule="nonzero" stroke-linecap="round" stroke-linejoin="round" cx="35.3658537" cy="23.097561" r="1.2195122"></circle>
                    <path d="M20.7317073,37.5609756 L28.0487805,37.5609756" id="XMLID_7794_" stroke="#45413C" stroke-linecap="round" stroke-linejoin="round"></path>
                </g>
            </g>
        </g>
    </g>
</svg>