<?xml version="1.0" encoding="UTF-8"?>
<svg width="51px" height="51px" viewBox="0 0 51 51" version="1.1" xmlns="http://www.w3.org/2000/svg" xmlns:xlink="http://www.w3.org/1999/xlink">
    <!-- Generator: Sketch 48.2 (47327) - http://www.bohemiancoding.com/sketch -->
    <title>4</title>
    <desc>Created with Sketch.</desc>
    <defs></defs>
    <g id="Tablet-9″" stroke="none" stroke-width="1" fill="none" fill-rule="evenodd" transform="translate(-233.000000, -660.000000)">
        <g id="4" transform="translate(234.000000, 661.000000)">
            <g id="Icons">
                <g id="XMLID_6_">
                    <circle id="XMLID_7617_" fill="#FFE500" fill-rule="nonzero" cx="24.3902439" cy="24.7560976" r="24.3902439"></circle>
                    <path d="M24.3902439,0.365853659 C10.9756098,0.365853659 0,11.3414634 0,24.7560976 C0,38.1707317 10.9756098,49.1463415 24.3902439,49.1463415 C37.804878,49.1463415 48.7804878,38.1707317 48.7804878,24.7560976 C48.7804878,11.3414634 37.804878,0.365853659 24.3902439,0.365853659 Z M24.3902439,45.4878049 C12.0731707,45.4878049 2.19512195,35.4878049 2.19512195,23.2926829 C2.19512195,10.9756098 12.0731707,0.975609756 24.3902439,0.975609756 C36.7073171,0.975609756 46.7073171,10.9756098 46.7073171,23.2926829 C46.7073171,35.6097561 36.7073171,45.4878049 24.3902439,45.4878049 Z" id="XMLID_7614_" fill="#EBCB00" fill-rule="nonzero"></path>
                    <ellipse id="XMLID_7613_" fill="#FFF48C" fill-rule="nonzero" cx="24.3902439" cy="5.24390244" rx="7.31707317" ry="1.82926829"></ellipse>
                    <circle id="XMLID_7611_" stroke="#45413C" stroke-linecap="round" stroke-linejoin="round" cx="24.3902439" cy="24.7560976" r="24.3902439"></circle>
                    <ellipse id="XMLID_7610_" fill="#FFAA54" fill-rule="nonzero" cx="39.0243902" cy="30.8536585" rx="3.04878049" ry="1.82926829"></ellipse>
                    <ellipse id="XMLID_7609_" fill="#FFAA54" fill-rule="nonzero" cx="9.75609756" cy="30.8536585" rx="3.04878049" ry="1.82926829"></ellipse>
                    <g id="XMLID_7606_" transform="translate(15.853659, 34.146341)" fill-rule="nonzero" stroke="#45413C" stroke-linecap="round" stroke-linejoin="round">
                        <path d="M1.09756098,0.365853659 C0.731707317,0.365853659 0.487804878,0.487804878 0.243902439,0.731707317 C0,1.09756098 0,1.34146341 0,1.70731707 C0.609756098,5.85365854 4.26829268,8.90243902 8.53658537,8.90243902 C12.804878,8.90243902 16.4634146,5.85365854 17.0731707,1.70731707 C17.0731707,1.34146341 17.0731707,1.09756098 16.8292683,0.731707317 C16.5853659,0.487804878 16.3414634,0.365853659 15.9756098,0.365853659 L1.09756098,0.365853659 Z" id="XMLID_7608_" fill="#FFB0CA"></path>
                        <path d="M15.3658537,5.73170732 C13.6585366,4.75609756 11.2195122,4.14634146 8.53658537,4.14634146 C5.85365854,4.14634146 3.41463415,4.75609756 1.70731707,5.73170732 C3.29268293,7.80487805 5.73170732,9.02439024 8.53658537,9.02439024 C11.3414634,9.02439024 13.7804878,7.68292683 15.3658537,5.73170732 Z" id="XMLID_7607_" fill="#FF87AF"></path>
                    </g>
                    <path d="M39.3902439,20.4878049 L35.4878049,22.4390244 C34.6341463,22.9268293 34.6341463,24.1463415 35.4878049,24.6341463 L39.3902439,26.5853659" id="XMLID_7605_" stroke="#45413C" stroke-linecap="round" stroke-linejoin="round"></path>
                    <path d="M9.3902439,20.4878049 L13.2926829,22.4390244 C14.1463415,22.9268293 14.1463415,24.1463415 13.2926829,24.6341463 L9.3902439,26.5853659" id="XMLID_7604_" stroke="#45413C" stroke-linecap="round" stroke-linejoin="round"></path>
                </g>
            </g>
        </g>
    </g>
</svg>