<?xml version="1.0" encoding="UTF-8"?>
<svg width="51px" height="50px" viewBox="0 0 51 50" version="1.1" xmlns="http://www.w3.org/2000/svg" xmlns:xlink="http://www.w3.org/1999/xlink">
    <!-- Generator: Sketch 48.2 (47327) - http://www.bohemiancoding.com/sketch -->
    <title>5</title>
    <desc>Created with Sketch.</desc>
    <defs></defs>
    <g id="Tablet-9″" stroke="none" stroke-width="1" fill="none" fill-rule="evenodd" transform="translate(-301.000000, -661.000000)">
        <g id="5" transform="translate(326.390244, 686.000000) rotate(-315.000000) translate(-326.390244, -686.000000) translate(302.000000, 661.000000)">
            <g id="Icons">
                <g id="XMLID_734_">
                    <circle id="XMLID_2266_" fill="#FFE500" fill-rule="nonzero" cx="24.3902439" cy="25.1219512" r="24.3902439"></circle>
                    <path d="M24.3902439,0.731707317 C10.9756098,0.731707317 0,11.7073171 0,25.1219512 C0,38.5365854 10.9756098,49.5121951 24.3902439,49.5121951 C37.804878,49.5121951 48.7804878,38.5365854 48.7804878,25.1219512 C48.7804878,11.7073171 37.804878,0.731707317 24.3902439,0.731707317 Z M24.3902439,45.8536585 C12.0731707,45.8536585 2.19512195,35.8536585 2.19512195,23.5365854 C2.19512195,11.3414634 12.0731707,1.34146341 24.3902439,1.34146341 C36.7073171,1.34146341 46.5853659,11.3414634 46.5853659,23.5365854 C46.5853659,35.8536585 36.7073171,45.8536585 24.3902439,45.8536585 Z" id="XMLID_2263_" fill="#EBCB00" fill-rule="nonzero"></path>
                    <ellipse id="XMLID_2262_" fill="#FFF48C" fill-rule="nonzero" cx="24.3902439" cy="5.6097561" rx="7.31707317" ry="1.82926829"></ellipse>
                    <circle id="XMLID_2261_" stroke="#45413C" stroke-linecap="round" stroke-linejoin="round" cx="24.3902439" cy="25.1219512" r="24.3902439"></circle>
                    <ellipse id="XMLID_2260_" fill="#FFAA54" fill-rule="nonzero" transform="translate(35.592793, 13.048110) rotate(-45.000000) translate(-35.592793, -13.048110) " cx="35.5927927" cy="13.0481098" rx="3.04875125" ry="1.82925075"></ellipse>
                    <ellipse id="XMLID_2259_" fill="#FFAA54" fill-rule="nonzero" transform="translate(12.309988, 36.344598) rotate(-45.000000) translate(-12.309988, -36.344598) " cx="12.3099878" cy="36.3445976" rx="3.04875125" ry="1.82925075"></ellipse>
                    <path d="M38.5365854,39.3902439 C45.2439024,32.6829268 46.2195122,22.5609756 40.9756098,15.7317073 C40.6097561,15.3658537 40.1219512,15.1219512 39.6341463,15.1219512 C39.1463415,15.1219512 38.5365854,15.4878049 38.2926829,15.8536585 C31.7073171,24.7560976 24.0243902,32.5609756 15.1219512,39.0243902 C14.6341463,39.3902439 14.3902439,39.8780488 14.3902439,40.3658537 C14.3902439,40.8536585 14.6341463,41.4634146 15,41.7073171 C21.7073171,46.9512195 31.8292683,46.097561 38.5365854,39.3902439 Z" id="XMLID_2258_" stroke="#45413C" fill="#FFB0CA" fill-rule="nonzero" stroke-linecap="round" stroke-linejoin="round"></path>
                    <path d="M32.804878,33.5365854 C28.902439,37.4390244 26.2195122,41.5853659 25.1219512,45.1219512 C29.8780488,45.1219512 34.7560976,43.1707317 38.5365854,39.3902439 C42.3170732,35.6097561 44.2682927,30.7317073 44.2682927,25.9756098 C40.8536585,27.0731707 36.7073171,29.7560976 32.804878,33.5365854 Z" id="XMLID_2257_" stroke="#45413C" fill="#FF87AF" fill-rule="nonzero" stroke-linecap="round" stroke-linejoin="round"></path>
                    <path d="M27.0731707,7.43902439 L25.6097561,11.5853659 C25.2439024,12.5609756 26.2195122,13.4146341 27.195122,13.1707317 L31.3414634,11.8292683" id="XMLID_2256_" stroke="#45413C" stroke-linecap="round" stroke-linejoin="round"></path>
                    <path d="M6.70731707,27.6829268 L10.8536585,26.3414634 C11.8292683,25.9756098 12.6829268,26.9512195 12.4390244,27.9268293 L11.097561,32.0731707" id="XMLID_2255_" stroke="#45413C" stroke-linecap="round" stroke-linejoin="round"></path>
                    <path d="M38.2926829,15.8536585 C31.7073171,24.7560976 24.0243902,32.5609756 15.1219512,39.0243902 C14.6341463,39.3902439 14.3902439,39.8780488 14.3902439,40.3658537 C14.3902439,40.8536585 14.6341463,41.4634146 15,41.7073171 C15.3658537,41.9512195 15.7317073,42.195122 15.9756098,42.4390244 C18.6585366,40.6097561 24.1463415,36.5853659 29.5121951,31.2195122 C35,25.7317073 39.6341463,19.5121951 41.7073171,16.5853659 C41.4634146,16.2195122 41.2195122,15.8536585 40.9756098,15.6097561 C40.6097561,15.2439024 40.1219512,15 39.6341463,15 C39.1463415,15.1219512 38.6585366,15.3658537 38.2926829,15.8536585 Z" id="XMLID_2254_" stroke="#45413C" fill="#FFFFFF" fill-rule="nonzero" stroke-linecap="round" stroke-linejoin="round"></path>
                </g>
            </g>
        </g>
    </g>
</svg>