<?xml version="1.0" encoding="UTF-8"?>
<svg width="10px" height="10px" viewBox="0 0 10 10" version="1.1" xmlns="http://www.w3.org/2000/svg" xmlns:xlink="http://www.w3.org/1999/xlink">
    <!-- Generator: Sketch 48.2 (47327) - http://www.bohemiancoding.com/sketch -->
    <title>letter-x</title>
    <desc>Created with Sketch.</desc>
    <defs></defs>
    <g id="randomizations--create-set" stroke="none" stroke-width="1" fill="none" fill-rule="evenodd" transform="translate(-369.000000, -539.000000)">
        <g id="letter-x" transform="translate(369.000000, 539.000000)" fill="#E81515" fill-rule="nonzero">
            <path d="M0.140657275,0.834225651 C-0.0468857583,0.646729748 -0.0468857583,0.33467363 0.140657275,0.140621927 C0.334757757,-0.0468739757 0.640334867,-0.0468739757 0.834435349,0.140621927 L4.99754096,4.30967418 L9.16764118,0.140621927 C9.35518421,-0.0468739757 9.66731877,-0.0468739757 9.85442464,0.140621927 C10.0485251,0.33467363 10.0485251,0.647166801 9.85442464,0.834225651 L5.69131903,4.9967221 L9.85442464,9.16577435 C10.0485251,9.35327025 10.0485251,9.66532637 9.85442464,9.85937807 C9.66688161,10.046874 9.35474705,10.046874 9.16764118,9.85937807 L4.99754096,5.69032582 L0.834435349,9.85937807 C0.640334867,10.046874 0.334757757,10.046874 0.140657275,9.85937807 C-0.0468857583,9.66532637 -0.0468857583,9.3528332 0.140657275,9.16577435 L4.30376288,4.9967221 L0.140657275,0.834225651 Z" id="Shape"></path>
        </g>
    </g>
</svg>