<?xml version="1.0" encoding="UTF-8"?>
<svg width="21px" height="24px" viewBox="0 0 21 24" version="1.1" xmlns="http://www.w3.org/2000/svg" xmlns:xlink="http://www.w3.org/1999/xlink">
    <!-- Generator: Sketch 46.2 (44496) - http://www.bohemiancoding.com/sketch -->
    <title>Shape</title>
    <desc>Created with Sketch.</desc>
    <defs></defs>
    <g id="Page-1" stroke="none" stroke-width="1" fill="none" fill-rule="evenodd">
        <g id="Desktop-Copy-30" transform="translate(-719.000000, -22.000000)" fill-rule="nonzero" fill="#858687">
            <g id="SUHEADER" transform="translate(0.000000, -2.000000)">
                <path d="M728.046161,34.7076906 C731.002985,34.7076906 733.400045,32.3106701 733.400045,29.3538453 C733.400045,26.3970206 731.003064,24 728.046161,24 C725.089297,24 722.692354,26.3970206 722.692354,29.3538453 C722.692354,32.3106701 725.089336,34.7076906 728.046161,34.7076906 Z M730.606711,31.4965129 C730.36322,32.3018073 729.319887,32.9071409 728.069533,32.9071409 C726.81914,32.9071409 725.775846,32.3017681 725.532316,31.4965129 L730.606711,31.4965129 Z M739.568714,46.8480485 L737.524988,44.804832 C738.172125,44.0853023 738.569263,43.1366353 738.569263,42.0927525 C738.569263,39.8496535 736.75087,38.0312606 734.507693,38.0312606 C732.264594,38.0312606 730.446201,39.8496535 730.446201,42.0927525 C730.446201,44.3359299 732.264594,46.1543228 734.507693,46.1543228 C735.169301,46.1543228 735.791928,45.9927933 736.343929,45.7121657 L738.524518,47.8923235 C738.668126,48.0359314 738.903106,48.035853 739.046636,47.8923235 L739.568675,47.3702841 C739.712322,47.2266369 739.712322,46.9916564 739.568714,46.8480485 Z M734.507732,44.677381 C733.08028,44.677381 731.923103,43.5202041 731.923103,42.0927525 C731.923103,40.6653794 733.08028,39.5082024 734.507732,39.5082024 C735.935105,39.5082024 737.09236,40.6653794 737.09236,42.0927525 C737.09236,43.5202433 735.935144,44.677381 734.507732,44.677381 Z M729.523142,42.0926741 C729.523142,42.730988 729.648161,43.3395373 729.86773,43.9010277 C729.300671,43.925067 728.694278,43.9384787 728.046161,43.9384787 C722.883923,43.9384787 720.357687,43.094949 719.43153,42.6827919 C719.192549,42.5764782 719,42.2724781 719,42.0109093 L719,40.2461243 C719,37.6015742 721.013491,35.4076517 723.582747,35.1138085 C723.660825,35.1048673 723.77659,35.1382791 723.840198,35.1843575 C725.024826,36.0420049 726.47514,36.5537698 728.046082,36.5537698 C729.617063,36.5537698 731.067338,36.0419657 732.252005,35.1843575 C732.315574,35.1382791 732.431378,35.1048673 732.509417,35.1138085 C734.068398,35.2921223 735.419262,36.1724363 736.24334,37.4260447 C735.701889,37.223927 735.118634,37.1080446 734.507575,37.1080446 C731.759182,37.1080838 729.523142,39.3439671 729.523142,42.0926741 Z" id="Shape"></path>
            </g>
        </g>
    </g>
</svg>