<?xml version="1.0" encoding="UTF-8"?>
<svg width="24px" height="24px" viewBox="0 0 24 24" version="1.1" xmlns="http://www.w3.org/2000/svg" xmlns:xlink="http://www.w3.org/1999/xlink">
    <!-- Generator: Sketch 46.2 (44496) - http://www.bohemiancoding.com/sketch -->
    <title>Group 27</title>
    <desc>Created with Sketch.</desc>
    <defs></defs>
    <g id="Page-1" stroke="none" stroke-width="1" fill="none" fill-rule="evenodd">
        <g id="Desktop-Copy-10" transform="translate(-131.000000, -561.000000)">
            <g id="Group-27" transform="translate(131.000000, 561.000000)">
                <path d="M23,15.6666667 C23,16.6786667 22.1786667,17.5 21.1666667,17.5 L17.5,17.5 L17.5,20.25 L12.9166667,17.5 L2.83333333,17.5 C1.82133333,17.5 1,16.6786667 1,15.6666667 L1,2.83333333 C1,1.82133333 1.82133333,1 2.83333333,1 L21.1666667,1 C22.1786667,1 23,1.82133333 23,2.83333333 L23,15.6666667 Z M3,0 C1.3425098,0 0,1.3425098 0,3 L0,16.5 C0,18.1575294 1.3425098,19.5 3,19.5 L12.75,19.5 L19.5,24 L19.5,19.5 L21,19.5 C22.6575294,19.5 24,18.1575294 24,16.5 L24,3 C24,1.3425098 22.6575294,0 21,0 L3,0 Z" id="Page-1" fill="#505B63"></path>
                <polygon id="Path" fill="#2392ED" points="6 9.97691081 18 9.97691081 18 8.47691081 6 8.47691081"></polygon>
                <polygon id="Path" fill="#2392ED" points="6 13.9769108 14 13.9769108 14 12.4769108 6 12.4769108"></polygon>
                <polygon id="Path" fill="#2392ED" points="6 6.46921442 18 6.46921442 18 4.96921442 6 4.96921442"></polygon>
            </g>
        </g>
    </g>
</svg>