<?xml version="1.0" encoding="UTF-8"?>
<svg width="22px" height="27px" viewBox="0 0 22 27" version="1.1" xmlns="http://www.w3.org/2000/svg" xmlns:xlink="http://www.w3.org/1999/xlink">
    <!-- Generator: Sketch 46.2 (44496) - http://www.bohemiancoding.com/sketch -->
    <title>Page 1</title>
    <desc>Created with Sketch.</desc>
    <defs>
        <polygon id="path-1" points="21.1768909 0 0 0 0 26.7825873 21.1768909 26.7825873"></polygon>
    </defs>
    <g id="Page-1" stroke="none" stroke-width="1" fill="none" fill-rule="evenodd">
        <g id="Desktop-Copy-10" transform="translate(-360.000000, -460.000000)">
            <g id="Page-1" transform="translate(360.000000, 460.000000)">
                <g id="Group-3">
                    <mask id="mask-2" fill="white">
                        <use xlink:href="#path-1"></use>
                    </mask>
                    <g id="Clip-2"></g>
                    <path d="M19.3084289,21.1768801 L2.80284285,21.1768801 C2.47534511,21.1768801 2.16102442,21.2338735 1.86855833,21.3375758 L1.86855833,2.80283214 C1.86855833,2.28764188 2.28775972,1.86854762 2.80284285,1.86854762 L19.3084289,1.86854762 L19.3084289,21.1768801 Z M17.5999128,24.9141254 L2.80284285,24.9141254 C2.28775972,24.9141254 1.86855833,24.4950311 1.86855833,23.9798408 C1.86855833,23.4645434 2.28775972,23.0455563 2.80284285,23.0455563 L17.5999128,23.0455563 C17.4963176,23.3379153 17.4398599,23.6523431 17.4398599,23.9798408 C17.4398599,24.3072314 17.4963176,24.6217664 17.5999128,24.9141254 L17.5999128,24.9141254 Z M20.2427135,23.0454492 L21.1768909,23.0454492 L21.1768909,-2.1426087e-05 L2.80284285,-2.1426087e-05 C1.2573792,-2.1426087e-05 -1.07130435e-05,1.25736849 -1.07130435e-05,2.80283214 L-1.07130435e-05,23.9797337 C-1.07130435e-05,25.5253045 1.2573792,26.7825873 2.80284285,26.7825873 L21.1768909,26.7825873 L21.1768909,24.9140182 L20.2427135,24.9140182 C19.7275232,24.9140182 19.3084289,24.4950311 19.3084289,23.9797337 C19.3084289,23.4645434 19.7275232,23.0454492 20.2427135,23.0454492 L20.2427135,23.0454492 Z" id="Fill-1" fill="#505B63" mask="url(#mask-2)"></path>
                </g>
                <path d="M13.6447428,12.4713108 L12.5436562,13.5812268 L9.46076369,10.4733108 L10.5618503,9.3632868 L7.91915673,6.6993588 L7.25859047,7.3651788 C6.1657529,8.4669948 6.1657529,10.2595788 7.25859047,11.3612868 L11.6629369,15.8011668 C12.1922684,16.3347948 12.8962225,16.6286628 13.6447428,16.6288788 L13.6450642,16.6288788 C14.3934774,16.6288788 15.0974315,16.3347948 15.626763,15.8012748 L16.2874364,15.1352388 L13.6447428,12.4713108 Z" id="Fill-4" fill="#2392ED"></path>
            </g>
        </g>
    </g>
</svg>