<?xml version="1.0" encoding="UTF-8"?>
<svg width="40px" height="40px" viewBox="0 0 40 40" version="1.1" xmlns="http://www.w3.org/2000/svg" xmlns:xlink="http://www.w3.org/1999/xlink">
    <!-- Generator: Sketch 48.2 (47327) - http://www.bohemiancoding.com/sketch -->
    <title>icon (6)</title>
    <desc>Created with Sketch.</desc>
    <defs></defs>
    <g id="Graphical-Rating-Likert-Scale-Copy" stroke="none" stroke-width="1" fill="none" fill-rule="evenodd" transform="translate(-573.000000, -520.000000)">
        <g id="icon-(6)" transform="translate(573.000000, 520.000000)" fill="#383838" fill-rule="nonzero">
            <g id="Group">
                <rect id="Rectangle-path" x="13.8646154" y="18.4615385" width="15.3846154" height="3.07692308"></rect>
                <path d="M20.0338462,33.8461538 L4.63384615,33.8461538 C3.78615385,33.8461538 3.09538462,33.1553846 3.09538462,32.3076923 L3.09538462,6.15384615 L33.8646154,6.15384615 L33.8646154,19.1307692 C34.5015385,18.8184615 35.1984615,18.6353846 35.9307692,18.6353846 C36.2753846,18.6353846 36.6123077,18.6784615 36.9415385,18.7507692 L36.9415385,4.61538462 C36.9415385,2.06615385 34.8738462,0 32.3261538,0 L4.63384615,0 C2.08615385,0 0.0184615385,2.06615385 0.0184615385,4.61538462 L0.0184615385,32.3076923 C0.0184615385,34.8553846 2.08615385,36.9230769 4.63384615,36.9230769 L19.1338462,36.9230769 L20.0338462,33.8461538 Z" id="Shape"></path>
                <rect id="Rectangle-path" x="13.8646154" y="12.3076923" width="15.3846154" height="3.07692308"></rect>
                <polygon id="Shape" points="13.8646154 27.6923077 24.7815385 27.6923077 27.8738462 24.6153846 13.8646154 24.6153846"></polygon>
                <rect id="Rectangle-path" x="7.71076923" y="18.4615385" width="3.07692308" height="3.07692308"></rect>
                <rect id="Rectangle-path" x="7.71076923" y="12.3076923" width="3.07692308" height="3.07692308"></rect>
                <rect id="Rectangle-path" x="7.71076923" y="24.6153846" width="3.07692308" height="3.07692308"></rect>
            </g>
            <g id="Group" transform="translate(21.538462, 21.538462)">
                <path d="M17.8092308,2.97538462 L15.4753846,0.636923077 C14.8323077,-0.0107692308 13.7923077,-0.0153846154 13.1569231,0.623076923 L11.28,2.51230769 L15.9415385,7.19384615 L17.82,5.30307692 C18.4584615,4.66461538 18.4538462,3.62153846 17.8092308,2.97538462 Z" id="Shape"></path>
                <path d="M2.08769231,11.5415385 C1.98461538,11.6261538 1.89692308,11.7307692 1.85692308,11.8692308 L0.230769231,17.4307692 C0.158461538,17.6723077 0.226153846,17.9338462 0.403076923,18.1123077 C0.535384615,18.2430769 0.710769231,18.3138462 0.890769231,18.3138462 C0.955384615,18.3138462 1.02153846,18.3046154 1.08461538,18.2846154 L6.62615385,16.6507692 C6.75538462,16.6138462 6.85538462,16.5338462 6.94,16.4384615 L14.5384615,8.87692308 L9.67230769,3.99230769 L2.08769231,11.5415385 Z M2.82461538,16.3353846 L2.17538462,15.6815385 L3.09692308,12.5323077 L5.45384615,13.0184615 L5.92,15.4215385 L2.82461538,16.3353846 Z" id="Shape"></path>
            </g>
        </g>
    </g>
</svg>