<?xml version="1.0" encoding="UTF-8"?>
<svg width="21px" height="21px" viewBox="0 0 21 21" version="1.1" xmlns="http://www.w3.org/2000/svg" xmlns:xlink="http://www.w3.org/1999/xlink">
    <!-- Generator: Sketch 46.2 (44496) - http://www.bohemiancoding.com/sketch -->
    <title>cropping-tool</title>
    <desc>Created with Sketch.</desc>
    <defs></defs>
    <g id="Page-1" stroke="none" stroke-width="1" fill="none" fill-rule="evenodd">
        <g id="Desktop-Copy-19" transform="translate(-731.000000, -648.000000)" fill-rule="nonzero" fill="#FFFFFF">
            <g id="cropping-tool" transform="translate(731.000000, 648.000000)">
                <path d="M20.3,15.909264 L17.309264,15.909264 L17.309264,4.680704 L19.712224,2.277744 C19.98556,2.004352 19.98556,1.561168 19.712224,1.287776 C19.438888,1.01444 18.995592,1.01444 18.722256,1.287776 L16.319296,3.690736 L5.090736,3.690736 L5.090736,0.7 C5.090736,0.313432 4.777304,0 4.390736,0 C4.004168,0 3.690736,0.313432 3.690736,0.7 L3.690736,3.690736 L0.7,3.690736 C0.313432,3.690736 0,4.004168 0,4.390736 C0,4.777304 0.313432,5.090736 0.7,5.090736 L3.690736,5.090736 L3.690736,16.609264 C3.690736,16.995832 4.004168,17.309264 4.390736,17.309264 L15.909264,17.309264 L15.909264,20.3 C15.909264,20.686568 16.222696,21 16.609264,21 C16.995832,21 17.309264,20.686568 17.309264,20.3 L17.309264,17.309264 L20.3,17.309264 C20.686512,17.309264 21,16.995832 21,16.609264 C21,16.222696 20.686512,15.909264 20.3,15.909264 Z M14.919296,5.090736 L5.090736,14.919296 L5.090736,5.090736 L14.919296,5.090736 Z M6.080704,15.909264 L15.909264,6.080704 L15.909264,15.909264 L6.080704,15.909264 Z" id="Shape"></path>
            </g>
        </g>
    </g>
</svg>