<?xml version="1.0" encoding="UTF-8"?>
<svg width="18px" height="18px" viewBox="0 0 18 18" version="1.1" xmlns="http://www.w3.org/2000/svg" xmlns:xlink="http://www.w3.org/1999/xlink">
    <!-- Generator: Sketch 48.2 (47327) - http://www.bohemiancoding.com/sketch -->
    <title>theme-edit</title>
    <desc>Created with Sketch.</desc>
    <defs></defs>
    <g id="Select-theme-and-defualt-Copy" stroke="none" stroke-width="1" fill="none" fill-rule="evenodd" transform="translate(-279.000000, -479.000000)">
        <g id="theme-edit" transform="translate(279.000000, 479.000000)" fill="#5CBB5B" fill-rule="nonzero">
            <path d="M8.99976,0 C4.02938686,0 0,4.02966 0,8.99982 C0,13.96998 4.02938686,18 8.99976,18 C13.9701331,18 18,13.97022 18,8.99982 C18,4.02942 13.9701331,0 8.99976,0 Z M13.0877881,6.23984694 L12.3444795,6.9831505 L10.8314108,5.47019619 L10.2574036,6.04419955 L11.7704724,7.5572582 L8.05930359,11.2680892 L6.54633919,9.75529141 L5.97233201,10.3292948 L7.4852964,11.8422491 L7.11549428,12.2120487 L7.10845093,12.2050054 C7.06744296,12.2725168 7.00076589,12.3217678 6.9215673,12.33935 L5.51065326,12.653951 C5.4895232,12.6586987 5.46802793,12.6609943 5.44679353,12.6609943 C5.3697862,12.6609943 5.29497014,12.630682 5.23951026,12.5750659 C5.1683463,12.5041633 5.13871205,12.4017484 5.1606247,12.3036117 L5.47507128,10.8931245 C5.4928101,10.8139786 5.54216574,10.7471454 5.60957324,10.7062421 L5.60242554,10.6990944 L11.5746672,4.72663176 C11.6622134,4.63924259 11.804437,4.63924259 11.8919832,4.72689263 L13.0878924,5.92253296 C13.1754387,6.01007864 13.1754387,6.15230125 13.0877881,6.23984694 Z" id="Shape"></path>
        </g>
    </g>
</svg>