<?xml version="1.0" encoding="UTF-8"?>
<svg width="25px" height="25px" viewBox="0 0 25 25" version="1.1" xmlns="http://www.w3.org/2000/svg" xmlns:xlink="http://www.w3.org/1999/xlink">
    <!-- Generator: Sketch 46.2 (44496) - http://www.bohemiancoding.com/sketch -->
    <title>Page 1</title>
    <desc>Created with Sketch.</desc>
    <defs></defs>
    <g id="Page-1" stroke="none" stroke-width="1" fill="none" fill-rule="evenodd">
        <g id="Desktop-Copy-10" transform="translate(-359.000000, -562.000000)">
            <g id="Page-1" transform="translate(359.000000, 562.000000)">
                <path d="M21.2797619,20.5357143 L19.7916667,20.5357143 C19.3804067,20.5357143 19.047619,20.2029266 19.047619,19.7916667 L19.047619,18.3035714 C19.047619,17.8923115 19.3804067,17.5595238 19.7916667,17.5595238 C20.2029266,17.5595238 20.5357143,17.8923115 20.5357143,18.3035714 L20.5357143,19.047619 L21.2797619,19.047619 C21.6910218,19.047619 22.0238095,19.3804067 22.0238095,19.7916667 C22.0238095,20.2029266 21.6910218,20.5357143 21.2797619,20.5357143 M19.7916667,14.5833333 C16.9200893,14.5833333 14.5833333,16.9200893 14.5833333,19.7916667 C14.5833333,22.663244 16.9200893,25 19.7916667,25 C22.663244,25 25,22.663244 25,19.7916667 C25,16.9200893 22.663244,14.5833333 19.7916667,14.5833333" id="Fill-1" fill="#2392ED"></path>
                <path d="M18.2452987,10.2083333 L16.7934181,10.2083333 C16.3921668,10.2083333 16.0674779,9.88220139 16.0674779,9.47916667 C16.0674779,9.07613194 16.3921668,8.75 16.7934181,8.75 L18.2452987,8.75 C18.6465501,8.75 18.9712389,9.07613194 18.9712389,9.47916667 C18.9712389,9.88220139 18.6465501,10.2083333 18.2452987,10.2083333 L18.2452987,10.2083333 Z M18.2452987,13.125 L16.7934181,13.125 C16.3921668,13.125 16.0674779,12.7988681 16.0674779,12.3958333 C16.0674779,11.9927986 16.3921668,11.6666667 16.7934181,11.6666667 L18.2452987,11.6666667 C18.6465501,11.6666667 18.9712389,11.9927986 18.9712389,12.3958333 C18.9712389,12.7988681 18.6465501,13.125 18.2452987,13.125 L18.2452987,13.125 Z M13.8896571,10.2083333 L12.4377765,10.2083333 C12.0365252,10.2083333 11.7118363,9.88220139 11.7118363,9.47916667 C11.7118363,9.07613194 12.0365252,8.75 12.4377765,8.75 L13.8896571,8.75 C14.2909085,8.75 14.6155973,9.07613194 14.6155973,9.47916667 C14.6155973,9.88220139 14.2909085,10.2083333 13.8896571,10.2083333 L13.8896571,10.2083333 Z M13.8896571,13.125 L12.4377765,13.125 C12.0365252,13.125 11.7118363,12.7988681 11.7118363,12.3958333 C11.7118363,11.9927986 12.0365252,11.6666667 12.4377765,11.6666667 L13.8896571,11.6666667 C14.2909085,11.6666667 14.6155973,11.9927986 14.6155973,12.3958333 C14.6155973,12.7988681 14.2909085,13.125 13.8896571,13.125 L13.8896571,13.125 Z M13.8896571,16.0416667 L12.4377765,16.0416667 C12.0365252,16.0416667 11.7118363,15.7155347 11.7118363,15.3125 C11.7118363,14.9094653 12.0365252,14.5833333 12.4377765,14.5833333 L13.8896571,14.5833333 C14.2909085,14.5833333 14.6155973,14.9094653 14.6155973,15.3125 C14.6155973,15.7155347 14.2909085,16.0416667 13.8896571,16.0416667 L13.8896571,16.0416667 Z M9.48561947,10.2083333 L7.98534292,10.2083333 C7.58409154,10.2083333 7.25940265,9.88220139 7.25940265,9.47916667 C7.25940265,9.07613194 7.58409154,8.75 7.98534292,8.75 L9.48561947,8.75 C9.88687085,8.75 10.2599558,9.07613194 10.2599558,9.47916667 C10.2599558,9.88220139 9.88687085,10.2083333 9.48561947,10.2083333 L9.48561947,10.2083333 Z M9.48561947,13.125 L7.98534292,13.125 C7.58409154,13.125 7.25940265,12.7988681 7.25940265,12.3958333 C7.25940265,11.9927986 7.58409154,11.6666667 7.98534292,11.6666667 L9.48561947,11.6666667 C9.88687085,11.6666667 10.2599558,11.9927986 10.2599558,12.3958333 C10.2599558,12.7988681 9.88687085,13.125 9.48561947,13.125 L9.48561947,13.125 Z M9.48561947,16.0416667 L7.98534292,16.0416667 C7.58409154,16.0416667 7.25940265,15.7155347 7.25940265,15.3125 C7.25940265,14.9094653 7.58409154,14.5833333 7.98534292,14.5833333 L9.48561947,14.5833333 C9.88687085,14.5833333 10.2599558,14.9094653 10.2599558,15.3125 C10.2599558,15.7155347 9.88687085,16.0416667 9.48561947,16.0416667 L9.48561947,16.0416667 Z M9.48561947,18.9583333 L7.98534292,18.9583333 C7.58409154,18.9583333 7.25940265,18.6322014 7.25940265,18.2291667 C7.25940265,17.8261319 7.58409154,17.5 7.98534292,17.5 L9.48561947,17.5 C9.88687085,17.5 10.2599558,17.8261319 10.2599558,18.2291667 C10.2599558,18.6322014 9.88687085,18.9583333 9.48561947,18.9583333 L9.48561947,18.9583333 Z M5.08158186,10.2083333 L3.62970133,10.2083333 C3.22844994,10.2083333 2.90376106,9.88220139 2.90376106,9.47916667 C2.90376106,9.07613194 3.22844994,8.75 3.62970133,8.75 L5.08158186,8.75 C5.48283324,8.75 5.80752212,9.07613194 5.80752212,9.47916667 C5.80752212,9.88220139 5.48283324,10.2083333 5.08158186,10.2083333 L5.08158186,10.2083333 Z M5.08158186,13.125 L3.62970133,13.125 C3.22844994,13.125 2.90376106,12.7988681 2.90376106,12.3958333 C2.90376106,11.9927986 3.22844994,11.6666667 3.62970133,11.6666667 L5.08158186,11.6666667 C5.48283324,11.6666667 5.80752212,11.9927986 5.80752212,12.3958333 C5.80752212,12.7988681 5.48283324,13.125 5.08158186,13.125 L5.08158186,13.125 Z M5.08158186,16.0416667 L3.62970133,16.0416667 C3.22844994,16.0416667 2.90376106,15.7155347 2.90376106,15.3125 C2.90376106,14.9094653 3.22844994,14.5833333 3.62970133,14.5833333 L5.08158186,14.5833333 C5.48283324,14.5833333 5.80752212,14.9094653 5.80752212,15.3125 C5.80752212,15.7155347 5.48283324,16.0416667 5.08158186,16.0416667 L5.08158186,16.0416667 Z M5.08158186,18.9583333 L3.62970133,18.9583333 C3.22844994,18.9583333 2.90376106,18.6322014 2.90376106,18.2291667 C2.90376106,17.8261319 3.22844994,17.5 3.62970133,17.5 L5.08158186,17.5 C5.48283324,17.5 5.80752212,17.8261319 5.80752212,18.2291667 C5.80752212,18.6322014 5.48283324,18.9583333 5.08158186,18.9583333 L5.08158186,18.9583333 Z M0,7.29166667 L0,19.6875 C0,20.8937361 0.976922013,21.875 2.1778208,21.875 L13.565065,21.875 C13.3210039,21.1873958 13.1637168,20.4582292 13.1637168,19.6875 C13.1637168,19.4378333 13.2098866,19.2009028 13.2370852,18.9583333 L12.4377765,18.9583333 C12.0365252,18.9583333 11.7118363,18.6322014 11.7118363,18.2291667 C11.7118363,17.8261319 12.0365252,17.5 12.4377765,17.5 L13.565065,17.5 C14.4669732,14.9592917 16.8617533,13.125 19.6971792,13.125 C20.4644981,13.125 21.1904383,13.2829861 21.875,13.5281319 L21.875,7.29166667 L0,7.29166667 Z" id="Fill-3" fill="#505B63"></path>
                <path d="M19.6971792,1.53688525 L18.9712389,1.53688525 L18.9712389,0.768442623 C18.9712389,0.34369877 18.6465501,0 18.2452987,0 C17.8440473,0 17.5193584,0.34369877 17.5193584,0.768442623 L17.5193584,1.53688525 L14.6155973,1.53688525 L14.6155973,0.768442623 C14.6155973,0.34369877 14.2909085,0 13.8896571,0 C13.4884057,0 13.1637168,0.34369877 13.1637168,0.768442623 L13.1637168,1.53688525 L8.71128319,1.53688525 L8.71128319,0.768442623 C8.71128319,0.34369877 8.3865943,0 7.98534292,0 C7.58409154,0 7.25940265,0.34369877 7.25940265,0.768442623 L7.25940265,1.53688525 L4.35564159,1.53688525 L4.35564159,0.768442623 C4.35564159,0.34369877 4.03095271,0 3.62970133,0 C3.22844994,0 2.90376106,0.34369877 2.90376106,0.768442623 L2.90376106,1.53688525 L2.1778208,1.53688525 C0.976922013,1.53688525 0,2.5710041 0,3.84221311 L0,6.25 L21.875,6.25 L21.875,3.84221311 C21.875,2.5710041 20.898078,1.53688525 19.6971792,1.53688525" id="Fill-5" fill="#505B63"></path>
            </g>
        </g>
    </g>
</svg>