<?xml version="1.0" encoding="UTF-8"?>
<svg width="12px" height="16px" viewBox="0 0 12 16" version="1.1" xmlns="http://www.w3.org/2000/svg" xmlns:xlink="http://www.w3.org/1999/xlink">
    <!-- Generator: Sketch 46.2 (44496) - http://www.bohemiancoding.com/sketch -->
    <title>trash</title>
    <desc>Created with Sketch.</desc>
    <defs></defs>
    <g id="Page-1" stroke="none" stroke-width="1" fill="none" fill-rule="evenodd">
        <g id="Desktop-Copy-8" transform="translate(-1381.000000, -357.000000)" fill-rule="nonzero" fill="#505B63">
            <g id="trash" transform="translate(1381.000000, 357.000000)">
                <path d="M10.3333437,1.66665625 L8.33334375,1.66665625 L8.03534375,1.07065625 C7.80934375,0.61865625 7.34734375,0.3333125 6.8426875,0.3333125 L5.15734375,0.3333125 C4.652,0.3333125 4.1906875,0.61865625 3.9646875,1.07065625 L3.6666875,1.66665625 L1.6666875,1.66665625 C0.93,1.66665625 0.33334375,2.26334375 0.33334375,3 L0.33334375,3.66665625 L11.6666875,3.66665625 L11.6666875,3 C11.6666563,2.26334375 11.07,1.66665625 10.3333437,1.66665625 Z" id="Shape"></path>
                <path d="M10.3333438,1.33334375 L8.53934375,1.33334375 L8.3326875,0.92134375 C8.04865625,0.35265625 7.47734375,0 6.842,0 L5.15734375,0 C4.522,0 3.95134375,0.35265625 3.6666875,0.92134375 L3.4606875,1.33334375 L1.6666875,1.33334375 C0.74734375,1.33334375 0,2.08134375 0,3 L0,3.66665625 C0,3.85065625 0.14934375,4 0.33334375,4 L11.6666875,4 C11.8506875,4 12.0000312,3.85065625 12.0000312,3.66665625 L12.0000312,3 C12,2.08134375 11.2526563,1.33334375 10.3333438,1.33334375 Z M11.3333438,3.33334375 L0.66665625,3.33334375 L0.66665625,3 C0.66665625,2.44865625 1.1153125,2 1.66665625,2 L3.66665625,2 C3.79265625,2 3.908,1.92865625 3.96465625,1.816 L4.2633125,1.21934375 C4.4333125,0.8786875 4.77596875,0.6666875 5.15796875,0.6666875 L6.842625,0.6666875 C7.22396875,0.6666875 7.566625,0.8786875 7.73728125,1.21934375 L8.03528125,1.816 C8.0919375,1.92865625 8.20728125,2 8.33328125,2 L10.3332813,2 C10.884625,2 11.3332813,2.44865625 11.3332813,3 L11.3332813,3.33334375 L11.3333438,3.33334375 Z" id="Shape"></path>
                <path d="M11,4.66665625 L1,4.66665625 C0.816,4.66665625 0.66665625,4.816 0.66665625,5 L0.66665625,13.6666562 C0.66665625,14.9533437 1.71334375,16 3,16 L9,16 C10.2866563,16 11.3333438,14.9533437 11.3333438,13.6666562 L11.3333438,5 C11.3333438,4.816 11.184,4.66665625 11,4.66665625 Z M3.33334375,13.6666562 C3.33334375,13.8506563 3.184,14 3,14 C2.816,14 2.66665625,13.8506563 2.66665625,13.6666562 L2.66665625,5.66665625 C2.66665625,5.48265625 2.816,5.3333125 3,5.3333125 C3.184,5.3333125 3.33334375,5.48265625 3.33334375,5.66665625 L3.33334375,13.6666562 Z M5.33334375,13.6666562 C5.33334375,13.8506563 5.184,14 5,14 C4.816,14 4.66665625,13.8506563 4.66665625,13.6666562 L4.66665625,5.66665625 C4.66665625,5.48265625 4.816,5.3333125 5,5.3333125 C5.184,5.3333125 5.33334375,5.48265625 5.33334375,5.66665625 L5.33334375,13.6666562 Z M7.33334375,13.6666562 C7.33334375,13.8506563 7.184,14 7,14 C6.816,14 6.66665625,13.8506563 6.66665625,13.6666562 L6.66665625,5.66665625 C6.66665625,5.48265625 6.816,5.3333125 7,5.3333125 C7.184,5.3333125 7.33334375,5.48265625 7.33334375,5.66665625 L7.33334375,13.6666562 Z M9.33334375,13.6666562 C9.33334375,13.8506563 9.184,14 9,14 C8.816,14 8.66665625,13.8506563 8.66665625,13.6666562 L8.66665625,5.66665625 C8.66665625,5.48265625 8.816,5.3333125 9,5.3333125 C9.184,5.3333125 9.33334375,5.48265625 9.33334375,5.66665625 L9.33334375,13.6666562 Z" id="Shape"></path>
            </g>
        </g>
    </g>
</svg>