<?xml version="1.0" encoding="UTF-8"?>
<svg width="25px" height="22px" viewBox="0 0 25 22" version="1.1" xmlns="http://www.w3.org/2000/svg" xmlns:xlink="http://www.w3.org/1999/xlink">
    <!-- Generator: Sketch 46.2 (44496) - http://www.bohemiancoding.com/sketch -->
    <title>Page 1</title>
    <desc>Created with Sketch.</desc>
    <defs>
        <polygon id="path-1" points="11.6355556 0.0634675556 11.6355556 11.7425342 0.0423768889 11.7425342 0.0423768889 0.0634675556 11.6355556 0.0634675556"></polygon>
    </defs>
    <g id="Page-1" stroke="none" stroke-width="1" fill="none" fill-rule="evenodd">
        <g id="Desktop-Copy-30" transform="translate(-503.000000, -22.000000)">
            <g id="SUHEADER" transform="translate(0.000000, -2.000000)">
                <g id="Page-1" transform="translate(503.000000, 24.000000)">
                    <path d="M8.86402489,16.362632 C8.641776,17.455592 8.49735822,17.9839831 7.65382933,18.0515476 C7.44605156,18.0683653 7.27670044,18.2252009 7.244336,18.4312187 C7.211776,18.6371387 7.32470933,18.8384631 7.51733156,18.9182498 C7.57159822,18.9407387 8.861776,19.4678587 10.369216,19.4679564 L10.3697049,19.4679564 C11.4202293,19.4679564 12.3213493,19.2132453 13.047936,18.7112542 C13.9089671,18.1161787 14.502576,17.1849431 14.8183004,15.944632 L11.9175271,13.0205876 C9.46604267,13.4173698 9.118736,15.110392 8.86402489,16.362632" id="Fill-1" fill="#5CBC5D"></path>
                    <g id="Group-5" transform="translate(12.808889, 3.285431)">
                        <mask id="mask-2" fill="white">
                            <use xlink:href="#path-1"></use>
                        </mask>
                        <g id="Clip-4"></g>
                        <path d="M11.4629191,0.235947556 C11.3849902,0.157334222 11.2457547,0.0634675556 11.0263413,0.0634675556 C10.7688924,0.0634675556 10.0850347,0.0634675556 5.93202133,3.59754756 C4.01352356,5.22994756 1.80169244,7.249352 0.0423768889,8.96789422 L2.79511467,11.7425342 C4.60459022,9.86158311 6.71541689,7.50425867 8.39416356,5.48113867 C9.45427022,4.203672 10.2693458,3.14962756 10.8169991,2.34833867 C11.5422169,1.28696089 11.8599947,0.635956444 11.4629191,0.235947556" id="Fill-3" fill="#5CBC5D" mask="url(#mask-2)"></path>
                    </g>
                    <path d="M4.19236889,17.3463351 C3.53158667,16.8242018 3.42295556,15.8700862 3.94978222,15.2148773 C4.47612,14.5610373 5.43844889,14.4536773 6.09913333,14.9758107 C6.75932889,15.497944 6.86805778,16.4520596 6.34172,17.1060951 C5.81538222,17.761304 4.85295556,17.8684684 4.19236889,17.3463351 M3.38824444,7.342984 C2.86141778,6.68748178 2.96975556,5.733464 3.63014667,5.21172178 C4.29044,4.69095733 5.25237778,4.79773067 5.78018222,5.45205956 C6.30583556,6.106584 6.19710667,7.060504 5.53730222,7.58332178 C4.87847556,8.10525956 3.91497333,7.99731289 3.38824444,7.342984 M8.35173778,4.55670844 C8.53956889,3.73918844 9.35953333,3.22888622 10.1833111,3.41613067 C11.0059156,3.60249511 11.5214,4.41502844 11.33484,5.23137511 C11.1469111,6.04684178 10.3266533,6.55733956 9.50277778,6.37097511 C8.67939111,6.18568622 8.16371111,5.37227289 8.35173778,4.55670844 M13.73196,19.7011173 C12.8004311,20.3447884 11.6691422,20.6711707 10.3690889,20.6711707 C8.65797778,20.6710729 7.21663556,20.095944 7.05667111,20.0298462 C6.34788,19.7361218 5.93623556,19.0017129 6.05572,18.2439351 C6.17256444,17.5015084 6.76734667,16.9372329 7.51026222,16.856664 C7.57499111,16.6632596 7.64656444,16.311064 7.68489333,16.122744 C7.82618222,15.4286196 8.01948889,14.4778284 8.61427111,13.6315618 C9.26380889,12.7075618 10.2429556,12.1150284 11.5285378,11.8667707 C12.2663689,11.1346107 13.1081378,10.3294107 13.9865733,9.51228178 C13.5425644,9.41597067 13.1455867,9.126744 12.9325289,8.68928622 C12.56596,7.93571289 12.8856933,7.02931289 13.64572,6.66665511 C14.4078,6.30311733 15.3219244,6.62060178 15.6880044,7.37525067 C15.7601644,7.52406844 15.8048489,7.67855733 15.8256756,7.83373067 C16.5542178,7.18125956 17.2778711,6.54785511 17.9609467,5.96656622 C17.9649556,5.963144 17.9687689,5.95981956 17.9729733,5.95639733 C17.2052222,4.48718844 16.1042444,3.18547289 14.7627333,2.18872622 C12.8364133,0.757552889 10.5426444,0.000655111111 8.12968444,6.84444444e-05 L8.12782667,6.84444444e-05 C6.49933778,6.84444444e-05 4.51982667,0.569037333 2.96144444,1.48521511 C1.05145333,2.60819289 -0.000342222222,4.10996178 4.88888889e-05,5.71390844 C0.000635555556,7.65020178 1.09271556,8.46019289 1.97027111,9.110904 C2.68580889,9.64164178 3.25106222,10.0608151 3.25125778,10.9793396 C3.25155111,11.8977662 2.68668889,12.3165484 1.97154222,12.8466996 C1.09418222,13.4971173 0.00229777778,14.3066196 0.00288444444,16.2432062 C0.00337333333,17.8468596 1.05585333,19.3490196 2.96643111,20.4729751 C4.52588889,21.3903262 6.50647556,21.9605662 8.13525778,21.9609573 L8.13838667,21.9609573 C11.0943067,21.9609573 13.8729556,20.8200862 15.9629556,18.7482729 C17.53004,17.1948773 18.5692222,15.2576062 18.9916222,13.1499084 C17.9423689,14.3132684 16.8861733,15.4430907 15.9412489,16.407864 C15.54036,17.8576151 14.7982267,18.964264 13.73196,19.7011173" id="Fill-6" fill="#0A73BA"></path>
                </g>
            </g>
        </g>
    </g>
</svg>