<?xml version="1.0" encoding="UTF-8"?>
<svg width="20px" height="20px" viewBox="0 0 20 20" version="1.1" xmlns="http://www.w3.org/2000/svg" xmlns:xlink="http://www.w3.org/1999/xlink">
    <!-- Generator: Sketch 48.2 (47327) - http://www.bohemiancoding.com/sketch -->
    <title>Group 8</title>
    <desc>Created with Sketch.</desc>
    <defs></defs>
    <g id="Graphical-Rating-Likert-Scale-Copy" stroke="none" stroke-width="1" fill="none" fill-rule="evenodd" transform="translate(-908.000000, -562.000000)">
        <g id="Group-8" transform="translate(908.000000, 562.000000)" fill-rule="nonzero">
            <g id="minus">
                <path d="M10,0 C4.4859375,0 0,4.4859375 0,10 C0,15.5140625 4.4859375,20 10,20 C15.5140625,20 20,15.5140625 20,10 C20,4.4859375 15.5140625,0 10,0 Z" id="Shape" fill="#747474"></path>
                <path d="M5,10 C5,12.7570194 7.24298063,15 10,15 C12.7570194,15 15,12.7570194 15,10 C15,7.24298063 12.757079,5 10,5 C7.24292101,5 5,7.24298063 5,10 Z M10,14.1058718 C7.73603577,14.1058718 5.89418778,12.2640238 5.89418778,10 C5.89418778,9.02879285 6.23385991,8.13579732 6.79976155,7.43201192 L12.5679881,13.2002385 C11.8642027,13.7661401 10.9712668,14.1058718 10,14.1058718 Z M14.1058122,10 C14.1058122,10.9712072 13.7661401,11.8642027 13.2002981,12.5679881 L7.43201192,6.79976155 C8.13579732,6.23385991 9.02879285,5.89418778 10,5.89418778 C12.2639642,5.89418778 14.1058122,7.73603577 14.1058122,10 Z" id="Shape" fill="#FFFFFF"></path>
            </g>
        </g>
    </g>
</svg>