<?xml version="1.0" encoding="UTF-8"?>
<svg width="18px" height="18px" viewBox="0 0 18 18" version="1.1" xmlns="http://www.w3.org/2000/svg" xmlns:xlink="http://www.w3.org/1999/xlink">
    <!-- Generator: Sketch 46.2 (44496) - http://www.bohemiancoding.com/sketch -->
    <title>Group 14</title>
    <desc>Created with Sketch.</desc>
    <defs></defs>
    <g id="Page-1" stroke="none" stroke-width="1" fill="none" fill-rule="evenodd">
        <g id="Desktop-Copy-11" transform="translate(-389.000000, -415.000000)">
            <g id="Group-14" transform="translate(389.000000, 415.000000)">
                <rect id="Rectangle-12" fill="#A7A5A5" x="0" y="0" width="18" height="18" rx="2"></rect>
                <path d="M3,9 C3,12.3084144 5.69160082,15 9.00003389,15 C12.3083992,15 15,12.3084144 15,9 C15,5.69158562 12.3083992,3 9.00003389,3 C5.69160082,3 3,5.69158562 3,9 Z M9.00003389,4.64722627 C11.4001966,4.64722627 13.3529,6.59991867 13.3529,9.00006778 C13.3529,9.9031143 13.0763048,10.7427226 12.6036328,11.4388492 L6.56117095,5.39648921 C7.25736926,4.92381985 8.09698226,4.64722627 9.00003389,4.64722627 Z M11.4388291,12.6035786 C10.7426307,13.0762479 9.90308552,13.3528415 9.00003389,13.3528415 C6.59987123,13.3528415 4.64723557,11.4001491 4.64723557,9 C4.64723557,8.09695347 4.92383072,7.25741299 5.39643497,6.56121861 L11.4388291,12.6035786 Z" id="Shape" fill="#FFFFFF" fill-rule="nonzero"></path>
            </g>
        </g>
    </g>
</svg>