<?xml version="1.0" encoding="UTF-8"?>
<svg width="30px" height="29px" viewBox="0 0 30 29" version="1.1" xmlns="http://www.w3.org/2000/svg" xmlns:xlink="http://www.w3.org/1999/xlink">
    <!-- Generator: Sketch 48.2 (47327) - http://www.bohemiancoding.com/sketch -->
    <title>Dislikes-active</title>
    <desc>Created with Sketch.</desc>
    <defs></defs>
    <g id="Graphical-Rating-Likert-Scale-Copy" stroke="none" stroke-width="1" fill="none" fill-rule="evenodd" transform="translate(-1048.000000, -533.000000)">
        <g id="Dislikes-active" transform="translate(1048.000000, 533.000000)" fill="#383838" fill-rule="nonzero">
            <path d="M28.974,13.089 C29.658,13.872 30,14.799 30,15.868 C30,16.838 29.645,17.677 28.937,18.386 C28.228,19.096 27.389,19.45 26.419,19.45 L21.25,19.45 C21.3,19.624 21.35,19.773 21.4,19.897 C21.449,20.022 21.518,20.159 21.604,20.307 C21.8602693,20.7550017 22.0938964,21.2155809 22.304,21.687 C22.422,21.962 22.54,22.335 22.658,22.807 C22.777,23.28 22.836,23.752 22.836,24.225 C22.836,24.523 22.832,24.766 22.826,24.952 C22.8097847,25.2334399 22.7787416,25.5138291 22.733,25.792 C22.6902289,26.1094771 22.6151735,26.4217612 22.509,26.724 C22.3908844,27.0195638 22.2406495,27.3012542 22.061,27.564 C21.8665363,27.8639983 21.6126448,28.1209529 21.315,28.319 C21.022,28.512 20.649,28.674 20.195,28.804 C19.741,28.934 19.228,29 18.655,29 C18.332,29 18.052,28.882 17.815,28.645 C17.5508182,28.3737767 17.3362361,28.0583344 17.181,27.713 C17.0296869,27.4017237 16.9078227,27.0769758 16.817,26.743 C16.7271416,26.3662653 16.6494347,25.9867354 16.584,25.605 C16.504637,25.2279791 16.4206307,24.8519505 16.332,24.477 C16.2475498,24.1670194 16.1381941,23.8643682 16.005,23.572 C15.843,23.199 15.651,22.901 15.427,22.677 C15.017,22.267 14.388,21.52 13.542,20.438 C12.9462748,19.6590222 12.3173618,18.9059947 11.657,18.181 C11.01,17.472 10.537,17.106 10.239,17.081 C9.93312201,17.0583276 9.6469036,16.9216423 9.437,16.698 C9.213,16.468 9.101,16.198 9.101,15.887 L9.101,3.93 C9.101,3.607 9.219,3.33 9.456,3.1 C9.692,2.87 9.972,2.749 10.296,2.736 C10.731,2.724 11.713,2.45 13.243,1.916 C14.201,1.592 14.951,1.346 15.492,1.179 C16.032,1.011 16.789,0.831 17.758,0.638 C18.728,0.445 19.624,0.348 20.445,0.348 L22.852,0.348 C24.507,0.373 25.732,0.858 26.528,1.803 C27.25,2.661 27.554,3.787 27.443,5.18 C27.928,5.64 28.263,6.224 28.45,6.933 C28.661,7.691 28.661,8.419 28.45,9.115 C29.022,9.873 29.29,10.725 29.252,11.67 C29.254,12.069 29.161,12.541 28.974,13.089 Z M6.56,17.202 L1.193,17.202 C0.87,17.202 0.59,17.085 0.354,16.852 C0.125660515,16.6366358 -0.0026183129,16.3358691 1.66533454e-16,16.022 L1.66533454e-16,4.224 C1.66533454e-16,3.905 0.118,3.629 0.354,3.394 C0.59,3.162 0.87,3.044 1.193,3.044 L6.56,3.044 C6.883,3.044 7.163,3.162 7.399,3.394 C7.635,3.629 7.753,3.905 7.753,4.224 L7.753,16.022 C7.753,16.342 7.635,16.618 7.399,16.852 C7.163,17.086 6.883,17.202 6.56,17.202 Z M4.417,5.746 C4.19457613,5.52412195 3.8921462,5.40120347 3.578,5.405 C3.243,5.405 2.96,5.518 2.73,5.745 C2.5,5.973 2.386,6.252 2.386,6.585 C2.386,6.904 2.5,7.18 2.73,7.414 C2.96,7.647 3.243,7.764 3.578,7.764 C3.901,7.764 4.181,7.647 4.417,7.414 C4.653,7.18 4.771,6.904 4.771,6.584 C4.771,6.252 4.653,5.973 4.417,5.746 Z" id="Shape"></path>
        </g>
    </g>
</svg>