<?xml version="1.0" encoding="UTF-8"?>
<svg width="25px" height="23px" viewBox="0 0 25 23" version="1.1" xmlns="http://www.w3.org/2000/svg" xmlns:xlink="http://www.w3.org/1999/xlink">
    <!-- Generator: Sketch 48.2 (47327) - http://www.bohemiancoding.com/sketch -->
    <title>Shape</title>
    <desc>Created with Sketch.</desc>
    <defs></defs>
    <g id="Dropdown-active" stroke="none" stroke-width="1" fill="none" fill-rule="evenodd" transform="translate(-1142.000000, -675.000000)">
        <path d="M1149.09555,684.086913 C1148.73808,683.72433 1148.1559,683.72433 1147.79332,684.081806 C1147.43073,684.439282 1147.43073,685.021457 1147.78821,685.38404 L1152.14942,689.775886 C1152.32305,689.949517 1152.55285,690.046547 1152.79798,690.046547 C1152.79798,690.046547 1152.79798,690.046547 1152.80309,690.046547 C1153.04821,690.046547 1153.27802,689.949517 1153.45165,689.780993 L1166.72933,676.574812 C1167.0868,676.217336 1167.09191,675.635161 1166.73443,675.272579 C1166.37696,674.909996 1165.79478,674.909996 1165.4322,675.267472 L1160.73905,679.929979 C1158.74229,677.473609 1155.7395,676.033492 1152.54775,676.033492 C1151.05656,676.033492 1149.61644,676.3399 1148.26825,676.937395 C1146.96602,677.51957 1145.80677,678.341765 1144.83137,679.393765 C1143.85598,680.440659 1143.11549,681.65097 1142.63034,682.988951 C1142.12477,684.383107 1141.9205,685.848758 1142.02774,687.350157 C1142.39032,692.543771 1146.58301,696.741559 1151.77662,697.114356 C1152.03196,697.134783 1152.29241,697.13989 1152.54775,697.13989 C1154.96326,697.13989 1157.29707,696.322802 1159.17637,694.800976 C1161.2293,693.146373 1162.5775,690.802353 1162.98094,688.208099 C1163.06264,687.676992 1163.1035,687.130565 1163.1035,686.584137 C1163.1035,686.078564 1162.68985,685.664914 1162.18428,685.664914 C1161.6787,685.664914 1161.26505,686.078564 1161.26505,686.584137 C1161.26505,687.033536 1161.2293,687.482934 1161.16292,687.927225 C1160.4786,692.37014 1156.41359,695.597636 1151.9094,695.275908 C1147.62479,694.9695 1144.16238,691.507091 1143.86108,687.21738 C1143.68745,684.766117 1144.50965,682.43231 1146.17446,680.644931 C1147.81885,678.883085 1150.14244,677.871939 1152.54775,677.871939 C1155.24414,677.871939 1157.77711,679.123105 1159.4266,681.237319 L1152.80819,687.825089 L1149.09555,684.086913 Z" id="Shape" fill="#75B868" fill-rule="nonzero"></path>
    </g>
</svg>