<?xml version="1.0" encoding="UTF-8"?>
<svg width="12px" height="13px" viewBox="0 0 12 13" version="1.1" xmlns="http://www.w3.org/2000/svg" xmlns:xlink="http://www.w3.org/1999/xlink">
    <!-- Generator: Sketch 46.2 (44496) - http://www.bohemiancoding.com/sketch -->
    <title>Page 1</title>
    <desc>Created with Sketch.</desc>
    <defs>
        <polygon id="path-1" points="7.66369596e-17 8.05262199 7.66369596e-17 0.00344154135 7.99656667 0.00344154135 7.99656667 8.05262199"></polygon>
    </defs>
    <g id="Page-1" stroke="none" stroke-width="1" fill="none" fill-rule="evenodd">
        <g id="Desktop-Copy-8" transform="translate(-1369.000000, -534.000000)">
            <g id="Page-1" transform="translate(1369.000000, 534.550000)">
                <g id="Group-3" transform="translate(0.000000, 4.026316)">
                    <mask id="mask-2" fill="white">
                        <use xlink:href="#path-1"></use>
                    </mask>
                    <g id="Clip-2"></g>
                    <path d="M7.74923333,0.00344154135 L0.247352381,0.00344154135 C0.111304762,0.00344154135 -4.76190476e-06,0.115483365 -4.76190476e-06,0.252426034 L-4.76190476e-06,7.80366147 C-4.76190476e-06,7.94058017 0.111304762,8.05262199 0.247352381,8.05262199 L7.74923333,8.05262199 C7.88525714,8.05262199 7.99656667,7.94065207 7.99656667,7.80366147 L7.99656667,0.252426034 C7.99656667,0.115483365 7.88523333,0.00344154135 7.74923333,0.00344154135" id="Fill-1" fill="#505B63" mask="url(#mask-2)"></path>
                </g>
                <path d="M11.7957167,0 L4.20423634,0 C4.09183829,0 4,0.09253726 4,0.205580607 L4,3.44388859 C4,3.57538269 4.13129144,3.57890274 4.13129144,3.57890274 L8.28133545,3.57890274 C8.38218623,3.57890274 8.4446635,3.67562155 8.4446635,3.7548582 L8.4446635,7.91301064 C8.4446635,7.91301064 8.44935751,8.05263158 8.58116529,8.05263158 L11.7958106,8.05263158 C11.9080913,8.05263158 12,7.96016519 12,7.8470746 L12,0.205556982 C11.9999061,0.09253726 11.9079505,0 11.7957167,0" id="Fill-4" fill="#505B63"></path>
            </g>
        </g>
    </g>
</svg>