<?xml version="1.0" encoding="UTF-8"?>
<svg width="20px" height="20px" viewBox="0 0 20 20" version="1.1" xmlns="http://www.w3.org/2000/svg" xmlns:xlink="http://www.w3.org/1999/xlink">
    <!-- Generator: Sketch 48.2 (47327) - http://www.bohemiancoding.com/sketch -->
    <title>facebook</title>
    <desc>Created with Sketch.</desc>
    <defs></defs>
    <g id="NPS-promoter-amplification" stroke="none" stroke-width="1" fill="none" fill-rule="evenodd" transform="translate(-56.000000, -236.000000)">
        <g id="facebook" transform="translate(56.000000, 236.000000)" fill-rule="nonzero">
            <path d="M9.99996567,0 C15.5231207,0 20,4.47749718 20,10.0000343 C20,15.5231894 15.5231207,20 9.99996567,20 C4.47681064,20 0,15.5231207 0,10.0000343 C0,4.47749718 4.4768793,0 9.99996567,0 Z" id="Shape" fill="#3B5998"></path>
            <path d="M11.2787103,7.06672144 L12.6315789,7.06672144 L12.6315789,5.26315789 L11.0412448,5.26315789 L11.0412448,5.26966191 C9.11427892,5.33125494 8.71934389,6.3088085 8.68453483,7.33553241 L8.68057107,7.33553241 L8.68057107,8.23614347 L7.36842105,8.23614347 L7.36842105,10.002374 L8.68057107,10.002374 L8.68057107,14.7368421 L10.6580569,14.7368421 L10.6580569,10.002374 L12.2779391,10.002374 L12.5908603,8.23614347 L10.6587055,8.23614347 L10.6587055,7.69201751 C10.6587055,7.34502828 10.9145485,7.06672144 11.2787103,7.06672144 Z" id="Shape" fill="#FFFFFF"></path>
        </g>
    </g>
</svg>