<?xml version="1.0" encoding="UTF-8"?>
<svg width="30px" height="22px" viewBox="0 0 30 22" version="1.1" xmlns="http://www.w3.org/2000/svg" xmlns:xlink="http://www.w3.org/1999/xlink">
    <!-- Generator: Sketch 46.2 (44496) - http://www.bohemiancoding.com/sketch -->
    <title>Group 2</title>
    <desc>Created with Sketch.</desc>
    <defs></defs>
    <g id="Page-1" stroke="none" stroke-width="1" fill="none" fill-rule="evenodd">
        <g id="Desktop-Copy-10" transform="translate(-241.000000, -664.000000)" fill-rule="nonzero">
            <g id="Group-2" transform="translate(241.000000, 664.000000)">
                <polygon id="Shape" fill="#2392ED" points="16.1666602 10.1477676 12 15.559827 15 15.559827 15 21.9867405 17.3333203 21.9867405 17.3333203 15.559827 20.3333203 15.559827"></polygon>
                <path d="M23.8836328,8.54301622 C23.9556445,8.12965405 23.9999414,7.70648108 23.9999414,7.27254595 C23.9999414,3.25641622 20.7909375,0 16.8332812,0 C13.4399414,0 10.6039453,2.39621622 9.86197266,5.61035676 C9.02964844,5.26668108 8.120625,5.07385405 7.16666016,5.07385405 C3.20865234,5.07379459 0,8.33027027 0,12.3464 C0,16.3057459 3.11964844,19.5198865 7.00001953,19.6105027 L7.00001953,19.6189459 L13.3333594,19.6189459 L13.3333594,17.2511514 L8.58304687,17.2511514 L16.1667187,7.40074054 L23.7503906,17.2511514 L19.0000781,17.2511514 L19.0000781,19.6189459 L30,19.6189459 C30,19.6189459 30,15.9001135 30,15.7289892 C30,12.0757405 27.3420117,9.06019459 23.8836328,8.54301622 Z" id="Shape" fill="#505B63"></path>
            </g>
        </g>
    </g>
</svg>