<?xml version="1.0" encoding="UTF-8"?>
<svg width="15px" height="13px" viewBox="0 0 15 13" version="1.1" xmlns="http://www.w3.org/2000/svg" xmlns:xlink="http://www.w3.org/1999/xlink" xmlns:sketch="http://www.bohemiancoding.com/sketch/ns">
    <!-- Generator: Sketch 3.0.1 (7597) - http://www.bohemiancoding.com/sketch -->
    <title>Rectangle 526 + forward-arrow 2</title>
    <description>Created with Sketch.</description>
    <defs></defs>
    <g id="Page-1" stroke="none" stroke-width="1" fill="none" fill-rule="evenodd" sketch:type="MSPage">
        <g id="Mobile-Portrait" sketch:type="MSArtboardGroup" transform="translate(-762.000000, -649.000000)">
            <g id="Rectangle-526-+-forward-arrow-2" sketch:type="MSLayerGroup" transform="translate(762.000000, 650.000000)">
                <g id="Group" transform="translate(0.000000, -0.200000)" sketch:type="MSShapeGroup">
                    <path d="M9.34865799,5.3244621 L6.94539954,2.35525695 C6.8219379,2.20351505 6.63736596,2.15843268 6.47713405,2.24031296 C6.31658188,2.32293514 6.21197576,2.515679 6.21197576,2.73053129 L6.21197576,4.02765744 L3.0956703,4.02765744 C2.77975023,4.02805311 2.52311896,4.34474261 2.52311896,4.73465697 L2.52311896,6.66479117 C2.52311896,7.05475499 2.77973021,7.37107354 3.09597055,7.37107354 L6.21197576,7.37107354 L6.21197576,8.66896631 C6.21197576,8.88418954 6.31660189,9.07730435 6.47713405,9.15992653 C6.63736596,9.24148533 6.8219379,9.19640295 6.94539954,9.04426537 L9.34867801,6.0750355 C9.5165362,5.86770106 9.5165362,5.53182126 9.34865799,5.3244621 L9.34865799,5.3244621 Z" id="Shape" fill="#505B63"></path>
                    <ellipse id="Oval-67" stroke="#505B63" cx="8.61538462" cy="5.5" rx="5.38461538" ry="5.5"></ellipse>
                    <path d="M1.6256773,4.04545455 L1.46383595,4.04545455 C1.19564055,4.04545455 0.978352249,4.30906179 0.978352249,4.63442216 L0.978352249,6.76557784 C0.978352249,7.09088925 1.19564055,7.35454545 1.46383595,7.35454545 L1.6256773,7.35454545 C1.89387269,7.35454545 2.11118117,7.09091373 2.11118117,6.76557784 L2.11118117,4.63442216 C2.11118117,4.30908627 1.89387269,4.04545455 1.6256773,4.04545455 L1.6256773,4.04545455 Z" id="Shape" fill="#505B63"></path>
                    <path d="M0.308943411,3.98181818 C0.138195323,3.98181818 0,4.15257738 0,4.3635845 L0,6.97280368 C0,7.18378626 0.138195323,7.35454545 0.308943411,7.35454545 C0.47971136,7.35454545 0.617906683,7.18378626 0.617906683,6.97280368 L0.617906683,4.3635845 C0.617886822,4.15257738 0.479691499,3.98181818 0.308943411,3.98181818 L0.308943411,3.98181818 Z" id="Shape" fill="#505B63"></path>
                </g>
            </g>
        </g>
    </g>
</svg>