<?xml version="1.0" encoding="UTF-8"?>
<svg width="14px" height="10px" viewBox="0 0 14 10" version="1.1" xmlns="http://www.w3.org/2000/svg" xmlns:xlink="http://www.w3.org/1999/xlink" xmlns:sketch="http://www.bohemiancoding.com/sketch/ns">
    <!-- Generator: Sketch 3.0.1 (7597) - http://www.bohemiancoding.com/sketch -->
    <title>fast-forward</title>
    <description>Created with Sketch.</description>
    <defs></defs>
    <g id="Page-1" stroke="none" stroke-width="1" fill="none" fill-rule="evenodd" sketch:type="MSPage">
        <g id="Mobile-Portrait" sketch:type="MSArtboardGroup" transform="translate(-762.000000, -598.000000)" fill="#505B63">
            <g id="fast-forward" sketch:type="MSLayerGroup" transform="translate(762.000000, 598.000000)">
                <path id="Shape" sketch:type="MSShapeGroup" d="M0.207799625,2.72727273 L0.203965081,2.72727273 C0.0913355634,2.72727273 0,2.82056439 0,2.93560606 C0,3.05064773 0.0913355634,3.14393939 0.203965081,3.14393939 L0.207799625,3.14393939 C0.320429143,3.14393939 0.411764706,3.05064773 0.411764706,2.93560606 C0.411764706,2.82056439 0.320429143,2.72727273 0.207799625,2.72727273 L0.207799625,2.72727273 Z"></path>
                <path d="M9.16413949,0.0795971753 C9.08593644,0.00188656039 8.96835843,-0.0213532352 8.86617494,0.0206686642 C8.76401879,0.0627449258 8.69738213,0.161819844 8.69735479,0.27174 L8.69675323,4.34566259 L4.40515585,0.0795971753 C4.32695281,0.00188656039 4.2093748,-0.0213532352 4.1071913,0.0206686642 C4.00503515,0.0627449258 3.9383985,0.161819844 3.93837115,0.271767181 L3.93798834,2.92876894 L1.24870581,2.92876894 C1.09771377,2.92876894 0.975268579,3.05048567 0.975268579,3.20057942 C0.975268579,3.35067316 1.09771377,3.47238989 1.24870581,3.47238989 L4.21137089,3.47238989 C4.36236293,3.47238989 4.48478078,3.35070034 4.48480812,3.2006066 L4.48513624,0.927917669 L8.58087053,4.99931242 L4.48390578,9.07187595 L4.4842339,6.79943165 C4.4842339,6.72734751 4.45544096,6.65819893 4.40414414,6.60723447 C4.35287466,6.55624282 4.28331222,6.527594 4.21079667,6.527594 L0.273437233,6.527594 C0.122445193,6.527594 0,6.64931073 0,6.79940447 C0,6.94949822 0.122445193,7.07121495 0.273437233,7.07121495 L3.93733209,7.07121495 L3.93692194,9.72813516 C3.93689459,9.83805532 4.00353125,9.9371846 4.10571474,9.97926086 C4.13953893,9.99320474 4.17505842,9.99997282 4.21030448,9.99997282 C4.28148019,9.99997282 4.35139809,9.97235687 4.40370664,9.92035953 L8.69650713,5.65312533 L8.69590557,9.72813516 C8.69587823,9.8380825 8.76251488,9.93721178 8.86469837,9.97928804 C8.89852256,9.99323192 8.93404206,10 8.96928812,10 C9.04043648,10 9.11038173,9.97238406 9.16269027,9.92038671 L13.9198966,5.19148242 C14.0267011,5.08536761 14.0267011,4.91325722 13.9198966,4.80708805 L9.16413949,0.0795971753 Z" id="Shape" sketch:type="MSShapeGroup"></path>
                <path id="Shape" sketch:type="MSShapeGroup" d="M10.8517445,3.69899221 L10.8498591,3.69708432 C10.7697912,3.61612341 10.6400676,3.61612341 10.5600202,3.69708432 C10.4799933,3.77808671 10.4799933,3.90939934 10.5600202,3.99038099 L10.5619056,3.99228888 C10.6019293,4.03276934 10.6543516,4.0530303 10.7068148,4.0530303 C10.7592576,4.0530303 10.8117003,4.03276934 10.8517445,3.99228888 C10.9317714,3.91128649 10.9317714,3.77997386 10.8517445,3.69899221 L10.8517445,3.69899221 Z"></path>
            </g>
        </g>
    </g>
</svg>