<?xml version="1.0" encoding="UTF-8"?>
<svg width="14px" height="11px" viewBox="0 0 14 11" version="1.1" xmlns="http://www.w3.org/2000/svg" xmlns:xlink="http://www.w3.org/1999/xlink" xmlns:sketch="http://www.bohemiancoding.com/sketch/ns">
    <!-- Generator: Sketch 3.0.1 (7597) - http://www.bohemiancoding.com/sketch -->
    <title>Rectangle 526 + forward-arrow</title>
    <description>Created with Sketch.</description>
    <defs></defs>
    <g id="Page-1" stroke="none" stroke-width="1" fill="none" fill-rule="evenodd" sketch:type="MSPage">
        <g id="Mobile-Portrait" sketch:type="MSArtboardGroup" transform="translate(-761.000000, -631.000000)">
            <g id="Rectangle-526-+-forward-arrow" sketch:type="MSLayerGroup" transform="translate(761.000000, 631.000000)">
                <rect id="Rectangle-526" stroke="#505B63" sketch:type="MSShapeGroup" x="3.63461538" y="0" width="10.3653846" height="11"></rect>
                <g id="forward-arrow" transform="translate(0.000000, 2.000000)" fill="#505B63" sketch:type="MSShapeGroup">
                    <g id="Group">
                        <path d="M9.34865799,3.1244621 L6.94539954,0.155256953 C6.8219379,0.00351505469 6.63736596,-0.0415673248 6.47713405,0.0403129597 C6.31658188,0.122935137 6.21197576,0.315679003 6.21197576,0.530531286 L6.21197576,1.82765744 L3.0956703,1.82765744 C2.77975023,1.82805311 2.52311896,2.14474261 2.52311896,2.53465697 L2.52311896,4.46479117 C2.52311896,4.85475499 2.77973021,5.17107354 3.09597055,5.17107354 L6.21197576,5.17107354 L6.21197576,6.46896631 C6.21197576,6.68418954 6.31660189,6.87730435 6.47713405,6.95992653 C6.63736596,7.04148533 6.8219379,6.99640295 6.94539954,6.84426537 L9.34867801,3.8750355 C9.5165362,3.66770106 9.5165362,3.33182126 9.34865799,3.1244621 L9.34865799,3.1244621 Z" id="Shape"></path>
                        <path d="M1.6256773,1.84545455 L1.46383595,1.84545455 C1.19564055,1.84545455 0.978352249,2.10906179 0.978352249,2.43442216 L0.978352249,4.56557784 C0.978352249,4.89088925 1.19564055,5.15454545 1.46383595,5.15454545 L1.6256773,5.15454545 C1.89387269,5.15454545 2.11118117,4.89091373 2.11118117,4.56557784 L2.11118117,2.43442216 C2.11118117,2.10908627 1.89387269,1.84545455 1.6256773,1.84545455 L1.6256773,1.84545455 Z" id="Shape"></path>
                        <path d="M0.308943411,1.78181818 C0.138195323,1.78181818 0,1.95257738 0,2.1635845 L0,4.77280368 C0,4.98378626 0.138195323,5.15454545 0.308943411,5.15454545 C0.47971136,5.15454545 0.617906683,4.98378626 0.617906683,4.77280368 L0.617906683,2.1635845 C0.617886822,1.95257738 0.479691499,1.78181818 0.308943411,1.78181818 L0.308943411,1.78181818 Z" id="Shape"></path>
                    </g>
                </g>
            </g>
        </g>
    </g>
</svg>