<?xml version="1.0" encoding="UTF-8"?>
<svg width="52px" height="52px" viewBox="0 0 52 52" version="1.1" xmlns="http://www.w3.org/2000/svg" xmlns:xlink="http://www.w3.org/1999/xlink">
    <!-- Generator: Sketch 48.2 (47327) - http://www.bohemiancoding.com/sketch -->
    <title>1</title>
    <desc>Created with Sketch.</desc>
    <defs></defs>
    <g id="Tablet-9″" stroke="none" stroke-width="1" fill="none" fill-rule="evenodd" transform="translate(-82.000000, -61.000000)">
        <g id="1" transform="translate(83.000000, 62.000000)" fill-rule="nonzero">
            <g id="Group-2">
                <g id="Smiley-7-Copy" fill="#FFBF00" stroke="#FFFFFF" stroke-linecap="round" stroke-linejoin="round">
                    <circle id="Oval" cx="25" cy="25" r="24.8995984"></circle>
                </g>
                <path d="M34.5381526,35.8098394 C34.5381526,39.6174699 30.1329317,33.8018072 24.6987952,33.8018072 C19.2644578,33.8018072 14.8594378,39.6174699 14.8594378,35.8098394 C14.8594378,32.0022088 19.2646586,28.9156627 24.6987952,28.9156627 C30.1327309,28.9156627 34.5381526,32.0022088 34.5381526,35.8098394 Z" id="Shape" fill="#BF0000"></path>
                <path d="M24.7566265,31.6598394 C28.0827309,31.6598394 31.243493,32.2370084 33.7370673,33.115924 C32.5933331,31.0157933 29.1846669,28.9156627 24.7566265,28.9156627 C20.3285862,28.9156627 16.9405984,30.8707823 15.6626506,33.0588353 C18.1562249,32.1799197 21.4301205,31.6598394 24.7566265,31.6598394 Z" id="Shape" fill="#FFFFFF"></path>
                <g id="Group" transform="translate(5.220884, 13.855422)">
                    <g opacity="0.03" transform="translate(0.000000, 1.405622)" fill="#000000">
                        <ellipse id="Oval" cx="9.95963855" cy="6.97008032" rx="7.31566265" ry="6.57951807"></ellipse>
                        <circle id="Oval" cx="10.2700803" cy="10.9873494" r="1.51104418"></circle>
                        <path d="M0.0078313253,6.45983936 C2.4497992,6.93032129 5.237751,7.21044177 8.20180723,7.23714859 C11.873494,7.27008032 15.2823293,6.90963855 18.1012048,6.26827309 C17.8497992,2.81686747 13.9371486,0.0477911647 9.11967871,0.00481927711 C4.13855422,-0.0397590361 0.0720883534,2.84678715 0.0078313253,6.45983936 Z" id="Shape"></path>
                    </g>
                    <g>
                        <ellipse id="Oval" fill="#FFFFFF" cx="9.95963855" cy="6.97008032" rx="7.31566265" ry="6.57951807"></ellipse>
                        <circle id="Oval" fill="#000000" cx="10.2700803" cy="10.9873494" r="1.51104418"></circle>
                        <path d="M0.0078313253,6.45983936 C2.4497992,6.93032129 5.237751,7.21044177 8.20180723,7.23714859 C11.873494,7.27008032 15.2823293,6.90963855 18.1012048,6.26827309 C17.8497992,2.81686747 13.9371486,0.0477911647 9.11967871,0.00481927711 C4.13855422,-0.0397590361 0.0720883534,2.84678715 0.0078313253,6.45983936 Z" id="Shape" fill="#FFBF00"></path>
                    </g>
                </g>
                <g id="Group" transform="translate(26.305221, 13.855422)">
                    <g opacity="0.03" transform="translate(0.000000, 1.405622)" fill="#000000">
                        <ellipse id="Oval" cx="8.32449799" cy="6.97008032" rx="7.31566265" ry="6.57951807"></ellipse>
                        <circle id="Oval" cx="7.71064257" cy="11.0309237" r="1.51104418"></circle>
                        <path d="M17.9833333,6.48654618 C15.5843373,6.9746988 12.8429719,7.2746988 9.92570281,7.32309237 C6.31365462,7.38212851 2.95582329,7.04658635 0.177108434,6.42550201 C0.398192771,2.97248996 4.22771084,0.175100402 8.96787149,0.097188755 C13.8688755,0.0166666667 17.8925703,2.87389558 17.9833333,6.48654618 Z" id="Shape"></path>
                    </g>
                    <g>
                        <ellipse id="Oval" fill="#FFFFFF" cx="8.32449799" cy="6.97008032" rx="7.31566265" ry="6.57951807"></ellipse>
                        <circle id="Oval" fill="#000000" cx="7.71064257" cy="11.0309237" r="1.51104418"></circle>
                        <path d="M17.9833333,6.48654618 C15.5843373,6.9746988 12.8429719,7.2746988 9.92570281,7.32289157 C6.31365462,7.38192771 2.95582329,7.04658635 0.177108434,6.42550201 C0.398192771,2.97248996 4.22771084,0.175100402 8.96787149,0.097188755 C13.8688755,0.0166666667 17.8925703,2.87389558 17.9833333,6.48654618 Z" id="Shape" fill="#FFBF00"></path>
                    </g>
                </g>
            </g>
            <g id="Group" transform="translate(30.522088, 5.421687)">
                <g opacity="0.03" transform="translate(0.000000, 1.405622)" fill="#000000">
                    <path d="M0.155823293,1.58594378 C0.155823293,1.58594378 4.05582329,2.11385542 4.82811245,5.04317269 C6.92068273,12.9817269 15.6861446,7.64638554 8.72771084,1.56144578 C8.72771084,1.56124498 5.54096386,-1.54457831 0.155823293,1.58594378 Z" id="Shape"></path>
                    <ellipse id="Oval" transform="translate(9.370662, 5.225883) rotate(-25.068468) translate(-9.370662, -5.225883) " cx="9.37066227" cy="5.22588255" rx="1" ry="1.51947436"></ellipse>
                </g>
                <g>
                    <path d="M0.155823293,1.58594378 C0.155823293,1.58594378 4.05582329,2.11385542 4.82811245,5.04317269 C6.92068273,12.9817269 15.6861446,7.64638554 8.72771084,1.56144578 C8.72771084,1.56124498 5.54096386,-1.54457831 0.155823293,1.58594378 Z" id="Shape" fill="#00B5E0"></path>
                    <ellipse id="Oval" fill="#FFFFFF" transform="translate(9.370602, 5.225903) rotate(-25.068468) translate(-9.370602, -5.225903) " cx="9.37060203" cy="5.22590263" rx="1" ry="1.51947436"></ellipse>
                </g>
            </g>
            <g id="Group" transform="translate(10.843373, 10.642570)">
                <g opacity="0.03" transform="translate(0.000000, 1.405622)" fill="#000000">
                    <path d="M4.18915663,0.697991968 C4.18915663,0.697991968 2.73995984,0.894176707 2.45301205,1.98253012 C1.6753012,4.93253012 -1.58192771,2.9497992 1.00401606,0.68875502 C1.00381526,0.68875502 2.18795181,-0.465461847 4.18915663,0.697991968 Z" id="Shape"></path>
                    <ellipse id="Oval" transform="translate(0.764796, 2.052241) rotate(-154.936722) translate(-0.764796, -2.052241) " cx="0.764795542" cy="2.05224108" rx="1" ry="1"></ellipse>
                </g>
                <g>
                    <path d="M4.18915663,0.697991968 C4.18915663,0.697991968 2.73995984,0.894176707 2.45301205,1.98253012 C1.6753012,4.93253012 -1.58192771,2.9497992 1.00401606,0.68875502 C1.00381526,0.68875502 2.18795181,-0.465461847 4.18915663,0.697991968 Z" id="Shape" fill="#00B5E0"></path>
                    <ellipse id="Oval" fill="#FFFFFF" transform="translate(0.764836, 2.052181) rotate(-154.936722) translate(-0.764836, -2.052181) " cx="0.764835703" cy="2.05218084" rx="1" ry="1"></ellipse>
                </g>
            </g>
        </g>
    </g>
</svg>