<?xml version="1.0" encoding="UTF-8"?>
<svg width="52px" height="52px" viewBox="0 0 52 52" version="1.1" xmlns="http://www.w3.org/2000/svg" xmlns:xlink="http://www.w3.org/1999/xlink">
    <!-- Generator: Sketch 48.2 (47327) - http://www.bohemiancoding.com/sketch -->
    <title>2</title>
    <desc>Created with Sketch.</desc>
    <defs></defs>
    <g id="Tablet-9″" stroke="none" stroke-width="1" fill="none" fill-rule="evenodd" transform="translate(-186.000000, -61.000000)">
        <g id="2" transform="translate(187.000000, 62.000000)" fill-rule="nonzero">
            <g id="Smiley-7-Copy" fill="#FFBF00" stroke="#FFFFFF" stroke-linecap="round" stroke-linejoin="round">
                <circle id="Oval" cx="25" cy="25" r="24.8995984"></circle>
            </g>
            <path d="M34.939759,36.6130522 C34.939759,40.4206827 30.5345382,34.6050201 25.1004016,34.6050201 C19.6660643,34.6050201 15.2610442,40.4206827 15.2610442,36.6130522 C15.2610442,32.8054217 19.6662651,29.7188755 25.1004016,29.7188755 C30.5343373,29.7188755 34.939759,32.8054217 34.939759,36.6130522 Z" id="Shape" fill="#BF0000"></path>
            <path d="M25.1582329,32.4630522 C28.4843373,32.4630522 31.6450994,33.0402212 34.1386737,33.9191369 C32.9949395,31.8190062 29.5862733,29.7188755 25.1582329,29.7188755 C20.7301926,29.7188755 17.3422048,31.6739952 16.064257,33.8620482 C18.5578313,32.9831325 21.8317269,32.4630522 25.1582329,32.4630522 Z" id="Shape" fill="#FFFFFF"></path>
            <g id="Group-Copy" transform="translate(5.020080, 12.650602)">
                <g id="Group" opacity="0.03" transform="translate(0.000000, 1.405622)" fill="#000000">
                    <ellipse id="Oval" cx="9.95963855" cy="6.97008032" rx="7.31566265" ry="6.57951807"></ellipse>
                    <circle id="Oval" cx="10.2700803" cy="10.9873494" r="1.51104418"></circle>
                    <path d="M0.0078313253,6.45983936 C2.4497992,6.93032129 5.237751,7.21044177 8.20180723,7.23714859 C11.873494,7.27008032 15.2823293,6.90963855 18.1012048,6.26827309 C17.8497992,2.81686747 13.9371486,0.0477911647 9.11967871,0.00481927711 C4.13855422,-0.0397590361 0.0720883534,2.84678715 0.0078313253,6.45983936 Z" id="Shape"></path>
                </g>
                <g id="Group">
                    <ellipse id="Oval" fill="#FFFFFF" cx="9.95963855" cy="6.97008032" rx="7.31566265" ry="6.57951807"></ellipse>
                    <circle id="Oval" fill="#000000" cx="10.2700803" cy="10.9873494" r="1.51104418"></circle>
                    <path d="M0.0078313253,6.45983936 C2.4497992,6.93032129 5.237751,7.21044177 8.20180723,7.23714859 C11.873494,7.27008032 15.2823293,6.90963855 18.1012048,6.26827309 C17.8497992,2.81686747 13.9371486,0.0477911647 9.11967871,0.00481927711 C4.13855422,-0.0397590361 0.0720883534,2.84678715 0.0078313253,6.45983936 Z" id="Shape" fill="#FFBF00"></path>
                </g>
            </g>
            <g id="Group-Copy-2" transform="translate(26.104418, 12.650602)">
                <g id="Group" opacity="0.03" transform="translate(0.000000, 1.405622)" fill="#000000">
                    <ellipse id="Oval" cx="8.32449799" cy="6.97008032" rx="7.31566265" ry="6.57951807"></ellipse>
                    <circle id="Oval" cx="7.71064257" cy="11.0309237" r="1.51104418"></circle>
                    <path d="M17.9833333,6.48654618 C15.5843373,6.9746988 12.8429719,7.2746988 9.92570281,7.32309237 C6.31365462,7.38212851 2.95582329,7.04658635 0.177108434,6.42550201 C0.398192771,2.97248996 4.22771084,0.175100402 8.96787149,0.097188755 C13.8688755,0.0166666667 17.8925703,2.87389558 17.9833333,6.48654618 Z" id="Shape"></path>
                </g>
                <g id="Group">
                    <ellipse id="Oval" fill="#FFFFFF" cx="8.32449799" cy="6.97008032" rx="7.31566265" ry="6.57951807"></ellipse>
                    <circle id="Oval" fill="#000000" cx="7.71064257" cy="11.0309237" r="1.51104418"></circle>
                    <path d="M17.9833333,6.48654618 C15.5843373,6.9746988 12.8429719,7.2746988 9.92570281,7.32289157 C6.31365462,7.38192771 2.95582329,7.04658635 0.177108434,6.42550201 C0.398192771,2.97248996 4.22771084,0.175100402 8.96787149,0.097188755 C13.8688755,0.0166666667 17.8925703,2.87389558 17.9833333,6.48654618 Z" id="Shape" fill="#FFBF00"></path>
                </g>
            </g>
        </g>
    </g>
</svg>