<?xml version="1.0" encoding="UTF-8"?>
<svg width="50px" height="50px" viewBox="0 0 50 50" version="1.1" xmlns="http://www.w3.org/2000/svg" xmlns:xlink="http://www.w3.org/1999/xlink">
    <!-- Generator: Sketch 48.2 (47327) - http://www.bohemiancoding.com/sketch -->
    <title>3</title>
    <desc>Created with Sketch.</desc>
    <defs></defs>
    <g id="Tablet-9″" stroke="none" stroke-width="1" fill="none" fill-rule="evenodd" transform="translate(-291.000000, -62.000000)">
        <g id="3" transform="translate(291.000000, 62.000000)" fill-rule="nonzero">
            <circle id="Oval" fill="#FFBF00" cx="25" cy="25" r="25"></circle>
            <g id="Group-Copy-3" transform="translate(5.040323, 13.508065)">
                <g id="Group" opacity="0.03" transform="translate(0.000000, 1.411290)" fill="#000000">
                    <ellipse id="Oval" cx="9.99979839" cy="6.99818548" rx="7.34516129" ry="6.60604839"></ellipse>
                    <circle id="Oval" cx="10.3114919" cy="11.0316532" r="1.5171371"></circle>
                    <path d="M0.00786290323,6.4858871 C2.45967742,6.95826613 5.25887097,7.23951613 8.23487903,7.26633065 C11.921371,7.29939516 15.3439516,6.9375 18.1741935,6.29354839 C17.9217742,2.82822581 13.9933468,0.047983871 9.15645161,0.00483870968 C4.15524194,-0.0399193548 0.0723790323,2.85826613 0.00786290323,6.4858871 Z" id="Shape"></path>
                </g>
                <g id="Group">
                    <ellipse id="Oval" fill="#FFFFFF" cx="9.99979839" cy="6.99818548" rx="7.34516129" ry="6.60604839"></ellipse>
                    <circle id="Oval" fill="#000000" cx="10.3114919" cy="11.0316532" r="1.5171371"></circle>
                    <path d="M0.00786290323,6.4858871 C2.45967742,6.95826613 5.25887097,7.23951613 8.23487903,7.26633065 C11.921371,7.29939516 15.3439516,6.9375 18.1741935,6.29354839 C17.9217742,2.82822581 13.9933468,0.047983871 9.15645161,0.00483870968 C4.15524194,-0.0399193548 0.0723790323,2.85826613 0.00786290323,6.4858871 Z" id="Shape" fill="#FFBF00"></path>
                </g>
            </g>
            <g id="Group-Copy-4" transform="translate(26.209677, 13.508065)">
                <g id="Group" opacity="0.03" transform="translate(0.000000, 1.411290)" fill="#000000">
                    <ellipse id="Oval" cx="8.35806452" cy="6.99818548" rx="7.34516129" ry="6.60604839"></ellipse>
                    <circle id="Oval" cx="7.74173387" cy="11.0754032" r="1.5171371"></circle>
                    <path d="M18.0558468,6.51270161 C15.6471774,7.00282258 12.8947581,7.30403226 9.96572581,7.35262097 C6.3391129,7.41189516 2.96774194,7.075 0.177822581,6.45141129 C0.399798387,2.98447581 4.24475806,0.175806452 9.00403226,0.0975806452 C13.9247984,0.016733871 17.9647177,2.88548387 18.0558468,6.51270161 Z" id="Shape"></path>
                </g>
                <g id="Group">
                    <ellipse id="Oval" fill="#FFFFFF" cx="8.35806452" cy="6.99818548" rx="7.34516129" ry="6.60604839"></ellipse>
                    <circle id="Oval" fill="#000000" cx="7.74173387" cy="11.0754032" r="1.5171371"></circle>
                    <path d="M18.0558468,6.51270161 C15.6471774,7.00282258 12.8947581,7.30403226 9.96572581,7.35241935 C6.3391129,7.41169355 2.96774194,7.075 0.177822581,6.45141129 C0.399798387,2.98447581 4.24475806,0.175806452 9.00403226,0.0975806452 C13.9247984,0.016733871 17.9647177,2.88548387 18.0558468,6.51270161 Z" id="Shape" fill="#FFBF00"></path>
                </g>
            </g>
            <path d="M29.6324597,35.4167339 C29.6324597,36.8272177 27.5576613,35.6183468 24.9975806,35.6183468 C22.4381048,35.6183468 20.3629032,36.8272177 20.3629032,35.4167339 C20.3629032,34.00625 22.4379032,32.8629032 24.9975806,32.8629032 C27.5576613,32.8629032 29.6324597,34.00625 29.6324597,35.4167339 Z" id="Shape" fill="#BF0000"></path>
        </g>
    </g>
</svg>