<?xml version="1.0" encoding="UTF-8"?>
<svg width="50px" height="50px" viewBox="0 0 50 50" version="1.1" xmlns="http://www.w3.org/2000/svg" xmlns:xlink="http://www.w3.org/1999/xlink">
    <!-- Generator: Sketch 48.2 (47327) - http://www.bohemiancoding.com/sketch -->
    <title>5</title>
    <desc>Created with Sketch.</desc>
    <defs></defs>
    <g id="Tablet-9″" stroke="none" stroke-width="1" fill="none" fill-rule="evenodd" transform="translate(-487.000000, -62.000000)">
        <g id="5" transform="translate(487.000000, 62.000000)" fill-rule="nonzero">
            <circle id="Oval" fill="#FFBF00" cx="25" cy="25" r="25"></circle>
            <g id="Group" transform="translate(7.661290, 5.645161)">
                <g opacity="0.03" transform="translate(0.000000, 1.411290)" fill="#000000" id="Shape">
                    <path d="M16.5510081,8.83548387 C16.5510081,13.6961694 12.8794355,17.6364919 8.35040323,17.6364919 C3.82137097,17.6364919 0.149798387,13.6961694 0.149798387,8.83548387 C0.149798387,3.975 6.52237903,0.0346774194 11.0516129,0.0346774194 C15.5808468,0.0346774194 16.5510081,3.975 16.5510081,8.83548387 Z"></path>
                </g>
                <path d="M16.5510081,8.83548387 C16.5510081,13.6961694 12.8794355,17.6364919 8.35040323,17.6364919 C3.82137097,17.6364919 0.149596774,13.6961694 0.149596774,8.83548387 C0.149596774,3.975 6.52217742,0.0346774194 11.0514113,0.0346774194 C15.5806452,0.0346774194 16.5510081,3.975 16.5510081,8.83548387 Z" id="Shape" fill="#FFFFFF"></path>
            </g>
            <g id="Group" transform="translate(26.209677, 5.645161)">
                <g opacity="0.03" transform="translate(0.000000, 1.411290)" fill="#000000" id="Shape">
                    <path d="M16.540121,8.83548387 C16.540121,13.6961694 12.86875,17.6364919 8.33971774,17.6364919 C3.81028226,17.6364919 0.13891129,13.696371 0.13891129,8.83548387 C0.13891129,3.975 1.78447581,0.0346774194 6.31370968,0.0346774194 C10.8429435,0.0346774194 16.540121,3.975 16.540121,8.83548387 Z"></path>
                </g>
                <path d="M16.540121,8.83548387 C16.540121,13.6961694 12.86875,17.6364919 8.33971774,17.6364919 C3.81028226,17.6364919 0.13891129,13.696371 0.13891129,8.83548387 C0.13891129,3.975 1.78447581,0.0346774194 6.31370968,0.0346774194 C10.8429435,0.0346774194 16.540121,3.975 16.540121,8.83548387 Z" id="Shape" fill="#FFFFFF"></path>
            </g>
            <g id="Group" transform="translate(9.879032, 29.032258)">
                <g opacity="0.03" transform="translate(0.000000, 1.411290)" fill="#000000" id="Shape">
                    <path d="M30.7633065,4.35665323 C30.7633065,11.6008065 23.8959677,17.4731855 15.425,17.4731855 C6.95342742,17.4731855 0.0860887097,11.6008065 0.0860887097,4.35665323 C0.0860887097,-2.88770161 7.66310484,1.36290323 16.1344758,1.36290323 C24.6056452,1.36310484 30.7633065,-2.8875 30.7633065,4.35665323 Z"></path>
                </g>
                <path d="M30.7633065,4.35665323 C30.7633065,11.6008065 23.8959677,17.4731855 15.425,17.4731855 C6.95342742,17.4731855 0.0860887097,11.6008065 0.0860887097,4.35665323 C0.0860887097,-2.88770161 7.66310484,1.36290323 16.1344758,1.36290323 C24.6056452,1.36310484 30.7633065,-2.8875 30.7633065,4.35665323 Z" id="Shape" fill="#FFFFFF"></path>
            </g>
            <circle id="Oval" fill="#000000" cx="30.6584677" cy="14.8665323" r="2.59233871"></circle>
            <path d="M40.3921371,31.2866935 C40.4342742,31.5627016 40.4570565,31.8419355 40.4570565,32.1239919 C40.4570565,37.5056452 32.6340726,41.8685484 22.983871,41.8685484 C18.7282258,41.8685484 14.8282258,41.0195565 11.7975806,39.6094758 C14.3891129,43.7153226 19.465121,46.5054435 25.3040323,46.5054435 C33.7752016,46.5054435 40.6423387,40.6330645 40.6423387,33.3889113 C40.6423387,32.5372984 40.5560484,31.8461694 40.3921371,31.2866935 Z" id="Shape" fill="#BF0000"></path>
            <circle id="Oval" fill="#000000" cx="19.9183468" cy="14.8665323" r="2.59254032"></circle>
            <path d="M16.3306452,18.8342742 C11.0887097,18.8342742 9.54959677,17.0570565 7.81350806,14.4016129 C7.81310484,14.4280242 7.8108871,14.4542339 7.8108871,14.4808468 C7.8108871,19.3415323 11.4824597,23.2816532 16.0114919,23.2816532 C20.2828629,23.2816532 23.790121,19.7766129 24.1756048,15.3006048 C22.3590726,17.4495968 19.5217742,18.8342742 16.3306452,18.8342742 Z" id="Shape" fill="#B2B2B2" opacity="0.1"></path>
            <path d="M42.3465726,13.0695565 C42.3465726,11.9796371 41.9354839,11.4629032 41.440121,10.4995968 C42.7497984,14.4808468 38.0372984,19.6407258 32.3084677,19.6407258 C28.8306452,19.6407258 27.9766129,17.6955645 26.8018145,17.3663306 C27.9149194,20.8090726 30.9620968,23.2816532 34.5493952,23.2816532 C39.0784274,23.2816532 42.7497984,19.3415323 42.7497984,14.4808468 C42.7497984,14.2721774 42.7356855,14.0659274 42.715121,13.8608871 C42.7368952,13.6 42.3465726,13.3362903 42.3465726,13.0695565 Z" id="Shape" fill="#B2B2B2" opacity="0.1"></path>
        </g>
    </g>
</svg>