<?xml version="1.0" encoding="UTF-8"?>
<svg width="32px" height="32px" viewBox="0 0 32 32" version="1.1" xmlns="http://www.w3.org/2000/svg" xmlns:xlink="http://www.w3.org/1999/xlink">
    <!-- Generator: Sketch 48.2 (47327) - http://www.bohemiancoding.com/sketch -->
    <title>Giftbox-active</title>
    <desc>Created with Sketch.</desc>
    <defs></defs>
    <g id="Graphical-Rating-Likert-Scale-Copy" stroke="none" stroke-width="1" fill="none" fill-rule="evenodd" transform="translate(-1275.000000, -564.000000)">
        <g id="Giftbox-active" transform="translate(1276.000000, 565.000000)" fill-rule="nonzero" stroke="#383838">
            <path d="M28.043,6.0662543 L25.86,6.0662543 C26.1534316,5.58863446 26.3352828,5.05094852 26.392,4.49327101 C26.565,2.68929018 25.654,1.07330735 24.104,0.356314971 C22.678,-0.303678017 21.077,-0.0336808857 19.924,1.05730752 L17.166,3.66327983 C16.6223453,3.03310251 15.8322755,2.66944082 15,2.66629043 C14.142,2.66629043 13.368,3.05228633 12.831,3.6662798 L10.071,1.05630753 C8.914,-0.0326808963 7.313,-0.300678049 5.888,0.35731496 C4.338,1.07430734 3.427,2.69129016 3.601,4.49527099 C3.655,5.059265 3.845,5.59225934 4.133,6.06725429 L1.957,6.06725429 C0.876,6.0662543 0,6.98024459 0,8.10623263 L0,11.1672001 C0,11.7311941 0.438,12.1871893 0.978,12.1871893 L29.022,12.1871893 C29.562,12.1871893 30,11.7311941 30,11.1672001 L30,8.10723262 C30,6.98024459 29.124,6.06725429 28.043,6.06725429 L28.043,6.0662543 Z M12.065,5.72625791 L12.065,6.0662543 L7.463,6.0662543 C6.247,6.0662543 5.29,4.88426686 5.593,3.56428089 C5.72873205,2.98538813 6.11707,2.49795209 6.651,2.236295 C7.365,1.89229865 8.157,2.00229748 8.757,2.56929146 L12.066,5.69625823 L12.066,5.72625791 L12.065,5.72625791 Z M24.451,4.22227389 C24.378,5.28226263 23.459,6.0662543 22.441,6.0662543 L17.935,6.0662543 L17.935,5.72625791 L17.934,5.6902583 L21.191,2.61129101 C21.693,2.13829604 22.394,1.9162984 23.042,2.11829625 C23.972,2.40829317 24.519,3.2332844 24.451,4.22227389 Z M1.875,14.0631693 L1.875,28.0880203 C1.875,29.1440091 2.764,30 3.86,30 L13.125,30 L13.125,14.0621693 L1.875,14.0621693 L1.875,14.0631693 Z M16.875,14.0631693 L16.875,30 L26.14,30 C27.236,30 28.125,29.1440091 28.125,28.0880203 L28.125,14.0621693 L16.875,14.0621693 L16.875,14.0631693 Z" id="Shape"></path>
        </g>
    </g>
</svg>