<?xml version="1.0" encoding="UTF-8"?>
<svg width="30px" height="30px" viewBox="0 0 30 30" version="1.1" xmlns="http://www.w3.org/2000/svg" xmlns:xlink="http://www.w3.org/1999/xlink">
    <!-- Generator: Sketch 48.2 (47327) - http://www.bohemiancoding.com/sketch -->
    <title>Giftbox-active</title>
    <desc>Created with Sketch.</desc>
    <defs></defs>
    <g id="Graphical-Rating-Likert-Scale-Copy" stroke="none" stroke-width="1" fill="none" fill-rule="evenodd" transform="translate(-1276.000000, -527.000000)">
        <g id="Giftbox-active" transform="translate(1276.000000, 527.000000)" fill="#383838" fill-rule="nonzero">
            <path d="M28.043,6.066 L25.86,6.066 C26.1534316,5.58837509 26.3352828,5.05068343 26.392,4.493 C26.565,2.689 25.654,1.073 24.104,0.356 C22.678,-0.304 21.077,-0.034 19.924,1.057 L17.166,3.663 C16.6223453,3.03281598 15.8322755,2.66915043 15,2.666 C14.142,2.666 13.368,3.052 12.831,3.666 L10.071,1.056 C8.914,-0.033 7.313,-0.301 5.888,0.357 C4.338,1.074 3.427,2.691 3.601,4.495 C3.655,5.059 3.845,5.592 4.133,6.067 L1.957,6.067 C0.876,6.066 0,6.98 0,8.106 L0,11.167 C0,11.731 0.438,12.187 0.978,12.187 L29.022,12.187 C29.562,12.187 30,11.731 30,11.167 L30,8.107 C30,6.98 29.124,6.067 28.043,6.067 L28.043,6.066 Z M12.065,5.726 L12.065,6.066 L7.463,6.066 C6.247,6.066 5.29,4.884 5.593,3.564 C5.72873205,2.98510109 6.11707,2.49765988 6.651,2.236 C7.365,1.892 8.157,2.002 8.757,2.569 L12.066,5.696 L12.066,5.726 L12.065,5.726 Z M24.451,4.222 C24.378,5.282 23.459,6.066 22.441,6.066 L17.935,6.066 L17.935,5.726 L17.934,5.69 L21.191,2.611 C21.693,2.138 22.394,1.916 23.042,2.118 C23.972,2.408 24.519,3.233 24.451,4.222 Z M1.875,14.063 L1.875,28.088 C1.875,29.144 2.764,30 3.86,30 L13.125,30 L13.125,14.062 L1.875,14.062 L1.875,14.063 Z M16.875,14.063 L16.875,30 L26.14,30 C27.236,30 28.125,29.144 28.125,28.088 L28.125,14.062 L16.875,14.062 L16.875,14.063 Z" id="Shape"></path>
        </g>
    </g>
</svg>