<?xml version="1.0" encoding="UTF-8"?>
<svg width="18px" height="18px" viewBox="0 0 18 18" version="1.1" xmlns="http://www.w3.org/2000/svg" xmlns:xlink="http://www.w3.org/1999/xlink">
    <!-- Generator: Sketch 48.2 (47327) - http://www.bohemiancoding.com/sketch -->
    <title>search (2)</title>
    <desc>Created with Sketch.</desc>
    <defs></defs>
    <g id="Survey-page-page-tablet-Copy" stroke="none" stroke-width="1" fill="none" fill-rule="evenodd" transform="translate(-129.000000, -469.000000)">
        <g id="search-(2)" transform="translate(129.000000, 469.000000)" fill-rule="nonzero">
            <path d="M4.2,10.8137042 L3.54033313,13.1515783 L1.12926589,13.2 C0.408710672,11.9312328 0,10.4796018 0,8.93699561 C0,7.445306 0.382134485,6.03861786 1.05949414,4.8 L1.06001234,4.8 L3.20653917,5.17359883 L4.14684762,7.19915666 C3.95004318,7.74384773 3.84277606,8.32856223 3.84277606,8.93699561 C3.84285009,9.59732943 3.96884639,10.2300088 4.2,10.8137042 Z" id="Shape" fill="#FBBB00"></path>
            <path d="M17.8392113,7.2 C17.944894,7.76321375 18,8.34486669 18,8.93932159 C18,9.60589666 17.9307311,10.2561056 17.7987714,10.8832928 C17.350806,13.0175477 16.1802797,14.8811793 14.5587686,16.2 L14.5582653,16.1994908 L11.9325883,16.0639427 L11.5609733,13.7168551 C12.6369243,13.0784298 13.4777851,12.079331 13.920718,10.8832928 L9,10.8832928 L9,7.2 L13.9925032,7.2 L17.8392113,7.2 Z" id="Shape" fill="#518EF8"></path>
            <path d="M14.9994992,15.9964204 L15,15.9969179 C13.430571,17.2501503 11.4369014,18 9.26665267,18 C5.7790366,18 2.74682003,16.0634125 1.2,13.2134932 L4.16782387,10.8 C4.941216,12.850563 6.93234567,14.3102803 9.26665267,14.3102803 C10.2699983,14.3102803 11.2099886,14.0408192 12.0165788,13.5704172 L14.9994992,15.9964204 Z" id="Shape" fill="#28B446"></path>
            <path d="M15,2.05447362 L12.0713051,4.42128747 C11.2472532,3.91282826 10.2731522,3.61910295 9.2295532,3.61910295 C6.87308614,3.61910295 4.87078305,5.11655822 4.145575,7.2 L1.2004944,4.81993958 L1.2,4.81993958 C2.70458775,1.95641413 5.73558729,0 9.2295532,0 C11.4230815,0 13.4343191,0.771299094 15,2.05447362 Z" id="Shape" fill="#F14336"></path>
        </g>
    </g>
</svg>