<?xml version="1.0" encoding="UTF-8"?>
<svg width="29px" height="22px" viewBox="0 0 29 22" version="1.1" xmlns="http://www.w3.org/2000/svg" xmlns:xlink="http://www.w3.org/1999/xlink">
    <!-- Generator: Sketch 46.2 (44496) - http://www.bohemiancoding.com/sketch -->
    <title>Group 24</title>
    <desc>Created with Sketch.</desc>
    <defs></defs>
    <g id="Page-1" stroke="none" stroke-width="1" fill="none" fill-rule="evenodd">
        <g id="Desktop-Copy-10" transform="translate(-244.000000, -460.000000)" fill-rule="nonzero">
            <g id="Group-24" transform="translate(244.000000, 460.000000)">
                <path d="M11.9613715,0.337020903 L14.6879293,6.79658822 L21.6682693,7.39683786 C22.1524038,7.43869013 22.3493586,8.04334528 21.9818564,8.3616428 L16.6871849,12.9532773 L18.2738259,19.7840081 C18.3838565,20.258701 17.8700137,20.6320673 17.4540981,20.3798523 L11.4552309,16.7585296 L5.45636364,20.3798523 C5.03934775,20.6309659 4.52660524,20.2575996 4.63663582,19.7840081 L6.22327679,12.9532773 L0.927504975,8.36054143 C0.560002838,8.04224391 0.75585727,7.43758876 1.24109213,7.39573649 L8.22143212,6.79548684 L10.9479899,0.337020903 C11.1372425,-0.112340301 11.7721189,-0.112340301 11.9613715,0.337020903 Z" id="Shape" fill="#505B63"></path>
                <path d="M21.6182017,8.24891558 L23.3223003,12.2861451 L27.6850128,12.6613012 C27.9875969,12.6874588 28.1106936,13.0653683 27.8810048,13.2643043 L24.5718351,16.1340758 L25.5634857,20.4032826 C25.6322548,20.6999656 25.311103,20.9333195 25.0511558,20.7756852 L21.3018638,18.5123585 L17.5525718,20.7756852 C17.2919368,20.9326312 16.9714728,20.6992773 17.0402419,20.4032826 L18.0318925,16.1340758 L14.7220351,13.2636159 C14.4923463,13.06468 14.6147553,12.6867705 14.9180271,12.6606128 L19.2807396,12.2854568 L20.9848382,8.24891558 C21.1031211,7.96806482 21.4999188,7.96806482 21.6182017,8.24891558 Z" id="Shape" stroke="#FFFFFF" fill="#2392ED"></path>
            </g>
        </g>
    </g>
</svg>