<?xml version="1.0" encoding="UTF-8"?>
<svg width="60px" height="60px" viewBox="0 0 60 60" version="1.1" xmlns="http://www.w3.org/2000/svg" xmlns:xlink="http://www.w3.org/1999/xlink">
    <!-- Generator: Sketch 48.2 (47327) - http://www.bohemiancoding.com/sketch -->
    <title>happy (2)</title>
    <desc>Created with Sketch.</desc>
    <defs></defs>
    <g id="Graphical-rating-emojis" stroke="none" stroke-width="1" fill="none" fill-rule="evenodd" transform="translate(-997.000000, -528.000000)">
        <g id="happy-(2)" transform="translate(997.000000, 528.000000)" fill-rule="nonzero">
            <g id="Group" transform="translate(29.970760, 29.970760) scale(-1, 1) rotate(-180.000000) translate(-29.970760, -29.970760) ">
                <g>
                    <g>
                        <path d="M59.8830409,30 C59.8830409,13.4640351 46.4774854,0.0584795322 29.9415205,0.0584795322 C13.4055556,0.0584795322 0,13.4640351 0,30 C0,46.5359649 13.4055556,59.9415205 29.9415205,59.9415205 C46.4774854,59.9415205 59.8830409,46.5359649 59.8830409,30" id="Shape" fill="#FFCC4D"></path>
                        <path d="M17.4907895,20.6498538 C17.5656433,20.3520468 19.4336257,13.3657895 29.9415205,13.3657895 C40.4510234,13.3657895 42.3190058,20.352193 42.3922515,20.6498538 C42.4837719,21.0108187 42.3207602,21.3850877 41.9979532,21.571345 C41.673538,21.7559942 41.2676901,21.7010234 41.0016082,21.4432749 C40.9700292,21.4116959 37.7513158,18.3559942 29.9415205,18.3559942 C22.1334795,18.3559942 18.9130117,21.4116959 18.8831871,21.4432749 C18.723538,21.5997076 18.5105263,21.6827485 18.2976608,21.6827485 C18.1578947,21.6827485 18.0165205,21.647807 17.8884503,21.5763158 C17.5624269,21.3902047 17.3994152,21.0125731 17.4907895,20.6498538" id="Shape" fill="#664500"></path>
                        <path d="M24.1195906,37.4853801 C24.1195906,34.2682749 22.2581871,31.6634503 19.9611111,31.6634503 C17.6640351,31.6634503 15.8026316,34.2684211 15.8026316,37.4853801 C15.8026316,40.700731 17.6640351,43.3073099 19.9611111,43.3073099 C22.2581871,43.3073099 24.1195906,40.700731 24.1195906,37.4853801" id="SVGCleanerId_0" fill="#664500"></path>
                        <g transform="translate(37.426901, 31.578947)" fill="#664500" id="SVGCleanerId_0_1_">
                            <path d="M8.40804094,5.90643275 C8.40804094,2.68932749 6.54663743,0.084502924 4.2495614,0.084502924 C1.95248538,0.084502924 0.0910818713,2.68947368 0.0910818713,5.90643275 C0.0910818713,9.12178363 1.95248538,11.7283626 4.2495614,11.7283626 C6.54663743,11.7283626 8.40804094,9.12178363 8.40804094,5.90643275"></path>
                        </g>
                    </g>
                </g>
            </g>
        </g>
    </g>
</svg>