<?xml version="1.0" encoding="UTF-8"?>
<svg width="79px" height="79px" viewBox="0 0 79 79" version="1.1" xmlns="http://www.w3.org/2000/svg" xmlns:xlink="http://www.w3.org/1999/xlink">
    <!-- Generator: Sketch 48.2 (47327) - http://www.bohemiancoding.com/sketch -->
    <title>Group</title>
    <desc>Created with Sketch.</desc>
    <defs></defs>
    <g id="Graphical-Rating-Likert-Scale-Copy" stroke="none" stroke-width="1" fill="none" fill-rule="evenodd" transform="translate(-1311.000000, -330.000000)">
        <g id="Group" transform="translate(1351.000000, 369.000000) scale(1, -1) translate(-1351.000000, -369.000000) translate(1314.000000, 332.000000)" fill-rule="nonzero">
            <path d="M73.3502439,36.746753 C73.3502439,16.4919857 56.9298893,0.0716310976 36.675122,0.0716310976 C16.4203546,0.0716310976 0,16.4919857 0,36.746753 C0,57.0015204 16.4203546,73.421875 36.675122,73.421875 C56.9298893,73.421875 73.3502439,57.0015204 73.3502439,36.746753" id="Shape" stroke="#FFFFFF" stroke-width="5" fill="#86C612"></path>
            <path d="M36.675122,30.6342924 C29.2931792,30.6342924 24.3950447,31.4940447 18.337561,32.671839 C16.9540063,32.9386648 14.2624678,32.671839 14.2624678,28.5967458 C14.2624678,20.4467386 23.6248314,10.2591849 36.675122,10.2591849 C49.7232636,10.2591849 59.0877761,20.4467386 59.0877761,28.5967458 C59.0877761,32.671839 56.3962376,32.9406347 55.0126829,32.671839 C48.9551992,31.4940447 44.0570647,30.6342924 36.675122,30.6342924" id="Shape" fill="#664500"></path>
            <path d="M18.337561,28.5967458 C18.337561,28.5967458 24.4500216,26.5591993 36.675122,26.5591993 C48.9002223,26.5591993 55.0126829,28.5967458 55.0126829,28.5967458 C55.0126829,28.5967458 50.9375898,20.4467386 36.675122,20.4467386 C22.4126541,20.4467386 18.337561,28.5967458 18.337561,28.5967458" id="Shape" fill="#FFFFFF"></path>
            <path d="M29.543888,45.9155335 C29.543888,41.9749278 27.2638702,38.7842996 24.4502007,38.7842996 C21.6365312,38.7842996 19.3565133,41.9751069 19.3565133,45.9155335 C19.3565133,49.8539904 21.6365312,53.0467675 24.4502007,53.0467675 C27.2638702,53.0467675 29.543888,49.8539904 29.543888,45.9155335" id="SVGCleanerId_0" fill="#664500"></path>
            <g transform="translate(45.843902, 38.680793)" fill="#664500" id="SVGCleanerId_0_1_">
                <path d="M10.2989401,7.23474085 C10.2989401,3.2941351 8.01892229,0.103506936 5.20525278,0.103506936 C2.39158327,0.103506936 0.111565434,3.29431418 0.111565434,7.23474085 C0.111565434,11.1731977 2.39158327,14.3659748 5.20525278,14.3659748 C8.01892229,14.3659748 10.2989401,11.1731977 10.2989401,7.23474085"></path>
            </g>
        </g>
    </g>
</svg>