<?xml version="1.0" encoding="UTF-8"?>
<svg width="31px" height="27px" viewBox="0 0 31 27" version="1.1" xmlns="http://www.w3.org/2000/svg" xmlns:xlink="http://www.w3.org/1999/xlink">
    <!-- Generator: Sketch 48.2 (47327) - http://www.bohemiancoding.com/sketch -->
    <title>Hearts-active</title>
    <desc>Created with Sketch.</desc>
    <defs></defs>
    <g id="Graphical-Rating-Likert-Scale-Copy" stroke="none" stroke-width="1" fill="none" fill-rule="evenodd" transform="translate(-1134.000000, -532.000000)">
        <g id="Hearts-active" transform="translate(1134.000000, 532.000000)" fill="#383838" fill-rule="nonzero">
            <path d="M22.586806,0 C20.958895,0 19.466395,0.520425 18.150849,1.54685 C16.889618,2.530892 16.049911,3.78425 15.555556,4.695643 C15.0612,3.784191 14.221493,2.530892 12.960263,1.54685 C11.644716,0.520425 10.152216,0 8.524306,0 C3.981415,0 0.555556,3.748723 0.555556,8.719889 C0.555556,14.090476 4.829559,17.764954 11.299833,23.327597 C12.398583,24.27227 13.643993,25.34303 14.938446,26.48502 C15.109071,26.635756 15.328212,26.71875 15.555556,26.71875 C15.782899,26.71875 16.00204,26.635756 16.172665,26.485079 C17.467235,25.342912 18.712587,24.272211 19.811981,23.327006 C26.281552,17.764954 30.555556,14.090476 30.555556,8.719889 C30.555556,3.748723 27.129696,0 22.586806,0" id="Page-1"></path>
        </g>
    </g>
</svg>