<?xml version="1.0" encoding="UTF-8"?>
<svg width="17px" height="13px" viewBox="0 0 17 13" version="1.1" xmlns="http://www.w3.org/2000/svg" xmlns:xlink="http://www.w3.org/1999/xlink">
    <!-- Generator: Sketch 48.2 (47327) - http://www.bohemiancoding.com/sketch -->
    <title>visibility (1)</title>
    <desc>Created with Sketch.</desc>
    <defs></defs>
    <g id="Graphical-Rating-Likert-Scale-Copy" stroke="none" stroke-width="1" fill="none" fill-rule="evenodd" transform="translate(-692.000000, -479.000000)">
        <g id="visibility-(1)" transform="translate(692.000000, 479.000000)" fill="#959292" fill-rule="nonzero">
            <path d="M8.17955231,1 C3.98020772,1 0.23822698,5.92827855 0.0807775171,6.13836861 C-0.026925839,6.2815069 -0.026925839,6.49159696 0.0807775171,6.63549278 C0.174838235,6.76091914 1.55031649,8.56399979 3.53377076,10 L5.66991395,7.58818484 C5.53086767,7.21879572 5.45316533,6.81322522 5.45316533,6.38691266 C5.45316533,4.68927385 6.67595467,3.30868201 8.17955231,3.30868201 C8.55716903,3.30868201 8.91635062,3.39641192 9.24351833,3.5534023 L11,1.57024446 C10.1439005,1.22469969 9.20399622,1 8.17955231,1 Z" id="Shape"></path>
            <path d="M16.9365248,6.29425505 C16.8450811,6.16063509 15.3286096,4.00267443 12.7792029,2.61169979 L14.7528594,0.616236162 C14.8921511,0.475405396 14.8921511,0.246453841 14.7528594,0.105623075 C14.6135676,-0.0352076915 14.3871182,-0.0352076915 14.2478264,0.105623075 L2.10446878,12.3832222 C1.96517707,12.5240529 1.96517707,12.7530045 2.10446878,12.8938353 C2.17374632,12.964623 2.26518999,13 2.35663366,13 C2.44807733,13 2.53948751,12.964623 2.60950169,12.8945462 L4.84888382,10.6304208 C5.95250277,11.1749551 7.16969803,11.5555706 8.42831249,11.5555706 C12.8292274,11.5555706 16.7508248,6.93053252 16.9158319,6.73336944 C17.0193967,6.60841599 17.0286716,6.42858594 16.9365248,6.29425505 Z M8.42831249,9.38894343 C7.76898723,9.38894343 7.16969803,9.15278107 6.68539147,8.77291039 L10.6762664,4.73793967 C11.0519857,5.22759741 11.2855672,5.8335421 11.2855672,6.50011849 C11.2855672,8.09330038 10.0040835,9.38894343 8.42831249,9.38894343 Z" id="Shape"></path>
        </g>
    </g>
</svg>