<?xml version="1.0" encoding="UTF-8"?>
<svg width="16px" height="16px" viewBox="0 0 16 16" version="1.1" xmlns="http://www.w3.org/2000/svg" xmlns:xlink="http://www.w3.org/1999/xlink">
    <!-- Generator: Sketch 46.2 (44496) - http://www.bohemiancoding.com/sketch -->
    <title>Group 9</title>
    <desc>Created with Sketch.</desc>
    <defs></defs>
    <g id="Page-1" stroke="none" stroke-width="1" fill="none" fill-rule="evenodd">
        <g id="Desktop-Copy-30" transform="translate(-235.000000, -944.000000)" fill="#2392ED">
            <g id="Group-9" transform="translate(235.000000, 944.000000)">
                <path d="M8,15.5 C3.85786438,15.5 0.5,12.1421356 0.5,8 C0.5,3.85786438 3.85786438,0.5 8,0.5 C12.1421356,0.5 15.5,3.85786438 15.5,8 C15.5,12.1421356 12.1421356,15.5 8,15.5 Z M8,14.5 C11.5898509,14.5 14.5,11.5898509 14.5,8 C14.5,4.41014913 11.5898509,1.5 8,1.5 C4.41014913,1.5 1.5,4.41014913 1.5,8 C1.5,11.5898509 4.41014913,14.5 8,14.5 Z" id="Oval" fill-rule="nonzero"></path>
                <path d="M9,6.03 L9,4.86 L7.58,4.86 L7.58,6.03 L9,6.03 Z M7.58,6.83 L7.58,12 L9,12 L9,6.83 L7.58,6.83 Z" id="i"></path>
            </g>
        </g>
    </g>
</svg>