<?xml version="1.0" encoding="UTF-8"?>
<svg width="40px" height="40px" viewBox="0 0 40 40" version="1.1" xmlns="http://www.w3.org/2000/svg" xmlns:xlink="http://www.w3.org/1999/xlink">
    <!-- Generator: Sketch 48.2 (47327) - http://www.bohemiancoding.com/sketch -->
    <title>earth (1)</title>
    <desc>Created with Sketch.</desc>
    <defs></defs>
    <g id="Graphical-Rating-Likert-Scale-Copy" stroke="none" stroke-width="1" fill="none" fill-rule="evenodd" transform="translate(-626.000000, -580.000000)">
        <g id="earth-(1)" transform="translate(626.000000, 580.000000)" fill="#FFFFFF" fill-rule="nonzero">
            <polygon id="Shape" points="28.9240816 8.82857143 28.962449 9.12326531 28.5208163 9.21469388 28.4620408 9.84244898 28.9910204 9.84244898 29.6946939 9.77469388 30.0579592 9.34285714 29.6718367 9.19265306 29.4604082 8.94938776 29.1428571 8.43510204 28.9910204 7.7077551 28.3942857 7.82938776 28.2269388 8.08571429 28.2269388 8.37469388 28.5142857 8.57142857"></polygon>
            <polygon id="Shape" points="28.4155102 9.07020408 28.4473469 8.67673469 28.0971429 8.52571429 27.6073469 8.63918367 27.2440816 9.22204082 27.2440816 9.6 27.6677551 9.6"></polygon>
            <path d="M18.3338776,10.7412245 L18.2261224,11.0187755 L17.7044898,11.0187755 L17.7044898,11.2881633 L17.8285714,11.2881633 C17.8285714,11.2881633 17.8359184,11.3453061 17.8465306,11.4204082 L18.1665306,11.3934694 L18.3665306,11.2693878 L18.4187755,11.0187755 L18.677551,10.9967347 L18.7795918,10.7861224 L18.5420408,10.7371429 L18.3338776,10.7412245 Z" id="Shape"></path>
            <polygon id="Shape" points="16.9893878 11.2302041 16.9689796 11.4938776 17.3469388 11.4620408 17.3861224 11.197551 17.1591837 11.0187755"></polygon>
            <path d="M39.6889796,19.6416327 C39.6832653,19.0612245 39.6538776,18.484898 39.5991837,17.917551 C39.4155102,16.0261224 38.9632653,14.2130612 38.2857143,12.5134694 C38.235102,12.3869388 38.1885714,12.2587755 38.1346939,12.1338776 C37.2318367,10.0008163 35.9640816,8.05877551 34.4122449,6.38285714 C34.3102041,6.27346939 34.2065306,6.16571429 34.1028571,6.05959184 C33.8097959,5.75510204 33.5085714,5.45795918 33.1967347,5.17306122 C29.6685714,1.96081633 24.9828571,0 19.8465306,0 C14.6669388,0 9.9477551,1.99591837 6.40979592,5.25714286 C5.58530612,6.01714286 4.8277551,6.84653061 4.14040816,7.73469388 C1.5477551,11.0881633 0,15.2889796 0,19.8465306 C0,30.7910204 8.90367347,39.6938776 19.8473469,39.6938776 C27.5453061,39.6938776 34.2285714,35.2857143 37.5183673,28.8628571 C38.2220408,27.4897959 38.7697959,26.0261224 39.1387755,24.4922449 C39.2326531,24.1028571 39.3134694,23.7118367 39.3836735,23.3159184 C39.5836735,22.1885714 39.6930612,21.0293878 39.6930612,19.8465306 C39.6938776,19.7779592 39.6897959,19.7102041 39.6889796,19.6416327 Z M35.9534694,11.7093878 L36.0685714,11.5804082 C36.2195918,11.8734694 36.3608163,12.1714286 36.4955102,12.4734694 L36.3077551,12.4661224 L35.9534694,12.515102 L35.9534694,11.7093878 Z M33.0857143,8.24653061 L33.0889796,7.36 C33.4008163,7.69061224 33.7012245,8.03102041 33.9885714,8.38367347 L33.6310204,8.91591837 L32.3812245,8.9044898 L32.3028571,8.64408163 L33.0857143,8.24653061 Z M9.1444898,6.04326531 L9.1444898,6.00979592 L9.54204082,6.00979592 L9.57632653,5.87346939 L10.2269388,5.87346939 L10.2269388,6.15755102 L10.04,6.40734694 L9.14367347,6.40734694 L9.1444898,6.04326531 Z M9.77959184,6.92897959 C9.77959184,6.92897959 10.1771429,6.86122449 10.2114286,6.86122449 C10.2457143,6.86122449 10.2114286,7.25795918 10.2114286,7.25795918 L9.31510204,7.31428571 L9.1444898,7.11020408 L9.77959184,6.92897959 Z M37.2179592,14.8073469 L35.7657143,14.8073469 L34.8808163,14.1485714 L33.9493878,14.2391837 L33.9493878,14.8073469 L33.6546939,14.8073469 L33.3363265,14.5804082 L31.7232653,14.1714286 L31.7232653,13.1265306 L29.6791837,13.2857143 L29.0457143,13.6261224 L28.2342857,13.6261224 L27.8367347,13.5861224 L26.8514286,14.1330612 L26.8514286,15.162449 L24.837551,16.6155102 L25.004898,17.2359184 L25.4130612,17.2359184 L25.3061224,17.8269388 L25.0187755,17.9322449 L25.0032653,19.4767347 L26.7436735,21.4587755 L27.5012245,21.4587755 L27.5469388,21.3379592 L28.9085714,21.3379592 L29.3012245,20.9746939 L30.0734694,20.9746939 L30.4971429,21.3991837 L31.6481633,21.5183673 L31.4955102,23.0489796 L32.7730612,25.3044898 L32.1004082,26.5902041 L32.1461224,27.1959184 L32.6759184,27.7240816 L32.6759184,29.1804082 L33.3714286,30.1159184 L33.3714286,31.3257143 L33.9722449,31.3257143 C30.6285714,35.4310204 25.5395918,38.0604082 19.8457143,38.0604082 C9.80326531,38.0612245 1.63265306,29.8897959 1.63265306,19.8465306 C1.63265306,17.3183673 2.15183673,14.9085714 3.08653061,12.7183673 L3.08653061,12.1502041 L3.73795918,11.3591837 C3.96408163,10.9322449 4.20653061,10.5159184 4.46530612,10.1102041 L4.49469388,10.4408163 L3.73877551,11.3591837 C3.5044898,11.8016327 3.28571429,12.2538776 3.08734694,12.7183673 L3.08734694,13.755102 L3.84408163,14.1191837 L3.84408163,15.56 L4.56979592,16.7983673 L5.16,16.8889796 L5.23591837,16.4644898 L4.53959184,15.3902041 L4.40326531,14.3461224 L4.81142857,14.3461224 L4.98367347,15.4204082 L5.99020408,16.8889796 L5.73061224,17.3632653 L6.37061224,18.3420408 L7.96,18.7355102 L7.96,18.4783673 L8.59591837,18.5689796 L8.5355102,19.0228571 L9.03510204,19.1142857 L9.80653061,19.324898 L10.8963265,20.5665306 L12.2881633,20.6718367 L12.4244898,21.8073469 L11.4718367,22.4734694 L11.4269388,23.4873469 L11.2906122,24.1077551 L12.6685714,25.8326531 L12.7738776,26.4236735 C12.7738776,26.4236735 13.2734694,26.5591837 13.3346939,26.5591837 C13.395102,26.5591837 14.4546939,27.3616327 14.4546939,27.3616327 L14.4546939,30.4791837 L14.8326531,30.5853061 L14.5755102,32.0236735 L15.2114286,32.8718367 L15.0938776,34.2971429 L15.9338776,35.7738776 L17.0122449,36.7159184 L18.0963265,36.7355102 L18.202449,36.3869388 L17.4057143,35.7159184 L17.4514286,35.3828571 L17.5942857,34.9746939 L17.6244898,34.5583673 L17.0857143,34.5420408 L16.8138776,34.2008163 L17.2612245,33.7706122 L17.3216327,33.4457143 L16.8220408,33.3028571 L16.8514286,33.0008163 L17.5632653,32.8930612 L18.6457143,32.3730612 L19.0089796,31.7069388 L20.1444898,30.2538776 L19.8865306,29.117551 L20.235102,28.5126531 L21.2791837,28.5444898 L21.9820408,27.9877551 L22.2089796,25.795102 L22.9885714,24.804898 L23.124898,24.1689796 L22.4138776,23.9412245 L21.9444898,23.1714286 L20.3404082,23.155102 L19.0685714,22.6702041 L19.0081633,21.7632653 L18.5836735,21.0212245 L17.4334694,21.0040816 L16.7689796,19.9608163 L16.1787755,19.6726531 L16.1485714,19.9910204 L15.0742857,20.0546939 L14.6808163,19.5069388 L13.56,19.2791837 L12.6367347,20.3461224 L11.1836735,20.0995918 L11.0783673,18.4620408 L10.0179592,18.2808163 L10.4432653,17.477551 L10.3216327,17.0163265 L8.92816327,17.9477551 L8.05142857,17.8408163 L7.73877551,17.1559184 L7.92979592,16.4497959 L8.41306122,15.5591837 L9.52571429,14.9959184 L11.6742857,14.995102 L11.6685714,15.6506122 L12.4408163,16.0097959 L12.3795918,14.8897959 L12.9363265,14.3297959 L14.0595918,13.5918367 L14.1363265,13.0726531 L15.2563265,11.9069388 L16.4473469,11.2473469 L16.3420408,11.1608163 L17.1485714,10.4016327 L17.4440816,10.48 L17.5795918,10.6497959 L17.8857143,10.3102041 L17.9608163,10.2767347 L17.6253061,10.2293878 L17.284898,10.1159184 L17.284898,9.78938776 L17.4653061,9.64163265 L17.8628571,9.64163265 L18.044898,9.72163265 L18.202449,10.04 L18.395102,10.0106122 L18.395102,9.98285714 L18.4506122,10.0016327 L19.0089796,9.91591837 L19.0881633,9.64326531 L19.4065306,9.72326531 L19.4065306,10.0187755 L19.1110204,10.2220408 L19.1118367,10.2220408 L19.155102,10.5461224 L20.1665306,10.8579592 C20.1665306,10.8579592 20.1673469,10.8620408 20.1689796,10.8702041 L20.4016327,10.8506122 L20.4171429,10.4122449 L19.6155102,10.0473469 L19.5697959,9.83673469 L20.235102,9.60979592 L20.2644898,8.97306122 L19.5689796,8.54938776 L19.5232653,7.47591837 L18.5697959,7.9444898 L18.2220408,7.9444898 L18.3134694,7.12734694 L17.0155102,6.82122449 L16.4783673,7.22693878 L16.4783673,8.4644898 L15.5126531,8.77061224 L15.1257143,9.57714286 L14.7061224,9.64489796 L14.7061224,8.61306122 L13.7983673,8.48734694 L13.3444898,8.19183673 L13.1616327,7.52326531 L14.7853061,6.57306122 L15.5795918,6.33142857 L15.6595918,6.86530612 L16.1020408,6.84244898 L16.1363265,6.57387755 L16.5991837,6.5077551 L16.6073469,6.41387755 L16.4081633,6.33142857 L16.362449,6.04734694 L16.9314286,5.99918367 L17.275102,5.64163265 L17.2938776,5.6155102 L17.2979592,5.61714286 L17.402449,5.50938776 L18.5983673,5.35836735 L19.1273469,5.80734694 L17.7404082,6.54612245 L19.5053061,6.96244898 L19.7338776,6.3722449 L20.5053061,6.3722449 L20.7779592,5.85795918 L20.2326531,5.72163265 L20.2326531,5.07102041 L18.522449,4.31346939 L17.3420408,4.44979592 L16.6759184,4.79836735 L16.7216327,5.64571429 L16.0253061,5.53959184 L15.9183673,5.07102041 L16.5853061,4.46530612 L15.3746939,4.40489796 L15.0269388,4.51020408 L14.8759184,4.91836735 L15.3297959,4.99510204 L15.2391837,5.44897959 L14.4677551,5.49469388 L14.3469388,5.79673469 L13.2277551,5.8277551 C13.2277551,5.8277551 13.1967347,5.19265306 13.1518367,5.19265306 C13.1069388,5.19265306 14.0293878,5.17714286 14.0293878,5.17714286 L14.6963265,4.52571429 L14.3322449,4.34367347 L13.8481633,4.81387755 L13.044898,4.76816327 L12.5608163,4.10204082 L11.5314286,4.10204082 L10.4571429,4.9044898 L11.4416327,4.9044898 L11.5314286,5.19265306 L11.2759184,5.43020408 L12.3657143,5.46040816 L12.5322449,5.85387755 L11.3053061,5.80816327 L11.2457143,5.50530612 L10.4742857,5.33877551 L10.0653061,5.11183673 L9.14693878,5.11918367 C12.1534694,2.92897959 15.8506122,1.63265306 19.8465306,1.63265306 C24.4522449,1.63265306 28.6604082,3.35428571 31.8710204,6.18285714 L31.6546939,6.56979592 L30.8146939,6.89877551 L30.4604082,7.28326531 L30.5420408,7.73142857 L30.9755102,7.79183673 L31.2367347,8.44489796 L31.9844898,8.14367347 L32.1077551,9.01714286 L31.882449,9.01714286 L31.2685714,8.92653061 L30.5877551,9.04081633 L29.9289796,9.97142857 L28.9869388,10.1191837 L28.8506122,10.9257143 L29.2481633,11.0195918 L29.1330612,11.5379592 L28.197551,11.3502041 L27.3395918,11.5379592 L27.157551,12.0155102 L27.3061224,13.0179592 L27.8097959,13.2538776 L28.6546939,13.2489796 L29.2253061,13.197551 L29.3991837,12.7436735 L30.2906122,11.5853061 L30.877551,11.7053061 L31.4555102,11.1828571 L31.5632653,11.5910204 L32.9853061,12.5502041 L32.8114286,12.7836735 L32.1706122,12.7493878 L32.4171429,13.0987755 L32.8114286,13.1853061 L33.2734694,12.9926531 L33.2636735,12.4359184 L33.4685714,12.3330612 L33.3036735,12.1583673 L32.355102,11.6293878 L32.1053061,10.9265306 L32.8938776,10.9265306 L33.1461224,11.1763265 L33.8253061,11.7616327 L33.8538776,12.4693878 L34.557551,13.2187755 L34.8195918,12.1918367 L35.3069388,11.9257143 L35.3983673,12.7657143 L35.8742857,13.2881633 L36.8236735,13.2718367 C37.0073469,13.7444898 37.1722449,14.2253061 37.3167347,14.7159184 L37.2179592,14.8073469 Z M10.8253061,9.01714286 L11.3020408,8.79020408 L11.7330612,8.89306122 L11.5844898,9.47183673 L11.1191837,9.61959184 L10.8253061,9.01714286 Z M13.355102,10.3795918 L13.355102,10.7542857 L12.2661224,10.7542857 L11.8579592,10.6408163 L11.96,10.3795918 L12.4832653,10.1632653 L13.1983673,10.1632653 L13.1983673,10.3795918 L13.355102,10.3795918 Z M13.8563265,10.9020408 L13.8563265,11.2653061 L13.5836735,11.4408163 L13.2440816,11.5036735 C13.2440816,11.5036735 13.2440816,10.9591837 13.2440816,10.9020408 L13.8563265,10.9020408 Z M13.5493878,10.7542857 L13.5493878,10.322449 L13.9240816,10.6636735 L13.5493878,10.7542857 Z M13.72,11.6277551 L13.72,11.9812245 L13.4595918,12.242449 L12.8808163,12.242449 L12.9714286,11.8457143 L13.244898,11.8220408 L13.3012245,11.6857143 L13.72,11.6277551 Z M12.2783673,10.9020408 L12.88,10.9020408 L12.1085714,11.9804082 L11.7902041,11.8097959 L11.8587755,11.3559184 L12.2783673,10.9020408 Z M14.7420408,11.5036735 L14.7420408,11.8563265 L14.1632653,11.8563265 L14.004898,11.6277551 L14.004898,11.2995918 L14.0506122,11.2995918 L14.7420408,11.5036735 Z M14.2073469,11.0187755 L14.3722449,10.8457143 L14.6506122,11.0187755 L14.4277551,11.202449 L14.2073469,11.0187755 Z M37.5134694,15.7265306 L37.5706122,15.6595918 C37.5942857,15.762449 37.6195918,15.8653061 37.642449,15.9697959 L37.5134694,15.7265306 Z" id="Shape"></path>
            <path d="M3.08734694,12.1502041 L3.08734694,12.7183673 C3.28571429,12.2546939 3.5044898,11.802449 3.73877551,11.3591837 L3.08734694,12.1502041 Z" id="Shape"></path>
        </g>
    </g>
</svg>