<?xml version="1.0" encoding="UTF-8"?>
<svg width="30px" height="29px" viewBox="0 0 30 29" version="1.1" xmlns="http://www.w3.org/2000/svg" xmlns:xlink="http://www.w3.org/1999/xlink">
    <!-- Generator: Sketch 48.2 (47327) - http://www.bohemiancoding.com/sketch -->
    <title>Likes-active</title>
    <desc>Created with Sketch.</desc>
    <defs></defs>
    <g id="Graphical-Rating-Likert-Scale-Copy" stroke="none" stroke-width="1" fill="none" fill-rule="evenodd" transform="translate(-1091.000000, -527.000000)">
        <g id="Likes-active" transform="translate(1091.000000, 527.000000)" fill="#383838" fill-rule="nonzero">
            <path d="M28.974,15.911 C29.658,15.128 30,14.201 30,13.132 C30,12.162 29.645,11.323 28.937,10.614 C28.228,9.904 27.389,9.55 26.419,9.55 L21.25,9.55 C21.3,9.376 21.35,9.227 21.4,9.103 C21.4578648,8.96152066 21.5260484,8.82448496 21.604,8.693 C21.8602693,8.24499828 22.0938964,7.78441913 22.304,7.313 C22.4506415,6.94933108 22.5689931,6.57488556 22.658,6.193 C22.777,5.72 22.836,5.248 22.836,4.775 C22.836,4.477 22.832,4.234 22.826,4.048 C22.8097847,3.7665601 22.7787416,3.4861709 22.733,3.208 C22.6902289,2.89052288 22.6151735,2.57823878 22.509,2.276 C22.3908844,1.98043615 22.2406495,1.69874579 22.061,1.436 C21.8665363,1.13600172 21.6126448,0.87904713 21.315,0.681 C21.022,0.488 20.649,0.326 20.195,0.196 C19.6933223,0.0591519561 19.1749628,-0.00682107192 18.655,-3.88523849e-16 C18.332,-3.88523849e-16 18.052,0.118 17.815,0.355 C17.567,0.603 17.355,0.914 17.181,1.287 C17.0296869,1.59827629 16.9078227,1.92302422 16.817,2.257 C16.749,2.531 16.671,2.91 16.584,3.395 C16.472,3.917 16.388,4.293 16.332,4.523 C16.276,4.753 16.167,5.055 16.005,5.428 C15.843,5.801 15.651,6.099 15.427,6.323 C15.017,6.733 14.388,7.48 13.542,8.562 C12.9462748,9.34097783 12.3173618,10.0940053 11.657,10.819 C11.01,11.528 10.537,11.894 10.239,11.919 C9.929,11.944 9.661,12.072 9.437,12.302 C9.213,12.532 9.101,12.802 9.101,13.113 L9.101,25.07 C9.101,25.393 9.219,25.67 9.456,25.9 C9.692,26.13 9.972,26.251 10.296,26.264 C10.731,26.276 11.713,26.55 13.243,27.084 C14.201,27.408 14.951,27.654 15.492,27.821 C16.032,27.989 16.789,28.169 17.758,28.362 C18.728,28.555 19.624,28.652 20.445,28.652 L22.852,28.652 C24.507,28.627 25.732,28.142 26.528,27.197 C27.25,26.339 27.554,25.213 27.443,23.82 C27.928,23.36 28.263,22.776 28.45,22.067 C28.661,21.309 28.661,20.581 28.45,19.885 C29.0128671,19.1559108 29.2972369,18.2499696 29.252,17.33 C29.254,16.931 29.161,16.459 28.974,15.911 Z M6.56,11.798 L1.193,11.798 C0.87,11.798 0.59,11.915 0.354,12.148 C0.118,12.381 0,12.658 0,12.978 L0,24.776 C0,25.095 0.118,25.371 0.354,25.606 C0.59,25.838 0.87,25.956 1.193,25.956 L6.56,25.956 C6.883,25.956 7.163,25.838 7.399,25.606 C7.635,25.371 7.753,25.095 7.753,24.776 L7.753,12.978 C7.753,12.658 7.635,12.382 7.399,12.148 C7.17913679,11.921254 6.87582091,11.7947217 6.56,11.798 Z M4.417,23.254 C4.19457613,23.475878 3.8921462,23.5987965 3.578,23.595 C3.243,23.595 2.96,23.482 2.73,23.255 C2.50338403,23.0351059 2.37871519,22.730682 2.386,22.415 C2.386,22.096 2.5,21.82 2.73,21.586 C2.96,21.353 3.243,21.236 3.578,21.236 C3.901,21.236 4.181,21.353 4.417,21.586 C4.653,21.82 4.771,22.096 4.771,22.416 C4.771,22.748 4.653,23.027 4.417,23.254 Z" id="Shape"></path>
        </g>
    </g>
</svg>