<?xml version="1.0" encoding="UTF-8"?>
<svg width="31px" height="31px" viewBox="0 0 31 31" version="1.1" xmlns="http://www.w3.org/2000/svg" xmlns:xlink="http://www.w3.org/1999/xlink">
    <!-- Generator: Sketch 48.2 (47327) - http://www.bohemiancoding.com/sketch -->
    <title>Dislikes-inactive</title>
    <desc>Created with Sketch.</desc>
    <defs></defs>
    <g id="Graphical-Rating-Likert-Scale-Copy" stroke="none" stroke-width="1" fill="none" fill-rule="evenodd" transform="translate(-1089.000000, -561.000000)">
        <g id="Dislikes-inactive" transform="translate(1104.000000, 576.500000) scale(1, -1) translate(-1104.000000, -576.500000) translate(1089.000000, 562.000000)">
            <path d="M28.974,12.74 C29.658,13.524 30,14.45 30,15.52 C30,16.49 29.645,17.329 28.937,18.038 C28.228,18.748 27.389,19.101 26.419,19.101 L21.25,19.101 C21.3,19.275 21.35,19.425 21.4,19.549 C21.449,19.673 21.518,19.81 21.604,19.959 C21.8602693,20.4070017 22.0938964,20.8675809 22.304,21.339 C22.422,21.614 22.54,21.986 22.658,22.459 C22.777,22.931 22.836,23.404 22.836,23.877 C22.836,24.175 22.832,24.417 22.826,24.604 C22.8097847,24.8854399 22.7787416,25.1658291 22.733,25.444 C22.6902289,25.7614771 22.6151735,26.0737612 22.509,26.376 C22.3908844,26.6715638 22.2406495,26.9532542 22.061,27.216 C21.8665363,27.5159983 21.6126448,27.7729529 21.315,27.971 C21.022,28.164 20.649,28.325 20.195,28.456 C19.741,28.586 19.228,28.652 18.655,28.652 C18.332,28.652 18.052,28.533 17.815,28.297 C17.5508182,28.0257767 17.3362361,27.7103344 17.181,27.365 C17.0296869,27.0537237 16.9078227,26.7289758 16.817,26.395 C16.7271416,26.0182653 16.6494347,25.6387354 16.584,25.257 C16.5046451,24.8796449 16.4206387,24.5032829 16.332,24.128 C16.2474986,23.8183598 16.1381436,23.516045 16.005,23.224 C15.843,22.85 15.651,22.552 15.427,22.328 C15.017,21.918 14.388,21.172 13.542,20.09 C12.9462748,19.3110222 12.3173618,18.5579947 11.657,17.833 C11.01,17.124 10.537,16.757 10.239,16.733 C9.93312201,16.7103276 9.6469036,16.5736423 9.437,16.35 C9.213,16.12 9.101,15.85 9.101,15.539 L9.101,3.582 C9.101,3.258 9.219,2.982 9.456,2.752 C9.692,2.522 9.972,2.4 10.296,2.388 C10.731,2.375 11.713,2.102 13.243,1.567 C14.201,1.244 14.951,0.998 15.492,0.83 C16.032,0.663 16.789,0.482 17.758,0.29 C18.728,0.097 19.624,0 20.445,0 L22.852,0 C24.507,0.025 25.732,0.51 26.528,1.455 C27.25,2.313 27.554,3.438 27.443,4.831 C27.928,5.291 28.263,5.876 28.45,6.585 C28.661,7.343 28.661,8.07 28.45,8.767 C29.022,9.525 29.29,10.377 29.252,11.322 C29.254,11.72 29.161,12.192 28.974,12.74 Z" id="Shape" stroke="#383838"></path>
            <path d="M6.56,16.955 L1.193,16.955 C0.87,16.955 0.59,16.838 0.354,16.605 C0.125660515,16.3896358 -0.0026183129,16.0888691 2.3625443e-16,15.775 L2.3625443e-16,3.977 C2.3625443e-16,3.658 0.118,3.381 0.354,3.147 C0.59,2.915 0.87,2.797 1.193,2.797 L6.56,2.797 C6.883,2.797 7.163,2.915 7.399,3.147 C7.635,3.381 7.753,3.658 7.753,3.977 L7.753,15.775 C7.753,16.095 7.635,16.371 7.399,16.605 C7.163,16.838 6.883,16.955 6.56,16.955 Z M4.417,5.498 C4.19441079,5.27648839 3.89200136,5.15393868 3.578,5.158 C3.243,5.158 2.96,5.271 2.73,5.498 C2.5,5.726 2.386,6.005 2.386,6.338 C2.386,6.657 2.5,6.933 2.73,7.167 C2.96,7.4 3.243,7.517 3.578,7.517 C3.901,7.517 4.181,7.4 4.417,7.167 C4.653,6.933 4.771,6.657 4.771,6.337 C4.771,6.005 4.653,5.726 4.417,5.498 Z" id="Shape" fill="#383838" fill-rule="nonzero"></path>
        </g>
    </g>
</svg>