<?xml version="1.0" encoding="UTF-8"?>
<svg width="20px" height="20px" viewBox="0 0 20 20" version="1.1" xmlns="http://www.w3.org/2000/svg" xmlns:xlink="http://www.w3.org/1999/xlink">
    <!-- Generator: Sketch 48.2 (47327) - http://www.bohemiancoding.com/sketch -->
    <title>linkedin (1)</title>
    <desc>Created with Sketch.</desc>
    <defs></defs>
    <g id="NPS-promoter-amplification" stroke="none" stroke-width="1" fill="none" fill-rule="evenodd" transform="translate(-56.000000, -695.000000)">
        <g id="linkedin-(1)" transform="translate(56.000000, 695.000000)" fill-rule="nonzero">
            <path d="M9.97664384,0 C15.4869178,0 19.9533562,4.46705479 19.9533562,9.97671233 C19.9533562,15.4863699 15.4869178,19.9533562 9.97664384,19.9533562 C4.46636986,19.9533562 0,15.4863014 0,9.97671233 C0,4.46712329 4.46643836,0 9.97664384,0 Z" id="Shape" fill="#0E76A8"></path>
            <path d="M5.62184932,13.7079452 L7.49,13.7079452 L7.49,7.48123288 L5.62184932,7.48123288 L5.62184932,13.7079452 Z M12.899863,7.26554795 C11.9932192,7.26554795 11.1819863,7.59664384 10.6065068,8.32746575 L10.6065068,7.46075342 L8.73150685,7.46075342 L8.73150685,13.7080137 L10.6065068,13.7080137 L10.6065068,10.3296575 C10.6065068,9.61568493 11.2606164,8.91917808 12.0799315,8.91917808 C12.8992466,8.91917808 13.1013014,9.61568493 13.1013014,10.3121918 L13.1013014,13.7073973 L14.9694521,13.7073973 L14.9694521,10.1731507 C14.9693836,7.71821918 13.8071233,7.26554795 12.899863,7.26554795 Z M6.54719178,6.8589726 C7.06349315,6.8589726 7.48253425,6.43993151 7.48253425,5.92363014 C7.48253425,5.40732877 7.06349315,4.98835616 6.54719178,4.98835616 C6.03089041,4.98835616 5.61184932,5.40739726 5.61184932,5.92369863 C5.61184932,6.44 6.03089041,6.8589726 6.54719178,6.8589726 Z" id="Shape" fill="#FFFFFF"></path>
        </g>
    </g>
</svg>