<?xml version="1.0" encoding="UTF-8"?>
<svg width="12px" height="17px" viewBox="0 0 12 17" version="1.1" xmlns="http://www.w3.org/2000/svg" xmlns:xlink="http://www.w3.org/1999/xlink">
    <!-- Generator: Sketch 46.2 (44496) - http://www.bohemiancoding.com/sketch -->
    <title>Page 1</title>
    <desc>Created with Sketch.</desc>
    <defs>
        <polygon id="path-1" points="6.00000313 16 12 16 12 0 6.00000313 0 6.25e-06 0 6.25e-06 16"></polygon>
    </defs>
    <g id="Page-1" stroke="none" stroke-width="1" fill="none" fill-rule="evenodd">
        <g id="Desktop-Copy-8" transform="translate(-1369.000000, -478.000000)">
            <g id="Page-1" transform="translate(1369.000000, 478.850000)">
                <mask id="mask-2" fill="white">
                    <use xlink:href="#path-1"></use>
                </mask>
                <g id="Clip-2"></g>
                <path d="M0.553725,8.56640625 L1.053725,9.432625 L1.86525625,8.96484375 C1.71875625,8.662125 1.5820375,8.35546875 1.4580375,8.0449375 L0.553725,8.56640625 Z M10.1279437,8.95996875 L10.9463187,9.432625 L11.4463187,8.56640625 L10.5381,8.04296875 C10.4121,8.35353125 10.2753812,8.65821875 10.1279437,8.95996875 L10.1279437,8.95996875 Z M10.949225,5.5 C10.9667875,5.667 11.0000063,5.828125 11.0000063,6 C11.0000063,6.1699375 10.9667875,6.334 10.9472563,6.5 L12.0000063,6.5 L12.0000063,5.5 L10.949225,5.5 Z M1.00000625,6 C1.00000625,5.828125 1.033225,5.667 1.0507875,5.5 L6.25e-06,5.5 L6.25e-06,6.5 L1.05275625,6.5 C1.033225,6.334 1.00000625,6.1699375 1.00000625,6 L1.00000625,6 Z M9.43263125,1.05371875 L8.56738125,0.55371875 L8.0497875,1.4511875 C8.35544375,1.589875 8.6435375,1.7588125 8.91306875,1.95315625 L9.43263125,1.05371875 Z M11.4462875,3.43359375 L10.9462875,2.56640625 L10.0458812,3.08690625 C10.2411937,3.35740625 10.4111312,3.64453125 10.5497875,3.95115625 L11.4462875,3.43359375 Z M3.95119375,1.4511875 L3.4336,0.55371875 L2.5664125,1.05371875 L3.0869125,1.954125 C3.35744375,1.75878125 3.6445375,1.58984375 3.95119375,1.4511875 L3.95119375,1.4511875 Z M6.50000625,1.05078125 L6.50000625,0 L5.50000625,0 L5.50000625,1.05078125 C5.66700625,1.03321875 5.82813125,1 6.00000625,1 C6.17188125,1 6.33300625,1.03321875 6.50000625,1.05078125 L6.50000625,1.05078125 Z M0.553725,3.43359375 L1.45119375,3.9511875 C1.58988125,3.64453125 1.75881875,3.3574375 1.95413125,3.0869375 L1.053725,2.56640625 L0.553725,3.43359375 Z M7.50000625,12.5 L4.50000625,12.5 C4.22363125,12.5 4.00000625,12.723625 4.00000625,13 C4.00000625,13.276375 4.22363125,13.5 4.50000625,13.5 L7.50000625,13.5 C7.77638125,13.5 8.00000625,13.276375 8.00000625,13 C8.00000625,12.723625 7.77638125,12.5 7.50000625,12.5 L7.50000625,12.5 Z M7.50000625,14 L4.50000625,14 C4.22363125,14 4.00000625,14.223625 4.00000625,14.5 C4.00000625,14.776375 4.22363125,15 4.50000625,15 L4.59181875,15 C4.79788125,15.5820312 5.34769375,16 6.0000375,16 C6.65238125,16 7.20219375,15.5820312 7.40825625,15 L7.50000625,15 C7.77638125,15 8.00000625,14.776375 8.00000625,14.5 C8.00000625,14.223625 7.77638125,14 7.50000625,14 L7.50000625,14 Z M10.0000063,6 C10.0000063,8 8.00000625,9.96875 8.00000625,12 L4.00000625,12 C4.00000625,10.03125 2.00000625,8 2.00000625,6 C2.00000625,3.791 3.7910375,2 6.00000625,2 C8.208975,2 10.0000063,3.79103125 10.0000063,6 L10.0000063,6 Z" id="Fill-1" fill="#505B63" mask="url(#mask-2)"></path>
            </g>
        </g>
    </g>
</svg>