<?xml version="1.0" encoding="UTF-8"?>
<svg width="27px" height="21px" viewBox="0 0 27 21" version="1.1" xmlns="http://www.w3.org/2000/svg" xmlns:xlink="http://www.w3.org/1999/xlink">
    <!-- Generator: Sketch 46.2 (44496) - http://www.bohemiancoding.com/sketch -->
    <title>Page 1</title>
    <desc>Created with Sketch.</desc>
    <defs>
        <polygon id="path-1" points="13.5 21 27 21 27 0 13.5 0 0 0 0 21"></polygon>
    </defs>
    <g id="Page-1" stroke="none" stroke-width="1" fill="none" fill-rule="evenodd">
        <g id="Desktop-Copy-10" transform="translate(-474.000000, -139.000000)">
            <g id="Page-1" transform="translate(474.000000, 139.000000)">
                <mask id="mask-2" fill="white">
                    <use xlink:href="#path-1"></use>
                </mask>
                <g id="Clip-2"></g>
                <path d="M18.0000163,6.21429372 C18.0000163,4.91227784 19.0550144,3.85712585 20.3570709,3.85712585 C21.6591273,3.85712585 22.7142235,4.91227784 22.7142235,6.21429372 C22.7142235,7.5163096 21.6591273,8.57141256 20.3570709,8.57141256 C19.0550634,8.57146158 18.0000163,7.5163096 18.0000163,6.21429372 L18.0000163,6.21429372 Z M25.2856404,1.71427271 L25.2856404,14.1818309 L21.9072151,11.110297 C21.3994219,10.6487262 20.618541,10.6671576 20.1333948,11.1527481 L16.7141853,14.5713916 L9.97243288,6.51855984 C9.46282596,5.90997857 8.52939628,5.90399815 8.01214232,6.50527547 L1.71431061,13.8244273 L1.71431061,1.71427271 L25.2856404,1.71427271 Z M25.2856404,0 L1.71431061,0 C0.767596646,0 0,0.767552603 0,1.71427271 L0,19.2858253 C0,20.2325454 0.767596646,21 1.71431061,21 L25.2856404,21 C26.2323543,21 27,20.2325454 27,19.2857273 L27,1.71427271 C27,0.767552603 26.2324034,0 25.2856404,0 L25.2856404,0 Z" id="Fill-1" fill="#908F8F" mask="url(#mask-2)"></path>
            </g>
        </g>
    </g>
</svg>