<?xml version="1.0" encoding="UTF-8"?>
<svg width="29px" height="28px" viewBox="0 0 29 28" version="1.1" xmlns="http://www.w3.org/2000/svg" xmlns:xlink="http://www.w3.org/1999/xlink">
    <!-- Generator: Sketch 46.2 (44496) - http://www.bohemiancoding.com/sketch -->
    <title>Group 26</title>
    <desc>Created with Sketch.</desc>
    <defs></defs>
    <g id="Page-1" stroke="none" stroke-width="1" fill="none" fill-rule="evenodd">
        <g id="Desktop-Copy-10" transform="translate(-243.000000, -360.000000)">
            <g id="Group-26" transform="translate(243.000000, 361.000000)">
                <rect id="Rectangle-26" stroke="#57626A" stroke-width="1.5" x="0.75" y="5.75" width="20.5" height="20.5" rx="2"></rect>
                <path d="M0.5,12.5 L20.7099991,12.5" id="Line-5" stroke="#57626A" stroke-linecap="square"></path>
                <path d="M0.5,19.5 L20.7099991,19.5" id="Line-5" stroke="#57626A" stroke-linecap="square"></path>
                <path d="M8,26 L8,6.14999962" id="Line-5" stroke="#57626A" stroke-linecap="square"></path>
                <path d="M14,26 L14,6.14999962" id="Line-5" stroke="#57626A" stroke-linecap="square"></path>
                <circle id="Oval-2" stroke="#FFFFFF" fill="#2392ED" cx="21" cy="7" r="7"></circle>
                <path d="M21.141866,4.09433576 L21.9050588,5.90243786 L23.8589307,6.07045417 C23.9944452,6.08216907 24.0495749,6.25141852 23.9467071,6.34051341 L22.4646719,7.62576109 L22.9087897,9.53775584 C22.9395884,9.67062746 22.7957583,9.77513668 22.6793391,9.70453901 L21.0001919,8.690892 L19.3210446,9.70453901 C19.2043174,9.7748284 19.0607953,9.67031917 19.091594,9.53775584 L19.5357119,7.62576109 L18.0533686,6.34020512 C17.9505008,6.25111024 18.0053225,6.08186078 18.141145,6.07014588 L20.0950169,5.90212958 L20.8582097,4.09433576 C20.9111835,3.96855475 21.0888922,3.96855475 21.141866,4.09433576 Z" id="Shape" fill="#FFFFFF" fill-rule="nonzero"></path>
            </g>
        </g>
    </g>
</svg>