<?xml version="1.0" encoding="UTF-8"?>
<svg width="25px" height="25px" viewBox="0 0 25 25" version="1.1" xmlns="http://www.w3.org/2000/svg" xmlns:xlink="http://www.w3.org/1999/xlink">
    <!-- Generator: Sketch 48.2 (47327) - http://www.bohemiancoding.com/sketch -->
    <title>Group 5 Copy</title>
    <desc>Created with Sketch.</desc>
    <defs></defs>
    <g id="Single-choice-with-new-additional-text-Copy" stroke="none" stroke-width="1" fill="none" fill-rule="evenodd" transform="translate(-378.000000, -296.000000)">
        <g id="Group-5-Copy" transform="translate(378.000000, 296.000000)" fill-rule="nonzero">
            <g id="Group-3" fill="#CECECE">
                <circle id="Oval" cx="12.5" cy="12.5" r="12.5"></circle>
            </g>
            <g id="download" transform="translate(9.482759, 7.758621)" fill="#434343">
                <path d="M2.34014946,9.42946377 C2.4078478,9.49706688 2.49898019,9.53346856 2.58750879,9.53346856 C2.67603739,9.53346856 2.76716978,9.499667 2.83486812,9.42946377 L5.06891344,7.19856096 C5.20691391,7.06075461 5.20691391,6.83974443 5.06891344,6.70193808 C4.93091297,6.56413173 4.70959147,6.56413173 4.571591,6.70193808 L2.93901942,8.33481332 L2.93901942,1.21308514 C2.93901942,1.01807615 2.78279247,0.862068966 2.58750879,0.862068966 C2.39222511,0.862068966 2.23599816,1.01807615 2.23599816,1.21308514 L2.23599816,8.33481332 L0.600822795,6.70193808 C0.462822327,6.56413173 0.24150082,6.56413173 0.103500352,6.70193808 C-0.0345001172,6.83974443 -0.0345001172,7.06075461 0.103500352,7.19856096 L2.34014946,9.42946377 Z" id="Shape"></path>
                <path d="M2.34014946,8.5673948 C2.4078478,8.63499792 2.49898019,8.67139959 2.58750879,8.67139959 C2.67603739,8.67139959 2.76716978,8.63759804 2.83486812,8.5673948 L5.06891344,6.336492 C5.20691391,6.19868565 5.20691391,5.97767546 5.06891344,5.83986911 C4.93091297,5.70206276 4.70959147,5.70206276 4.571591,5.83986911 L2.93901942,7.47274436 L2.93901942,0.351016175 C2.93901942,0.156007189 2.78279247,0 2.58750879,0 C2.39222511,0 2.23599816,0.156007189 2.23599816,0.351016175 L2.23599816,7.47274436 L0.600822795,5.83986911 C0.462822327,5.70206276 0.24150082,5.70206276 0.103500352,5.83986911 C-0.0345001172,5.97767546 -0.0345001172,6.19868565 0.103500352,6.336492 L2.34014946,8.5673948 Z" id="Shape" transform="translate(2.586207, 4.335700) scale(1, -1) translate(-2.586207, -4.335700) "></path>
            </g>
        </g>
    </g>
</svg>