<?xml version="1.0" encoding="UTF-8"?>
<svg width="15px" height="15px" viewBox="0 0 15 15" version="1.1" xmlns="http://www.w3.org/2000/svg" xmlns:xlink="http://www.w3.org/1999/xlink">
    <!-- Generator: Sketch 46.2 (44496) - http://www.bohemiancoding.com/sketch -->
    <title>icon (8)</title>
    <desc>Created with Sketch.</desc>
    <defs></defs>
    <g id="Page-1" stroke="none" stroke-width="1" fill="none" fill-rule="evenodd">
        <g id="Desktop-Copy-8" transform="translate(-1368.000000, -450.000000)" fill-rule="nonzero" fill="#505B63">
            <g id="icon-(8)" transform="translate(1368.000000, 450.000000)">
                <polygon id="Shape" points="8.4375 9.375 8.4375 12.1875 10.3125 12.1875 7.5 15 4.6875 12.1875 6.5625 12.1875 6.5625 9.375"></polygon>
                <polygon id="Shape" points="6.5625 5.625 6.5625 2.8125 4.6875 2.8125 7.5 0 10.3125 2.8125 8.4375 2.8125 8.4375 5.625"></polygon>
                <polygon id="Shape" points="5.625 8.4375 2.8125 8.4375 2.8125 10.3125 0 7.5 2.8125 4.6875 2.8125 6.5625 5.625 6.5625"></polygon>
                <polygon id="Shape" points="9.375 6.5625 12.1875 6.5625 12.1875 4.6875 15 7.5 12.1875 10.3125 12.1875 8.4375 9.375 8.4375"></polygon>
            </g>
        </g>
    </g>
</svg>