<?xml version="1.0" encoding="UTF-8"?>
<svg width="36px" height="20px" viewBox="0 0 36 20" version="1.1" xmlns="http://www.w3.org/2000/svg" xmlns:xlink="http://www.w3.org/1999/xlink">
    <!-- Generator: Sketch 46.2 (44496) - http://www.bohemiancoding.com/sketch -->
    <title>Group 21</title>
    <desc>Created with Sketch.</desc>
    <defs></defs>
    <g id="Page-1" stroke="none" stroke-width="1" fill="none" fill-rule="evenodd">
        <g id="Desktop-Copy-10" transform="translate(-355.000000, -169.000000)" fill-rule="nonzero">
            <g id="Group-21" transform="translate(355.000000, 169.000000)">
                <g id="icon-(7)" fill="#556068">
                    <path d="M23.0459403,3.94497458 C20.4960508,1.40100669 17.1059126,0 13.5,0 C9.89402445,0 6.50382331,1.40100669 3.95399675,3.94497458 C1.4041702,6.48894248 0,9.87129126 0,13.4689815 C0,15.7919559 0.58658159,18.0244355 1.68792488,20 L4.21112582,20 L6.05660127,18.9368577 L5.24159339,17.5283778 L2.86857848,18.8954096 C2.03021812,17.2668783 1.55662225,15.4221263 1.55662225,13.4689815 C1.55662225,13.1233299 1.57235842,12.7812579 1.60137592,12.442954 L4.43086575,12.9407073 L4.71392803,11.3390544 L1.85114046,10.8354607 C2.36269198,8.5820059 3.51609053,6.56901256 5.10884303,4.9983201 L7.04848373,7.30465254 L8.29724349,6.25928263 L6.34287373,3.93555457 C8.13497207,2.59295195 10.3164463,1.74144585 12.6849921,1.58149408 L12.6849921,4.66604495 L14.3150079,4.66604495 L14.3150079,1.58149408 C16.6835537,1.74157145 18.8650279,2.59301475 20.6571892,3.93561737 L18.7027565,6.25928263 L19.9514533,7.30465254 L21.891157,4.9982573 C23.4838465,6.56901256 24.6372451,8.5820059 25.1487966,10.8353979 L22.286072,11.3391172 L22.5691972,12.9406445 L25.3984982,12.4428284 C25.4275157,12.7811951 25.4432519,13.1232043 25.4432519,13.4688559 C25.4432519,15.4221263 24.9698448,17.2669411 24.1313586,18.8953468 L21.7582807,17.5284406 L20.9433358,18.9368577 L22.7887483,19.9998744 L25.3120751,19.9998744 C26.4134814,18.0243099 27,15.7918303 27,13.4688559 C27.0000629,9.87122846 25.5957039,6.48881688 23.0459403,3.94497458 Z" id="Shape"></path>
                </g>
                <path d="M14.7343539,13 C15.4326414,13 16,12.4933259 16,11.8720095 C16,11.2520418 15.4326414,10.7489001 14.7343539,10.7489001 L9,7 L13.4686355,11.9443915 C13.5101108,12.532953 14.0617897,13 14.7343539,13 Z" id="Shape" fill="#2392ED"></path>
                <rect id="Rectangle-path" fill="#2392ED" x="8" y="17" width="11" height="3"></rect>
                <g id="original" transform="translate(28.000000, 1.000000)" fill="#505B63">
                    <path d="M3.98769231,0 C1.78885068,0 0,1.78885068 0,3.98769231 C0,6.18653394 1.78885068,7.97534842 3.98769231,7.97534842 C6.18653394,7.97534842 7.97538462,6.18649774 7.97538462,3.98769231 C7.97538462,1.78888688 6.18649774,0 3.98769231,0 Z M3.98769231,6.87786425 C2.39406335,6.87786425 1.09755656,5.58135747 1.09755656,3.98769231 C1.09755656,2.39402715 2.39406335,1.09752036 3.98769231,1.09752036 C5.58132127,1.09752036 6.87782805,2.39402715 6.87782805,3.98769231 C6.87782805,5.58135747 5.58132127,6.87786425 3.98769231,6.87786425 Z M5.43674208,3.46903167 C5.43674208,2.6640724 4.87178281,2.1639819 3.96235294,2.1639819 L2.61502262,2.1639819 L2.61502262,5.81140271 L3.38751131,5.81140271 L3.38751131,4.79518552 L3.96238914,4.79518552 C3.99627149,4.79518552 4.0320724,4.79431674 4.06892308,4.79250679 L4.81227149,5.81143891 L5.76959276,5.81143891 L4.86338462,4.56977376 C5.23333937,4.33882353 5.43674208,3.94874208 5.43674208,3.46903167 Z M3.96235294,4.02273303 L3.38751131,4.02273303 L3.38751131,2.93647059 L3.96238914,2.93647059 C4.66432579,2.93647059 4.66432579,3.33726697 4.66432579,3.46903167 C4.66432579,3.60593665 4.66432579,4.02273303 3.96235294,4.02273303 Z" id="Shape"></path>
                </g>
            </g>
        </g>
    </g>
</svg>