<?xml version="1.0" encoding="UTF-8"?>
<svg width="18px" height="14px" viewBox="0 0 18 14" version="1.1" xmlns="http://www.w3.org/2000/svg" xmlns:xlink="http://www.w3.org/1999/xlink">
    <!-- Generator: Sketch 46.2 (44496) - http://www.bohemiancoding.com/sketch -->
    <title>color-palette</title>
    <desc>Created with Sketch.</desc>
    <defs></defs>
    <g id="Page-1" stroke="none" stroke-width="1" fill="none" fill-rule="evenodd">
        <g id="Desktop-Copy-10" transform="translate(-1350.000000, -347.000000)" fill-rule="nonzero" fill="#505B63">
            <g id="color-palette" transform="translate(1350.000000, 347.000000)">
                <path d="M17.1768293,3.94871795 C16.6280488,2.96753333 15.8658659,2.19573846 14.8902439,1.63333333 C13.914622,1.07092821 12.8231707,0.658107692 11.6158537,0.394871795 C10.4085366,0.131635897 9.0609878,0 7.57317073,0 C6.45120732,0 5.39634146,0.203430769 4.40853659,0.61025641 C3.42073171,1.01708205 2.61585366,1.51964615 1.99390244,2.11794872 C1.37195122,2.71625128 0.884158537,3.32650769 0.530487805,3.94871795 C0.176817073,4.57092821 0,5.12137949 0,5.6 C0,6.58118462 0.243914634,7.37092821 0.731707317,7.96923077 C1.2195,8.56753333 1.92684146,8.86666667 2.85365854,8.86666667 C3.82928049,8.86666667 4.54269512,9.00426154 4.99390244,9.27948718 C5.44510976,9.55471282 5.67073171,10.0393282 5.67073171,10.7333333 C5.67073171,11.6666667 5.98781707,12.4444564 6.62195122,13.0666667 C7.25608537,13.6888769 8.04878049,14 9,14 C11.9024268,14 14.128061,13.3538462 15.6768293,12.0615385 C17.2255976,10.7692308 18,9.23759487 18,7.46666667 C18,6.1025641 17.7256098,4.92990256 17.1768293,3.94871795 Z M3.93292683,6.65897436 C3.70123171,6.88631282 3.42073171,7 3.09146341,7 C2.76219512,7 2.48169512,6.88631282 2.25,6.65897436 C2.01830488,6.4316359 1.90243902,6.15641026 1.90243902,5.83333333 C1.90243902,5.51025641 2.01830488,5.23503077 2.25,5.00769231 C2.48169512,4.78035385 2.76219512,4.66666667 3.09146341,4.66666667 C3.42073171,4.66666667 3.70123171,4.78035385 3.93292683,5.00769231 C4.16462195,5.23503077 4.2804878,5.51025641 4.2804878,5.83333333 C4.2804878,6.15641026 4.16462195,6.4316359 3.93292683,6.65897436 Z M6.38414634,4.2 C6.05487805,4.2 5.7804878,4.08631282 5.56097561,3.85897436 C5.34146341,3.6316359 5.23170732,3.35641026 5.23170732,3.03333333 C5.23170732,2.71025641 5.34146341,2.43503077 5.56097561,2.20769231 C5.7804878,1.98035385 6.05487805,1.86666667 6.38414634,1.86666667 C6.71341463,1.86666667 6.99391463,1.98035385 7.22560976,2.20769231 C7.45730488,2.43503077 7.57317073,2.71025641 7.57317073,3.03333333 C7.57317073,3.35641026 7.45730488,3.6316359 7.22560976,3.85897436 C6.99391463,4.08631282 6.71341463,4.2 6.38414634,4.2 Z M10.0060976,11.7205128 C9.72556098,11.9957385 9.39021951,12.1333333 9,12.1333333 C8.6097439,12.1333333 8.27440244,11.9957385 7.99390244,11.7205128 C7.71340244,11.4452872 7.57317073,11.1162513 7.57317073,10.7333333 C7.57317073,10.3504154 7.71340244,10.0213436 7.99390244,9.74615385 C8.27440244,9.47092821 8.60978049,9.33333333 9,9.33333333 C9.3902561,9.33333333 9.72559756,9.47092821 10.0060976,9.74615385 C10.2865976,10.0213795 10.4268293,10.3504154 10.4268293,10.7333333 C10.4268293,11.1162513 10.2865976,11.4452872 10.0060976,11.7205128 Z M11.0304878,3.85897436 C10.7987927,4.08631282 10.5182927,4.2 10.1890244,4.2 C9.8597561,4.2 9.5792561,4.08631282 9.34756098,3.85897436 C9.11586585,3.6316359 9,3.35641026 9,3.03333333 C9,2.71025641 9.11586585,2.43503077 9.34756098,2.20769231 C9.5792561,1.98035385 9.8597561,1.86666667 10.1890244,1.86666667 C10.5182927,1.86666667 10.7987927,1.98035385 11.0304878,2.20769231 C11.2621829,2.43503077 11.3780488,2.71025641 11.3780488,3.03333333 C11.3780488,3.35641026 11.2621829,3.6316359 11.0304878,3.85897436 Z M14.7987805,5.72564103 C14.5670854,5.95297949 14.2865854,6.06666667 13.9573171,6.06666667 C13.6280488,6.06666667 13.3475488,5.95297949 13.1158537,5.72564103 C12.8841585,5.49830256 12.7682927,5.22307692 12.7682927,4.9 C12.7682927,4.57692308 12.8841585,4.30169744 13.1158537,4.07435897 C13.3475488,3.84702051 13.6280488,3.73333333 13.9573171,3.73333333 C14.2865854,3.73333333 14.5670854,3.84702051 14.7987805,4.07435897 C15.0304756,4.30169744 15.1463415,4.57692308 15.1463415,4.9 C15.1463415,5.22307692 15.0304756,5.49830256 14.7987805,5.72564103 Z" id="Shape"></path>
            </g>
        </g>
    </g>
</svg>