<?xml version="1.0" encoding="UTF-8"?>
<svg width="50px" height="50px" viewBox="0 0 50 50" version="1.1" xmlns="http://www.w3.org/2000/svg" xmlns:xlink="http://www.w3.org/1999/xlink">
    <!-- Generator: Sketch 48.2 (47327) - http://www.bohemiancoding.com/sketch -->
    <title>Group 3</title>
    <desc>Created with Sketch.</desc>
    <defs>
        <circle id="path-1" cx="16" cy="16" r="16"></circle>
        <filter x="-53.1%" y="-31.2%" width="206.2%" height="206.2%" filterUnits="objectBoundingBox" id="filter-2">
            <feMorphology radius="1.5" operator="dilate" in="SourceAlpha" result="shadowSpreadOuter1"></feMorphology>
            <feOffset dx="0" dy="7" in="shadowSpreadOuter1" result="shadowOffsetOuter1"></feOffset>
            <feGaussianBlur stdDeviation="4" in="shadowOffsetOuter1" result="shadowBlurOuter1"></feGaussianBlur>
            <feComposite in="shadowBlurOuter1" in2="SourceAlpha" operator="out" result="shadowBlurOuter1"></feComposite>
            <feColorMatrix values="0 0 0 0 0   0 0 0 0 0   0 0 0 0 0  0 0 0 0.0867583786 0" type="matrix" in="shadowBlurOuter1"></feColorMatrix>
        </filter>
    </defs>
    <g id="randomizations-copy" stroke="none" stroke-width="1" fill="none" fill-rule="evenodd" transform="translate(-893.000000, -647.000000)">
        <g id="Group-3" transform="translate(902.000000, 649.000000)">
            <g id="Oval">
                <use fill="black" fill-opacity="1" filter="url(#filter-2)" xlink:href="#path-1"></use>
                <use stroke="#FFFFFF" stroke-width="3" fill="#FFFFFF" fill-rule="evenodd" xlink:href="#path-1"></use>
            </g>
            <g id="link-break" transform="translate(10.000000, 10.000000)" fill="#DC0F0F" fill-rule="nonzero">
                <path d="M6.70865826,7.44834875 C6.64049737,7.42396089 6.56408212,7.44096986 6.51305524,7.49249704 L4.10228556,9.90301873 C3.83489473,10.1705349 3.4788322,10.3174874 3.09963249,10.3174874 C2.72043278,10.3174874 2.36449531,10.1702847 2.09722955,9.90301873 C1.54443841,9.34997697 1.54443841,8.45050244 2.09722955,7.89771082 L4.50762404,5.48756433 C4.55890105,5.43628728 4.57603507,5.35999703 4.55164723,5.29183607 C4.52725938,5.22355005 4.46560191,5.17539965 4.39356397,5.16839595 L2.71055257,5.00118274 C2.65414787,4.99467931 2.59911888,5.01531519 2.55934794,5.05521124 L0.906852614,6.70758296 C0.322044612,7.29226641 0,8.07105226 0,8.90036477 C0,9.72967728 0.322044612,10.5083381 0.906852614,11.0931466 C1.49153555,11.6779551 2.27032071,12 3.09963249,12 C3.92894427,12 4.70772943,11.6779551 5.29253743,11.0931466 L6.94503276,9.44077487 C6.9848037,9.40112895 7.00468917,9.34534953 6.99906121,9.2895701 L6.83209828,7.60643215 C6.82484446,7.53439415 6.77706929,7.47286169 6.70865826,7.44834875 Z" id="Shape"></path>
                <path d="M11.0932452,0.906828414 C10.5084398,0.322036018 9.72965816,0 8.90035009,0 C8.07104202,0 7.29226033,0.322036018 6.70758001,0.906828414 L5.054967,2.55927964 C5.01519623,2.59892446 4.99531085,2.65457729 5.00093879,2.71048024 L5.1681511,4.39357179 C5.17527983,4.46573287 5.22342997,4.52726363 5.29171563,4.55165083 C5.36000129,4.57616308 5.43616606,4.55902951 5.48744284,4.50762881 L7.8977015,2.09704852 C8.16509113,1.82966483 8.52115207,1.68246623 8.90035009,1.68246623 C9.27954811,1.68246623 9.63560905,1.82978989 9.90312374,2.09704852 C10.4559124,2.64982491 10.4559124,3.54927464 9.90312374,4.10217609 L7.49261496,6.51250625 C7.44133818,6.56378189 7.42420423,6.6401951 7.44859197,6.70835418 C7.4729797,6.77651326 7.5346369,6.82466233 7.60667452,6.83166583 L9.28955333,6.99887444 C9.2958066,6.99974987 9.3019348,7 9.30793793,7 C9.3574638,7 9.40523875,6.98049025 9.44075729,6.94509755 L11.0932452,5.29252126 C12.3022516,4.08341671 12.3022516,2.11593297 11.0932452,0.906828414 Z" id="Shape"></path>
                <path d="M1.15633,5 C1.15726782,5 1.15820563,5 1.15903924,5 L2.84648117,4.96392621 C2.92369462,4.96226323 2.98840386,4.8916507 2.99861562,4.79750065 C3.00882738,4.70347853 2.96162403,4.61431742 2.88743243,4.58770979 L1.26720058,4.00771482 C1.22343588,3.99198051 1.17623252,4.00055123 1.13819891,4.03125233 C1.1000611,4.06169759 1.07463589,4.1110752 1.06859219,4.16659302 L1.00138211,4.78266179 C0.995338412,4.83817961 1.00930144,4.89395328 1.03962412,4.93565561 C1.0692174,4.97659041 1.11173168,5 1.15633,5 Z" id="Shape"></path>
                <path d="M4.58786534,2.88745894 C4.61191894,2.95477517 4.68779015,3 4.77197776,3 C4.78042211,3 4.78899441,2.99958318 4.7975667,2.99854113 C4.89160606,2.98832908 4.96235947,2.92361797 4.96402276,2.8464023 L4.99997522,1.15891166 C5.00087083,1.11327001 4.97745695,1.06971245 4.93561903,1.03949309 C4.89378112,1.00927373 4.83799723,0.995206102 4.78246923,1.00145838 L4.16628756,1.06898302 C4.1108875,1.07502689 4.06150085,1.10055704 4.03105001,1.13869595 C4.00059917,1.17683486 3.99202688,1.22393538 4.00763613,1.26759714 L4.58786534,2.88745894 Z" id="Shape"></path>
                <path d="M10.8409628,7.00016345 L9.1536471,7.03610027 C9.07633046,7.03789072 9.01172626,7.10822969 9.00141043,7.20248392 C8.9910946,7.29648236 9.03829735,7.38562103 9.11248797,7.41234984 L10.7326987,7.99232666 C10.7471825,7.99731433 10.7617706,8 10.7764628,8 C10.8065767,8 10.8360654,7.98938521 10.8616987,7.96892296 C10.899836,7.93848537 10.9251567,7.8891202 10.9313045,7.83348846 L10.9986179,7.21770271 C11.0046615,7.16207098 10.9906987,7.10643924 10.9603764,7.06474742 C10.9300541,7.02254403 10.8845186,6.99773356 10.8409628,7.00016345 Z" id="Shape"></path>
                <path d="M7.41206589,9.11270728 C7.38558575,9.038516 7.29719072,8.99037503 7.20239952,9.00162876 C7.10850378,9.01204888 7.03776217,9.07665365 7.03597124,9.15386676 L7.00002478,10.8409889 C6.99912932,10.8866291 7.02253929,10.9301852 7.0642423,10.9604035 C7.09954915,10.986037 7.14521778,11 7.1919098,11 C7.20035274,11 7.20892361,10.999479 7.21749447,10.998437 L7.83344539,10.931123 C7.88896413,10.9250793 7.93834254,10.8996542 7.96891622,10.8615166 C7.99936198,10.8232747 8.00793284,10.7761758 7.99245412,10.7326196 L7.41206589,9.11270728 Z" id="Shape"></path>
            </g>
        </g>
    </g>
</svg>