<?xml version="1.0" encoding="UTF-8"?>
<svg width="18px" height="18px" viewBox="0 0 18 18" version="1.1" xmlns="http://www.w3.org/2000/svg" xmlns:xlink="http://www.w3.org/1999/xlink">
    <!-- Generator: Sketch 46.2 (44496) - http://www.bohemiancoding.com/sketch -->
    <title>desktop-computer-screen-variant</title>
    <desc>Created with Sketch.</desc>
    <defs></defs>
    <g id="Page-1" stroke="none" stroke-width="1" fill="none" fill-rule="evenodd">
        <g id="Desktop-Copy-11" transform="translate(-1274.000000, -148.000000)" fill-rule="nonzero" fill="#494949">
            <g id="desktop-computer-screen-variant" transform="translate(1274.000000, 148.000000)">
                <path d="M15.3837657,13.4073977 C16.3294041,13.4073977 17.3089849,14.1492208 17.5664954,15.0532119 L17.9380527,16.3600295 C18.1946581,17.2640206 17.630081,18.0044904 16.687837,17.9999795 L1.3265885,17.9916343 C0.380950179,17.9916343 -0.186116016,17.2477813 0.0557809363,16.3404069 L0.407199053,15.0590761 C0.653169107,14.1494463 1.62867684,13.4076233 2.56843179,13.4076233 L15.3837657,13.4076233 L15.3837657,13.4073977 Z M17.6017956,11.660313 L17.6017956,0.717689582 C17.6017956,0.3207274 17.2795681,0 16.881083,0 L1.11795521,0 C0.72195926,0 0.398147717,0.320501853 0.398147717,0.717689582 L0.398147717,11.6605386 C0.398147717,12.0541175 0.722185543,12.377777 1.11818149,12.377777 L16.8824407,12.377777 C17.2795681,12.3775515 17.6017956,12.053892 17.6017956,11.660313 Z M1.83640499,1.43402588 L16.1630858,1.43402588 L16.1630858,10.9430745 L1.83640499,10.9430745 L1.83640499,1.43402588 Z" id="Shape"></path>
            </g>
        </g>
    </g>
</svg>