<?xml version="1.0" encoding="UTF-8"?>
<svg width="13px" height="18px" viewBox="0 0 13 18" version="1.1" xmlns="http://www.w3.org/2000/svg" xmlns:xlink="http://www.w3.org/1999/xlink">
    <!-- Generator: Sketch 46.2 (44496) - http://www.bohemiancoding.com/sketch -->
    <title>icon (6)</title>
    <desc>Created with Sketch.</desc>
    <defs></defs>
    <g id="Page-1" stroke="none" stroke-width="1" fill="none" fill-rule="evenodd">
        <g id="Desktop-Copy-11" transform="translate(-1316.000000, -148.000000)" fill-rule="nonzero" fill="#898888">
            <g id="icon-(6)" transform="translate(1316.000000, 148.000000)">
                <path d="M11.7945621,0 L1.20491361,0 C0.537375787,0 0,0.546978879 0,1.22262752 L0,16.777902 C0,17.4514326 0.537375787,18 1.20491361,18 L11.7945621,18 C12.460009,18 12.9999985,17.4519621 12.9999985,16.777902 L12.9999985,1.22262752 C13.001044,0.546978879 12.4605317,0 11.7945621,0 Z M6.50026061,17.541978 C6.10402438,17.541978 5.78358532,17.2173913 5.78358532,16.8165559 C5.78358532,16.4151909 6.10402438,16.0900747 6.50026061,16.0900747 C6.89545137,16.0900747 7.21693591,16.4151909 7.21693591,16.8165559 C7.21693591,17.2173913 6.89545137,17.541978 6.50026061,17.541978 Z M11.7804482,15.454139 L1.22007304,15.454139 L1.22007304,1.46884744 L11.7804482,1.46884744 L11.7804482,15.454139 L11.7804482,15.454139 Z" id="Shape"></path>
            </g>
        </g>
    </g>
</svg>