<?xml version="1.0" encoding="UTF-8"?>
<svg width="20px" height="20px" viewBox="0 0 20 20" version="1.1" xmlns="http://www.w3.org/2000/svg" xmlns:xlink="http://www.w3.org/1999/xlink">
    <!-- Generator: Sketch 48.2 (47327) - http://www.bohemiancoding.com/sketch -->
    <title>preview (1)</title>
    <desc>Created with Sketch.</desc>
    <defs></defs>
    <g id="Page-1" stroke="none" stroke-width="1" fill="none" fill-rule="evenodd">
        <g id="preview-(1)" fill="#FFFFFF" fill-rule="nonzero">
            <path d="M14.1666111,18.5714286 L14.1667222,18.5714286 C12.8174444,18.5714286 11.6218889,17.9065152 10.8805,16.8831169 C10.6341667,16.5431472 10.4386667,16.1635584 10.3036667,15.7555498 C10.3025,15.7519481 10.3012778,15.7483463 10.3001111,15.7448009 C10.2851111,15.6988788 10.2708333,15.652619 10.2573333,15.6060216 C10.2538333,15.5943723 10.2507222,15.5826104 10.2474444,15.5709048 C10.2352778,15.5274589 10.2233333,15.4838442 10.2126111,15.4398355 C10.2095556,15.4278485 10.2071667,15.4156364 10.2043889,15.4036494 C10.1881111,15.3345974 10.1736667,15.2649264 10.1608889,15.1945801 C10.1551111,15.1630087 10.1492778,15.1314935 10.1441667,15.0995844 C10.1397222,15.0716147 10.1361111,15.0434199 10.1322222,15.0152251 C10.1272222,14.979039 10.1225556,14.9428528 10.1185556,14.906329 C10.1157222,14.8803853 10.1131111,14.854329 10.1107222,14.8282727 C10.1069444,14.7866277 10.1038889,14.7448139 10.1012778,14.7028312 C10.1,14.6811082 10.0983333,14.6594978 10.0973889,14.6377186 C10.0944444,14.5736753 10.0925,14.5094069 10.0925,14.4445758 C10.0925,14.4445195 10.0925,14.4444069 10.0925,14.4443506 C10.0925,14.4443506 10.0925,14.4443506 10.0925,14.4442944 C10.0925,14.3774935 10.0943333,14.3110303 10.0975,14.2449048 C10.0986111,14.2216623 10.1006667,14.198645 10.1020556,14.1754589 C10.1047778,14.1331948 10.1076111,14.0909307 10.1116111,14.0490606 C10.1142222,14.0203593 10.1176667,13.9919957 10.1209444,13.9635195 C10.1250556,13.9280649 10.1292778,13.8926104 10.1342778,13.857381 C10.1387222,13.8256407 10.1437222,13.794013 10.1489444,13.7623853 C10.1539444,13.7318268 10.1593889,13.7013247 10.165,13.6709351 C10.1715,13.6362684 10.1782222,13.6017706 10.1856111,13.5673853 C10.1909444,13.542342 10.1967778,13.5174675 10.2026667,13.4926494 C10.2116667,13.4539307 10.2207778,13.4152684 10.2308889,13.377 C10.2348889,13.3619177 10.2393333,13.3470043 10.2435,13.3320346 C10.6497778,11.8589264 11.8416111,10.7181905 13.3333333,10.4039957 C13.6024444,10.3473247 13.8810556,10.3172727 14.1667778,10.3172727 C14.4523889,10.3172727 14.731,10.3473247 15,10.4039394 L15,7.87878788 L13.3333333,7.87878788 L12.1548333,7.87878788 L8.05555556,7.87878788 C7.59538889,7.87878788 7.22222222,7.50077489 7.22222222,7.03463203 L7.22222222,2.88211688 L7.22222222,1.68831169 L7.22222222,0 L0.833333333,0 C0.373166667,0 0,0.377900433 0,0.844155844 L0,17.7272727 C0,18.1934156 0.373166667,18.5714286 0.833333333,18.5714286 L14.1666111,18.5714286 Z" id="XMLID_230_"></path>
            <path d="M19.7779198,18.7056367 L18.2151506,17.1428571 C17.9352614,17.5697958 17.5697425,17.9352667 17.1428571,18.2152082 L18.7056264,19.7779373 C18.8536335,19.9259959 19.0477412,20 19.2416973,20 C19.435805,20 19.6298116,19.9259959 19.7778693,19.7779373 C20.0740352,19.4817694 20.0740352,19.0017035 19.7779198,18.7056367 Z" id="XMLID_231_"></path>
            <polygon id="XMLID_232_" points="9.28571429 6.42857143 12.6046464 6.42857143 15 6.42857143 9.28571429 0.714285714 9.28571429 3.10957373"></polygon>
            <path d="M17.1428571,14.6429148 C17.1428571,13.2643784 16.0214513,12.1428571 14.6429725,12.1428571 C13.2644937,12.1428571 12.1428571,13.2643207 12.1428571,14.6429148 C12.1428571,16.0213359 13.264436,17.1428571 14.6429725,17.1428571 C16.0214513,17.1428571 17.1428571,16.0213359 17.1428571,14.6429148 Z" id="XMLID_233_"></path>
        </g>
    </g>
</svg>