<?xml version="1.0" encoding="UTF-8"?>
<svg width="11px" height="19px" viewBox="0 0 11 19" version="1.1" xmlns="http://www.w3.org/2000/svg" xmlns:xlink="http://www.w3.org/1999/xlink">
    <!-- Generator: Sketch 46.2 (44496) - http://www.bohemiancoding.com/sketch -->
    <title>icon (5)</title>
    <desc>Created with Sketch.</desc>
    <defs></defs>
    <g id="Page-1" stroke="none" stroke-width="1" fill="none" fill-rule="evenodd">
        <g id="Desktop-Copy-11" transform="translate(-1352.000000, -148.000000)" fill-rule="nonzero" fill="#898888">
            <g id="icon-(5)" transform="translate(1352.000000, 148.000000)">
                <path d="M9.49011905,0 L1.9302381,0 C1.20672619,0 0.622678571,0.608 0.622678571,1.35646429 L0.622678571,17.26625 C0.622678571,18.0140357 1.20672619,18.6213571 1.9302381,18.6213571 L9.49011905,18.6213571 C10.2123214,18.6213571 10.7976786,18.0140357 10.7976786,17.26625 L10.7976786,1.35646429 C10.7976786,0.608 10.2123214,0 9.49011905,0 Z M3.8447619,0.823785714 L7.57690476,0.823785714 C7.67119048,0.823785714 7.74779762,0.969678571 7.74779762,1.15017857 C7.74779762,1.33067857 7.67119048,1.47725 7.57690476,1.47725 L3.8447619,1.47725 C3.74982143,1.47725 3.67452381,1.33067857 3.67452381,1.15017857 C3.67452381,0.969678571 3.74982143,0.823785714 3.8447619,0.823785714 Z M5.71083333,17.2825357 C5.25053571,17.2825357 4.8760119,16.8943929 4.8760119,16.4166786 C4.8760119,15.9389643 5.25053571,15.5521786 5.71083333,15.5521786 C6.16982143,15.5521786 6.54434524,15.9389643 6.54434524,16.4166786 C6.54434524,16.8943929 6.16982143,17.2825357 5.71083333,17.2825357 Z M9.81815476,14.3178571 L1.60285714,14.3178571 L1.60285714,2.28882143 L9.81815476,2.28882143 L9.81815476,14.3178571 Z" id="Shape"></path>
            </g>
        </g>
    </g>
</svg>