<?xml version="1.0" encoding="UTF-8"?>
<svg width="19px" height="21px" viewBox="0 0 19 21" version="1.1" xmlns="http://www.w3.org/2000/svg" xmlns:xlink="http://www.w3.org/1999/xlink">
    <!-- Generator: Sketch 48.2 (47327) - http://www.bohemiancoding.com/sketch -->
    <title>letter-q (1)</title>
    <desc>Created with Sketch.</desc>
    <defs></defs>
    <g id="Select-theme-and-defualt-Copy-2" stroke="none" stroke-width="1" fill="none" fill-rule="evenodd" transform="translate(-29.000000, -160.000000)">
        <g id="letter-q-(1)" transform="translate(29.000000, 160.000000)" fill="#ADB6BC" fill-rule="nonzero">
            <g id="Group" transform="translate(9.500000, 10.500000) scale(-1, 1) rotate(-180.000000) translate(-9.500000, -10.500000) ">
                <g transform="translate(0.000000, 0.000000)" id="Shape">
                    <g transform="translate(-0.000000, 0.000000)">
                        <path d="M13.5347103,7.52845395 C13.9859603,8.55803728 14.1729444,9.7483443 14.1729444,10.9945285 C14.1729444,14.2161404 12.4967222,17.2219956 9.17172222,17.2219956 C5.84755159,17.2219956 4.17132937,14.2710965 4.17132937,10.9945285 C4.17132937,7.69171053 5.79439683,4.76621711 9.17172222,4.76621711 C9.78334127,4.76621711 10.3427103,4.8483443 10.8737302,4.95656798 L9.91724603,5.90410088 C9.62387698,6.1748136 9.41110714,6.6079386 9.41110714,6.98695175 C9.41110714,8.04278509 10.1300159,8.93612939 11.2203294,8.93612939 C11.5926389,8.93612939 11.9108889,8.80073465 12.230873,8.58421053 L13.5347103,7.52845395 Z M13.8529603,2.22150219 C12.549877,1.46347588 10.980869,1.03035088 9.17164683,1.03035088 C3.77232937,1.03035088 0.0226944444,5.38984649 0.0226944444,10.9946053 C0.0226944444,16.6264583 3.74578968,20.9588596 9.17164683,20.9588596 C14.5177341,20.9588596 18.3214286,16.4910636 18.3214286,10.9946053 C18.3214286,8.61138158 17.7098095,6.44560307 16.5388214,4.74004386 L18.055504,3.41265351 C18.5608135,2.95243421 18.9862778,2.51930921 18.9862778,1.76036184 C18.9862778,0.81375 18.055504,0.0548026316 17.1521746,0.0548026316 C16.5654365,0.0548026316 16.0884762,0.299342105 15.3695675,0.921973684 L13.8529603,2.22150219 Z"></path>
                    </g>
                </g>
            </g>
        </g>
    </g>
</svg>