<?xml version="1.0" encoding="UTF-8"?>
<svg width="35px" height="45px" viewBox="0 0 35 45" version="1.1" xmlns="http://www.w3.org/2000/svg" xmlns:xlink="http://www.w3.org/1999/xlink">
    <!-- Generator: Sketch 48.2 (47327) - http://www.bohemiancoding.com/sketch -->
    <title>document-with-checkmark-black-interface-symbol</title>
    <desc>Created with Sketch.</desc>
    <defs></defs>
    <g id="Graphical-Rating-Likert-Scale-Copy" stroke="none" stroke-width="1" fill="none" fill-rule="evenodd" transform="translate(-470.000000, -577.000000)">
        <g id="document-with-checkmark-black-interface-symbol" transform="translate(470.000000, 577.000000)" fill="#FFFFFF" fill-rule="nonzero">
            <path d="M21.7301051,10.7794677 L29.4296578,10.7794677 L20.1901141,0 L20.1901141,9.23954373 C20.1901141,10.1634981 20.9601096,10.7794677 21.7301051,10.7794677 Z" id="Shape"></path>
            <path d="M25.5573749,26.3941698 C26.9514518,26.3941698 28.1905953,26.7046895 29.4296578,27.1704284 L29.4296578,12.4207858 L21.685011,12.4207858 C19.9812292,12.4207858 18.5871523,11.023488 18.5871523,9.31558935 L18.5871523,0 L3.09785872,0 C1.39399593,0 0,1.39729781 0,3.10519645 L0,38.8149556 C0,40.5227731 1.39399593,41.9201521 3.09785872,41.9201521 L17.0382229,41.9201521 C16.1088653,40.3675539 15.4892936,38.504436 15.4892936,36.4860177 C15.4893746,30.8967453 19.9812292,26.3941698 25.5573749,26.3941698 Z" id="Shape"></path>
            <path d="M25.6653992,27.8897338 C20.9989852,27.8897338 17.1102662,31.77839 17.1102662,36.4449076 C17.1102662,41.1114251 20.9989852,45 25.6653992,45 C30.3318133,45 34.2205323,41.1113438 34.2205323,36.4448263 C34.2205323,31.7783087 30.3318133,27.8897338 25.6653992,27.8897338 Z M24.8877042,40.6446595 L21.154573,36.9115105 L22.2434436,35.8226348 L24.7322791,38.3114821 L29.5541996,33.4894573 L30.6430702,34.5783331 L24.8877042,40.6446595 Z" id="Shape"></path>
        </g>
    </g>
</svg>