<?xml version="1.0" encoding="UTF-8"?>
<svg width="13px" height="15px" viewBox="0 0 13 15" version="1.1" xmlns="http://www.w3.org/2000/svg" xmlns:xlink="http://www.w3.org/1999/xlink">
    <!-- Generator: Sketch 46.2 (44496) - http://www.bohemiancoding.com/sketch -->
    <title>preview (1)</title>
    <desc>Created with Sketch.</desc>
    <defs></defs>
    <g id="Page-1" stroke="none" stroke-width="1" fill="none" fill-rule="evenodd">
        <g id="Desktop-Copy-8" transform="translate(-1369.000000, -561.000000)" fill-rule="nonzero" fill="#505B63">
            <g id="preview-(1)" transform="translate(1369.000000, 561.150000)">
                <rect id="Rectangle-path" x="2" y="6" width="6" height="1"></rect>
                <path d="M12.3733035,14 L13,13.3820676 L10.8921338,11.3036791 C11.262249,10.8117918 11.4814879,10.2032392 11.4814879,9.54507851 C11.4814879,8.36054065 10.7715096,7.33662501 9.74917279,6.86477905 L9.74917279,3.16895336 L6.53533347,0 L0,0 L0,12.9628011 L9.74920234,12.9628011 L9.74920234,12.2254362 C9.93201465,12.1410469 10.1049005,12.0391214 10.2654669,11.9216406 L12.3733035,14 Z M6.7948986,1.49182907 L8.23621476,2.91298902 L6.7948986,2.91298902 L6.7948986,1.49182907 Z M0.886291122,0.873896705 L5.90860748,0.873896705 L5.90860748,3.78688572 L8.86291122,3.78688572 L8.86291122,6.61123249 C8.73812143,6.5955606 8.61093865,6.58749163 8.48192421,6.58749163 C7.56027007,6.58749163 6.73451263,6.99959218 6.18383041,7.64659617 L1.92029743,7.64659617 L1.92029743,8.52049288 L5.66800898,8.52049288 C5.54800516,8.83990212 5.48233099,9.18506219 5.48233099,9.54510763 C5.48233099,9.5922398 5.4835718,9.63908066 5.48578753,9.68568848 L1.92029743,9.68568848 L1.92029743,10.5595852 L5.66413884,10.5595852 C5.90328973,11.2033849 6.363393,11.7429578 6.95327882,12.0889044 L0.886291122,12.0889044 L0.886291122,0.873896705 Z M8.48192421,11.6288852 C7.31665818,11.6288852 6.36862211,10.694107 6.36862211,9.54513676 C6.36862211,8.39616651 7.31662864,7.46138833 8.48192421,7.46138833 C9.64721977,7.46138833 10.5952263,8.39613738 10.5952263,9.54513676 C10.5952263,10.6941362 9.64719023,11.6288852 8.48192421,11.6288852 Z" id="Shape"></path>
            </g>
        </g>
    </g>
</svg>