<?xml version="1.0" encoding="UTF-8"?>
<svg width="9px" height="6px" viewBox="0 0 9 6" version="1.1" xmlns="http://www.w3.org/2000/svg" xmlns:xlink="http://www.w3.org/1999/xlink">
    <!-- Generator: Sketch 48.2 (47327) - http://www.bohemiancoding.com/sketch -->
    <title>download (1)</title>
    <desc>Created with Sketch.</desc>
    <defs></defs>
    <g id="Graphical-Rating-Likert-Scale-Copy" stroke="none" stroke-width="1" fill="none" fill-rule="evenodd" transform="translate(-1254.000000, -614.000000)">
        <g id="download-(1)" transform="translate(1258.666667, 617.333333) scale(-1, 1) rotate(90.000000) translate(-1258.666667, -617.333333) translate(1255.666667, 613.333333)" fill="#4393E6" fill-rule="nonzero">
            <path d="M5.30341283,4.862 C5.24941244,4.74266667 5.13074491,4.66666667 5.00007729,4.66666667 L3.66673425,4.66666667 L3.66673425,0.333333333 C3.66673425,0.149333333 3.51739983,0 3.33339849,0 L2.00005544,0 C1.8160541,0 1.66671968,0.149333333 1.66671968,0.333333333 L1.66671968,4.66666667 L0.333376634,4.66666667 C0.202709015,4.66666667 0.0840414844,4.74333333 0.0300410911,4.862 C-0.0246259737,4.98133333 -0.00329248502,5.12066667 0.0827081414,5.21933333 L2.41605847,7.886 C2.47939226,7.95866667 2.57072626,8 2.66672696,8 C2.76272766,8 2.85406166,7.958 2.91739546,7.886 L5.25074578,5.21933333 C5.33741308,5.12133333 5.35741323,4.98133333 5.30341283,4.862 Z" id="Shape"></path>
        </g>
    </g>
</svg>