<?xml version="1.0" encoding="UTF-8"?>
<svg width="8px" height="11px" viewBox="0 0 8 11" version="1.1" xmlns="http://www.w3.org/2000/svg" xmlns:xlink="http://www.w3.org/1999/xlink">
    <!-- Generator: Sketch 46.2 (44496) - http://www.bohemiancoding.com/sketch -->
    <title>Page 1</title>
    <desc>Created with Sketch.</desc>
    <defs>
        <polygon id="path-1" points="0 10.9090909 0 0 8 0 8 10.9090909"></polygon>
    </defs>
    <g id="Page-1" stroke="none" stroke-width="1" fill="none" fill-rule="evenodd">
        <g id="Desktop-Copy-19" transform="translate(-527.000000, -655.000000)">
            <g id="Page-1" transform="translate(527.000000, 655.000000)">
                <mask id="mask-2" fill="white">
                    <use xlink:href="#path-1"></use>
                </mask>
                <g id="Clip-2"></g>
                <path d="M7.80555604,5.6533824 C7.67588627,5.52079127 7.5185361,5.45457033 7.33326229,5.45457033 L2.22216679,5.45457033 L2.22216679,3.18186379 C2.22216679,2.67988321 2.39581385,2.25143723 2.74305934,1.89630196 C3.09032915,1.54124132 3.50928097,1.36367368 4.00006075,1.36367368 C4.49081621,1.36367368 4.90981668,1.54121644 5.25696487,1.89630196 C5.60423468,2.25143723 5.77788175,2.67990809 5.77788175,3.18186379 C5.77788175,3.30492727 5.8218104,3.41144795 5.90971634,3.50140096 C5.99779254,3.59137884 6.10197105,3.63638022 6.2221789,3.63638022 L6.66686522,3.63638022 C6.78714604,3.63638022 6.8912759,3.59137884 6.9793521,3.50140096 C7.06708778,3.41144795 7.11118669,3.30492727 7.11118669,3.18186379 C7.11118669,2.30581701 6.80677528,1.55666467 6.19804976,0.933983878 C5.58922695,0.311278207 4.8565234,0 4.00006075,0 C3.14352513,0 2.41089456,0.311278207 1.8020231,0.933959002 C1.19324893,1.55656517 0.88886185,2.30579213 0.88886185,3.18183891 L0.88886185,5.45454545 L0.666664631,5.45454545 C0.48156109,5.45454545 0.3240893,5.52089077 0.194443851,5.65335752 C0.064798401,5.78582427 0,5.94689887 0,6.13630766 L0,10.2272789 C0,10.4167624 0.0648227248,10.5777623 0.194443851,10.7103037 C0.3240893,10.8427705 0.48156109,10.9090909 0.666664631,10.9090909 L7.33326229,10.9090909 C7.5185361,10.9090909 7.67605653,10.8427705 7.80555604,10.7103037 C7.93507987,10.5777623 7.99999989,10.4167624 7.99999989,10.2272789 L7.99999989,6.13633254 C8.00009719,5.94694862 7.93525014,5.78602329 7.80555604,5.6533824" id="Fill-1" fill="#B7B7B7" mask="url(#mask-2)"></path>
            </g>
        </g>
    </g>
</svg>