<?xml version="1.0" encoding="UTF-8"?>
<svg width="20px" height="20px" viewBox="0 0 20 20" version="1.1" xmlns="http://www.w3.org/2000/svg" xmlns:xlink="http://www.w3.org/1999/xlink">
    <!-- Generator: Sketch 48.2 (47327) - http://www.bohemiancoding.com/sketch -->
    <title>Group 7</title>
    <desc>Created with Sketch.</desc>
    <defs></defs>
    <g id="Graphical-Rating-Likert-Scale-Copy" stroke="none" stroke-width="1" fill="none" fill-rule="evenodd" transform="translate(-883.000000, -562.000000)">
        <g id="Group-7" transform="translate(883.000000, 562.000000)" fill-rule="nonzero">
            <g id="minus" fill="#4393E6">
                <path d="M10,0 C4.4859375,0 0,4.4859375 0,10 C0,15.5140625 4.4859375,20 10,20 C15.5140625,20 20,15.5140625 20,10 C20,4.4859375 15.5140625,0 10,0 Z" id="Shape"></path>
            </g>
            <g id="Group-5" transform="translate(7.000000, 6.000000)" fill="#FFFFFF">
                <g id="download">
                    <path d="M2.71457337,8.70404798 C2.79310345,8.76641679 2.89881701,8.8 3.00151019,8.8 C3.10420337,8.8 3.20991694,8.76881559 3.28844702,8.70404798 L5.87993959,6.64587706 C6.04002014,6.51874063 6.04002014,6.31484258 5.87993959,6.18770615 C5.71985905,6.06056972 5.4631261,6.06056972 5.30304556,6.18770615 L3.40926252,7.69415292 L3.40926252,1.12383808 C3.40926252,0.943928036 3.22803927,0.8 3.00151019,0.8 C2.77498112,0.8 2.59375787,0.943928036 2.59375787,1.12383808 L2.59375787,7.69415292 L0.696954442,6.18770615 C0.536873899,6.06056972 0.280140951,6.06056972 0.120060408,6.18770615 C-0.0400201359,6.31484258 -0.0400201359,6.51874063 0.120060408,6.64587706 L2.71457337,8.70404798 Z" id="Shape"></path>
                    <path d="M2.71457337,7.90404798 C2.79310345,7.96641679 2.89881701,8 3.00151019,8 C3.10420337,8 3.20991694,7.96881559 3.28844702,7.90404798 L5.87993959,5.84587706 C6.04002014,5.71874063 6.04002014,5.51484258 5.87993959,5.38770615 C5.71985905,5.26056972 5.4631261,5.26056972 5.30304556,5.38770615 L3.40926252,6.89415292 L3.40926252,0.323838081 C3.40926252,0.143928036 3.22803927,0 3.00151019,0 C2.77498112,0 2.59375787,0.143928036 2.59375787,0.323838081 L2.59375787,6.89415292 L0.696954442,5.38770615 C0.536873899,5.26056972 0.280140951,5.26056972 0.120060408,5.38770615 C-0.0400201359,5.51484258 -0.0400201359,5.71874063 0.120060408,5.84587706 L2.71457337,7.90404798 Z" id="Shape" transform="translate(3.000000, 4.000000) scale(1, -1) translate(-3.000000, -4.000000) "></path>
                </g>
            </g>
        </g>
    </g>
</svg>