<?xml version="1.0" encoding="UTF-8"?>
<svg width="78px" height="78px" viewBox="0 0 78 78" version="1.1" xmlns="http://www.w3.org/2000/svg" xmlns:xlink="http://www.w3.org/1999/xlink">
    <!-- Generator: Sketch 48.2 (47327) - http://www.bohemiancoding.com/sketch -->
    <title>smiley-unhappy</title>
    <desc>Created with Sketch.</desc>
    <defs></defs>
    <g id="Graphical-Rating-Likert-Scale-Copy" stroke="none" stroke-width="1" fill="none" fill-rule="evenodd" transform="translate(-897.000000, -323.000000)">
        <g id="smiley-unhappy" transform="translate(936.000000, 362.000000) scale(-1, 1) rotate(-180.000000) translate(-936.000000, -362.000000) translate(899.000000, 325.000000)" fill-rule="nonzero">
            <g id="Group">
                <g>
                    <path d="M73.9278049,37.0360976 C73.9278049,16.6218439 57.3781561,0.072195122 36.9639024,0.072195122 C16.5496488,0.072195122 0,16.6218439 0,37.0360976 C0,57.4503512 16.5496488,74 36.9639024,74 C57.3781561,74 73.9278049,57.4503512 73.9278049,37.0360976" id="Shape" stroke="#FFFFFF" stroke-width="4" fill="#F79543"></path>
                    <path d="M73.9278049,37.0360976 C73.9278049,16.6218439 57.3781561,0.072195122 36.9639024,0.072195122 C16.5496488,0.072195122 0,16.6218439 0,37.0360976 C0,57.4503512 16.5496488,74 36.9639024,74 C57.3781561,74 73.9278049,57.4503512 73.9278049,37.0360976" id="Shape" stroke="#FFFFFF" stroke-width="4" fill="#F79543"></path>
                    <path d="M52.3347854,17.7758829 C52.2423756,18.1435366 49.9362829,26.7683268 36.9639024,26.7683268 C23.9895366,26.7683268 21.6834439,18.1433561 21.5930195,17.7758829 C21.4800341,17.3302585 21.681278,16.8682098 22.0797951,16.6382683 C22.4802976,16.4103122 22.9813317,16.4781756 23.3098195,16.7963756 C23.3488049,16.835361 27.3224244,20.6077366 36.9639024,20.6077366 C46.6032146,20.6077366 50.579,16.835361 50.6158195,16.7963756 C50.8129122,16.6034341 51.0758829,16.5007366 51.3386732,16.5007366 C51.5112195,16.5007366 51.6857512,16.5438732 51.8438585,16.6321317 C52.2463463,16.8620732 52.4475902,17.3280927 52.3347854,17.7758829" id="Shape" fill="#664500"></path>
                    <path d="M29.7765171,46.2770732 C29.7765171,42.305439 27.4785463,39.0896878 24.642722,39.0896878 C21.8068976,39.0896878 19.5089268,42.3056195 19.5089268,46.2770732 C19.5089268,50.2465415 21.8068976,53.4644585 24.642722,53.4644585 C27.4785463,53.4644585 29.7765171,50.2465415 29.7765171,46.2770732" id="SVGCleanerId_0" fill="#664500"></path>
                    <g transform="translate(46.204878, 38.985366)" fill="#664500" id="SVGCleanerId_0_1_">
                        <path d="M10.3800341,7.29170732 C10.3800341,3.32007317 8.08206341,0.104321951 5.24623902,0.104321951 C2.41041463,0.104321951 0.112443902,3.32025366 0.112443902,7.29170732 C0.112443902,11.2611756 2.41041463,14.4790927 5.24623902,14.4790927 C8.08206341,14.4790927 10.3800341,11.2611756 10.3800341,7.29170732"></path>
                    </g>
                </g>
            </g>
        </g>
    </g>
</svg>