<?xml version="1.0" encoding="UTF-8"?>
<svg width="60px" height="60px" viewBox="0 0 60 60" version="1.1" xmlns="http://www.w3.org/2000/svg" xmlns:xlink="http://www.w3.org/1999/xlink">
    <!-- Generator: Sketch 48.2 (47327) - http://www.bohemiancoding.com/sketch -->
    <title>smiley-unhappy</title>
    <desc>Created with Sketch.</desc>
    <defs></defs>
    <g id="Graphical-rating-emojis" stroke="none" stroke-width="1" fill="none" fill-rule="evenodd" transform="translate(-709.000000, -528.000000)">
        <g id="smiley-unhappy" transform="translate(739.000000, 558.000000) scale(-1, 1) rotate(-180.000000) translate(-739.000000, -558.000000) translate(709.000000, 528.000000)" fill-rule="nonzero">
            <g id="Group">
                <g>
                    <path d="M59.9414634,30.0292683 C59.9414634,13.4771707 46.5228293,0.0585365854 29.9707317,0.0585365854 C13.4186341,0.0585365854 0,13.4771707 0,30.0292683 C0,46.5813659 13.4186341,60 29.9707317,60 C46.5228293,60 59.9414634,46.5813659 59.9414634,30.0292683" id="Shape" fill="#FFCC4D"></path>
                    <path d="M42.4336098,14.412878 C42.3586829,14.7109756 40.488878,21.7040488 29.9707317,21.7040488 C19.4509756,21.7040488 17.5811707,14.7108293 17.5078537,14.412878 C17.4162439,14.051561 17.5794146,13.6769268 17.9025366,13.4904878 C18.2272683,13.3056585 18.6335122,13.3606829 18.8998537,13.6186829 C18.9314634,13.6502927 22.1533171,16.7089756 29.9707317,16.7089756 C37.7863902,16.7089756 41.01,13.6502927 41.0398537,13.6186829 C41.1996585,13.4622439 41.412878,13.3789756 41.6259512,13.3789756 C41.7658537,13.3789756 41.9073659,13.4139512 42.035561,13.4855122 C42.3619024,13.6719512 42.5250732,14.0498049 42.4336098,14.412878" id="Shape" fill="#664500"></path>
                    <path d="M24.143122,37.5219512 C24.143122,34.3017073 22.2799024,31.6943415 19.9805854,31.6943415 C17.6812683,31.6943415 15.8180488,34.3018537 15.8180488,37.5219512 C15.8180488,40.740439 17.6812683,43.349561 19.9805854,43.349561 C22.2799024,43.349561 24.143122,40.740439 24.143122,37.5219512" id="SVGCleanerId_0" fill="#664500"></path>
                    <g transform="translate(37.463415, 31.609756)" fill="#664500" id="SVGCleanerId_0_1_">
                        <path d="M8.4162439,5.91219512 C8.4162439,2.69195122 6.55302439,0.0845853659 4.25370732,0.0845853659 C1.95439024,0.0845853659 0.0911707317,2.69209756 0.0911707317,5.91219512 C0.0911707317,9.13068293 1.95439024,11.7398049 4.25370732,11.7398049 C6.55302439,11.7398049 8.4162439,9.13068293 8.4162439,5.91219512"></path>
                    </g>
                </g>
            </g>
        </g>
    </g>
</svg>