<?xml version="1.0" encoding="UTF-8"?>
<svg width="22px" height="23px" viewBox="0 0 22 23" version="1.1" xmlns="http://www.w3.org/2000/svg" xmlns:xlink="http://www.w3.org/1999/xlink">
    <!-- Generator: Sketch 46.2 (44496) - http://www.bohemiancoding.com/sketch -->
    <title>Page 1</title>
    <desc>Created with Sketch.</desc>
    <defs>
        <polygon id="path-1" points="0 22 0 0 22 2.44249457e-15 22 22"></polygon>
    </defs>
    <g id="Page-1" stroke="none" stroke-width="1" fill="none" fill-rule="evenodd">
        <g id="Desktop-Copy-10" transform="translate(-33.000000, -284.000000)">
            <g id="Page-1" transform="translate(33.000000, 284.666667)">
                <mask id="mask-2" fill="white">
                    <use xlink:href="#path-1"></use>
                </mask>
                <g id="Clip-2"></g>
                <path d="M11.0174424,14.6923789 C8.99407935,14.6923789 7.34824915,13.0465872 7.34824915,11.0232715 C7.34824915,9.00004168 8.99407935,7.35416405 11.0174424,7.35416405 C13.0407196,7.35416405 14.6865498,9.00004168 14.6865498,11.0232715 C14.6865498,13.0465872 13.0407196,14.6923789 11.0174424,14.6923789 M21.9311762,9.77859371 C21.8963706,9.46934712 21.5358108,9.23692878 21.2239788,9.23692878 C20.2159068,9.23692878 19.321361,8.6450333 18.9461914,7.72962559 C18.5629436,6.79208893 18.810063,5.69861843 19.5613474,5.00948451 C19.7978533,4.79330839 19.8265572,4.43142499 19.6282514,4.1800574 C19.1122698,3.52486885 18.5258606,2.93305931 17.8855673,2.42014052 C17.6348383,2.21891754 17.2669737,2.24693321 17.0495464,2.48764454 C16.3938698,3.21381757 15.2160669,3.48370473 14.306009,3.10394631 C13.3589111,2.70558239 12.7616306,1.74587382 12.8201555,0.715739356 C12.839363,0.392141182 12.6028571,0.110824325 12.2802396,0.0732266086 C11.4585706,-0.0217774498 10.6296827,-0.0247422983 9.80552151,0.0666953482 C9.48664245,0.101886811 9.25013653,0.376586469 9.26087899,0.696102606 C9.29671582,1.71609643 8.69225931,2.65900419 7.7545718,3.04305949 C6.85538526,3.41035695 5.68587556,3.14274715 5.03148811,2.4230624 C4.81522098,2.18600343 4.45332912,2.15691354 4.20135407,2.35323807 C3.54211103,2.87049671 2.9425101,3.46282188 2.4217588,4.11259636 C2.21868341,4.36521004 2.24859041,4.73134735 2.48741669,4.94868363 C3.25305302,5.64198553 3.50025842,6.74490917 3.10252973,7.69331694 C2.72276242,8.59746682 1.78387176,9.18020994 0.708981611,9.18020994 C0.360195548,9.16899508 0.111744025,9.4030892 0.0735868209,9.72024206 C-0.0231382534,10.5466613 -0.0242984386,11.3886783 0.0688601402,12.2218437 C0.103407879,12.5323364 0.474967949,12.7627352 0.790194579,12.7627352 C1.7480779,12.738243 2.66776105,13.3312986 3.0535871,14.2700814 C3.43812405,15.207661 3.19091866,16.300444 2.43847406,16.9902224 C2.20317131,17.2063986 2.17326431,17.5676804 2.37161302,17.819048 C2.88273908,18.4700686 3.46923421,19.0624367 4.11184793,19.5796094 C4.36386595,19.782723 4.73057043,19.7540628 4.94907198,19.5133085 C5.60719781,18.7853738 6.78491475,18.5159593 7.69140616,18.8964482 C8.6408674,19.2936089 9.23810498,20.2531886 9.17962305,21.2839246 C9.16058742,21.6076517 9.39821055,21.8894842 9.71949592,21.9264804 C10.1398697,21.9755507 10.5626928,22 10.986762,22 C11.3892174,22 11.7918016,21.977914 12.1943,21.9331405 C12.513308,21.8979491 12.749642,21.6232494 12.7388995,21.3031747 C12.7019885,20.2837394 13.3074762,19.3408746 14.2439176,18.9574209 C15.1492488,18.5876742 16.313817,18.8582918 16.9682904,19.5772461 C17.1857607,19.8137895 17.5451603,19.8423637 17.7984674,19.6466837 C18.4565503,19.1306282 19.0549051,18.5388187 19.5780627,17.8872825 C19.7810951,17.6351844 19.7524342,17.2684885 19.5123618,17.0512382 C18.7466825,16.3579363 18.498274,15.2548408 18.8960027,14.3070775 C19.2699261,13.4149589 20.1739682,12.8159306 21.1463753,12.8159306 L21.2824178,12.819454 C21.5978163,12.8450635 21.8880345,12.6021178 21.9262776,12.2801524 C22.0231316,11.4530026 22.0243348,10.6117161 21.9311762,9.77859371" id="Fill-1" fill="#FFFFFF" mask="url(#mask-2)"></path>
            </g>
        </g>
    </g>
</svg>