<?xml version="1.0" encoding="UTF-8"?>
<svg width="40px" height="40px" viewBox="0 0 40 40" version="1.1" xmlns="http://www.w3.org/2000/svg" xmlns:xlink="http://www.w3.org/1999/xlink">
    <!-- Generator: Sketch 48.2 (47327) - http://www.bohemiancoding.com/sketch -->
    <title>Group</title>
    <desc>Created with Sketch.</desc>
    <defs></defs>
    <g id="Graphical-Rating-Likert-Scale-Copy" stroke="none" stroke-width="1" fill="none" fill-rule="evenodd" transform="translate(-1058.000000, -436.000000)">
        <g id="Group" transform="translate(1078.000000, 456.000000) scale(1, -1) translate(-1078.000000, -456.000000) translate(1059.000000, 437.000000)" fill-rule="nonzero">
            <path d="M37.6663415,18.8699543 C37.6663415,8.46885755 29.2342675,0.0367835366 18.8331707,0.0367835366 C8.43207401,0.0367835366 0,8.46885755 0,18.8699543 C0,29.271051 8.43207401,37.703125 18.8331707,37.703125 C29.2342675,37.703125 37.6663415,29.271051 37.6663415,18.8699543" id="Shape" stroke="#85B7EB" stroke-width="2" fill="#DCEDFF"></path>
            <path d="M18.8331707,15.7311231 C15.0424434,15.7311231 12.5271851,16.1726175 9.41658537,16.7774308 C8.70611136,16.9144495 7.32396997,16.7774308 7.32396997,14.6848154 C7.32396997,10.4996766 12.1316702,5.26823007 18.8331707,5.26823007 C25.5335678,5.26823007 30.3423715,10.4996766 30.3423715,14.6848154 C30.3423715,16.7774308 28.9602301,16.9154611 28.2497561,16.7774308 C25.1391563,16.1726175 22.6238981,15.7311231 18.8331707,15.7311231" id="Shape" fill="#664500"></path>
            <path d="M9.41658537,14.6848154 C9.41658537,14.6848154 12.5554165,13.6385077 18.8331707,13.6385077 C25.110925,13.6385077 28.2497561,14.6848154 28.2497561,14.6848154 C28.2497561,14.6848154 26.1571407,10.4996766 18.8331707,10.4996766 C11.5092008,10.4996766 9.41658537,14.6848154 9.41658537,14.6848154" id="Shape" fill="#FFFFFF"></path>
            <path d="M15.1711857,23.578247 C15.1711857,21.5546926 14.0003658,19.916262 12.5555085,19.916262 C11.1106511,19.916262 9.93983117,21.5547846 9.93983117,23.578247 C9.93983117,25.6006978 11.1106511,27.2402319 12.5555085,27.2402319 C14.0003658,27.2402319 15.1711857,25.6006978 15.1711857,23.578247" id="SVGCleanerId_0" fill="#664500"></path>
            <g transform="translate(23.541463, 19.863110)" fill="#664500" id="SVGCleanerId_0_1_">
                <path d="M5.28864493,3.7151372 C5.28864493,1.69158289 4.11782496,0.0531522104 2.67296764,0.0531522104 C1.22811033,0.0531522104 0.0572903582,1.69167485 0.0572903582,3.7151372 C0.0572903582,5.737588 1.22811033,7.37712218 2.67296764,7.37712218 C4.11782496,7.37712218 5.28864493,5.737588 5.28864493,3.7151372"></path>
            </g>
        </g>
    </g>
</svg>