<?xml version="1.0" encoding="UTF-8"?>
<svg width="40px" height="40px" viewBox="0 0 40 40" version="1.1" xmlns="http://www.w3.org/2000/svg" xmlns:xlink="http://www.w3.org/1999/xlink">
    <!-- Generator: Sketch 48.2 (47327) - http://www.bohemiancoding.com/sketch -->
    <title>smiley-unhappy</title>
    <desc>Created with Sketch.</desc>
    <defs></defs>
    <g id="Graphical-Rating-Likert-Scale-Copy" stroke="none" stroke-width="1" fill="none" fill-rule="evenodd" transform="translate(-681.000000, -436.000000)">
        <g id="smiley-unhappy" transform="translate(701.000000, 456.000000) scale(-1, 1) rotate(-180.000000) translate(-701.000000, -456.000000) translate(682.000000, 437.000000)" fill-rule="nonzero">
            <g id="Group">
                <g transform="translate(0.000000, 0.000000)">
                    <path d="M37.9629268,19.0185366 C37.9629268,8.53554146 29.4644585,0.0370731707 18.9814634,0.0370731707 C8.49846829,0.0370731707 5.68434189e-14,8.53554146 5.68434189e-14,19.0185366 C5.68434189e-14,29.5015317 8.49846829,38 18.9814634,38 C29.4644585,38 37.9629268,29.5015317 37.9629268,19.0185366" id="Shape" stroke="#85B7EB" stroke-width="2" fill="#DCEDFF"></path>
                    <path d="M26.8746195,9.1281561 C26.8271659,9.31695122 25.6429561,13.7458976 18.9814634,13.7458976 C12.3189512,13.7458976 11.1347415,9.31685854 11.0883073,9.1281561 C11.0302878,8.89932195 11.1336293,8.66205366 11.3382732,8.54397561 C11.5439366,8.42691707 11.8012244,8.46176585 11.9699073,8.62516585 C11.9899268,8.64518537 14.0304341,10.5823512 18.9814634,10.5823512 C23.9313805,10.5823512 25.973,8.64518537 25.9919073,8.62516585 C26.0931171,8.5260878 26.2281561,8.47335122 26.3631024,8.47335122 C26.4517073,8.47335122 26.5413317,8.49550244 26.622522,8.54082439 C26.8292049,8.65890244 26.9325463,8.89820976 26.8746195,9.1281561" id="Shape" fill="#664500"></path>
                    <path d="M15.2906439,23.7639024 C15.2906439,21.7244146 14.1106049,20.0730829 12.6543707,20.0730829 C11.1981366,20.0730829 10.0180976,21.7245073 10.0180976,23.7639024 C10.0180976,25.802278 11.1981366,27.454722 12.6543707,27.454722 C14.1106049,27.454722 15.2906439,25.802278 15.2906439,23.7639024" id="SVGCleanerId_0" fill="#664500"></path>
                    <g transform="translate(23.726829, 20.019512)" fill="#664500" id="SVGCleanerId_0_1_">
                        <path d="M5.3302878,3.74439024 C5.3302878,1.70490244 4.15024878,0.0535707317 2.69401463,0.0535707317 C1.23778049,0.0535707317 0.0577414634,1.70499512 0.0577414634,3.74439024 C0.0577414634,5.78276585 1.23778049,7.43520976 2.69401463,7.43520976 C4.15024878,7.43520976 5.3302878,5.78276585 5.3302878,3.74439024"></path>
                    </g>
                </g>
            </g>
        </g>
    </g>
</svg>