<?xml version="1.0" encoding="UTF-8"?>
<svg width="25px" height="19px" viewBox="0 0 25 19" version="1.1" xmlns="http://www.w3.org/2000/svg" xmlns:xlink="http://www.w3.org/1999/xlink">
    <!-- Generator: Sketch 46.2 (44496) - http://www.bohemiancoding.com/sketch -->
    <title>Page 1</title>
    <desc>Created with Sketch.</desc>
    <defs>
        <polygon id="path-1" points="21.4874915 7.78108925 21.4874915 15.5240027 0.0854766734 15.5240027 0.0854766734 0.0381757945 21.4874915 0.0381757945 21.4874915 7.78108925"></polygon>
    </defs>
    <g id="Page-1" stroke="none" stroke-width="1" fill="none" fill-rule="evenodd">
        <g id="Desktop-Copy-30" transform="translate(-319.000000, -25.000000)">
            <g id="SUHEADER" transform="translate(0.000000, -2.000000)">
                <g id="Page-1" transform="translate(319.000000, 27.000000)">
                    <path d="M18.2415551,5.91615957 L12.3253955,5.91615957 C12.0528736,5.91615957 11.8323191,5.69560514 11.8323191,5.42317782 C11.8323191,5.15065585 12.0528736,4.93010142 12.3253955,4.93010142 L18.2415551,4.93010142 C18.5140771,4.93010142 18.7345368,5.15065585 18.7345368,5.42317782 C18.7344422,5.69560514 18.5140771,5.91615957 18.2415551,5.91615957 L18.2415551,5.91615957 Z M18.2415551,8.87423935 L12.3253955,8.87423935 C12.0528736,8.87423935 11.8323191,8.65368492 11.8323191,8.38125761 C11.8323191,8.10873563 12.0528736,7.8881812 12.3253955,7.8881812 L18.2415551,7.8881812 C18.5140771,7.8881812 18.7345368,8.10873563 18.7345368,8.38125761 C18.7344422,8.65368492 18.5140771,8.87423935 18.2415551,8.87423935 L18.2415551,8.87423935 Z M18.2415551,11.8323191 L12.3253955,11.8323191 C12.0528736,11.8323191 11.8323191,11.6117647 11.8323191,11.3392427 C11.8323191,11.0667208 12.0528736,10.846261 12.3253955,10.846261 L18.2415551,10.846261 C18.5140771,10.846261 18.7345368,11.0667208 18.7345368,11.3392427 C18.7344422,11.6117647 18.5140771,11.8323191 18.2415551,11.8323191 L18.2415551,11.8323191 Z M10.8463556,10.877025 C10.8463556,11.4037999 10.4043002,11.8323191 9.8602975,11.8323191 L3.94413793,11.8323191 C3.40004057,11.8323191 2.95807978,11.4037999 2.95807978,10.877025 L2.95807978,10.6517377 C2.95807978,9.99603786 3.34040568,9.40432725 3.95663286,9.107762 C4.64612576,8.77645707 5.71586207,8.38125761 6.90221771,8.38125761 C8.0884787,8.38125761 9.15830967,8.77645707 9.84770791,9.107762 C10.4639351,9.40432725 10.846261,9.99613252 10.846261,10.6517377 L10.846261,10.877025 L10.8463556,10.877025 Z M6.90221771,3.94413793 C7.98927654,3.94413793 8.87423935,4.82853279 8.87423935,5.91615957 C8.87423935,7.00378634 7.98927654,7.8881812 6.90221771,7.8881812 C5.81506423,7.8881812 4.93010142,7.00378634 4.93010142,5.91615957 C4.93010142,4.82853279 5.81506423,3.94413793 6.90221771,3.94413793 L6.90221771,3.94413793 Z M21.692522,13.8044354 L21.692522,1.97202164 C21.692522,0.88448952 20.8076538,0 19.7205003,0 L1.97202164,0 C0.884962813,0 0,0.884394861 0,1.97202164 L0,13.8044354 C0,14.8919675 0.884962813,15.7764571 1.97211629,15.7764571 L19.720595,15.7764571 C20.8076538,15.7763624 21.692522,14.8919675 21.692522,13.8044354 L21.692522,13.8044354 Z" id="Fill-1" fill="#858687"></path>
                    <g id="Group-5" transform="translate(2.650439, 2.887086)">
                        <mask id="mask-2" fill="white">
                            <use xlink:href="#path-1"></use>
                        </mask>
                        <g id="Clip-4"></g>
                        <path d="M20.5015281,0.0381757945 L20.5015281,12.5659513 C20.5015281,13.6535781 19.6164706,14.5380676 18.5294118,14.5380676 L0.0854766734,14.5380676 C0.428140636,15.1205017 1.04370521,15.5240311 1.76699121,15.5240311 L19.5153753,15.5240311 C20.6025287,15.5240311 21.4874915,14.6395416 21.4874915,13.5519148 L21.4874915,1.71959567 C21.4874915,0.99621501 21.0838675,0.380839757 20.5015281,0.0381757945" id="Fill-3" fill="#858687" mask="url(#mask-2)"></path>
                    </g>
                </g>
            </g>
        </g>
    </g>
</svg>