<?xml version="1.0" encoding="UTF-8"?>
<svg width="22px" height="23px" viewBox="0 0 22 23" version="1.1" xmlns="http://www.w3.org/2000/svg" xmlns:xlink="http://www.w3.org/1999/xlink">
    <!-- Generator: Sketch 46.2 (44496) - http://www.bohemiancoding.com/sketch -->
    <title>Page 1</title>
    <desc>Created with Sketch.</desc>
    <defs></defs>
    <g id="Page-1" stroke="none" stroke-width="1" fill="none" fill-rule="evenodd">
        <g id="Desktop-Copy-10" transform="translate(-32.000000, -192.000000)" fill="#ADB6BC">
            <path d="M49.5,203.333333 C48.7,203.333333 48,202.633333 48,201.833333 C48,201.033333 48.7,200.333333 49.5,200.333333 C50.3,200.333333 51,201.033333 51,201.833333 C51,202.633333 50.3,203.333333 49.5,203.333333 M45.5,198.333333 C44.7,198.333333 44,197.633333 44,196.833333 C44,196.033333 44.7,195.333333 45.5,195.333333 C46.3,195.333333 47,196.033333 47,196.833333 C47,197.633333 46.3,198.333333 45.5,198.333333 M39.5,198.333333 C38.7,198.333333 38,197.633333 38,196.833333 C38,196.033333 38.7,195.333333 39.5,195.333333 C40.3,195.333333 41,196.033333 41,196.833333 C41,197.633333 40.3,198.333333 39.5,198.333333 M36.5,203.333333 C35.7,203.333333 35,202.633333 35,201.833333 C35,201.033333 35.7,200.333333 36.5,200.333333 C37.3,200.333333 38,201.033333 38,201.833333 C38,202.633333 37.3,203.333333 36.5,203.333333 M43,192.333333 C36.8888889,192.333333 32,197.222222 32,203.333333 C32,209.444444 36.8888889,214.333333 43,214.333333 C43.9777778,214.333333 44.8333333,213.477778 44.8333333,212.5 C44.8333333,212.011111 44.7111111,211.644444 44.3444444,211.277778 C44.1,210.911111 43.8555556,210.544444 43.8555556,210.055556 C43.8555556,209.077778 44.711159,208.222222 45.6888889,208.222222 L47.8888889,208.222222 C51.3111111,208.222222 54,205.533333 54,202.111111 C54,196.733333 49.1111111,192.333333 43,192.333333" id="Page-1"></path>
        </g>
    </g>
</svg>