<?xml version="1.0" encoding="UTF-8"?>
<svg width="16px" height="12px" viewBox="0 0 16 12" version="1.1" xmlns="http://www.w3.org/2000/svg" xmlns:xlink="http://www.w3.org/1999/xlink">
    <!-- Generator: Sketch 48.2 (47327) - http://www.bohemiancoding.com/sketch -->
    <title>photo-of-a-landscape</title>
    <desc>Created with Sketch.</desc>
    <defs></defs>
    <g id="Survey-level-Setting--Lime-light" stroke="none" stroke-width="1" fill="none" fill-rule="evenodd" transform="translate(-256.000000, -399.000000)">
        <g id="photo-of-a-landscape" transform="translate(256.000000, 399.000000)" fill="#B7B7B7" fill-rule="nonzero">
            <path d="M14.9840832,0 L1.01588777,0 C0.454872086,0 0,0.438600464 0,0.979582119 L0,11.0204459 C0,11.5613995 0.454872086,12 1.01588777,12 L14.9840832,12 C15.5451279,12 16,11.5613995 16,11.0204179 L16,0.979582119 C16,0.438600464 15.545157,0 14.9840832,0 Z M14.9840832,0.979582119 L14.9840832,8.10391247 L12.9820534,6.3487263 C12.6811389,6.08497219 12.2183947,6.09550442 11.9309006,6.37298406 L9.90470242,8.32651804 L5.90958985,3.72488264 C5.60760057,3.37712273 5.05445705,3.37370535 4.74793619,3.71729159 L1.01588777,7.89968231 L1.01588777,0.979582119 L14.9840832,0.979582119 Z M10.6666763,3.55101669 C10.6666763,2.80700935 11.2918894,2.20406677 12.0634494,2.20406677 C12.8350384,2.20406677 13.4602806,2.80700935 13.4602806,3.55101669 C13.4602806,4.29502403 12.8350675,4.8979386 12.0634494,4.8979386 C11.2919185,4.89796662 10.6666763,4.29502403 10.6666763,3.55101669 Z" id="Shape"></path>
        </g>
    </g>
</svg>