<?xml version="1.0" encoding="UTF-8"?>
<svg width="40px" height="40px" viewBox="0 0 40 40" version="1.1" xmlns="http://www.w3.org/2000/svg" xmlns:xlink="http://www.w3.org/1999/xlink">
    <!-- Generator: Sketch 48.2 (47327) - http://www.bohemiancoding.com/sketch -->
    <title>park-tickets-couple</title>
    <desc>Created with Sketch.</desc>
    <defs></defs>
    <g id="Graphical-Rating-Likert-Scale-Copy" stroke="none" stroke-width="1" fill="none" fill-rule="evenodd" transform="translate(-518.000000, -579.000000)">
        <g id="park-tickets-couple" transform="translate(518.000000, 579.000000)" fill="#FFFFFF" fill-rule="nonzero">
            <path d="M35.2359026,20.0324544 C35.0574037,20.9290467 34.2622718,21.5821501 33.3089249,21.6227181 C33.0087221,21.6348884 32.753144,21.8539554 32.6963083,22.1501014 C32.6354564,22.4462475 32.7855578,22.7464503 33.0573631,22.872211 C33.9214604,23.2778905 34.4042191,24.1866126 34.2216633,25.0831643 L34.0512779,25.9350913 C33.8281542,27.0588235 32.5867343,27.7606491 31.4995538,27.4929006 C31.1952941,27.4198783 30.8829209,27.3630832 30.5746045,27.3022312 C30.1202434,27.2129817 29.6658824,27.1196755 29.2115213,27.030426 C28.6110751,26.9087221 28.0106694,26.7911156 27.4103043,26.6694118 C26.6963083,26.5274239 25.9782556,26.3813387 25.2642596,26.2393509 C24.4651116,26.0770791 23.6659229,25.9189047 22.8666937,25.7566329 C22.0147667,25.5862475 21.158783,25.4158621 20.306856,25.2414199 C19.4305477,25.0669777 18.5543205,24.8884787 17.6821095,24.7140365 C16.8139554,24.5395943 15.949858,24.3651116 15.0816633,24.1907099 C14.2541176,24.0243813 13.4264909,23.8580527 12.5989452,23.6917241 C11.8403245,23.5416227 11.0857606,23.3874645 10.32714,23.2373631 C9.66993915,23.1075456 9.01273834,22.9736714 8.35959432,22.843854 C7.83626775,22.7383773 7.31294118,22.6329412 6.78555781,22.5274239 C6.42450304,22.4544016 6.06340771,22.3813793 5.70239351,22.3083976 C5.53602434,22.2759026 5.36973631,22.239432 5.20340771,22.2069777 C5.19529412,22.2069777 5.18718053,22.2028803 5.17902637,22.2028803 C5.26827586,22.624787 5.22770791,23.0750913 5.03298174,23.496998 C4.62320487,24.3813793 3.66985801,24.843854 2.75306288,24.665355 C2.48125761,24.6126166 2.18511156,24.7140365 2.0674645,24.9655578 L1.70235294,25.7566329 C1.58474645,26.0081136 1.70235294,26.3002028 1.91740365,26.474645 C1.9579716,26.50714 31.1993509,39.9878702 31.2479919,40 C31.5197972,40.0527383 31.8159432,39.9513185 31.9335903,39.6997972 L32.2987018,38.9087221 C32.4163489,38.6572414 32.2987018,38.3651521 32.0836917,38.1907099 C31.3534686,37.6105477 31.0856795,36.5841785 31.4954564,35.6998377 C31.9051927,34.8154564 32.8585396,34.3529817 33.7753753,34.5314807 C34.04714,34.5842191 34.3433266,34.4827992 34.4609331,34.2312779 L34.8260446,33.4402028 C34.9436917,33.1886815 34.8260446,32.8966329 34.6110345,32.7221501 C33.8808114,32.1420284 33.6130629,31.1156592 34.0227992,30.2313185 C34.4325355,29.3469777 35.3858824,28.8844625 36.3027181,29.0629615 C36.5745233,29.1156998 36.8706694,29.0142799 36.9883164,28.7627586 L37.353428,27.9716836 C37.4710345,27.7201623 37.353428,27.428073 37.1383773,27.2536308 C36.4081542,26.6735091 36.1404057,25.64714 36.550142,24.7627586 C36.9599189,23.8783773 37.9132657,23.4159432 38.8300609,23.5944016 C39.1018661,23.64714 39.3980122,23.5457201 39.5156592,23.2942394 L39.9172414,22.417931 C40.0348884,22.1664097 39.925355,21.8702637 39.6738337,21.7526572 L35.3047059,19.73643 L35.2359026,20.0324544 Z" id="Shape"></path>
            <path d="M0.392089249,19.7525355 C0.440770791,19.7768763 32.0066937,26.1094929 32.059432,26.1094929 C32.3353347,26.0973225 32.6030426,25.9269371 32.6557809,25.6591886 L32.8261663,24.8072617 C32.8789047,24.5354564 32.7004057,24.2758215 32.4488844,24.1581744 C31.605071,23.7606085 31.1060446,22.8275456 31.2967546,21.870142 C31.4874239,20.9127383 32.3109533,20.2433671 33.2440162,20.2027992 C33.5198783,20.1906288 33.7876268,20.0202434 33.8403651,19.7524949 L33.9661258,19.1277485 L34.0107911,18.8965112 C34.0635294,18.6247059 33.8849899,18.365071 33.6335091,18.2474239 C32.7896552,17.849858 32.2906694,16.9167951 32.4813793,15.959432 C32.6720487,15.0019878 33.4955781,14.3326166 34.428641,14.2920487 C34.704503,14.2798783 34.9722515,14.1094929 35.0249899,13.8417444 L35.1953753,12.9898174 C35.2481136,12.7180122 35.069574,12.4583773 34.8180527,12.3407302 C33.9742394,11.9431643 33.4752535,11.0101014 33.6659635,10.0526978 C33.8566329,9.09529412 34.6801623,8.42592292 35.6132252,8.38535497 C35.8890872,8.37318458 36.1567951,8.20279919 36.209574,7.93505071 L36.4002028,6.98981744 C36.4529817,6.71801217 36.278499,6.45432049 36.0067343,6.40158215 C36.0067343,6.40158215 4.28665314,0.0405273834 4.25419878,0.0405273834 C4.01890467,0.0405273834 3.81200811,0.206855984 3.76332657,0.442150101 L3.5726572,1.38738337 C3.51991886,1.65918864 3.69841785,1.91882353 3.94993915,2.03647059 C4.79375254,2.43403651 5.29273834,3.36709939 5.10206897,4.32450304 C4.91139959,5.28190669 4.08787018,5.95127789 3.1548073,5.99184584 C2.87890467,6.00401623 2.61119675,6.17440162 2.55845842,6.4421501 L2.38807302,7.29407708 C2.33533469,7.56588235 2.51383367,7.82551724 2.76535497,7.9431643 C3.60916836,8.34073022 4.10819473,9.2737931 3.91748479,10.2311968 C3.72681542,11.1886004 2.903286,11.8579716 1.97022312,11.8985396 C1.69436105,11.9107099 1.42661258,12.0810953 1.37387424,12.3488438 L1.20348884,13.2007708 C1.15075051,13.4725761 1.32929006,13.732211 1.58077079,13.849858 C2.42462475,14.2474239 2.92361055,15.1804868 2.73290061,16.1378905 C2.54223124,17.0953347 1.71870183,17.7647059 0.785638945,17.8052738 C0.509776876,17.8174442 0.242028398,17.9878296 0.189290061,18.2555781 L0.0189046653,19.1075051 C-0.0379310345,19.3793103 0.140527383,19.6348884 0.392089249,19.7525355 Z M27.4306288,9.35496957 C27.5401623,8.80730223 28.0756592,8.45030426 28.6233266,8.55983773 C29.1709939,8.6693712 29.5279919,9.20486815 29.4184584,9.7525355 L28.079716,16.4137931 L27.2561866,20.5192698 C27.1588235,21.0020284 26.7369168,21.3347262 26.2622718,21.3347262 C26.1973225,21.3347262 26.1283976,21.3266126 26.0634888,21.3144422 C25.5158215,21.2049087 25.1588235,20.6694118 25.268357,20.1217444 L26.1892495,15.5416227 L27.4306288,9.35496957 Z M9.14259635,5.68356998 C9.25212982,5.13590264 9.78762677,4.77890467 10.3352941,4.88843813 C10.8829615,4.9979716 11.2399594,5.53346856 11.130426,6.0811359 L10.6679513,8.38133874 L10.1446653,10.989858 L9.72275862,13.0912779 L8.97225152,16.8478702 C8.87492901,17.3306288 8.45298174,17.6633266 7.97833671,17.6633266 C7.91342799,17.6633266 7.84446247,17.655213 7.77959432,17.6430426 C7.75119675,17.6389452 7.72279919,17.6308316 7.69845842,17.6227586 C7.19541582,17.4766734 6.88300203,16.969574 6.98851927,16.4503448 L7.13858012,15.6917241 L7.53208925,13.7282353 L9.14259635,5.68356998 Z" id="Shape"></path>
        </g>
    </g>
</svg>