<?xml version="1.0" encoding="UTF-8"?>
<svg width="50px" height="50px" viewBox="0 0 50 50" version="1.1" xmlns="http://www.w3.org/2000/svg" xmlns:xlink="http://www.w3.org/1999/xlink">
    <!-- Generator: Sketch 48.2 (47327) - http://www.bohemiancoding.com/sketch -->
    <title>transpose</title>
    <desc>Created with Sketch.</desc>
    <defs></defs>
    <g id="Tablet-9″" stroke="none" stroke-width="1" fill="none" fill-rule="evenodd" transform="translate(-403.000000, -152.000000)">
        <g id="transpose" transform="translate(403.000000, 152.000000)" fill="#000000" fill-rule="nonzero">
            <path d="M18.7072893,34.9443856 C18.023918,34.4676907 17.0671982,34.5948093 16.5546697,35.2304025 C13.9920273,38.3871822 10.0854214,40.1986229 5.83712984,40.1986229 L1.60022779,40.1986229 C0.746013667,40.1986229 0.062642369,40.8342161 0.062642369,41.6287076 C0.062642369,42.4231992 0.746013667,43.0587924 1.60022779,43.0587924 L5.84851936,43.0587924 C8.47949886,43.0587924 10.9965831,42.4973517 13.3200456,41.3956568 C15.5410023,40.346928 17.5113895,38.810911 19.0148064,36.9465042 C19.5159453,36.3215042 19.3906606,35.4210805 18.7072893,34.9443856 Z" id="Shape"></path>
            <path d="M23.046697,14.8384534 C23.3314351,15.0397246 23.6617312,15.1350636 23.9920273,15.1350636 C24.4476082,15.1350636 24.9031891,14.9443856 25.2107062,14.5842161 C27.7733485,11.5121822 31.6343964,9.75370763 35.8029613,9.75370763 L44.7437358,9.75370763 L39.9715262,14.1922669 C39.3678815,14.7537076 39.3678815,15.6541314 39.9715262,16.215572 C40.2676538,16.4909958 40.666287,16.6393008 41.0535308,16.6393008 C41.4407745,16.6393008 41.8394077,16.501589 42.1355353,16.215572 L49.5387244,9.32997881 C50.142369,8.76853814 50.142369,7.86811441 49.5387244,7.30667373 L42.1355353,0.421080508 C41.5318907,-0.140360169 40.5637813,-0.140360169 39.9601367,0.421080508 C39.356492,0.982521186 39.356492,1.88294492 39.9601367,2.44438559 L44.7323462,6.88294492 L35.7915718,6.88294492 C30.666287,6.88294492 25.9168565,9.04396186 22.761959,12.8257415 C22.26082,13.4613347 22.3747153,14.3511653 23.046697,14.8384534 Z" id="Shape"></path>
            <path d="M42.1469248,33.7367585 C41.5432802,33.1753178 40.5751708,33.1753178 39.9715262,33.7367585 C39.3678815,34.2981992 39.3678815,35.1986229 39.9715262,35.7600636 L44.7437358,40.1986229 L35.8029613,40.1986229 C28.4111617,40.1986229 22.3974943,34.6054025 22.3974943,27.7304025 L22.3974943,22.221928 C22.3974943,13.7685381 15.0056948,6.89353814 5.91685649,6.89353814 L1.66856492,6.89353814 C0.814350797,6.89353814 0.130979499,7.52913136 0.130979499,8.32362288 C0.130979499,9.11811441 0.814350797,9.75370763 1.66856492,9.75370763 L5.91685649,9.75370763 C13.308656,9.75370763 19.3223235,15.346928 19.3223235,22.221928 L19.3223235,27.7304025 C19.3223235,36.1837924 26.714123,43.0587924 35.8029613,43.0587924 L44.7437358,43.0587924 L39.9715262,47.4973517 C39.3678815,48.0587924 39.3678815,48.9592161 39.9715262,49.5206568 C40.2676538,49.7960805 40.666287,49.9443856 41.0535308,49.9443856 C41.4407745,49.9443856 41.8394077,49.8066737 42.1355353,49.5206568 L49.5387244,42.6350636 C50.142369,42.0736229 50.142369,41.1731992 49.5387244,40.6117585 L42.1469248,33.7367585 Z" id="Shape"></path>
        </g>
    </g>
</svg>