<?xml version="1.0" encoding="UTF-8"?>
<svg width="15px" height="9px" viewBox="0 0 15 9" version="1.1" xmlns="http://www.w3.org/2000/svg" xmlns:xlink="http://www.w3.org/1999/xlink">
    <!-- Generator: Sketch 48.2 (47327) - http://www.bohemiancoding.com/sketch -->
    <title>eye (1)</title>
    <desc>Created with Sketch.</desc>
    <defs></defs>
    <g id="Multiple-Textbox-additional-text-focus-Copy-5" stroke="none" stroke-width="1" fill="none" fill-rule="evenodd" transform="translate(-239.000000, -388.000000)">
        <g id="eye-(1)" transform="translate(239.000000, 388.000000)" fill="#959292" fill-rule="nonzero">
            <path d="M7.49769939,0.0222392638 C4.63266871,0.0222392638 2.0345092,1.58972393 0.117331288,4.1357362 C-0.0391104294,4.34432515 -0.0391104294,4.6357362 0.117331288,4.84432515 C2.0345092,7.39340491 4.63266871,8.96088957 7.49769939,8.96088957 C10.3627301,8.96088957 12.9608896,7.39340491 14.8780675,4.84739264 C15.0345092,4.63880368 15.0345092,4.34739264 14.8780675,4.13880368 C12.9608896,1.58972393 10.3627301,0.0222392638 7.49769939,0.0222392638 Z M7.70322086,7.63880368 C5.80138037,7.75843558 4.23082822,6.19095092 4.35046012,4.28604294 C4.44861963,2.7154908 5.72162577,1.44248466 7.29217791,1.34432515 C9.1940184,1.22469325 10.7645706,2.79217791 10.6449387,4.69708589 C10.5437117,6.26457055 9.27070552,7.53757669 7.70322086,7.63880368 Z M7.60812883,6.18481595 C6.58358896,6.24923313 5.73696319,5.40567485 5.80444785,4.38113497 C5.85659509,3.5345092 6.54371166,2.85046012 7.39033742,2.7952454 C8.4148773,2.73082822 9.26150307,3.5743865 9.1940184,4.59892638 C9.13880368,5.44861963 8.45168712,6.13266871 7.60812883,6.18481595 Z" id="Shape"></path>
        </g>
    </g>
</svg>