<?xml version="1.0" encoding="UTF-8"?>
<svg width="60px" height="60px" viewBox="0 0 60 60" version="1.1" xmlns="http://www.w3.org/2000/svg" xmlns:xlink="http://www.w3.org/1999/xlink">
    <!-- Generator: Sketch 48.2 (47327) - http://www.bohemiancoding.com/sketch -->
    <title>Group</title>
    <desc>Created with Sketch.</desc>
    <defs></defs>
    <g id="Graphical-rating-emojis" stroke="none" stroke-width="1" fill="none" fill-rule="evenodd" transform="translate(-1141.000000, -528.000000)">
        <g id="Group" transform="translate(1171.000000, 558.000000) scale(1, -1) translate(-1171.000000, -558.000000) translate(1141.000000, 528.000000)" fill-rule="nonzero">
            <path d="M59.4731707,29.7946646 C59.4731707,13.3718803 46.1593697,0.0580792683 29.7365854,0.0580792683 C13.3138011,0.0580792683 0,13.3718803 0,29.7946646 C0,46.2174489 13.3138011,59.53125 29.7365854,59.53125 C46.1593697,59.53125 59.4731707,46.2174489 59.4731707,29.7946646" id="Shape" fill="#FFCC4D"></path>
            <path d="M29.7365854,24.8386155 C23.7512264,24.8386155 19.779766,25.5357119 14.8682927,26.4906803 C13.7464916,26.7070255 11.5641631,26.4906803 11.5641631,23.1865507 C11.5641631,16.5784367 19.1552687,8.318258 29.7365854,8.318258 C40.3161597,8.318258 47.9090076,16.5784367 47.9090076,23.1865507 C47.9090076,26.4906803 45.7266791,26.7086227 44.604878,26.4906803 C39.6934047,25.5357119 35.7219444,24.8386155 29.7365854,24.8386155" id="Shape" fill="#664500"></path>
            <path d="M14.8682927,23.1865507 C14.8682927,23.1865507 19.8243418,21.5344859 29.7365854,21.5344859 C39.6488289,21.5344859 44.604878,23.1865507 44.604878,23.1865507 C44.604878,23.1865507 41.3007485,16.5784367 29.7365854,16.5784367 C18.1724223,16.5784367 14.8682927,23.1865507 14.8682927,23.1865507" id="Shape" fill="#FFFFFF"></path>
            <path d="M23.9545038,37.228811 C23.9545038,34.0337252 22.1058407,31.4467294 19.824487,31.4467294 C17.5431334,31.4467294 15.6944703,34.0338704 15.6944703,37.228811 C15.6944703,40.4221543 17.5431334,43.0108925 19.824487,43.0108925 C22.1058407,43.0108925 23.9545038,40.4221543 23.9545038,37.228811" id="SVGCleanerId_0" fill="#664500"></path>
            <g transform="translate(37.170732, 31.362805)" fill="#664500" id="SVGCleanerId_0_1_">
                <path d="M8.350492,5.8660061 C8.350492,2.67092035 6.50182889,0.0839245427 4.22047523,0.0839245427 C1.93912157,0.0839245427 0.0904584604,2.67106555 0.0904584604,5.8660061 C0.0904584604,9.05934947 1.93912157,11.6480877 4.22047523,11.6480877 C6.50182889,11.6480877 8.350492,9.05934947 8.350492,5.8660061"></path>
            </g>
        </g>
    </g>
</svg>