<?xml version="1.0" encoding="UTF-8"?>
<svg width="60px" height="60px" viewBox="0 0 60 60" version="1.1" xmlns="http://www.w3.org/2000/svg" xmlns:xlink="http://www.w3.org/1999/xlink">
    <!-- Generator: Sketch 48.2 (47327) - http://www.bohemiancoding.com/sketch -->
    <title>sad (1)</title>
    <desc>Created with Sketch.</desc>
    <defs></defs>
    <g id="Graphical-rating-emojis" stroke="none" stroke-width="1" fill="none" fill-rule="evenodd" transform="translate(-565.000000, -528.000000)">
        <g id="sad-(1)" transform="translate(565.000000, 528.000000)" fill-rule="nonzero">
            <g id="Group" transform="translate(29.970760, 29.970760) scale(-1, 1) rotate(-180.000000) translate(-29.970760, -29.970760) ">
                <g>
                    <g>
                        <path d="M59.8830409,30 C59.8830409,13.4640351 46.4774854,0.0584795322 29.9415205,0.0584795322 C13.4071637,0.0584795322 0,13.4640351 0,30 C0,46.5343567 13.4071637,59.9415205 29.9415205,59.9415205 C46.4774854,59.9415205 59.8830409,46.5343567 59.8830409,30" id="Shape" fill="#FFCC4D"></path>
                        <path d="M23.2878655,32.4951754 C23.2878655,29.2780702 21.426462,26.6732456 19.129386,26.6732456 C16.8323099,26.6732456 14.9707602,29.2780702 14.9707602,32.4951754 C14.9707602,35.7105263 16.8321637,38.3171053 19.1292398,38.3171053 C21.4263158,38.3171053 23.2878655,35.7105263 23.2878655,32.4951754" id="SVGCleanerId_0" fill="#664500"></path>
                        <g transform="translate(38.450292, 26.608187)" fill="#664500" id="SVGCleanerId_0_1_">
                            <path d="M8.3625731,5.8869883 C8.3625731,2.66988304 6.50116959,0.0650584795 4.20409357,0.0650584795 C1.90701754,0.0650584795 0.0456140351,2.67002924 0.0456140351,5.8869883 C0.0456140351,9.10233918 1.90701754,11.7089181 4.20409357,11.7089181 C6.50116959,11.7089181 8.3625731,9.10233918 8.3625731,5.8869883"></path>
                        </g>
                        <path d="M39.0653509,13.5671053 C39.0453216,13.6403509 37.1590643,20.8511696 29.9415205,20.8511696 C22.720614,20.8511696 20.8343567,13.6402047 20.8176901,13.5671053 C20.7295322,13.2128655 20.8891813,12.8501462 21.2019006,12.6621345 C21.5146199,12.4758772 21.9222222,12.519152 22.1932749,12.7619883 C22.2099415,12.7736842 23.8799708,14.1975146 29.9415205,14.1975146 C35.9115497,14.1975146 37.6214912,12.8168129 37.6864035,12.7619883 C37.8444444,12.6122807 38.050731,12.5340643 38.2586257,12.5340643 C38.3983918,12.5340643 38.5397661,12.5690058 38.6678363,12.6404971 C38.9938596,12.8269006 39.1568713,13.2045322 39.0653509,13.5671053" id="Shape" fill="#664500"></path>
                        <path d="M16.6342105,10.0390351 C16.6342105,5.44473684 12.9115497,1.72192982 8.31710526,1.72192982 C3.72266082,1.72192982 0,5.44459064 0,10.0390351 C0,14.6334795 6.65365497,26.6732456 8.31710526,26.6732456 C9.98055556,26.6732456 16.6342105,14.6333333 16.6342105,10.0390351" id="Shape" fill="#5DADEC"></path>
                        <g transform="translate(8.187135, 38.304094)" fill="#664500" id="Shape">
                            <path d="M41.7153509,0.0130116959 C32.4767544,0.0130116959 28.7374269,7.27719298 28.5826023,7.58654971 C28.1717836,8.40833333 28.5061404,9.40628655 29.3277778,9.81885965 C30.1461988,10.2280702 31.1442982,9.89707602 31.5567251,9.08026316 C31.6798246,8.83903509 34.5842105,3.33976608 41.7152047,3.33976608 C42.6350877,3.33976608 43.378655,2.59459064 43.378655,1.67631579 C43.3788012,0.758187135 42.6352339,0.0130116959 41.7153509,0.0130116959"></path>
                            <path d="M1.79342105,0.0130116959 C0.875146199,0.0130116959 0.12997076,0.758187135 0.12997076,1.67646199 C0.12997076,2.59473684 0.875146199,3.33991228 1.79342105,3.33991228 C10.248538,3.33991228 11.7672515,8.52982456 11.8288012,8.75102339 C12.0700292,9.62923977 12.9766082,10.1615497 13.8565789,9.93040936 C14.7381579,9.69912281 15.272076,8.81096491 15.0508772,7.92602339 C14.9692982,7.60321637 12.944883,0.0130116959 1.79342105,0.0130116959"></path>
                        </g>
                    </g>
                </g>
            </g>
        </g>
    </g>
</svg>