<?xml version="1.0" encoding="UTF-8"?>
<svg width="23px" height="23px" viewBox="0 0 23 23" version="1.1" xmlns="http://www.w3.org/2000/svg" xmlns:xlink="http://www.w3.org/1999/xlink">
    <!-- Generator: Sketch 46.2 (44496) - http://www.bohemiancoding.com/sketch -->
    <title>zoom-out</title>
    <desc>Created with Sketch.</desc>
    <defs></defs>
    <g id="Page-1" stroke="none" stroke-width="1" fill="none" fill-rule="evenodd">
        <g id="Desktop-Copy-19" transform="translate(-788.000000, -648.000000)" fill-rule="nonzero" fill="#FFFFFF">
            <g id="zoom-out" transform="translate(788.000000, 648.000000)">
                <path d="M8.93453919,0 C4.00172265,0 0,4.00517241 0,8.94224138 C0,13.8793103 4.00172265,17.8844828 8.93453919,17.8844828 C11.1136951,17.8844828 13.0947459,17.1112069 14.6597761,15.8025862 L21.6132644,22.762069 C21.7717485,22.9206897 21.9698536,23 22.1877692,23 C22.3858742,23 22.6037898,22.9206897 22.7622739,22.762069 C23.079242,22.4448276 23.079242,21.9293103 22.7622739,21.612069 L15.8087855,14.6724138 C17.0964686,13.1258621 17.8888889,11.1232759 17.8888889,8.94224138 C17.8690784,4.00517241 13.8673557,2.81766947e-15 8.93453919,0 Z M8.93453919,16.2784483 C4.89319552,16.2784483 1.60465116,12.987069 1.60465116,8.94224138 C1.60465116,4.89741379 4.89319552,1.60603448 8.93453919,1.60603448 C12.9758829,1.60603448 16.2644272,4.89741379 16.2644272,8.94224138 C16.2644272,12.987069 12.9758829,16.2784483 8.93453919,16.2784483 Z" id="Shape"></path>
                <path d="M12.4675325,8 L5.53246753,8 C5.23376623,8 5,8.32926829 5,8.75 C5,9.17073171 5.23376623,9.5 5.53246753,9.5 L12.4675325,9.5 C12.7662338,9.5 13,9.17073171 13,8.75 C13,8.32926829 12.7662338,8 12.4675325,8 Z" id="Shape"></path>
            </g>
        </g>
    </g>
</svg>