<?xml version="1.0" encoding="UTF-8"?>
<svg width="22px" height="22px" viewBox="0 0 22 22" version="1.1" xmlns="http://www.w3.org/2000/svg" xmlns:xlink="http://www.w3.org/1999/xlink">
    <!-- Generator: Sketch 46.2 (44496) - http://www.bohemiancoding.com/sketch -->
    <title>zoom</title>
    <desc>Created with Sketch.</desc>
    <defs></defs>
    <g id="Page-1" stroke="none" stroke-width="1" fill="none" fill-rule="evenodd">
        <g id="Desktop-Copy-19" transform="translate(-950.000000, -648.000000)" fill-rule="nonzero" fill="#FFFFFF">
            <g id="zoom" transform="translate(950.000000, 648.000000)">
                <path d="M8.5608283,17.1216566 C10.6488352,17.1216566 12.5470233,16.3813632 14.02761,15.1285591 L20.6712683,21.7722174 C20.8231234,21.9240725 21.0129422,22 21.2217429,22 C21.4115617,22 21.6203624,21.9240725 21.7722174,21.7722174 C22.0759275,21.4685073 22.0759275,20.9749784 21.7722174,20.6712683 L15.1285591,14.02761 C16.3623814,12.5470233 17.1216566,10.6298533 17.1216566,8.5608283 C17.1216566,3.83433995 13.2873167,0 8.5608283,0 C3.85332183,-1.34874376e-15 0,3.85332183 0,8.5608283 C0,13.2873167 3.85332183,17.1216566 8.5608283,17.1216566 Z M8.5608283,1.55651424 C12.433132,1.55651424 15.5651424,4.70750647 15.5651424,8.5608283 C15.5651424,12.433132 12.433132,15.5651424 8.5608283,15.5651424 C4.68852459,15.5651424 1.55651424,12.4141501 1.55651424,8.5608283 C1.55651424,4.70750647 4.70750647,1.55651424 8.5608283,1.55651424 Z" id="Shape"></path>
                <path d="M7.90097403,12.400974 C7.90097403,12.737013 8.16396104,13 8.5,13 C8.83603896,13 9.09902597,12.737013 9.09902597,12.400974 L9.09902597,9.09902597 L12.400974,9.09902597 C12.737013,9.09902597 13,8.83603896 13,8.5 C13,8.16396104 12.737013,7.90097403 12.400974,7.90097403 L9.09902597,7.90097403 L9.09902597,4.59902597 C9.09902597,4.26298701 8.83603896,4 8.5,4 C8.16396104,4 7.90097403,4.26298701 7.90097403,4.59902597 L7.90097403,7.90097403 L4.59902597,7.90097403 C4.26298701,7.90097403 4,8.16396104 4,8.5 C4,8.83603896 4.26298701,9.09902597 4.59902597,9.09902597 L7.90097403,9.09902597 L7.90097403,12.400974 Z" id="Shape"></path>
            </g>
        </g>
    </g>
</svg>