<?xml version="1.0" encoding="UTF-8"?>
<svg width="18px" height="17px" viewBox="0 0 18 17" version="1.1" xmlns="http://www.w3.org/2000/svg" xmlns:xlink="http://www.w3.org/1999/xlink">
    <!-- Generator: Sketch 48.2 (47327) - http://www.bohemiancoding.com/sketch -->
    <title>Group 3</title>
    <desc>Created with Sketch.</desc>
    <defs></defs>
    <g id="Survey-level-Setting--Dark-Charcoal" stroke="none" stroke-width="1" fill="none" fill-rule="evenodd" transform="translate(-25.000000, -91.000000)">
        <g id="Group-3" transform="translate(25.000000, 91.000000)">
            <g id="text-lines" transform="translate(0.000000, 0.176471)" fill="#000000" fill-rule="nonzero">
                <path d="M0.740441176,1.51938235 L17.2595588,1.51938235 C17.6768529,1.51938235 18,1.19626471 18,0.778941176 C18,0.361617647 17.6768824,0.025 17.2595588,0.025 L0.740441176,0.025 C0.323117647,0.025 0,0.361588235 0,0.778941176 C0,1.19623529 0.323117647,1.51938235 0.740441176,1.51938235 Z" id="Shape"></path>
                <path d="M17.6141617,4.80423529 L9.00617531,4.80423529 C8.7887112,4.80423529 8.62033705,5.12735294 8.62033705,5.54467647 C8.62033705,5.962 8.7887112,6.28511765 9.00617531,6.28511765 L17.6141617,6.28511765 C17.8316105,6.28511765 18,5.962 18,5.54467647 C18,5.12735294 17.8316259,4.80423529 17.6141617,4.80423529 Z" id="Shape"></path>
                <path d="M17.6141617,9.57026471 L9.00617531,9.57026471 C8.7887112,9.57026471 8.62033705,9.92008824 8.62033705,10.3374412 C8.62033705,10.7280588 8.7887112,11.0913529 9.00617531,11.0913529 L17.6141617,11.0913529 C17.8316105,11.0913529 18,10.7280588 18,10.3374412 C18,9.92008824 17.8316259,9.57026471 17.6141617,9.57026471 Z" id="Shape"></path>
                <path d="M17.2595588,14.363 L0.740441176,14.363 C0.323117647,14.363 0,14.6996176 0,15.1169706 C0,15.5343235 0.323117647,15.8573824 0.740441176,15.8573824 L17.2595588,15.8573824 C17.6768529,15.8573824 18,15.5343235 18,15.1169706 C18,14.6996176 17.6768824,14.363 17.2595588,14.363 Z" id="Shape"></path>
            </g>
            <polygon id="Triangle" fill="#1B97E0" transform="translate(2.500000, 7.500000) rotate(-90.000000) translate(-2.500000, -7.500000) " points="2.5 5 6 10 -1 10"></polygon>
        </g>
    </g>
</svg>