<?xml version="1.0" encoding="UTF-8"?>
<svg width="31px" height="25px" viewBox="0 0 31 25" version="1.1" xmlns="http://www.w3.org/2000/svg" xmlns:xlink="http://www.w3.org/1999/xlink">
    <!-- Generator: Sketch 48.2 (47327) - http://www.bohemiancoding.com/sketch -->
    <title>monitor</title>
    <desc>Created with Sketch.</desc>
    <defs></defs>
    <g id="Survey-page-page-layout" stroke="none" stroke-width="1" fill="none" fill-rule="evenodd" transform="translate(-138.000000, -21.000000)">
        <g id="monitor" transform="translate(138.000000, 21.000000)" fill-rule="nonzero">
            <rect id="Rectangle-path" fill="#E6E6E6" x="12" y="20" width="8" height="3"></rect>
            <path d="M0,17 L0,0.587978261 C0,0.125652174 0.307116279,0 0.737872093,0 L30.2960116,0 C30.7271279,0 31,0.125652174 31,0.587978261 L31,17 L0,17 Z" id="Shape" fill="#1E2C33"></path>
            <path d="M0,17 L0,20 C0,20.478 0.307116279,21 0.737872093,21 L30.2960116,21 C30.7271279,21 31,20.478 31,20 L31,17 L0,17 Z" id="Shape" fill="#F5F5F5"></path>
            <rect id="Rectangle-path" fill="#586874" x="2" y="2" width="27" height="13"></rect>
            <path d="M22,24.5 C22,24.225 21.6753611,24 21.2777778,24 L9.72222222,24 C9.325,24 9,24.225 9,24.5 C9,24.775 9.325,25 9.72222222,25 L21.2777778,25 C21.675,25 22,24.775 22,24.5 Z" id="Shape" fill="#F5F5F5"></path>
            <circle id="Oval" fill="#1E2C33" cx="15.5" cy="18.5" r="1"></circle>
        </g>
    </g>
</svg>