<?xml version="1.0" encoding="UTF-8"?>
<svg width="29px" height="29px" viewBox="0 0 29 29" version="1.1" xmlns="http://www.w3.org/2000/svg" xmlns:xlink="http://www.w3.org/1999/xlink">
    <!-- Generator: Sketch 48.2 (47327) - http://www.bohemiancoding.com/sketch -->
    <title>Group 5</title>
    <desc>Created with Sketch.</desc>
    <defs></defs>
    <g id="Survey-page-Copy" stroke="none" stroke-width="1" fill="none" fill-rule="evenodd" transform="translate(-224.000000, -149.000000)">
        <g id="Group-5" transform="translate(224.000000, 149.000000)">
            <circle id="Oval" fill="#5EBC5D" cx="14.5" cy="14.5" r="14.5"></circle>
            <g id="slider" transform="translate(7.000000, 11.000000)" fill="#FFFFFF" fill-rule="nonzero">
                <path d="M16,2 L12.4,2 C11.7,0.8 10.4,0 9,0 C7.6,0 6.2,0.8 5.6,2 L0,2 L0,6 L5.6,6 C6.3,7.2 7.6,8 9,8 C10.4,8 11.8,7.2 12.4,6 L16,6 L16,2 Z M1,5 L1,3 L5.1,3 C5.1,3.3 5,3.7 5,4 C5,4.3 5.1,4.7 5.1,5 L1,5 Z M9,7 C7.3,7 6,5.7 6,4 C6,2.3 7.3,1 9,1 C10.7,1 12,2.3 12,4 C12,5.7 10.7,7 9,7 Z" id="Shape"></path>
            </g>
        </g>
    </g>
</svg>