<?xml version="1.0" encoding="UTF-8"?>
<svg width="11px" height="14px" viewBox="0 0 11 14" version="1.1" xmlns="http://www.w3.org/2000/svg" xmlns:xlink="http://www.w3.org/1999/xlink">
    <!-- Generator: Sketch 48.2 (47327) - http://www.bohemiancoding.com/sketch -->
    <title>italic-letter-style-interface-symbol</title>
    <desc>Created with Sketch.</desc>
    <defs></defs>
    <g id="Survey-page" stroke="none" stroke-width="1" fill="none" fill-rule="evenodd" transform="translate(-281.000000, -559.000000)">
        <g id="italic-letter-style-interface-symbol" transform="translate(281.000000, 559.000000)" fill="#FFFFFF" fill-rule="nonzero">
            <path d="M3.87566667,0.3766 L3.9872,0 L10.7174667,0 L10.5849333,0.3766 C9.975,0.3766 9.50926667,0.511466667 9.18773333,0.783066667 C8.86666667,1.05373333 8.58246667,1.6198 8.33933333,2.48033333 L5.81886667,11.3040667 C5.635,11.9275333 5.544,12.3447333 5.544,12.5547333 C5.544,12.7988 5.6392,12.9892 5.8282,13.125 C6.07133333,13.3009333 6.5338,13.3956667 7.2114,13.4087333 L7.10873333,13.7848667 L0.266933333,13.7848667 L0.378933333,13.4087333 C1.06353333,13.4087333 1.56473333,13.2780667 1.88393333,13.0176667 C2.20266667,12.7558667 2.4906,12.1856 2.7482,11.3040667 L5.28966667,2.48033333 C5.44506667,1.93806667 5.52346667,1.52786667 5.52346667,1.25066667 C5.52346667,1.00006667 5.42873333,0.803133333 5.23926667,0.659866667 C5.04793333,0.518 4.59386667,0.4242 3.87566667,0.3766 Z" id="Shape"></path>
        </g>
    </g>
</svg>