<?xml version="1.0" encoding="UTF-8"?>
<svg width="16px" height="27px" viewBox="0 0 16 27" version="1.1" xmlns="http://www.w3.org/2000/svg" xmlns:xlink="http://www.w3.org/1999/xlink">
    <!-- Generator: Sketch 48.2 (47327) - http://www.bohemiancoding.com/sketch -->
    <title>icon (2)</title>
    <desc>Created with Sketch.</desc>
    <defs></defs>
    <g id="Survey-page-page-layout" stroke="none" stroke-width="1" fill="none" fill-rule="evenodd" transform="translate(-262.000000, -20.000000)">
        <g id="icon-(2)" transform="translate(262.000000, 20.000000)" fill="#000000" fill-rule="nonzero">
            <path d="M14.039,0 L2.761,0 C1.683,0 0.812,0.875 0.812,1.952 L0.812,24.851 C0.812,25.927 1.683,26.802 2.761,26.802 L14.038,26.802 C15.116,26.802 15.989,25.927 15.989,24.851 L15.989,1.952 C15.99,0.875 15.118,0 14.039,0 Z M5.617,1.186 L11.185,1.186 C11.326,1.186 11.439,1.396 11.439,1.657 C11.439,1.917 11.326,2.128 11.185,2.128 L5.617,2.128 C5.476,2.128 5.364,1.917 5.364,1.657 C5.364,1.396 5.476,1.186 5.617,1.186 Z M8.401,24.875 C7.714,24.875 7.155,24.317 7.155,23.629 C7.155,22.941 7.715,22.385 8.401,22.385 C9.087,22.385 9.646,22.942 9.646,23.629 C9.646,24.317 9.086,24.875 8.401,24.875 Z M14.528,20.607 L2.274,20.607 L2.274,3.294 L14.528,3.294 L14.528,20.607 Z" id="Shape"></path>
        </g>
    </g>
</svg>