<?xml version="1.0" encoding="UTF-8"?>
<svg width="20px" height="27px" viewBox="0 0 20 27" version="1.1" xmlns="http://www.w3.org/2000/svg" xmlns:xlink="http://www.w3.org/1999/xlink">
    <!-- Generator: Sketch 48.2 (47327) - http://www.bohemiancoding.com/sketch -->
    <title>icon (3)</title>
    <desc>Created with Sketch.</desc>
    <defs></defs>
    <g id="Survey-page-page-layout" stroke="none" stroke-width="1" fill="none" fill-rule="evenodd" transform="translate(-202.000000, -21.000000)">
        <g id="icon-(3)" transform="translate(202.000000, 21.000000)" fill="#000000" fill-rule="nonzero">
            <path d="M17.7884615,0 L2.20538462,0 C1.22307692,0 0.432307692,0.794615385 0.432307692,1.77615385 L0.432307692,24.3738462 C0.432307692,25.3523077 1.22307692,26.1492308 2.20538462,26.1492308 L17.7884615,26.1492308 C18.7676923,26.1492308 19.5623077,25.3530769 19.5623077,24.3738462 L19.5623077,1.77615385 C19.5638462,0.794615385 18.7684615,0 17.7884615,0 Z M9.99769231,25.4838462 C9.41461538,25.4838462 8.94307692,25.0123077 8.94307692,24.43 C8.94307692,23.8469231 9.41461538,23.3746154 9.99769231,23.3746154 C10.5792308,23.3746154 11.0523077,23.8469231 11.0523077,24.43 C11.0523077,25.0123077 10.5792308,25.4838462 9.99769231,25.4838462 Z M17.7676923,22.4507692 L2.22769231,22.4507692 L2.22769231,2.13384615 L17.7676923,2.13384615 L17.7676923,22.4507692 Z" id="Shape"></path>
        </g>
    </g>
</svg>