<?xml version="1.0" encoding="UTF-8"?>
<svg width="29px" height="29px" viewBox="0 0 29 29" version="1.1" xmlns="http://www.w3.org/2000/svg" xmlns:xlink="http://www.w3.org/1999/xlink">
    <!-- Generator: Sketch 48.2 (47327) - http://www.bohemiancoding.com/sketch -->
    <title>Group 4</title>
    <desc>Created with Sketch.</desc>
    <defs></defs>
    <g id="Survey-page-Copy" stroke="none" stroke-width="1" fill="none" fill-rule="evenodd" transform="translate(-177.000000, -149.000000)">
        <g id="Group-4" transform="translate(177.000000, 149.000000)">
            <circle id="Oval" fill="#5EBC5D" cx="14.5" cy="14.5" r="14.5"></circle>
            <g id="font-(1)" transform="translate(6.000000, 9.000000)" fill="#FFFFFF" fill-rule="nonzero">
                <polygon id="Shape" points="16 0.536721667 16 0 13.4736842 0 13.4736842 0.536721667 14.4430765 0.536721667 14.4430765 9.56854149 13.4736842 9.56854149 13.4736842 10.1052632 16 10.1052632 16 9.56854149 15.0306077 9.56854149 15.0306077 0.536721667"></polygon>
                <g id="Group" transform="translate(0.000000, 0.842105)">
                    <path d="M0.0960348457,7.13974157 L2.70100907,0.755121336 C2.88262505,0.314856603 3.21347368,0.0482571699 3.66200799,0.0482571699 L3.75808929,0.0482571699 C4.20634483,0.0482571699 4.52673975,0.314806177 4.70816987,0.755121336 L7.31323702,7.13974157 C7.36662069,7.26721714 7.39872523,7.38304444 7.39872523,7.49897258 C7.39872523,7.97403089 7.05705118,8.35640719 6.61929583,8.35640719 C6.2349706,8.35640719 5.97869183,8.11310432 5.82927332,7.74222502 L5.3275412,6.4677214 L2.03921887,6.4677214 L1.51606824,7.80026473 C1.37724283,8.14784746 1.0997314,8.35640719 0.75805735,8.35640719 C0.330848639,8.35640719 0,7.98562874 0,7.52211787 C0,7.39464229 0.0426511797,7.26721714 0.0960348457,7.13974157 Z M4.71894882,4.89182477 L3.68328711,2.21514025 L2.64771833,4.89182477 L4.71894882,4.89182477 Z" id="Shape"></path>
                    <path d="M8.17764356,6.50241412 L8.17764356,6.47921841 C8.17764356,5.12352978 9.12786352,4.49780019 10.4837343,4.49780019 C11.0603151,4.49780019 11.4767448,4.60208005 11.8824421,4.75275134 L11.8824421,4.64847148 C11.8824421,3.9184116 11.4660123,3.51294043 10.6546178,3.51294043 C10.2062229,3.51294043 9.84322323,3.58242673 9.53360726,3.68675701 C9.43757241,3.72150016 9.37345626,3.73304759 9.29860762,3.73304759 C8.92506134,3.73304759 8.6261314,3.42020801 8.6261314,3.01468642 C8.6261314,2.70179641 8.80756152,2.43529783 9.06374737,2.33096754 C9.57621198,2.12240782 10.1314672,2.0065301 10.889478,2.0065301 C11.7755354,2.0065301 12.4161858,2.26143082 12.8219296,2.70174598 C13.2489525,3.16520643 13.4411151,3.84892531 13.4411151,4.68321462 L13.4411151,7.51046959 C13.4411151,7.98562874 13.0888015,8.35635676 12.6510461,8.35635676 C12.1812791,8.35635676 11.8717096,7.99717617 11.8717096,7.62634731 L11.8717096,7.61474945 C11.4766984,8.08980775 10.9320828,8.40264734 10.1421532,8.40264734 C9.06374737,8.40274819 8.17764356,7.73077844 8.17764356,6.50241412 Z M11.9036748,6.09684211 L11.9036748,5.78400252 C11.6261169,5.64497951 11.2631172,5.55224708 10.868106,5.55224708 C10.1740719,5.55224708 9.74709546,5.85353924 9.74709546,6.40968169 L9.74709546,6.4328774 C9.74709546,6.90798613 10.1100951,7.18603215 10.6331993,7.18603215 C11.3912102,7.18608257 11.9036748,6.73421998 11.9036748,6.09684211 Z" id="Shape"></path>
                </g>
            </g>
        </g>
    </g>
</svg>