<?xml version="1.0" encoding="UTF-8"?>
<svg width="12px" height="13px" viewBox="0 0 12 13" version="1.1" xmlns="http://www.w3.org/2000/svg" xmlns:xlink="http://www.w3.org/1999/xlink">
    <!-- Generator: Sketch 48.2 (47327) - http://www.bohemiancoding.com/sketch -->
    <title>underlined-text</title>
    <desc>Created with Sketch.</desc>
    <defs></defs>
    <g id="Survey-Title" stroke="none" stroke-width="1" fill="none" fill-rule="evenodd" transform="translate(-335.000000, -545.000000)">
        <g id="underlined-text" transform="translate(335.000000, 545.000000)" fill="#000000" fill-rule="nonzero">
            <path d="M0.998419285,11.3333333 C0.630665876,11.3333333 0.333333333,11.6313725 0.333333333,12 C0.333333333,12.3686275 0.630665876,12.6666667 0.998419285,12.6666667 L10.6682474,12.6666667 C11.0359877,12.6666667 11.3333333,12.3686275 11.3333333,12 C11.3333333,11.6313725 11.0359877,11.3333333 10.6682474,11.3333333 L0.998419285,11.3333333 Z" id="Shape"></path>
            <path d="M12,0.592883995 C12,0.528468661 12,0.460109531 12,0.394379598 C12,0.17615622 11.8235492,0 11.6049608,0 L7.27663497,0 C7.05804662,0 6.88159578,0.17615622 6.88159578,0.394379598 L6.88159578,0.584996403 C6.88159578,0.788759196 7.03699103,0.958342423 7.23977781,0.978061402 C7.43071342,0.996465784 7.62164903,1.02407236 7.80993787,1.06088112 C8.20762382,1.13844244 8.40117985,1.35929501 8.40117985,1.7615622 L8.40117985,6.68999258 C8.40117985,6.97920428 8.36825992,7.28680722 8.30504048,7.60363864 C8.24446781,7.90731094 8.12203199,8.19520804 7.94160443,8.45812777 C7.75331559,8.7223621 7.49127293,8.94320153 7.16469403,9.11409936 C6.88026582,9.26264901 6.48786023,9.34678332 6.0019752,9.3665023 C5.5147602,9.34809792 5.12367141,9.26264901 4.83924319,9.11409936 C4.5126643,8.94320153 4.25063481,8.72366356 4.06233279,8.45812777 C3.88193157,8.19520804 3.75946942,7.90731094 3.69888358,7.60363864 C3.63567731,7.28550577 3.60275737,6.97787654 3.60275737,6.68999258 L3.60275737,1.7602476 C3.60275737,1.35929501 3.79632657,1.13844244 4.19399935,1.05956652 C4.38230137,1.02275776 4.57190701,0.995151185 4.76417258,0.976746804 C4.96694619,0.957027824 5.12234144,0.787444597 5.12234144,0.583681805 L5.12234144,0.394379598 C5.12234144,0.17615622 4.9458906,0 4.72730226,0 L0.395039186,0 C0.176450836,0 0,0.17615622 0,0.394379598 C0,0.460109531 0,0.528468661 0,0.592883995 C0,0.786129998 0.14089731,0.951769429 0.331832916,0.982005198 C0.571516358,1.02012856 0.859894963,1.0753417 0.904666071,1.09111689 C1.26020134,1.21994756 1.48669047,1.45131692 1.48669047,1.84043812 L1.48669047,7.21188824 C1.48669047,7.66411018 1.58413347,8.10450073 1.77638587,8.51991391 C1.96863828,8.93534023 2.25701688,9.30867311 2.6349377,9.62943518 L2.6362545,9.63074978 C3.01549212,9.94888265 3.48953914,10.2039279 4.0439108,10.3892732 C4.59433207,10.573317 5.22902836,10.6666667 5.92956451,10.6666667 C5.95195007,10.6666667 5.97565242,10.6666667 6.0006584,10.6653389 C6.02699434,10.6653389 6.04939307,10.6666667 6.07176545,10.6666667 C6.77231478,10.6666535 7.40569427,10.573317 7.95743233,10.3892732 C8.51180399,10.2039148 8.98453422,9.94888265 9.3650623,9.63074978 L9.36640543,9.62943518 C9.74431308,9.30867311 10.0327049,8.93532709 10.2249441,8.51991391 C10.4171965,8.10450073 10.5146395,7.66411018 10.5146395,7.21188824 L10.5146395,1.84175272 C10.5146395,1.45263152 10.7424586,1.22126215 11.0966507,1.09243149 C11.1414218,1.0766563 11.4298136,1.02144316 11.6694575,0.983319797 C11.8604063,0.951769429 12,0.786129998 12,0.592883995 Z" id="Shape"></path>
        </g>
    </g>
</svg>