<?xml version="1.0" encoding="UTF-8"?>
<svg width="44px" height="44px" viewBox="0 0 44 44" version="1.1" xmlns="http://www.w3.org/2000/svg" xmlns:xlink="http://www.w3.org/1999/xlink">
    <!-- Generator: Sketch 48.2 (47327) - http://www.bohemiancoding.com/sketch -->
    <title>Group 6</title>
    <desc>Created with Sketch.</desc>
    <defs></defs>
    <g id="question--create-copy-2" stroke="none" stroke-width="1" fill="none" fill-rule="evenodd" transform="translate(-281.000000, -205.000000)">
        <g id="Group-6" transform="translate(281.000000, 205.000000)">
            <circle id="Oval" fill="#0D9DBA" cx="22" cy="22" r="22"></circle>
            <g id="criteria-grey" transform="translate(11.000000, 13.000000)" fill="#FFFFFF" fill-rule="nonzero">
                <g id="Group">
                    <rect id="Rectangle-path" x="7.4943867" y="9.97921" width="8.31600832" height="1.66320166"></rect>
                    <path d="M10.8291061,18.2952183 L2.5047817,18.2952183 C2.04656965,18.2952183 1.67318088,17.9218295 1.67318088,17.4636175 L1.67318088,3.32640332 L18.3051975,3.32640332 L18.3051975,10.3409563 C18.6494803,10.1721414 19.0261954,10.0731809 19.4220374,10.0731809 C19.608316,10.0731809 19.7904366,10.0964657 19.9683992,10.1355509 L19.9683992,2.4948025 C19.9683992,1.11683992 18.8507277,0 17.4735966,0 L2.5047817,0 C1.12765073,0 0.00997921,1.11683992 0.00997921,2.4948025 L0.00997921,17.4636175 C0.00997921,18.8407484 1.12765073,19.9584199 2.5047817,19.9584199 L10.3426196,19.9584199 L10.8291061,18.2952183 Z" id="Shape"></path>
                    <rect id="Rectangle-path" x="7.4943867" y="6.65280665" width="8.31600832" height="1.66320166"></rect>
                    <polygon id="Shape" points="7.4943867 14.968815 13.3954262 14.968815 15.0669439 13.3056133 7.4943867 13.3056133"></polygon>
                    <rect id="Rectangle-path" x="4.16798337" y="9.97921" width="1.66320166" height="1.66320166"></rect>
                    <rect id="Rectangle-path" x="4.16798337" y="6.65280665" width="1.66320166" height="1.66320166"></rect>
                    <rect id="Rectangle-path" x="4.16798337" y="13.3056133" width="1.66320166" height="1.66320166"></rect>
                </g>
                <g id="Group" transform="translate(12.000000, 12.000000)">
                    <path d="M9.37327937,1.56599191 L8.14493926,0.335222672 C7.80647774,-0.00566801621 7.25910932,-0.008097166 6.92469637,0.327935223 L5.93684211,1.32226721 L8.39028342,3.78623482 L9.37894737,2.79109312 C9.71497974,2.45506073 9.71255063,1.90607287 9.37327937,1.56599191 Z" id="Shape"></path>
                    <path d="M1.09878543,6.07449395 C1.04453441,6.11902832 0.998380568,6.17408905 0.977327937,6.24696358 L0.12145749,9.17408905 C0.0834008095,9.30121458 0.11902834,9.43886642 0.212145749,9.53279353 C0.281781376,9.60161942 0.374089069,9.63886642 0.468825911,9.63886642 C0.502834008,9.63886642 0.537651821,9.63400811 0.5708502,9.62348179 L3.48744939,8.76356274 C3.55546559,8.74412958 3.60809717,8.70202432 3.65263158,8.65182184 L7.65182184,4.67206478 L5.09068826,2.10121457 L1.09878543,6.07449395 Z M1.48663967,8.59757084 L1.14493927,8.25344132 L1.62995952,6.59595142 L2.87044534,6.85182184 L3.11578947,8.11659921 L1.48663967,8.59757084 Z" id="Shape"></path>
                </g>
            </g>
        </g>
    </g>
</svg>