<?xml version="1.0" encoding="UTF-8"?>
<svg width="44px" height="44px" viewBox="0 0 44 44" version="1.1" xmlns="http://www.w3.org/2000/svg" xmlns:xlink="http://www.w3.org/1999/xlink">
    <!-- Generator: Sketch 48.2 (47327) - http://www.bohemiancoding.com/sketch -->
    <title>Group 5</title>
    <desc>Created with Sketch.</desc>
    <defs></defs>
    <g id="question--create-copy-2" stroke="none" stroke-width="1" fill="none" fill-rule="evenodd" transform="translate(-138.000000, -205.000000)">
        <g id="Group-5" transform="translate(138.000000, 205.000000)">
            <circle id="Oval" fill="#D2884E" cx="22" cy="22" r="22"></circle>
            <g id="language-grey" transform="translate(11.000000, 11.000000)" fill="#FFFFFF" fill-rule="nonzero">
                <polygon id="Shape" points="15.5529339 5.11931167 15.5706643 5.35293426 15.3665763 5.4254155 15.3394149 5.92307692 15.5838677 5.92307692 15.9090504 5.86936314 16.0769231 5.52701868 15.8984876 5.40794234 15.8007819 5.21509046 15.6540347 4.80738344 15.5838677 4.23076923 15.3081038 4.32719518 15.2307692 4.53040153 15.2307692 4.75949405 15.3635584 4.91545816"></polygon>
                <polygon id="Shape" points="15.2083812 4.65963292 15.2307692 4.34971942 14.9845006 4.23076923 14.6400689 4.32014262 14.3846154 4.77922609 14.3846154 5.07692308 14.6825488 5.07692308"></polygon>
                <path d="M9.80304894,5.92653058 L9.71824073,6.16138143 L9.30769231,6.16138143 L9.30769231,6.38932495 L9.40535013,6.38932495 C9.40535013,6.38932495 9.41113255,6.43767655 9.41948483,6.50122448 L9.67133929,6.47843012 L9.82874833,6.37343799 L9.86986742,6.16138143 L10.0735354,6.14273152 L10.1538462,5.96452112 L9.96688278,5.92307692 L9.80304894,5.92653058 Z" id="Shape"></path>
                <polygon id="Shape" points="9.32496078 6.10197805 9.30769231 6.32508639 9.62750394 6.29814756 9.66065929 6.0743485 9.46863424 5.92307692"></polygon>
                <path d="M21.9976783,10.8862108 C21.9945111,10.5645244 21.9782229,10.2451003 21.9479087,9.93065293 C21.8461074,8.88234443 21.59545,7.87747041 21.2199163,6.93548586 C21.1918644,6.86535733 21.1660747,6.79432389 21.136213,6.72510028 C20.635803,5.54286887 19.9331478,4.46650899 19.0730399,3.53764524 C19.0164836,3.47701799 18.9590224,3.41729563 18.9015612,3.35847815 C18.7391316,3.18971722 18.5721775,3.02502827 18.3993415,2.86712596 C16.4438515,1.08676607 13.8467871,0 10.9999702,0 C8.12917349,0 5.51355863,1.10622108 3.55263929,2.9137275 C3.09566455,3.33495115 2.67579072,3.79463238 2.29482762,4.28688946 C0.857845656,6.14552186 0,8.4737892 0,10.9997738 C0,17.0656658 4.93487478,22 11.0004227,22 C15.2670285,22 18.9712386,19.5568123 20.794613,15.9969974 C21.1846252,15.2359897 21.4882193,14.4247609 21.6927268,13.5746221 C21.7447586,13.3588072 21.7895512,13.1420874 21.8284619,12.922653 C21.9393122,12.2978303 21.9999405,11.6553625 21.9999405,10.9997738 C22.000393,10.9617686 21.9981307,10.9242159 21.9976783,10.8862108 Z M19.927266,6.48983035 L19.9910614,6.41834449 C20.0747647,6.58077121 20.1530386,6.7459126 20.2276929,6.91331619 L20.1236294,6.90924418 L19.927266,6.93639071 L19.927266,6.48983035 Z M18.3378083,4.57057069 L18.3396181,4.0792185 C18.512454,4.26245758 18.6789557,4.45112596 18.8382182,4.64658097 L18.640045,4.94157326 L17.9473437,4.93523907 L17.9039085,4.79091002 L18.3378083,4.57057069 Z M5.0683476,3.3494293 L5.0683476,3.33087917 L5.28869087,3.33087917 L5.30769378,3.25532133 L5.66829663,3.25532133 L5.66829663,3.4127712 L5.56468551,3.55121851 L5.06789515,3.55121851 L5.0683476,3.3494293 Z M5.42035389,3.84032904 C5.42035389,3.84032904 5.64069718,3.80277635 5.65970008,3.80277635 C5.67870298,3.80277635 5.65970008,4.02266323 5.65970008,4.02266323 L5.1629097,4.05388174 L5.0683476,3.9407712 L5.42035389,3.84032904 Z M20.6281114,8.2068483 L19.8232024,8.2068483 L19.3327463,7.84172748 L18.8165006,7.89194859 L18.8165006,8.2068483 L18.6531661,8.2068483 L18.4767105,8.08106942 L17.5826688,7.85439589 L17.5826688,7.27526991 L16.4497334,7.36349614 L16.098632,7.55216449 L15.6488965,7.55216449 L15.4285532,7.52999482 L14.8824458,7.83313108 L14.8824458,8.40366067 L13.766251,9.2090077 L13.8590034,9.55286376 L14.0852284,9.55286376 L14.0259574,9.88043188 L13.866695,9.9387969 L13.8580984,10.7948175 L14.8227224,11.893347 L15.2425962,11.893347 L15.2679334,11.8263856 L16.0226204,11.8263856 L16.240249,11.6250488 L16.6682669,11.6250488 L16.9030886,11.8603188 L17.5410434,11.9263753 L17.4564352,12.7747044 L18.1645198,14.024802 L17.7917008,14.7373984 L17.817038,15.0731105 L18.1106783,15.3658406 L18.1106783,16.1729974 L18.4961659,16.6914961 L18.4961659,17.3620154 L18.8291692,17.3620154 C16.975933,19.637347 14.1553582,21.0946632 10.9995178,21.0946632 C5.43347494,21.0951157 0.904900481,16.5661696 0.904900481,10.9997738 C0.904900481,9.59856037 1.19265883,8.26295113 1.71071436,7.04904881 L1.71071436,6.7341491 L2.07176965,6.29573265 C2.19709837,6.05910539 2.33147609,5.82835991 2.47490282,5.60349615 L2.49119103,5.7867352 L2.0722221,6.29573265 C1.94236889,6.54095632 1.82111222,6.79160927 1.71116681,7.04904881 L1.71116681,7.62365035 L2.13058818,7.82543959 L2.13058818,8.62399999 L2.53281645,9.31035472 L2.85993797,9.36057583 L2.90201585,9.1253059 L2.51607579,8.52989203 L2.4405166,7.95121847 L2.66674172,7.95121847 L2.76220872,8.5466324 L3.32007987,9.36057583 L3.17620069,9.62344471 L3.53092168,10.1659229 L4.4118423,10.384 L4.4118423,10.2414807 L4.76430104,10.2917018 L4.73081972,10.5432596 L5.00771927,10.5939331 L5.43528474,10.7106632 L6.0393058,11.3988277 L6.81073349,11.4571928 L6.88629267,12.0865398 L6.35828322,12.4557326 L6.33339849,13.0176658 L6.25783926,13.3615218 L7.02157527,14.3175321 L7.0799414,14.6451003 C7.0799414,14.6451003 7.35684092,14.7202057 7.3907747,14.7202057 C7.42425598,14.7202057 8.01153643,15.1649563 8.01153643,15.1649563 L8.01153643,16.8928329 L8.2210209,16.9516504 L8.07849905,17.7488535 L8.4309578,18.2189408 L8.36580498,19.0089049 L8.83137628,19.8273728 L9.42906302,20.349491 L10.0299169,20.3603496 L10.0887355,20.1671568 L9.64714404,19.7952494 L9.67248126,19.6106529 L9.75166003,19.3844319 L9.7684007,19.1536863 L9.46978355,19.1446375 L9.31911764,18.9555167 L9.56706035,18.7170796 L9.60054169,18.5370077 L9.3236421,18.4578303 L9.33993034,18.2904267 L9.73446693,18.2307043 L10.334416,17.9424987 L10.5357563,17.5733059 L11.1651146,16.7679589 L11.0221403,16.1381594 L11.2153365,15.8028997 L11.7940204,15.820545 L12.1835801,15.5119794 L12.3093613,14.2967198 L12.7414512,13.7479075 L12.8170104,13.395455 L12.4229263,13.2692236 L12.1627674,12.8425707 L11.2737027,12.8335218 L10.5687852,12.5647712 L10.5353039,12.062108 L10.3000298,11.650838 L9.66252735,11.6413367 L9.29423285,11.0631157 L8.96711132,10.9034036 L8.95037065,11.079856 L8.35494614,11.1151465 L8.13686512,10.8115578 L7.51565095,10.6853265 L7.00392973,11.2766683 L6.19856832,11.1400308 L6.14020219,10.2324319 L5.55246936,10.1319897 L5.78819593,9.68678661 L5.72078087,9.43115678 L4.94844829,9.9473933 L4.46251672,9.88812337 L4.28922828,9.50852443 L4.39510164,9.11716193 L4.66295218,8.62354756 L5.27964186,8.31136248 L6.47049089,8.31090999 L6.46732373,8.67422104 L6.89534166,8.87329561 L6.86140788,8.25254497 L7.16997895,7.94216965 L7.79255048,7.53316193 L7.8350808,7.24540875 L8.45584253,6.59932134 L9.11596743,6.23374804 L9.05760136,6.18578918 L9.50462219,5.76501801 L9.66840918,5.80845243 L9.74351592,5.90256039 L9.91318479,5.71434448 L9.95481018,5.69579434 L9.76885314,5.66955272 L9.58018142,5.60666325 L9.58018142,5.42568637 L9.68017289,5.34379434 L9.90051615,5.34379434 L10.0014126,5.38813367 L10.0887355,5.56458611 L10.1955137,5.54829817 L10.1955137,5.53291516 L10.2262803,5.54332136 L10.5357563,5.4958149 L10.579644,5.34469922 L10.7560996,5.38903856 L10.7560996,5.55282261 L10.5923126,5.6654807 L10.592765,5.6654807 L10.6167449,5.84510022 L11.1773307,6.01793316 C11.1773307,6.01793316 11.1777832,6.02019536 11.1786881,6.0247198 L11.3076364,6.01386115 L11.316233,5.77089974 L10.8719268,5.56865807 L10.8465896,5.45192801 L11.2153365,5.32614909 L11.2316248,4.97324421 L10.8461372,4.73842673 L10.8208,4.14346529 L10.2923381,4.40316709 L10.0995943,4.40316709 L10.1502687,3.95027249 L9.43087282,3.78060668 L9.13316054,4.00547043 L9.13316054,4.69137275 L8.59791195,4.86103855 L8.38345052,5.30805141 L8.15089106,5.34560411 L8.15089106,4.77371722 L7.6477664,4.70404113 L7.39620409,4.54025706 L7.29485526,4.16970694 L8.19477875,3.64306426 L8.63501283,3.50914138 L8.67935295,3.80503855 L8.92458099,3.79237018 L8.94358389,3.6435167 L9.20012321,3.60686889 L9.20464768,3.55483804 L9.09424986,3.50914138 L9.06891264,3.35169151 L9.38427046,3.32499742 L9.57475197,3.12682776 L9.58515838,3.11234961 L9.58742061,3.1132545 L9.64533425,3.05353213 L10.3081738,2.96983033 L10.6013616,3.21867352 L9.83264865,3.62813367 L10.810846,3.85887917 L10.9375321,3.53176349 L11.3650976,3.53176349 L11.516216,3.24672493 L11.2139792,3.17116709 L11.2139792,2.81057069 L10.266096,2.39070437 L9.61185291,2.46626221 L9.24265354,2.65945501 L9.26799076,3.12908997 L8.88205067,3.07027249 L8.82277967,2.81057069 L9.19243153,2.47485861 L8.52144785,2.44137789 L8.32870405,2.49974293 L8.24500076,2.72596401 L8.49656306,2.76849357 L8.44634111,3.02005141 L8.01877562,3.04538817 L7.951813,3.21279177 L7.3315037,3.22998457 C7.3315037,3.22998457 7.3143106,2.87798457 7.28942581,2.87798457 C7.26454108,2.87798457 7.77580986,2.86938817 7.77580986,2.86938817 L8.14546167,2.50833933 L7.94366888,2.40744473 L7.67536591,2.66805141 L7.23015487,2.64271465 L6.96185184,2.27352185 L6.39131212,2.27352185 L5.79588761,2.71827249 L6.3415426,2.71827249 L6.39131212,2.87798457 L6.2496952,3.00964524 L6.85371626,3.0263856 L6.9460161,3.24446272 L6.26598337,3.21912596 L6.23295453,3.05126992 L5.80538903,2.95897172 L5.57871146,2.8331928 L5.06970495,2.83726478 C6.73607919,1.62336246 8.7852263,0.904884317 10.9999702,0.904884317 C13.5526945,0.904884317 15.8850755,1.85908483 17.6645623,3.42679691 L17.544663,3.6412545 L17.0790917,3.82358868 L16.8827283,4.03668894 L16.9279733,4.28507969 L17.1682244,4.3185604 L17.3130085,4.68051413 L17.7274529,4.51356298 L17.7957729,4.99767609 L17.6708966,4.99767609 L17.330654,4.94745501 L16.9533105,5.01079691 L16.5881832,5.52658097 L16.0660556,5.60847302 L15.9904964,6.05548586 L16.2108397,6.10751668 L16.1470442,6.39481748 L15.6285362,6.29075579 L15.153011,6.39481748 L15.0521146,6.65949613 L15.1344605,7.21509512 L15.4136223,7.34585092 L15.8819084,7.34313624 L16.1981711,7.31463237 L16.294543,7.06307456 L16.7886186,6.42105911 L17.1139303,6.4875681 L17.4342651,6.19800511 L17.4939886,6.42422621 L18.2821569,6.95584576 L18.185785,7.08524422 L17.8306115,7.06624166 L17.9672515,7.25988687 L18.185785,7.30784574 L18.4418718,7.20106942 L18.4364424,6.89250387 L18.5500074,6.83549612 L18.4586125,6.73867349 L17.9328653,6.44549102 L17.7944155,6.05593829 L18.2314825,6.05593829 L18.3712896,6.19438558 L18.7477282,6.51878665 L18.763564,6.911054 L19.153576,7.32639587 L19.2988126,6.75722362 L19.5689254,6.60972751 L19.6195998,7.07529049 L19.8833783,7.36485348 L20.4095779,7.3558046 C20.5113792,7.61776863 20.6027742,7.88425705 20.6828579,8.15617482 L20.6281114,8.2068483 Z M5.99994263,4.99767609 L6.26417358,4.87189717 L6.5030673,4.92890488 L6.42072137,5.24968637 L6.16282475,5.3315784 L5.99994263,4.99767609 Z M7.40208592,5.75280203 L7.40208592,5.96047299 L6.79851729,5.96047299 L6.57229221,5.89758353 L6.62884848,5.75280203 L6.91886908,5.63290487 L7.31521547,5.63290487 L7.31521547,5.75280203 L7.40208592,5.75280203 Z M7.67989037,6.04236502 L7.67989037,6.24370178 L7.52877202,6.34097684 L7.34055269,6.37581492 C7.34055269,6.37581492 7.34055269,6.074036 7.34055269,6.04236502 L7.67989037,6.04236502 Z M7.50976912,5.96047299 L7.50976912,5.72113111 L7.71744374,5.91025194 L7.50976912,5.96047299 Z M7.6043312,6.44458611 L7.6043312,6.64049357 L7.45999955,6.78527507 L7.13921234,6.78527507 L7.18943434,6.56538817 L7.34100518,6.55226734 L7.37222423,6.47670951 L7.6043312,6.44458611 Z M6.80530405,6.04236502 L7.1387599,6.04236502 L6.71119441,6.64004114 L6.53473884,6.5454807 L6.57274464,6.29392289 L6.80530405,6.04236502 Z M8.17079889,6.37581492 L8.17079889,6.5712699 L7.85001168,6.5712699 L7.76223635,6.44458611 L7.76223635,6.26270434 L7.78757352,6.26270434 L8.17079889,6.37581492 Z M7.87444397,6.10706425 L7.96583894,6.01114653 L8.12012445,6.10706425 L7.99660556,6.20886376 L7.87444397,6.10706425 Z M20.7918984,8.71629818 L20.8235699,8.67919791 C20.8366909,8.73620566 20.8507169,8.79321334 20.8633855,8.85112594 L20.7918984,8.71629818 Z" id="Shape"></path>
                <path d="M1.69230769,7.26167708 L1.69230769,7.61538462 C1.86015699,7.32672675 2.04527473,7.04518366 2.24351648,6.76923077 L1.69230769,7.26167708 Z" id="Shape"></path>
            </g>
        </g>
    </g>
</svg>