<?xml version="1.0" encoding="UTF-8"?>
<svg width="44px" height="44px" viewBox="0 0 44 44" version="1.1" xmlns="http://www.w3.org/2000/svg" xmlns:xlink="http://www.w3.org/1999/xlink">
    <!-- Generator: Sketch 48.2 (47327) - http://www.bohemiancoding.com/sketch -->
    <title>Group 3</title>
    <desc>Created with Sketch.</desc>
    <defs></defs>
    <g id="question--create-copy-2" stroke="none" stroke-width="1" fill="none" fill-rule="evenodd" transform="translate(-138.000000, -93.000000)">
        <g id="Group-3" transform="translate(138.000000, 93.000000)">
            <circle id="Oval" fill="#5CBB5D" cx="22" cy="22" r="22"></circle>
            <g id="qouta-white" transform="translate(14.000000, 11.000000)" fill="#FFFFFF" fill-rule="nonzero">
                <path d="M10.6666957,5 L14,5 L10,0 L10,4.28571428 C10,4.71428571 10.3333478,5 10.6666957,5 Z" id="Shape"></path>
                <path d="M12.157914,12.5925926 C12.8210912,12.5925926 13.4105648,12.7407407 14,12.9629436 L14,5.92592592 L10.3157895,5.92592592 C9.50528242,5.92592592 8.84210527,5.25927863 8.84210527,4.44444444 L8.84210527,0 L1.47368421,0 C0.663138632,0 0,0.6666473 0,1.48148148 L0,18.5185185 C0,19.333314 0.663138632,20 1.47368421,20 L8.10526314,20 C7.66315788,19.2592593 7.36842106,18.3703704 7.36842106,17.407388 C7.3684596,14.7407601 9.50528242,12.5925926 12.157914,12.5925926 Z" id="Shape"></path>
                <path d="M12,14 C9.81819218,14 8,15.8181628 8,18.000019 C8,20.1818752 9.81819218,22 12,22 C14.1818078,22 16,20.1818372 16,17.999981 C16,15.8181248 14.1818078,14 12,14 Z M11.6363844,19.9636364 L9.89093812,18.2181818 L10.4000456,17.7090719 L11.5637145,18.8727463 L13.8182302,16.6181818 L14.3273377,17.1272918 L11.6363844,19.9636364 Z" id="Shape"></path>
            </g>
        </g>
    </g>
</svg>