<?xml version="1.0" encoding="UTF-8"?>
<svg width="44px" height="44px" viewBox="0 0 44 44" version="1.1" xmlns="http://www.w3.org/2000/svg" xmlns:xlink="http://www.w3.org/1999/xlink">
    <!-- Generator: Sketch 48.2 (47327) - http://www.bohemiancoding.com/sketch -->
    <title>Group 4</title>
    <desc>Created with Sketch.</desc>
    <defs></defs>
    <g id="question--create-copy-2" stroke="none" stroke-width="1" fill="none" fill-rule="evenodd" transform="translate(-280.000000, -93.000000)">
        <g id="Group-4" transform="translate(280.000000, 93.000000)">
            <circle id="Oval" fill="#0D73BA" cx="22" cy="22" r="22"></circle>
            <g id="ticketing-grey" transform="translate(11.000000, 12.000000)" fill="#FFFFFF" fill-rule="nonzero">
                <path d="M19.4025013,11.6458313 C19.3044495,12.1533648 18.8676732,12.5230668 18.3439872,12.5460311 C18.1790819,12.5529203 18.0386895,12.6769275 18.0074689,12.8445667 C17.9740422,13.012206 18.0564948,13.1821416 18.205801,13.2533309 C18.680461,13.4829738 18.9456467,13.9973736 18.8453664,14.5048842 L18.7517715,14.9871342 C18.6292067,15.6232447 17.9472785,16.0205268 17.350076,15.8689625 C17.1829421,15.8276268 17.0113514,15.7954769 16.8419892,15.7610304 C16.5924027,15.710509 16.3428163,15.6576912 16.0932297,15.6071698 C15.7633968,15.5382769 15.4335861,15.4717034 15.1037977,15.4028106 C14.7115903,15.3224356 14.3171545,15.2397412 13.9249472,15.1593662 C13.4859647,15.0675091 13.0469599,14.9779714 12.6079328,14.8861143 C12.1399582,14.7896643 11.6697551,14.6932143 11.2017804,14.5944679 C10.7204128,14.4957215 10.2390897,14.3946787 9.75997279,14.2959322 C9.28308437,14.1971858 8.80842435,14.0984165 8.33151362,13.999693 C7.87693193,13.9055394 7.42230574,13.8113859 6.96772404,13.7172323 C6.55100375,13.6322645 6.13651192,13.5450003 5.71979168,13.4600324 C5.35878264,13.3865467 4.99777363,13.3107646 4.63899306,13.2372789 C4.35152292,13.1775718 4.06405278,13.1178876 3.77435418,13.0581575 C3.57602207,13.0168218 3.37766767,12.9754861 3.17935784,12.9341734 C3.08796908,12.9157789 2.99662488,12.895134 2.9052584,12.8767626 C2.9008015,12.8767626 2.8963446,12.8744432 2.89186542,12.8744432 C2.94089133,13.1132718 2.91860682,13.3681753 2.81164119,13.6070038 C2.58654538,14.1076251 2.06285946,14.369418 1.55925189,14.2683751 C1.40994569,14.2385215 1.24726878,14.2959322 1.18264371,14.4383108 L0.98208315,14.8861143 C0.917480364,15.0284699 0.98208315,15.1938127 1.10021332,15.2925591 C1.12249783,15.3109535 17.1851706,22.9419841 17.2118897,22.9488504 C17.3611959,22.978704 17.5238728,22.9212933 17.5884979,22.7789148 L17.7890584,22.3311112 C17.8536835,22.1887557 17.7890584,22.0234128 17.6709506,21.9246664 C17.2698295,21.5962543 17.1227294,21.0152579 17.3478252,20.5146596 C17.5728987,20.0140383 18.0965847,19.7522454 18.6002145,19.8532883 C18.7494985,19.8831419 18.9121976,19.8257312 18.9768004,19.6833526 L19.177361,19.2355491 C19.241986,19.0931706 19.177361,18.9278507 19.0592531,18.8290813 C18.658132,18.5006921 18.5110542,17.9196958 18.7361277,17.4190975 C18.9612013,16.9184991 19.4848872,16.6566833 19.9885171,16.7577262 C20.1378232,16.7875797 20.3005001,16.730169 20.3651252,16.5877905 L20.5656858,16.139987 C20.6302886,15.9976085 20.5656858,15.8322656 20.4475556,15.7335192 C20.0464345,15.40513 19.8993567,14.8241337 20.1244302,14.3235123 C20.3495261,13.822891 20.873212,13.5611212 21.3768196,13.662141 C21.5261257,13.6919946 21.6888027,13.6345839 21.7534277,13.4922284 L21.9740221,12.9961769 C22.0386471,12.8537983 21.978479,12.6861591 21.840315,12.6195857 L19.4402959,11.4782609 L19.4025013,11.6458313 Z" id="Shape"></path>
                <path d="M0.211780864,10.8490866 C0.238644296,10.8624833 17.6573407,14.3478261 17.6864428,14.3478261 C17.8386913,14.3411277 17.9864178,14.2473511 18.0155198,14.0999878 L18.1095418,13.6311046 C18.1386439,13.4815086 18.0401446,13.3386108 17.9013502,13.2738602 C17.4357174,13.0550481 17.1603449,12.5415093 17.2655824,12.014574 C17.3707974,11.4876385 17.8252371,11.1192303 18.3401196,11.0969025 C18.4923457,11.0902042 18.6400946,10.9964276 18.6691966,10.8490642 L18.7385939,10.5052166 L18.763241,10.3779483 C18.7923431,10.2283522 18.6938215,10.0854545 18.5550494,10.0207039 C18.0893943,9.80189176 17.8140441,9.28835301 17.9192816,8.76143991 C18.0244967,8.23448218 18.4789364,7.86607395 18.9938188,7.8437462 C19.1460449,7.83704786 19.2937938,7.74327122 19.3228959,7.59590792 L19.4169179,7.1270247 C19.4460199,6.97742867 19.3474982,6.83453092 19.2087039,6.76978036 C18.7430711,6.55096821 18.4677209,6.03742945 18.5729584,5.51049407 C18.6781735,4.98355864 19.1326132,4.61515041 19.6474957,4.59282264 C19.7997217,4.5861243 19.9474482,4.49234766 19.9765726,4.34498437 L20.0817654,3.82474729 C20.1108898,3.67515122 20.0146068,3.53002071 19.8646417,3.5009946 C19.8646417,3.5009946 2.36087773,0 2.34296878,0 C2.21312887,0 2.09895928,0.091543864 2.07209585,0.221044939 L1.96688075,0.741282022 C1.9377787,0.89087809 2.03627794,1.03377583 2.17507234,1.09852637 C2.64070515,1.31733853 2.91605531,1.83087728 2.81084021,2.35781269 C2.7056251,2.8847481 2.25118539,3.25315633 1.73630296,3.27548411 C1.58405447,3.28218244 1.43632798,3.37595908 1.40722593,3.52332237 L1.31320392,3.99220558 C1.28410188,4.14180165 1.38260112,4.28469939 1.52139552,4.34944992 C1.98702832,4.56826209 2.26240088,5.08180083 2.15716339,5.60873627 C2.05194828,6.13567166 1.59750857,6.50407989 1.08262614,6.52640769 C0.93040003,6.53310597 0.782651163,6.62688262 0.753549111,6.77424592 L0.6595271,7.24312914 C0.630425053,7.39272523 0.728946685,7.53562297 0.867718692,7.60037348 C1.33337389,7.81918563 1.60872405,8.33272439 1.50348656,8.85965982 C1.39827146,9.38661755 0.94383175,9.75502579 0.428949319,9.77735353 C0.276723209,9.78405187 0.128974339,9.87782851 0.0998722882,10.0251918 L0.00585027934,10.494075 C-0.0255127764,10.6436711 0.0729640844,10.784336 0.211780864,10.8490866 Z M15.1321782,5.12647871 C15.1926209,4.82505379 15.4881187,4.6285694 15.7903323,4.68885438 C16.0925459,4.74913937 16.2895444,5.04386595 16.2291016,5.34529087 L15.4903573,9.01151098 L15.0359176,11.2710815 C14.9821907,11.536782 14.7493743,11.719892 14.4874559,11.719892 C14.4516156,11.719892 14.4135814,11.7154265 14.3777635,11.7087281 C14.0755499,11.6484431 13.8785514,11.3537166 13.9389941,11.0522916 L14.4471607,8.53148621 L15.1321782,5.12647871 Z M5.0404826,3.10581537 C5.10092532,2.80439045 5.39642306,2.60790606 5.69863665,2.66819104 C6.00085028,2.72847603 6.19784874,3.02320261 6.13740606,3.32462753 L5.88220343,4.59061219 L5.59344394,6.0262879 L5.36062754,7.18286649 L4.94648298,9.25041815 C4.8927785,9.51611862 4.65993971,9.69922869 4.39802126,9.69922869 C4.36220335,9.69922869 4.32414682,9.69476313 4.2883513,9.68806479 C4.27268097,9.68580967 4.25701063,9.68134411 4.24357892,9.67690089 C3.96599013,9.59649858 3.79359406,9.31740143 3.85182055,9.03162829 L3.93462707,8.61409895 L4.15177314,7.53343483 L5.0404826,3.10581537 Z" id="Shape"></path>
            </g>
        </g>
    </g>
</svg>